<svg width="48" height="41" viewBox="0 0 48 41" fill="none" xmlns="http://www.w3.org/2000/svg">
<g clip-path="url(#clip0_2004_18175)">
<path d="M19.6116 22.7957V40.2133H0.17627V26.4625C0.17627 19.0177 1.24933 13.6301 3.40007 10.295C6.21916 5.85134 10.6825 2.49075 16.7925 0.210938L21.2235 6.04384C17.5302 7.32174 14.8106 9.22584 13.0669 11.7515C11.3208 14.2795 10.3472 17.9601 10.146 22.7934H19.6116V22.7957Z" fill="#EBECF0"/>
<path d="M46.2136 22.7957V40.2133H26.7783V26.4625C26.7783 19.0177 27.8514 13.6301 29.9998 10.295C32.8189 5.85134 37.2846 2.49075 43.3945 0.210938L47.8255 6.04384C44.1323 7.32174 41.4149 9.22584 39.6689 11.7515C37.9229 14.2795 36.9493 17.9601 36.7481 22.7934H46.2136V22.7957Z" fill="#EBECF0"/>
</g>
<defs>
<clipPath id="clip0_2004_18175">
<rect width="47.6471" height="40" fill="white" transform="translate(0.17627 0.210938)"/>
</clipPath>
</defs>
</svg>
