<svg width="215" height="41" viewBox="0 0 215 41" fill="none" xmlns="http://www.w3.org/2000/svg">
<g clip-path="url(#clip0_2004_13745)">
<path fill-rule="evenodd" clip-rule="evenodd" d="M112.382 27.9969V12.1398H126.339C127.553 12.1398 128.525 12.3969 129.125 12.9112C129.653 13.3398 129.996 14.1969 129.996 15.2112V18.7969C129.996 19.8255 129.653 20.6683 129.125 21.0969C128.511 21.6112 127.553 21.8683 126.339 21.8683H116.125V28.0112H112.368L112.382 27.9969ZM124.596 14.8683H116.139V19.1255H124.596C125.296 19.1255 125.725 19.0398 125.996 18.7826C126.168 18.6112 126.339 18.2683 126.339 17.8398V16.1398C126.339 15.7112 126.168 15.3683 125.996 15.1969C125.739 14.9398 125.296 14.8541 124.596 14.8541V14.8683Z" fill="#828282"/>
<path fill-rule="evenodd" clip-rule="evenodd" d="M133.168 27.9969V12.1398H147.04C148.354 12.1398 149.311 12.3969 149.911 12.9112C150.44 13.3398 150.782 14.1969 150.782 15.2112V18.9683C150.782 20.0826 150.44 20.8398 149.911 21.2683C149.297 21.7826 148.34 22.0398 147.04 22.0398H144.94L152.44 28.0112H147.025L140.482 22.0398H136.897V28.0112H133.154L133.168 27.9969ZM145.382 14.8683H136.911V19.2969H145.382C146.082 19.2969 146.511 19.2112 146.782 19.0398C146.954 18.8683 147.14 18.5255 147.14 18.0112V16.1398C147.14 15.7112 146.968 15.3683 146.782 15.1969C146.525 14.9398 146.082 14.8541 145.382 14.8541V14.8683Z" fill="#828282"/>
<path fill-rule="evenodd" clip-rule="evenodd" d="M155.253 27.9969V12.1398H171.911V14.8683H159.082V18.3683H166.582V21.0969H159.082V25.0255H172.082V28.0112H155.253V27.9969Z" fill="#828282"/>
<path fill-rule="evenodd" clip-rule="evenodd" d="M189.811 14.9541H179.168V18.3684H189.282C190.854 18.3684 191.982 18.6255 192.511 19.1398C193.125 19.6541 193.382 20.6827 193.382 22.1255V24.2541C193.382 25.697 193.125 26.7255 192.511 27.2398C191.982 27.7541 190.854 28.0113 189.282 28.0113H179.254C177.682 28.0113 176.639 27.7541 176.025 27.2398C175.511 26.7255 175.239 25.697 175.239 24.2541V23.8256L178.554 23.1398V25.0113H189.982V21.4255H179.868C178.296 21.4255 177.254 21.1684 176.725 20.5684C176.111 20.0541 175.854 19.1113 175.854 17.6684V15.8827C175.854 14.4398 176.111 13.497 176.725 12.9827C177.254 12.3827 178.296 12.1255 179.868 12.1255H189.111C190.682 12.1255 191.725 12.3827 192.254 12.897C192.868 13.4113 193.125 14.3541 193.125 15.6255V15.9684L189.811 16.7398V14.9541Z" fill="#828282"/>
<path fill-rule="evenodd" clip-rule="evenodd" d="M211.311 14.9541H200.668V18.3684H210.782C212.354 18.3684 213.397 18.6255 214.011 19.1398C214.54 19.6541 214.797 20.6827 214.797 22.1255V24.2541C214.797 25.697 214.54 26.7255 214.011 27.2398C213.397 27.7541 212.354 28.0113 210.782 28.0113H200.754C199.182 28.0113 198.054 27.7541 197.525 27.2398C196.911 26.7255 196.654 25.697 196.654 24.2541V23.8256L199.968 23.1398V25.0113H211.482V21.4255H201.368C199.797 21.4255 198.754 21.1684 198.14 20.5684C197.611 20.0541 197.354 19.1113 197.354 17.6684V15.8827C197.354 14.4398 197.611 13.497 198.14 12.9827C198.754 12.3827 199.797 12.1255 201.368 12.1255H210.611C212.097 12.1255 213.14 12.3827 213.754 12.897C214.368 13.4113 214.625 14.3541 214.625 15.6255V15.9684L211.311 16.7398V14.9541Z" fill="#828282"/>
<path fill-rule="evenodd" clip-rule="evenodd" d="M87.8107 27.9969L95.4821 19.8969L87.625 12.1398H92.6821L97.825 17.5112L102.796 12.1398H107.068L100.011 19.4683L108.825 27.9969H103.682L97.7536 21.8541L92.2536 27.9969H87.8107Z" fill="#828282"/>
<path fill-rule="evenodd" clip-rule="evenodd" d="M9.93931 27.9969L0.510742 12.1398H4.86788L11.4107 23.6541L17.6965 12.1398H21.4536L12.5536 27.9969H9.93931Z" fill="#828282"/>
<path fill-rule="evenodd" clip-rule="evenodd" d="M24.4108 27.9969V12.1398H26.9393L38.3679 21.5255C38.8108 21.8683 39.1536 22.1255 39.4108 22.3826C39.7536 22.6398 40.0251 22.9826 40.2822 23.2398C40.1965 22.3826 40.1108 21.6969 40.1108 21.3683V12.1541H43.5108V28.0112H40.8965L28.9393 18.1969C28.6822 17.9398 28.4108 17.7683 28.2393 17.5112C27.9822 17.3398 27.8108 17.1683 27.6251 16.9112C27.7108 17.4255 27.7108 17.8541 27.7108 18.3541C27.7965 18.7826 27.7965 19.1255 27.7965 19.4683V27.9969H24.3965H24.4108Z" fill="#828282"/>
<path fill-rule="evenodd" clip-rule="evenodd" d="M83.6823 38.3111C83.6823 39.3682 82.8109 40.2111 81.7395 40.2111H49.2681C48.1966 40.2111 47.3252 39.3539 47.3252 38.3111V2.11106C47.3252 1.05392 48.1966 0.21106 49.2681 0.21106H81.7395C82.8109 0.21106 83.6823 1.0682 83.6823 2.11106V38.2968V38.3111Z" fill="#9F224E"/>
<path fill-rule="evenodd" clip-rule="evenodd" d="M58.9967 15.5111V17.3539H68.0824V23.0682H58.9967V30.0539H78.4824V35.1397H52.511V5.2968H78.4824V10.3825H58.9967V15.5254V15.5111ZM60.9395 12.2682H78.6538C79.7253 12.2682 80.411 11.4825 80.411 10.4254V5.33965C80.411 4.28251 79.7253 3.36823 78.6538 3.36823H52.6824C51.611 3.36823 50.5396 4.28251 50.5396 5.33965V35.1825C50.5396 36.2397 51.5967 37.0254 52.6824 37.0254H78.6538C79.7253 37.0254 80.411 36.2397 80.411 35.1825V30.0968C80.411 29.0397 79.7253 28.1254 78.6538 28.1254H60.9395V24.9539H68.2681C69.3395 24.9539 70.0253 24.1682 70.0253 23.1111V17.3968C70.0253 16.3397 69.3395 15.4254 68.2681 15.4254H60.9395V12.2539V12.2682Z" fill="white"/>
</g>
<defs>
<clipPath id="clip0_2004_13745">
<rect width="214.286" height="40" fill="white" transform="translate(0.510742 0.210938)"/>
</clipPath>
</defs>
</svg>
