<svg width="155" height="41" viewBox="0 0 155 41" fill="none" xmlns="http://www.w3.org/2000/svg">
<g clip-path="url(#clip0_2004_13756)">
<path d="M29.0015 14.5614C29.5362 13.2954 30.2597 12.0923 31.1482 11.0072C31.5728 10.4883 32.0367 9.99287 32.5242 9.53681C31.5728 8.56964 30.4955 7.72041 29.3082 7.02059C26.045 5.09411 22.1842 4.39429 18.4413 5.0548C14.6984 5.70744 11.3173 7.6811 8.94257 10.5905C6.56003 13.5077 5.34124 17.1641 5.51423 20.8912C5.67935 24.6184 7.22054 28.1647 9.8547 30.8618C12.481 33.5588 16.0273 35.2337 19.8173 35.5639C23.6074 35.8942 27.3896 34.8641 30.472 32.6703C31.219 32.1356 31.9109 31.5458 32.54 30.9011C32.367 30.7438 32.2019 30.5787 32.0367 30.4057C30.7472 29.0768 29.725 27.5435 29.0251 25.8765C28.4433 26.6471 27.7434 27.339 26.9335 27.9131C25.0306 29.2734 22.6953 29.9024 20.352 29.698C18.0088 29.4936 15.8229 28.4635 14.203 26.7965C12.5754 25.1295 11.6239 22.9435 11.5217 20.6396C11.4195 18.3357 12.1743 16.079 13.6448 14.2783C15.1152 12.4776 17.1989 11.2667 19.5107 10.8578C21.8225 10.4489 24.2129 10.8814 26.2258 12.0766C27.3267 12.7293 28.2703 13.5785 29.0251 14.5771L29.0015 14.5614Z" fill="#D11414"/>
<path d="M34.0731 32.159C33.334 32.9296 32.5162 33.6294 31.6355 34.2663C28.1679 36.7511 23.8903 37.907 19.6127 37.5374C15.3352 37.16 11.3407 35.2807 8.3684 32.2297C5.40398 29.1867 3.65835 25.1843 3.46964 20.9775C3.28092 16.7707 4.65698 12.6347 7.33832 9.34789C10.0197 6.06108 13.8333 3.8358 18.0637 3.09666C22.2941 2.35752 26.6503 3.14384 30.3303 5.32194C31.7142 6.13971 32.9723 7.13047 34.0653 8.27063C34.8044 7.75166 35.5907 7.2956 36.4085 6.9103C35.056 5.42416 33.4755 4.12674 31.7063 3.0888C27.4838 0.58044 22.4671 -0.331689 17.6076 0.525398C12.7403 1.37462 8.36053 3.93016 5.27031 7.71235C2.18008 11.4945 0.599578 16.2518 0.811884 21.0876C1.03205 25.9313 3.0293 30.5313 6.44192 34.0304C9.85454 37.5295 14.4545 39.6998 19.369 40.1322C24.2913 40.5647 29.2058 39.228 33.2003 36.3736C34.3798 35.5323 35.457 34.573 36.4164 33.5193C35.5986 33.134 34.8123 32.6779 34.0731 32.159Z" fill="#505050"/>
<path d="M54.5098 31.9152H48.4866V30.0359C46.6073 31.6242 44.4371 32.3948 41.9838 32.3948C38.3746 32.3948 35.4259 31.0974 33.1692 28.4396C31.1955 26.1279 30.1812 23.3758 30.1812 20.2462C30.1812 16.8257 31.2899 13.9321 33.5545 11.5653C35.7719 9.2063 38.4689 8.05042 41.6535 8.05042C44.3034 8.05042 46.568 8.82101 48.4945 10.4094V8.53007H54.5177V31.9152H54.5098ZM42.4634 13.8377C40.6785 13.8377 39.2317 14.4589 38.0836 15.7642C36.9749 17.0144 36.4481 18.5163 36.4481 20.2462C36.4481 22.0783 37.03 23.5723 38.2252 24.7754C39.3811 25.9863 40.8279 26.6075 42.605 26.6075C45.0111 26.6075 48.7068 25.1764 48.7068 20.2148C48.7068 15.2531 45.0819 13.8377 42.4634 13.8377Z" fill="#D11414"/>
<path fill-rule="evenodd" clip-rule="evenodd" d="M98.2054 23.5097H80.8435C81.0951 23.9343 81.386 24.3353 81.7399 24.7049C82.8958 25.9552 84.3898 26.5842 86.1747 26.5842C87.6608 26.5842 88.9425 26.1439 90.0277 25.2789L95.0915 28.7623C95.0915 28.7623 95.0601 28.7938 95.0444 28.8095C92.6775 31.1685 89.6974 32.3794 86.1747 32.3794C82.652 32.3794 79.664 31.1685 77.305 28.8095C75.7481 27.284 74.6945 25.5227 74.1598 23.5176H62.8446V31.8997H56.3418V15.2927C56.3418 11.5498 59.377 8.51463 63.1199 8.51463H74.4035V14.3019H64.0241C63.3793 14.3019 62.8604 14.8288 62.8604 15.4657V18.2886H73.9003C74.2777 15.7173 75.4257 13.4999 77.3286 11.6049C79.6954 9.2459 82.6756 8.03497 86.1983 8.03497C89.721 8.03497 92.709 9.2459 95.0679 11.6049C97.4269 13.9638 98.6378 16.8103 98.6378 20.2308C98.6378 21.3945 98.4963 22.4875 98.2211 23.5176L98.2054 23.5097ZM86.1904 13.8144C84.4055 13.8144 82.9115 14.4356 81.7556 15.6937C81.0479 16.4329 80.5525 17.3057 80.2773 18.2807H92.1035C91.8283 17.3057 91.3565 16.4329 90.6724 15.6937C89.4694 14.4435 87.9754 13.8144 86.1904 13.8144Z" fill="#D11414"/>
<path d="M100.171 31.884V0.21106H106.438V10.1894C108.27 8.74261 110.488 8.0192 113.036 8.0192C116.212 8.0192 118.917 9.17509 121.174 11.534C123.391 13.9009 124.5 16.7945 124.5 20.215C124.5 23.3524 123.486 26.0967 121.512 28.4084C119.247 31.0583 116.307 32.3636 112.697 32.3636C110.236 32.3636 108.074 31.593 106.195 30.0047V31.884H100.171ZM106.438 23.6905C107.791 25.617 109.662 26.5842 112.076 26.5842C113.853 26.5842 115.308 25.963 116.456 24.752C117.667 23.5411 118.233 22.055 118.233 20.2229C118.233 18.4851 117.698 16.9911 116.598 15.7408C115.442 14.4434 113.995 13.8144 112.218 13.8144C109.812 13.8144 107.877 14.7815 106.438 16.708V23.6984V23.6905Z" fill="#505050"/>
<path d="M131.734 31.8834H125.467V8.50616H131.734V31.8913V31.8834Z" fill="#505050"/>
<path d="M153.224 12.3597L141.901 26.5842H154.183V31.8839H133.464V28.0231L144.645 13.7986H134.431V8.49884H153.224V12.3597Z" fill="#505050"/>
</g>
<defs>
<clipPath id="clip0_2004_13756">
<rect width="153.395" height="40" fill="white" transform="translate(0.796387 0.210938)"/>
</clipPath>
</defs>
</svg>
