<svg width="206" height="257" viewBox="0 0 206 257" fill="none" xmlns="http://www.w3.org/2000/svg">
<g clip-path="url(#clip0_2004_13801)">
<path d="M175.819 136.037C183.877 165.715 174.216 197.223 154.727 215.851C154.727 215.851 146.693 220.869 125.662 226.579C104.631 232.289 93.3855 232.506 93.3855 232.506C68.1523 225.613 44.4343 202.63 36.6154 173.832C33.3496 161.803 32.8355 149.741 34.6868 138.403C45.0783 119.757 55.6629 106.455 66.417 97.5577C74.2537 91.0667 106.406 82.3372 114.619 83.7287C129.302 86.2142 144.282 93.8404 159.551 104.501C166.882 113.345 172.543 124.026 175.809 136.054L175.819 136.037Z" fill="#8EA13B"/>
<path d="M150.804 139.105C142.235 107.544 105.789 80.2794 77.7696 97.5733C45.1792 117.679 24.4359 134.99 35.7548 170.342C36.3357 172.163 60.2495 225.737 107.378 218.497C149.36 212.058 159.373 170.667 150.804 139.105Z" fill="#ADBE34"/>
<path d="M71.8214 146.267C79.3775 142.151 83.2502 137.885 90.8728 144.076C97.6346 149.6 106.059 153.741 114.128 148.103C119.929 144.23 118.117 135.748 123.131 131.638C126.491 128.893 142.879 142.13 150.585 129.246C152.669 125.742 150.988 116.09 155.033 114.483C160.394 112.344 161.112 108.44 159.578 104.493C144.619 93.109 129.849 85.8329 115.162 83.3338C106.932 81.9324 73.512 90.8899 65.6752 97.3809C54.9212 106.278 44.8405 118.614 34.7139 138.395C40.5948 148.288 63.274 150.886 71.8349 146.264L71.8214 146.267Z" fill="white"/>
<path d="M84.4177 112.741C84.1498 110.05 85.0129 98.1081 80.0404 100.825C74.8561 103.615 74.215 138.258 72.3202 144.75C72.2016 145.219 72.0868 145.701 71.9719 146.183C78.9785 142.332 82.8182 138.424 89.5478 143.083C89.3391 141.569 89.1513 140.079 88.9475 138.636C87.7456 130.003 85.6367 121.384 84.4349 112.751L84.4177 112.741Z" fill="#F4EBB8"/>
<path d="M110.558 83.8421C102.94 88.8484 120.695 92.4779 129.373 101.757C138.047 111.023 143.185 117.86 148.791 131.638C155.198 125.259 151.265 114.822 155.033 114.483C157.166 114.297 161.569 111.559 159.578 104.493C158.819 101.805 141.862 92.9122 141.379 92.6796C136.611 90.2944 118.08 78.9056 110.562 83.8556L110.558 83.8421Z" fill="#F4EBB8"/>
<path d="M107.524 97.7414C105.879 95.89 100.164 89.1659 98.4687 94.6876C97.4711 97.7219 102.497 105.317 104.099 107.863C107.813 113.981 111.168 120.43 114.722 126.81C116.537 129.982 118.331 133.233 119.947 136.575C120.62 134.691 121.521 132.948 123.108 131.659C125.27 129.88 132.851 134.744 140.013 134.981C133.597 128.549 127.659 121.479 121.941 114.741C117.007 109.187 112.646 103.244 107.51 97.745L107.524 97.7414Z" fill="#F4EBB8"/>
<path d="M115.568 88.663C116.241 91.1419 106.301 96.0079 93.3485 99.5245C80.3962 103.041 69.3599 103.871 68.6868 101.392C68.0138 98.9129 77.9542 94.0469 90.9065 90.5303C103.859 87.0136 114.895 86.1842 115.568 88.663Z" fill="#AA7B37"/>
<path d="M63.5674 24.2872L90.5587 99.8457C92.1977 99.5462 93.9297 99.1632 95.7119 98.752L68.4827 22.5309C67.9962 21.1649 63.0808 22.9213 63.5674 24.2872Z" fill="#FEFDF1"/>
<path d="M65.311 29.166L71.3183 30.4729L73.9482 37.8163L67.9409 36.5094L65.311 29.166Z" fill="#DD409B"/>
<path d="M70.7559 44.428L76.7766 45.7312L79.3931 53.0782L73.3858 51.7714L70.7559 44.428Z" fill="#DD409B"/>
<path d="M84.8515 68.3365L78.8442 67.0297L76.2144 59.6863L82.2351 60.9895L84.8515 68.3365Z" fill="#DD409B"/>
<path d="M90.3096 83.5949L84.2888 82.2916L81.6724 74.9446L87.6833 76.265L90.3096 83.5949Z" fill="#DD409B"/>
<path d="M95.7544 98.8568L89.7471 97.5499L87.1172 90.2065L93.1416 91.5233L95.7544 98.8568Z" fill="#DD409B"/>
<path d="M34.3876 38.6384L89.9331 99.4048C88.2124 100.308 86.5638 101.105 85.0241 101.77L30.5501 42.1819C29.579 41.1075 33.4164 37.564 34.3876 38.6384Z" fill="white"/>
<path d="M34.0283 45.9935L40.0812 44.8592L45.3276 50.605L39.2919 51.7492L34.0283 45.9935Z" fill="#7EABF2"/>
<path d="M44.9512 57.9502L51.0003 56.8023L56.2468 62.5481L50.2111 63.6923L44.9512 57.9502Z" fill="#7EABF2"/>
<path d="M67.1657 74.4912L61.13 75.6354L55.8701 69.8933L61.9193 68.7454L67.1657 74.4912Z" fill="#7EABF2"/>
<path d="M78.0883 86.4477L72.049 87.5784L66.7891 81.8363L72.8382 80.6884L78.0883 86.4477Z" fill="#7EABF2"/>
<path d="M89.0073 98.3908L82.9716 99.5351L77.708 93.7794L83.7609 92.6451L89.0073 98.3908Z" fill="#7EABF2"/>
</g>
<defs>
<clipPath id="clip0_2004_13801">
<rect width="152" height="224" fill="white" transform="translate(0.308594 40.1101) rotate(-15.1902)"/>
</clipPath>
</defs>
</svg>
