<svg width="1920" height="970" viewBox="0 0 1920 970" fill="none" xmlns="http://www.w3.org/2000/svg">
    <g clip-path="url(#clip0_134_2259)">
        <rect width="1920" height="969.627" transform="translate(0 0.1875)" fill="url(#paint0_linear_134_2259)" />
        <g filter="url(#filter0_f_134_2259)">
            <rect x="1260" y="804.37" width="384" height="384" rx="192" fill="url(#paint1_linear_134_2259)" />
        </g>
        <g clip-path="url(#clip1_134_2259)">
            <path
                d="M121.668 169.37C124.79 169.37 127.336 171.916 127.336 175.038C127.336 178.16 124.79 180.706 121.668 180.706C118.545 180.706 116 178.16 116 175.038C116 171.916 118.545 169.37 121.668 169.37Z"
                fill="url(#paint2_linear_134_2259)" />
            <path
                d="M153.91 169.37C157.033 169.37 159.578 171.916 159.578 175.038C159.578 178.16 157.033 180.706 153.91 180.706C150.788 180.706 148.243 178.16 148.243 175.038C148.243 171.916 150.788 169.37 153.91 169.37Z"
                fill="url(#paint3_linear_134_2259)" />
            <path
                d="M186.153 169.37C189.276 169.37 191.821 171.916 191.821 175.038C191.821 178.16 189.276 180.706 186.153 180.706C183.031 180.706 180.485 178.16 180.485 175.038C180.485 171.916 183.031 169.37 186.153 169.37Z"
                fill="url(#paint4_linear_134_2259)" />
            <path
                d="M218.396 169.37C221.518 169.37 224.064 171.916 224.064 175.038C224.064 178.16 221.518 180.706 218.396 180.706C215.273 180.706 212.728 178.16 212.728 175.038C212.728 171.916 215.273 169.37 218.396 169.37Z"
                fill="url(#paint5_linear_134_2259)" />
            <path
                d="M250.638 169.37C253.761 169.37 256.306 171.916 256.306 175.038C256.306 178.16 253.761 180.706 250.638 180.706C247.516 180.706 244.97 178.16 244.97 175.038C244.97 171.916 247.516 169.37 250.638 169.37Z"
                fill="url(#paint6_linear_134_2259)" />
            <path
                d="M282.881 169.37C286.003 169.37 288.549 171.916 288.549 175.038C288.549 178.16 286.003 180.706 282.881 180.706C279.758 180.706 277.213 178.16 277.213 175.038C277.213 171.916 279.758 169.37 282.881 169.37Z"
                fill="url(#paint7_linear_134_2259)" />
            <path
                d="M315.123 169.37C318.246 169.37 320.791 171.916 320.791 175.038C320.791 178.16 318.246 180.706 315.123 180.706C312.001 180.706 309.456 178.16 309.456 175.038C309.456 171.916 312.001 169.37 315.123 169.37Z"
                fill="url(#paint8_linear_134_2259)" />
            <path
                d="M347.366 169.37C350.488 169.37 353.034 171.916 353.034 175.038C353.034 178.16 350.488 180.706 347.366 180.706C344.244 180.706 341.698 178.16 341.698 175.038C341.698 171.916 344.244 169.37 347.366 169.37Z"
                fill="url(#paint9_linear_134_2259)" />
            <path
                d="M121.668 201.613C124.79 201.613 127.336 204.158 127.336 207.281C127.336 210.403 124.79 212.949 121.668 212.949C118.545 212.949 116 210.403 116 207.281C116 204.158 118.545 201.613 121.668 201.613Z"
                fill="url(#paint10_linear_134_2259)" />
            <path
                d="M153.91 201.613C157.033 201.613 159.578 204.158 159.578 207.281C159.578 210.403 157.033 212.949 153.91 212.949C150.788 212.949 148.243 210.403 148.243 207.281C148.243 204.158 150.788 201.613 153.91 201.613Z"
                fill="url(#paint11_linear_134_2259)" />
            <path
                d="M186.153 201.613C189.276 201.613 191.821 204.158 191.821 207.281C191.821 210.403 189.276 212.949 186.153 212.949C183.031 212.949 180.485 210.403 180.485 207.281C180.485 204.158 183.031 201.613 186.153 201.613Z"
                fill="url(#paint12_linear_134_2259)" />
            <path
                d="M218.396 201.613C221.518 201.613 224.064 204.158 224.064 207.281C224.064 210.403 221.518 212.949 218.396 212.949C215.273 212.949 212.728 210.403 212.728 207.281C212.728 204.158 215.273 201.613 218.396 201.613Z"
                fill="url(#paint13_linear_134_2259)" />
            <path
                d="M250.638 201.613C253.761 201.613 256.306 204.158 256.306 207.281C256.306 210.403 253.761 212.949 250.638 212.949C247.516 212.949 244.97 210.403 244.97 207.281C244.97 204.158 247.516 201.613 250.638 201.613Z"
                fill="url(#paint14_linear_134_2259)" />
            <path
                d="M282.881 201.613C286.003 201.613 288.549 204.158 288.549 207.281C288.549 210.403 286.003 212.949 282.881 212.949C279.758 212.949 277.213 210.403 277.213 207.281C277.213 204.158 279.758 201.613 282.881 201.613Z"
                fill="url(#paint15_linear_134_2259)" />
            <path
                d="M315.123 201.613C318.246 201.613 320.791 204.158 320.791 207.281C320.791 210.403 318.246 212.949 315.123 212.949C312.001 212.949 309.456 210.403 309.456 207.281C309.456 204.158 312.001 201.613 315.123 201.613Z"
                fill="url(#paint16_linear_134_2259)" />
            <path
                d="M347.366 201.613C350.488 201.613 353.034 204.158 353.034 207.281C353.034 210.403 350.488 212.949 347.366 212.949C344.244 212.949 341.698 210.403 341.698 207.281C341.698 204.158 344.244 201.613 347.366 201.613Z"
                fill="url(#paint17_linear_134_2259)" />
            <path
                d="M121.668 233.855C124.79 233.855 127.336 236.401 127.336 239.523C127.336 242.646 124.79 245.191 121.668 245.191C118.545 245.191 116 242.646 116 239.523C116 236.401 118.545 233.855 121.668 233.855Z"
                fill="url(#paint18_linear_134_2259)" />
            <path
                d="M153.91 233.855C157.033 233.855 159.578 236.401 159.578 239.523C159.578 242.646 157.033 245.191 153.91 245.191C150.788 245.191 148.243 242.646 148.243 239.523C148.243 236.401 150.788 233.855 153.91 233.855Z"
                fill="url(#paint19_linear_134_2259)" />
            <path
                d="M186.153 233.855C189.276 233.855 191.821 236.401 191.821 239.523C191.821 242.646 189.276 245.191 186.153 245.191C183.031 245.191 180.485 242.646 180.485 239.523C180.485 236.401 183.031 233.855 186.153 233.855Z"
                fill="url(#paint20_linear_134_2259)" />
            <path
                d="M218.396 233.855C221.518 233.855 224.064 236.401 224.064 239.523C224.064 242.646 221.518 245.191 218.396 245.191C215.273 245.191 212.728 242.646 212.728 239.523C212.728 236.401 215.273 233.855 218.396 233.855Z"
                fill="url(#paint21_linear_134_2259)" />
            <path
                d="M250.638 233.855C253.761 233.855 256.306 236.401 256.306 239.523C256.306 242.646 253.761 245.191 250.638 245.191C247.516 245.191 244.97 242.646 244.97 239.523C244.97 236.401 247.516 233.855 250.638 233.855Z"
                fill="url(#paint22_linear_134_2259)" />
            <path
                d="M282.881 233.855C286.003 233.855 288.549 236.401 288.549 239.523C288.549 242.646 286.003 245.191 282.881 245.191C279.758 245.191 277.213 242.646 277.213 239.523C277.213 236.401 279.758 233.855 282.881 233.855Z"
                fill="url(#paint23_linear_134_2259)" />
            <path
                d="M315.123 233.855C318.246 233.855 320.791 236.401 320.791 239.523C320.791 242.646 318.246 245.191 315.123 245.191C312.001 245.191 309.456 242.646 309.456 239.523C309.456 236.401 312.001 233.855 315.123 233.855Z"
                fill="url(#paint24_linear_134_2259)" />
            <path
                d="M347.366 233.855C350.488 233.855 353.034 236.401 353.034 239.523C353.034 242.646 350.488 245.191 347.366 245.191C344.244 245.191 341.698 242.646 341.698 239.523C341.698 236.401 344.244 233.855 347.366 233.855Z"
                fill="url(#paint25_linear_134_2259)" />
            <path
                d="M121.668 266.098C124.79 266.098 127.336 268.643 127.336 271.766C127.336 274.888 124.79 277.434 121.668 277.434C118.545 277.434 116 274.888 116 271.766C116 268.643 118.545 266.098 121.668 266.098Z"
                fill="url(#paint26_linear_134_2259)" />
            <path
                d="M153.91 266.098C157.033 266.098 159.578 268.643 159.578 271.766C159.578 274.888 157.033 277.434 153.91 277.434C150.788 277.434 148.243 274.888 148.243 271.766C148.243 268.643 150.788 266.098 153.91 266.098Z"
                fill="url(#paint27_linear_134_2259)" />
            <path
                d="M186.153 266.098C189.276 266.098 191.821 268.643 191.821 271.766C191.821 274.888 189.276 277.434 186.153 277.434C183.031 277.434 180.485 274.888 180.485 271.766C180.485 268.643 183.031 266.098 186.153 266.098Z"
                fill="url(#paint28_linear_134_2259)" />
            <path
                d="M218.396 266.098C221.518 266.098 224.064 268.643 224.064 271.766C224.064 274.888 221.518 277.434 218.396 277.434C215.273 277.434 212.728 274.888 212.728 271.766C212.728 268.643 215.273 266.098 218.396 266.098Z"
                fill="url(#paint29_linear_134_2259)" />
            <path
                d="M250.638 266.098C253.761 266.098 256.306 268.643 256.306 271.766C256.306 274.888 253.761 277.434 250.638 277.434C247.516 277.434 244.97 274.888 244.97 271.766C244.97 268.643 247.516 266.098 250.638 266.098Z"
                fill="url(#paint30_linear_134_2259)" />
            <path
                d="M282.881 266.098C286.003 266.098 288.549 268.643 288.549 271.766C288.549 274.888 286.003 277.434 282.881 277.434C279.758 277.434 277.213 274.888 277.213 271.766C277.213 268.643 279.758 266.098 282.881 266.098Z"
                fill="url(#paint31_linear_134_2259)" />
            <path
                d="M315.123 266.098C318.246 266.098 320.791 268.643 320.791 271.766C320.791 274.888 318.246 277.434 315.123 277.434C312.001 277.434 309.456 274.888 309.456 271.766C309.456 268.643 312.001 266.098 315.123 266.098Z"
                fill="url(#paint32_linear_134_2259)" />
            <path
                d="M347.366 266.098C350.488 266.098 353.034 268.643 353.034 271.766C353.034 274.888 350.488 277.434 347.366 277.434C344.244 277.434 341.698 274.888 341.698 271.766C341.698 268.643 344.244 266.098 347.366 266.098Z"
                fill="url(#paint33_linear_134_2259)" />
            <path
                d="M121.668 298.34C124.79 298.34 127.336 300.886 127.336 304.008C127.336 307.131 124.79 309.676 121.668 309.676C118.545 309.676 116 307.131 116 304.008C116 300.886 118.545 298.34 121.668 298.34Z"
                fill="url(#paint34_linear_134_2259)" />
            <path
                d="M153.91 298.34C157.033 298.34 159.578 300.886 159.578 304.008C159.578 307.131 157.033 309.676 153.91 309.676C150.788 309.676 148.243 307.131 148.243 304.008C148.243 300.886 150.788 298.34 153.91 298.34Z"
                fill="url(#paint35_linear_134_2259)" />
            <path
                d="M186.153 298.34C189.276 298.34 191.821 300.886 191.821 304.008C191.821 307.131 189.276 309.676 186.153 309.676C183.031 309.676 180.485 307.131 180.485 304.008C180.485 300.886 183.031 298.34 186.153 298.34Z"
                fill="url(#paint36_linear_134_2259)" />
            <path
                d="M218.396 298.34C221.518 298.34 224.064 300.886 224.064 304.008C224.064 307.131 221.518 309.676 218.396 309.676C215.273 309.676 212.728 307.131 212.728 304.008C212.728 300.886 215.273 298.34 218.396 298.34Z"
                fill="url(#paint37_linear_134_2259)" />
            <path
                d="M250.638 298.34C253.761 298.34 256.306 300.886 256.306 304.008C256.306 307.131 253.761 309.676 250.638 309.676C247.516 309.676 244.97 307.131 244.97 304.008C244.97 300.886 247.516 298.34 250.638 298.34Z"
                fill="url(#paint38_linear_134_2259)" />
            <path
                d="M282.881 298.34C286.003 298.34 288.549 300.886 288.549 304.008C288.549 307.131 286.003 309.676 282.881 309.676C279.758 309.676 277.213 307.131 277.213 304.008C277.213 300.886 279.758 298.34 282.881 298.34Z"
                fill="url(#paint39_linear_134_2259)" />
            <path
                d="M315.123 298.34C318.246 298.34 320.791 300.886 320.791 304.008C320.791 307.131 318.246 309.676 315.123 309.676C312.001 309.676 309.456 307.131 309.456 304.008C309.456 300.886 312.001 298.34 315.123 298.34Z"
                fill="url(#paint40_linear_134_2259)" />
            <path
                d="M347.366 298.34C350.488 298.34 353.034 300.886 353.034 304.008C353.034 307.131 350.488 309.676 347.366 309.676C344.244 309.676 341.698 307.131 341.698 304.008C341.698 300.886 344.244 298.34 347.366 298.34Z"
                fill="url(#paint41_linear_134_2259)" />
            <path
                d="M121.668 330.583C124.79 330.583 127.336 333.129 127.336 336.251C127.336 339.373 124.79 341.919 121.668 341.919C118.545 341.919 116 339.373 116 336.251C116 333.129 118.545 330.583 121.668 330.583Z"
                fill="url(#paint42_linear_134_2259)" />
            <path
                d="M153.91 330.583C157.033 330.583 159.578 333.129 159.578 336.251C159.578 339.373 157.033 341.919 153.91 341.919C150.788 341.919 148.243 339.373 148.243 336.251C148.243 333.129 150.788 330.583 153.91 330.583Z"
                fill="url(#paint43_linear_134_2259)" />
            <path
                d="M186.153 330.583C189.276 330.583 191.821 333.129 191.821 336.251C191.821 339.373 189.276 341.919 186.153 341.919C183.031 341.919 180.485 339.373 180.485 336.251C180.485 333.129 183.031 330.583 186.153 330.583Z"
                fill="url(#paint44_linear_134_2259)" />
            <path
                d="M218.396 330.583C221.518 330.583 224.064 333.129 224.064 336.251C224.064 339.373 221.518 341.919 218.396 341.919C215.273 341.919 212.728 339.373 212.728 336.251C212.728 333.129 215.273 330.583 218.396 330.583Z"
                fill="url(#paint45_linear_134_2259)" />
            <path
                d="M250.638 330.583C253.761 330.583 256.306 333.129 256.306 336.251C256.306 339.373 253.761 341.919 250.638 341.919C247.516 341.919 244.97 339.373 244.97 336.251C244.97 333.129 247.516 330.583 250.638 330.583Z"
                fill="url(#paint46_linear_134_2259)" />
            <path
                d="M282.881 330.583C286.003 330.583 288.549 333.129 288.549 336.251C288.549 339.373 286.003 341.919 282.881 341.919C279.758 341.919 277.213 339.373 277.213 336.251C277.213 333.129 279.758 330.583 282.881 330.583Z"
                fill="url(#paint47_linear_134_2259)" />
            <path
                d="M315.123 330.583C318.246 330.583 320.791 333.129 320.791 336.251C320.791 339.373 318.246 341.919 315.123 341.919C312.001 341.919 309.456 339.373 309.456 336.251C309.456 333.129 312.001 330.583 315.123 330.583Z"
                fill="url(#paint48_linear_134_2259)" />
            <path
                d="M347.366 330.583C350.488 330.583 353.034 333.129 353.034 336.251C353.034 339.373 350.488 341.919 347.366 341.919C344.244 341.919 341.698 339.373 341.698 336.251C341.698 333.129 344.244 330.583 347.366 330.583Z"
                fill="url(#paint49_linear_134_2259)" />
            <path
                d="M121.668 362.826C124.79 362.826 127.336 365.371 127.336 368.494C127.336 371.616 124.79 374.161 121.668 374.161C118.545 374.161 116 371.616 116 368.494C116 365.371 118.545 362.826 121.668 362.826Z"
                fill="url(#paint50_linear_134_2259)" />
            <path
                d="M153.91 362.826C157.033 362.826 159.578 365.371 159.578 368.494C159.578 371.616 157.033 374.161 153.91 374.161C150.788 374.161 148.243 371.616 148.243 368.494C148.243 365.371 150.788 362.826 153.91 362.826Z"
                fill="url(#paint51_linear_134_2259)" />
            <path
                d="M186.153 362.826C189.276 362.826 191.821 365.371 191.821 368.494C191.821 371.616 189.276 374.161 186.153 374.161C183.031 374.161 180.485 371.616 180.485 368.494C180.485 365.371 183.031 362.826 186.153 362.826Z"
                fill="url(#paint52_linear_134_2259)" />
            <path
                d="M218.396 362.826C221.518 362.826 224.064 365.371 224.064 368.494C224.064 371.616 221.518 374.161 218.396 374.161C215.273 374.161 212.728 371.616 212.728 368.494C212.728 365.371 215.273 362.826 218.396 362.826Z"
                fill="url(#paint53_linear_134_2259)" />
            <path
                d="M250.638 362.826C253.761 362.826 256.306 365.371 256.306 368.494C256.306 371.616 253.761 374.161 250.638 374.161C247.516 374.161 244.97 371.616 244.97 368.494C244.97 365.371 247.516 362.826 250.638 362.826Z"
                fill="url(#paint54_linear_134_2259)" />
            <path
                d="M282.881 362.826C286.003 362.826 288.549 365.371 288.549 368.494C288.549 371.616 286.003 374.161 282.881 374.161C279.758 374.161 277.213 371.616 277.213 368.494C277.213 365.371 279.758 362.826 282.881 362.826Z"
                fill="url(#paint55_linear_134_2259)" />
            <path
                d="M315.123 362.826C318.246 362.826 320.791 365.371 320.791 368.494C320.791 371.616 318.246 374.161 315.123 374.161C312.001 374.161 309.456 371.616 309.456 368.494C309.456 365.371 312.001 362.826 315.123 362.826Z"
                fill="url(#paint56_linear_134_2259)" />
            <path
                d="M347.366 362.826C350.488 362.826 353.034 365.371 353.034 368.494C353.034 371.616 350.488 374.161 347.366 374.161C344.244 374.161 341.698 371.616 341.698 368.494C341.698 365.371 344.244 362.826 347.366 362.826Z"
                fill="url(#paint57_linear_134_2259)" />
            <path
                d="M121.668 395.068C124.79 395.068 127.336 397.614 127.336 400.736C127.336 403.859 124.79 406.404 121.668 406.404C118.545 406.404 116 403.859 116 400.736C116 397.614 118.545 395.068 121.668 395.068Z"
                fill="url(#paint58_linear_134_2259)" />
            <path
                d="M153.91 395.068C157.033 395.068 159.578 397.614 159.578 400.736C159.578 403.859 157.033 406.404 153.91 406.404C150.788 406.404 148.243 403.859 148.243 400.736C148.243 397.614 150.788 395.068 153.91 395.068Z"
                fill="url(#paint59_linear_134_2259)" />
            <path
                d="M186.153 395.068C189.276 395.068 191.821 397.614 191.821 400.736C191.821 403.859 189.276 406.404 186.153 406.404C183.031 406.404 180.485 403.859 180.485 400.736C180.485 397.614 183.031 395.068 186.153 395.068Z"
                fill="url(#paint60_linear_134_2259)" />
            <path
                d="M218.396 395.068C221.518 395.068 224.064 397.614 224.064 400.736C224.064 403.859 221.518 406.404 218.396 406.404C215.273 406.404 212.728 403.859 212.728 400.736C212.728 397.614 215.273 395.068 218.396 395.068Z"
                fill="url(#paint61_linear_134_2259)" />
            <path
                d="M250.638 395.068C253.761 395.068 256.306 397.614 256.306 400.736C256.306 403.859 253.761 406.404 250.638 406.404C247.516 406.404 244.97 403.859 244.97 400.736C244.97 397.614 247.516 395.068 250.638 395.068Z"
                fill="url(#paint62_linear_134_2259)" />
            <path
                d="M282.881 395.068C286.003 395.068 288.549 397.614 288.549 400.736C288.549 403.859 286.003 406.404 282.881 406.404C279.758 406.404 277.213 403.859 277.213 400.736C277.213 397.614 279.758 395.068 282.881 395.068Z"
                fill="url(#paint63_linear_134_2259)" />
            <path
                d="M315.123 395.068C318.246 395.068 320.791 397.614 320.791 400.736C320.791 403.859 318.246 406.404 315.123 406.404C312.001 406.404 309.456 403.859 309.456 400.736C309.456 397.614 312.001 395.068 315.123 395.068Z"
                fill="url(#paint64_linear_134_2259)" />
            <path
                d="M347.366 395.068C350.488 395.068 353.034 397.614 353.034 400.736C353.034 403.859 350.488 406.404 347.366 406.404C344.244 406.404 341.698 403.859 341.698 400.736C341.698 397.614 344.244 395.068 347.366 395.068Z"
                fill="url(#paint65_linear_134_2259)" />
        </g>
        <g opacity="0.5">
            <rect x="1384" y="-76.6299" width="642" height="642" rx="321" fill="url(#paint66_linear_134_2259)" />
        </g>
    </g>
    <defs>
        <filter id="filter0_f_134_2259" x="1248.3" y="792.67" width="407.4" height="407.4" filterUnits="userSpaceOnUse"
            color-interpolation-filters="sRGB">
            <feFlood flood-opacity="0" result="BackgroundImageFix" />
            <feBlend mode="normal" in="SourceGraphic" in2="BackgroundImageFix" result="shape" />
            <feGaussianBlur stdDeviation="5.85" result="effect1_foregroundBlur_134_2259" />
        </filter>
        <linearGradient id="paint0_linear_134_2259" x1="98.2572" y1="3.24227e-05" x2="1779.31" y2="811.844"
            gradientUnits="userSpaceOnUse">
            <stop stop-color="#FDDDAE" stop-opacity="0.1" />
            <stop offset="1" stop-color="#F9A02D" stop-opacity="0.1" />
        </linearGradient>
        <linearGradient id="paint1_linear_134_2259" x1="1279.65" y1="804.37" x2="1671" y2="899.816"
            gradientUnits="userSpaceOnUse">
            <stop stop-color="#FDDDAE" stop-opacity="0.2" />
            <stop offset="1" stop-color="#F9A02D" stop-opacity="0.3" />
        </linearGradient>
        <linearGradient id="paint2_linear_134_2259" x1="128.13" y1="169.37" x2="369.699" y2="228.286"
            gradientUnits="userSpaceOnUse">
            <stop stop-color="#FDDDAE" stop-opacity="0.2" />
            <stop offset="1" stop-color="#F9A02D" stop-opacity="0.3" />
        </linearGradient>
        <linearGradient id="paint3_linear_134_2259" x1="128.13" y1="169.37" x2="369.699" y2="228.286"
            gradientUnits="userSpaceOnUse">
            <stop stop-color="#FDDDAE" stop-opacity="0.2" />
            <stop offset="1" stop-color="#F9A02D" stop-opacity="0.3" />
        </linearGradient>
        <linearGradient id="paint4_linear_134_2259" x1="128.13" y1="169.37" x2="369.699" y2="228.286"
            gradientUnits="userSpaceOnUse">
            <stop stop-color="#FDDDAE" stop-opacity="0.2" />
            <stop offset="1" stop-color="#F9A02D" stop-opacity="0.3" />
        </linearGradient>
        <linearGradient id="paint5_linear_134_2259" x1="128.13" y1="169.37" x2="369.699" y2="228.286"
            gradientUnits="userSpaceOnUse">
            <stop stop-color="#FDDDAE" stop-opacity="0.2" />
            <stop offset="1" stop-color="#F9A02D" stop-opacity="0.3" />
        </linearGradient>
        <linearGradient id="paint6_linear_134_2259" x1="128.13" y1="169.37" x2="369.699" y2="228.286"
            gradientUnits="userSpaceOnUse">
            <stop stop-color="#FDDDAE" stop-opacity="0.2" />
            <stop offset="1" stop-color="#F9A02D" stop-opacity="0.3" />
        </linearGradient>
        <linearGradient id="paint7_linear_134_2259" x1="128.13" y1="169.37" x2="369.699" y2="228.286"
            gradientUnits="userSpaceOnUse">
            <stop stop-color="#FDDDAE" stop-opacity="0.2" />
            <stop offset="1" stop-color="#F9A02D" stop-opacity="0.3" />
        </linearGradient>
        <linearGradient id="paint8_linear_134_2259" x1="128.13" y1="169.37" x2="369.699" y2="228.286"
            gradientUnits="userSpaceOnUse">
            <stop stop-color="#FDDDAE" stop-opacity="0.2" />
            <stop offset="1" stop-color="#F9A02D" stop-opacity="0.3" />
        </linearGradient>
        <linearGradient id="paint9_linear_134_2259" x1="128.13" y1="169.37" x2="369.699" y2="228.286"
            gradientUnits="userSpaceOnUse">
            <stop stop-color="#FDDDAE" stop-opacity="0.2" />
            <stop offset="1" stop-color="#F9A02D" stop-opacity="0.3" />
        </linearGradient>
        <linearGradient id="paint10_linear_134_2259" x1="128.13" y1="169.37" x2="369.699" y2="228.286"
            gradientUnits="userSpaceOnUse">
            <stop stop-color="#FDDDAE" stop-opacity="0.2" />
            <stop offset="1" stop-color="#F9A02D" stop-opacity="0.3" />
        </linearGradient>
        <linearGradient id="paint11_linear_134_2259" x1="128.13" y1="169.37" x2="369.699" y2="228.286"
            gradientUnits="userSpaceOnUse">
            <stop stop-color="#FDDDAE" stop-opacity="0.2" />
            <stop offset="1" stop-color="#F9A02D" stop-opacity="0.3" />
        </linearGradient>
        <linearGradient id="paint12_linear_134_2259" x1="128.13" y1="169.37" x2="369.699" y2="228.286"
            gradientUnits="userSpaceOnUse">
            <stop stop-color="#FDDDAE" stop-opacity="0.2" />
            <stop offset="1" stop-color="#F9A02D" stop-opacity="0.3" />
        </linearGradient>
        <linearGradient id="paint13_linear_134_2259" x1="128.13" y1="169.37" x2="369.699" y2="228.286"
            gradientUnits="userSpaceOnUse">
            <stop stop-color="#FDDDAE" stop-opacity="0.2" />
            <stop offset="1" stop-color="#F9A02D" stop-opacity="0.3" />
        </linearGradient>
        <linearGradient id="paint14_linear_134_2259" x1="128.13" y1="169.37" x2="369.699" y2="228.286"
            gradientUnits="userSpaceOnUse">
            <stop stop-color="#FDDDAE" stop-opacity="0.2" />
            <stop offset="1" stop-color="#F9A02D" stop-opacity="0.3" />
        </linearGradient>
        <linearGradient id="paint15_linear_134_2259" x1="128.13" y1="169.37" x2="369.699" y2="228.286"
            gradientUnits="userSpaceOnUse">
            <stop stop-color="#FDDDAE" stop-opacity="0.2" />
            <stop offset="1" stop-color="#F9A02D" stop-opacity="0.3" />
        </linearGradient>
        <linearGradient id="paint16_linear_134_2259" x1="128.13" y1="169.37" x2="369.699" y2="228.286"
            gradientUnits="userSpaceOnUse">
            <stop stop-color="#FDDDAE" stop-opacity="0.2" />
            <stop offset="1" stop-color="#F9A02D" stop-opacity="0.3" />
        </linearGradient>
        <linearGradient id="paint17_linear_134_2259" x1="128.13" y1="169.37" x2="369.699" y2="228.286"
            gradientUnits="userSpaceOnUse">
            <stop stop-color="#FDDDAE" stop-opacity="0.2" />
            <stop offset="1" stop-color="#F9A02D" stop-opacity="0.3" />
        </linearGradient>
        <linearGradient id="paint18_linear_134_2259" x1="128.13" y1="169.37" x2="369.699" y2="228.286"
            gradientUnits="userSpaceOnUse">
            <stop stop-color="#FDDDAE" stop-opacity="0.2" />
            <stop offset="1" stop-color="#F9A02D" stop-opacity="0.3" />
        </linearGradient>
        <linearGradient id="paint19_linear_134_2259" x1="128.13" y1="169.37" x2="369.699" y2="228.286"
            gradientUnits="userSpaceOnUse">
            <stop stop-color="#FDDDAE" stop-opacity="0.2" />
            <stop offset="1" stop-color="#F9A02D" stop-opacity="0.3" />
        </linearGradient>
        <linearGradient id="paint20_linear_134_2259" x1="128.13" y1="169.37" x2="369.699" y2="228.286"
            gradientUnits="userSpaceOnUse">
            <stop stop-color="#FDDDAE" stop-opacity="0.2" />
            <stop offset="1" stop-color="#F9A02D" stop-opacity="0.3" />
        </linearGradient>
        <linearGradient id="paint21_linear_134_2259" x1="128.13" y1="169.37" x2="369.699" y2="228.286"
            gradientUnits="userSpaceOnUse">
            <stop stop-color="#FDDDAE" stop-opacity="0.2" />
            <stop offset="1" stop-color="#F9A02D" stop-opacity="0.3" />
        </linearGradient>
        <linearGradient id="paint22_linear_134_2259" x1="128.13" y1="169.37" x2="369.699" y2="228.286"
            gradientUnits="userSpaceOnUse">
            <stop stop-color="#FDDDAE" stop-opacity="0.2" />
            <stop offset="1" stop-color="#F9A02D" stop-opacity="0.3" />
        </linearGradient>
        <linearGradient id="paint23_linear_134_2259" x1="128.13" y1="169.37" x2="369.699" y2="228.286"
            gradientUnits="userSpaceOnUse">
            <stop stop-color="#FDDDAE" stop-opacity="0.2" />
            <stop offset="1" stop-color="#F9A02D" stop-opacity="0.3" />
        </linearGradient>
        <linearGradient id="paint24_linear_134_2259" x1="128.13" y1="169.37" x2="369.699" y2="228.286"
            gradientUnits="userSpaceOnUse">
            <stop stop-color="#FDDDAE" stop-opacity="0.2" />
            <stop offset="1" stop-color="#F9A02D" stop-opacity="0.3" />
        </linearGradient>
        <linearGradient id="paint25_linear_134_2259" x1="128.13" y1="169.37" x2="369.699" y2="228.286"
            gradientUnits="userSpaceOnUse">
            <stop stop-color="#FDDDAE" stop-opacity="0.2" />
            <stop offset="1" stop-color="#F9A02D" stop-opacity="0.3" />
        </linearGradient>
        <linearGradient id="paint26_linear_134_2259" x1="128.13" y1="169.37" x2="369.699" y2="228.286"
            gradientUnits="userSpaceOnUse">
            <stop stop-color="#FDDDAE" stop-opacity="0.2" />
            <stop offset="1" stop-color="#F9A02D" stop-opacity="0.3" />
        </linearGradient>
        <linearGradient id="paint27_linear_134_2259" x1="128.13" y1="169.37" x2="369.699" y2="228.286"
            gradientUnits="userSpaceOnUse">
            <stop stop-color="#FDDDAE" stop-opacity="0.2" />
            <stop offset="1" stop-color="#F9A02D" stop-opacity="0.3" />
        </linearGradient>
        <linearGradient id="paint28_linear_134_2259" x1="128.13" y1="169.37" x2="369.699" y2="228.286"
            gradientUnits="userSpaceOnUse">
            <stop stop-color="#FDDDAE" stop-opacity="0.2" />
            <stop offset="1" stop-color="#F9A02D" stop-opacity="0.3" />
        </linearGradient>
        <linearGradient id="paint29_linear_134_2259" x1="128.13" y1="169.37" x2="369.699" y2="228.286"
            gradientUnits="userSpaceOnUse">
            <stop stop-color="#FDDDAE" stop-opacity="0.2" />
            <stop offset="1" stop-color="#F9A02D" stop-opacity="0.3" />
        </linearGradient>
        <linearGradient id="paint30_linear_134_2259" x1="128.13" y1="169.37" x2="369.699" y2="228.286"
            gradientUnits="userSpaceOnUse">
            <stop stop-color="#FDDDAE" stop-opacity="0.2" />
            <stop offset="1" stop-color="#F9A02D" stop-opacity="0.3" />
        </linearGradient>
        <linearGradient id="paint31_linear_134_2259" x1="128.13" y1="169.37" x2="369.699" y2="228.286"
            gradientUnits="userSpaceOnUse">
            <stop stop-color="#FDDDAE" stop-opacity="0.2" />
            <stop offset="1" stop-color="#F9A02D" stop-opacity="0.3" />
        </linearGradient>
        <linearGradient id="paint32_linear_134_2259" x1="128.13" y1="169.37" x2="369.699" y2="228.286"
            gradientUnits="userSpaceOnUse">
            <stop stop-color="#FDDDAE" stop-opacity="0.2" />
            <stop offset="1" stop-color="#F9A02D" stop-opacity="0.3" />
        </linearGradient>
        <linearGradient id="paint33_linear_134_2259" x1="128.13" y1="169.37" x2="369.699" y2="228.286"
            gradientUnits="userSpaceOnUse">
            <stop stop-color="#FDDDAE" stop-opacity="0.2" />
            <stop offset="1" stop-color="#F9A02D" stop-opacity="0.3" />
        </linearGradient>
        <linearGradient id="paint34_linear_134_2259" x1="128.13" y1="169.37" x2="369.699" y2="228.286"
            gradientUnits="userSpaceOnUse">
            <stop stop-color="#FDDDAE" stop-opacity="0.2" />
            <stop offset="1" stop-color="#F9A02D" stop-opacity="0.3" />
        </linearGradient>
        <linearGradient id="paint35_linear_134_2259" x1="128.13" y1="169.37" x2="369.699" y2="228.286"
            gradientUnits="userSpaceOnUse">
            <stop stop-color="#FDDDAE" stop-opacity="0.2" />
            <stop offset="1" stop-color="#F9A02D" stop-opacity="0.3" />
        </linearGradient>
        <linearGradient id="paint36_linear_134_2259" x1="128.13" y1="169.37" x2="369.699" y2="228.286"
            gradientUnits="userSpaceOnUse">
            <stop stop-color="#FDDDAE" stop-opacity="0.2" />
            <stop offset="1" stop-color="#F9A02D" stop-opacity="0.3" />
        </linearGradient>
        <linearGradient id="paint37_linear_134_2259" x1="128.13" y1="169.37" x2="369.699" y2="228.286"
            gradientUnits="userSpaceOnUse">
            <stop stop-color="#FDDDAE" stop-opacity="0.2" />
            <stop offset="1" stop-color="#F9A02D" stop-opacity="0.3" />
        </linearGradient>
        <linearGradient id="paint38_linear_134_2259" x1="128.13" y1="169.37" x2="369.699" y2="228.286"
            gradientUnits="userSpaceOnUse">
            <stop stop-color="#FDDDAE" stop-opacity="0.2" />
            <stop offset="1" stop-color="#F9A02D" stop-opacity="0.3" />
        </linearGradient>
        <linearGradient id="paint39_linear_134_2259" x1="128.13" y1="169.37" x2="369.699" y2="228.286"
            gradientUnits="userSpaceOnUse">
            <stop stop-color="#FDDDAE" stop-opacity="0.2" />
            <stop offset="1" stop-color="#F9A02D" stop-opacity="0.3" />
        </linearGradient>
        <linearGradient id="paint40_linear_134_2259" x1="128.13" y1="169.37" x2="369.699" y2="228.286"
            gradientUnits="userSpaceOnUse">
            <stop stop-color="#FDDDAE" stop-opacity="0.2" />
            <stop offset="1" stop-color="#F9A02D" stop-opacity="0.3" />
        </linearGradient>
        <linearGradient id="paint41_linear_134_2259" x1="128.13" y1="169.37" x2="369.699" y2="228.286"
            gradientUnits="userSpaceOnUse">
            <stop stop-color="#FDDDAE" stop-opacity="0.2" />
            <stop offset="1" stop-color="#F9A02D" stop-opacity="0.3" />
        </linearGradient>
        <linearGradient id="paint42_linear_134_2259" x1="128.13" y1="169.37" x2="369.699" y2="228.286"
            gradientUnits="userSpaceOnUse">
            <stop stop-color="#FDDDAE" stop-opacity="0.2" />
            <stop offset="1" stop-color="#F9A02D" stop-opacity="0.3" />
        </linearGradient>
        <linearGradient id="paint43_linear_134_2259" x1="128.13" y1="169.37" x2="369.699" y2="228.286"
            gradientUnits="userSpaceOnUse">
            <stop stop-color="#FDDDAE" stop-opacity="0.2" />
            <stop offset="1" stop-color="#F9A02D" stop-opacity="0.3" />
        </linearGradient>
        <linearGradient id="paint44_linear_134_2259" x1="128.13" y1="169.37" x2="369.699" y2="228.286"
            gradientUnits="userSpaceOnUse">
            <stop stop-color="#FDDDAE" stop-opacity="0.2" />
            <stop offset="1" stop-color="#F9A02D" stop-opacity="0.3" />
        </linearGradient>
        <linearGradient id="paint45_linear_134_2259" x1="128.13" y1="169.37" x2="369.699" y2="228.286"
            gradientUnits="userSpaceOnUse">
            <stop stop-color="#FDDDAE" stop-opacity="0.2" />
            <stop offset="1" stop-color="#F9A02D" stop-opacity="0.3" />
        </linearGradient>
        <linearGradient id="paint46_linear_134_2259" x1="128.13" y1="169.37" x2="369.699" y2="228.286"
            gradientUnits="userSpaceOnUse">
            <stop stop-color="#FDDDAE" stop-opacity="0.2" />
            <stop offset="1" stop-color="#F9A02D" stop-opacity="0.3" />
        </linearGradient>
        <linearGradient id="paint47_linear_134_2259" x1="128.13" y1="169.37" x2="369.699" y2="228.286"
            gradientUnits="userSpaceOnUse">
            <stop stop-color="#FDDDAE" stop-opacity="0.2" />
            <stop offset="1" stop-color="#F9A02D" stop-opacity="0.3" />
        </linearGradient>
        <linearGradient id="paint48_linear_134_2259" x1="128.13" y1="169.37" x2="369.699" y2="228.286"
            gradientUnits="userSpaceOnUse">
            <stop stop-color="#FDDDAE" stop-opacity="0.2" />
            <stop offset="1" stop-color="#F9A02D" stop-opacity="0.3" />
        </linearGradient>
        <linearGradient id="paint49_linear_134_2259" x1="128.13" y1="169.37" x2="369.699" y2="228.286"
            gradientUnits="userSpaceOnUse">
            <stop stop-color="#FDDDAE" stop-opacity="0.2" />
            <stop offset="1" stop-color="#F9A02D" stop-opacity="0.3" />
        </linearGradient>
        <linearGradient id="paint50_linear_134_2259" x1="128.13" y1="169.37" x2="369.699" y2="228.286"
            gradientUnits="userSpaceOnUse">
            <stop stop-color="#FDDDAE" stop-opacity="0.2" />
            <stop offset="1" stop-color="#F9A02D" stop-opacity="0.3" />
        </linearGradient>
        <linearGradient id="paint51_linear_134_2259" x1="128.13" y1="169.37" x2="369.699" y2="228.286"
            gradientUnits="userSpaceOnUse">
            <stop stop-color="#FDDDAE" stop-opacity="0.2" />
            <stop offset="1" stop-color="#F9A02D" stop-opacity="0.3" />
        </linearGradient>
        <linearGradient id="paint52_linear_134_2259" x1="128.13" y1="169.37" x2="369.699" y2="228.286"
            gradientUnits="userSpaceOnUse">
            <stop stop-color="#FDDDAE" stop-opacity="0.2" />
            <stop offset="1" stop-color="#F9A02D" stop-opacity="0.3" />
        </linearGradient>
        <linearGradient id="paint53_linear_134_2259" x1="128.13" y1="169.37" x2="369.699" y2="228.286"
            gradientUnits="userSpaceOnUse">
            <stop stop-color="#FDDDAE" stop-opacity="0.2" />
            <stop offset="1" stop-color="#F9A02D" stop-opacity="0.3" />
        </linearGradient>
        <linearGradient id="paint54_linear_134_2259" x1="128.13" y1="169.37" x2="369.699" y2="228.286"
            gradientUnits="userSpaceOnUse">
            <stop stop-color="#FDDDAE" stop-opacity="0.2" />
            <stop offset="1" stop-color="#F9A02D" stop-opacity="0.3" />
        </linearGradient>
        <linearGradient id="paint55_linear_134_2259" x1="128.13" y1="169.37" x2="369.699" y2="228.286"
            gradientUnits="userSpaceOnUse">
            <stop stop-color="#FDDDAE" stop-opacity="0.2" />
            <stop offset="1" stop-color="#F9A02D" stop-opacity="0.3" />
        </linearGradient>
        <linearGradient id="paint56_linear_134_2259" x1="128.13" y1="169.37" x2="369.699" y2="228.286"
            gradientUnits="userSpaceOnUse">
            <stop stop-color="#FDDDAE" stop-opacity="0.2" />
            <stop offset="1" stop-color="#F9A02D" stop-opacity="0.3" />
        </linearGradient>
        <linearGradient id="paint57_linear_134_2259" x1="128.13" y1="169.37" x2="369.699" y2="228.286"
            gradientUnits="userSpaceOnUse">
            <stop stop-color="#FDDDAE" stop-opacity="0.2" />
            <stop offset="1" stop-color="#F9A02D" stop-opacity="0.3" />
        </linearGradient>
        <linearGradient id="paint58_linear_134_2259" x1="128.13" y1="169.37" x2="369.699" y2="228.286"
            gradientUnits="userSpaceOnUse">
            <stop stop-color="#FDDDAE" stop-opacity="0.2" />
            <stop offset="1" stop-color="#F9A02D" stop-opacity="0.3" />
        </linearGradient>
        <linearGradient id="paint59_linear_134_2259" x1="128.13" y1="169.37" x2="369.699" y2="228.286"
            gradientUnits="userSpaceOnUse">
            <stop stop-color="#FDDDAE" stop-opacity="0.2" />
            <stop offset="1" stop-color="#F9A02D" stop-opacity="0.3" />
        </linearGradient>
        <linearGradient id="paint60_linear_134_2259" x1="128.13" y1="169.37" x2="369.699" y2="228.286"
            gradientUnits="userSpaceOnUse">
            <stop stop-color="#FDDDAE" stop-opacity="0.2" />
            <stop offset="1" stop-color="#F9A02D" stop-opacity="0.3" />
        </linearGradient>
        <linearGradient id="paint61_linear_134_2259" x1="128.13" y1="169.37" x2="369.699" y2="228.286"
            gradientUnits="userSpaceOnUse">
            <stop stop-color="#FDDDAE" stop-opacity="0.2" />
            <stop offset="1" stop-color="#F9A02D" stop-opacity="0.3" />
        </linearGradient>
        <linearGradient id="paint62_linear_134_2259" x1="128.13" y1="169.37" x2="369.699" y2="228.286"
            gradientUnits="userSpaceOnUse">
            <stop stop-color="#FDDDAE" stop-opacity="0.2" />
            <stop offset="1" stop-color="#F9A02D" stop-opacity="0.3" />
        </linearGradient>
        <linearGradient id="paint63_linear_134_2259" x1="128.13" y1="169.37" x2="369.699" y2="228.286"
            gradientUnits="userSpaceOnUse">
            <stop stop-color="#FDDDAE" stop-opacity="0.2" />
            <stop offset="1" stop-color="#F9A02D" stop-opacity="0.3" />
        </linearGradient>
        <linearGradient id="paint64_linear_134_2259" x1="128.13" y1="169.37" x2="369.699" y2="228.286"
            gradientUnits="userSpaceOnUse">
            <stop stop-color="#FDDDAE" stop-opacity="0.2" />
            <stop offset="1" stop-color="#F9A02D" stop-opacity="0.3" />
        </linearGradient>
        <linearGradient id="paint65_linear_134_2259" x1="128.13" y1="169.37" x2="369.699" y2="228.286"
            gradientUnits="userSpaceOnUse">
            <stop stop-color="#FDDDAE" stop-opacity="0.2" />
            <stop offset="1" stop-color="#F9A02D" stop-opacity="0.3" />
        </linearGradient>
        <linearGradient id="paint66_linear_134_2259" x1="1416.85" y1="-76.6299" x2="2071.14" y2="82.9432"
            gradientUnits="userSpaceOnUse">
            <stop stop-color="#FDDDAE" stop-opacity="0.2" />
            <stop offset="1" stop-color="#F9A02D" stop-opacity="0.3" />
        </linearGradient>
        <clipPath id="clip0_134_2259">
            <rect width="1920" height="969.627" fill="white" transform="translate(0 0.1875)" />
        </clipPath>
        <clipPath id="clip1_134_2259">
            <rect width="237" height="237" fill="white" transform="translate(116 169.37)" />
        </clipPath>
    </defs>
</svg>