<svg width="375" height="887" viewBox="0 0 375 887" fill="none" xmlns="http://www.w3.org/2000/svg">
    <g opacity="0.5">
        <rect x="132.5" y="-58.7681" width="456" height="456" rx="228" fill="url(#paint0_linear_0_1)" />
    </g>
    <g filter="url(#filter0_f_0_1)">
        <rect x="179.5" y="851.232" width="137" height="137" rx="68.5" fill="url(#paint1_linear_0_1)" />
    </g>
    <path
        d="M3.4433 0.0625C5.34021 0.0625 6.8866 1.60889 6.8866 3.5058C6.8866 5.40271 5.34021 6.9491 3.4433 6.9491C1.54639 6.9491 0 5.40271 0 3.5058C0 1.60889 1.54639 0.0625 3.4433 0.0625Z"
        fill="url(#paint2_linear_0_1)" />
    <path
        d="M23.0309 0.0625C24.9278 0.0625 26.4742 1.60889 26.4742 3.5058C26.4742 5.40271 24.9278 6.9491 23.0309 6.9491C21.134 6.9491 19.5876 5.40271 19.5876 3.5058C19.5876 1.60889 21.134 0.0625 23.0309 0.0625Z"
        fill="url(#paint3_linear_0_1)" />
    <path
        d="M42.6186 0.0625C44.5155 0.0625 46.0619 1.60889 46.0619 3.5058C46.0619 5.40271 44.5155 6.9491 42.6186 6.9491C40.7217 6.9491 39.1753 5.40271 39.1753 3.5058C39.1753 1.60889 40.7217 0.0625 42.6186 0.0625Z"
        fill="url(#paint4_linear_0_1)" />
    <path
        d="M62.2062 0.0625C64.1031 0.0625 65.6495 1.60889 65.6495 3.5058C65.6495 5.40271 64.1031 6.9491 62.2062 6.9491C60.3093 6.9491 58.7629 5.40271 58.7629 3.5058C58.7629 1.60889 60.3093 0.0625 62.2062 0.0625Z"
        fill="url(#paint5_linear_0_1)" />
    <path
        d="M81.7938 0.0625C83.6907 0.0625 85.2371 1.60889 85.2371 3.5058C85.2371 5.40271 83.6907 6.9491 81.7938 6.9491C79.8969 6.9491 78.3505 5.40271 78.3505 3.5058C78.3505 1.60889 79.8969 0.0625 81.7938 0.0625Z"
        fill="url(#paint6_linear_0_1)" />
    <path
        d="M101.381 0.0625C103.278 0.0625 104.825 1.60889 104.825 3.5058C104.825 5.40271 103.278 6.9491 101.381 6.9491C99.4845 6.9491 97.9381 5.40271 97.9381 3.5058C97.9381 1.60889 99.4845 0.0625 101.381 0.0625Z"
        fill="url(#paint7_linear_0_1)" />
    <path
        d="M120.969 0.0625C122.866 0.0625 124.412 1.60889 124.412 3.5058C124.412 5.40271 122.866 6.9491 120.969 6.9491C119.072 6.9491 117.526 5.40271 117.526 3.5058C117.526 1.60889 119.072 0.0625 120.969 0.0625Z"
        fill="url(#paint8_linear_0_1)" />
    <path
        d="M140.557 0.0625C142.454 0.0625 144 1.60889 144 3.5058C144 5.40271 142.454 6.9491 140.557 6.9491C138.66 6.9491 137.113 5.40271 137.113 3.5058C137.113 1.60889 138.66 0.0625 140.557 0.0625Z"
        fill="url(#paint9_linear_0_1)" />
    <path
        d="M3.4433 19.6501C5.34021 19.6501 6.8866 21.1965 6.8866 23.0934C6.8866 24.9903 5.34021 26.5367 3.4433 26.5367C1.54639 26.5367 0 24.9903 0 23.0934C0 21.1965 1.54639 19.6501 3.4433 19.6501Z"
        fill="url(#paint10_linear_0_1)" />
    <path
        d="M23.0309 19.6501C24.9278 19.6501 26.4742 21.1965 26.4742 23.0934C26.4742 24.9903 24.9278 26.5367 23.0309 26.5367C21.134 26.5367 19.5876 24.9903 19.5876 23.0934C19.5876 21.1965 21.134 19.6501 23.0309 19.6501Z"
        fill="url(#paint11_linear_0_1)" />
    <path
        d="M42.6186 19.6501C44.5155 19.6501 46.0619 21.1965 46.0619 23.0934C46.0619 24.9903 44.5155 26.5367 42.6186 26.5367C40.7217 26.5367 39.1753 24.9903 39.1753 23.0934C39.1753 21.1965 40.7217 19.6501 42.6186 19.6501Z"
        fill="url(#paint12_linear_0_1)" />
    <path
        d="M62.2062 19.6501C64.1031 19.6501 65.6495 21.1965 65.6495 23.0934C65.6495 24.9903 64.1031 26.5367 62.2062 26.5367C60.3093 26.5367 58.7629 24.9903 58.7629 23.0934C58.7629 21.1965 60.3093 19.6501 62.2062 19.6501Z"
        fill="url(#paint13_linear_0_1)" />
    <path
        d="M81.7938 19.6501C83.6907 19.6501 85.2371 21.1965 85.2371 23.0934C85.2371 24.9903 83.6907 26.5367 81.7938 26.5367C79.8969 26.5367 78.3505 24.9903 78.3505 23.0934C78.3505 21.1965 79.8969 19.6501 81.7938 19.6501Z"
        fill="url(#paint14_linear_0_1)" />
    <path
        d="M101.381 19.6501C103.278 19.6501 104.825 21.1965 104.825 23.0934C104.825 24.9903 103.278 26.5367 101.381 26.5367C99.4845 26.5367 97.9381 24.9903 97.9381 23.0934C97.9381 21.1965 99.4845 19.6501 101.381 19.6501Z"
        fill="url(#paint15_linear_0_1)" />
    <path
        d="M120.969 19.6501C122.866 19.6501 124.412 21.1965 124.412 23.0934C124.412 24.9903 122.866 26.5367 120.969 26.5367C119.072 26.5367 117.526 24.9903 117.526 23.0934C117.526 21.1965 119.072 19.6501 120.969 19.6501Z"
        fill="url(#paint16_linear_0_1)" />
    <path
        d="M140.557 19.6501C142.454 19.6501 144 21.1965 144 23.0934C144 24.9903 142.454 26.5367 140.557 26.5367C138.66 26.5367 137.113 24.9903 137.113 23.0934C137.113 21.1965 138.66 19.6501 140.557 19.6501Z"
        fill="url(#paint17_linear_0_1)" />
    <path
        d="M3.4433 39.2378C5.34021 39.2378 6.8866 40.7842 6.8866 42.6811C6.8866 44.578 5.34021 46.1244 3.4433 46.1244C1.54639 46.1244 0 44.578 0 42.6811C0 40.7842 1.54639 39.2378 3.4433 39.2378Z"
        fill="url(#paint18_linear_0_1)" />
    <path
        d="M23.0309 39.2378C24.9278 39.2378 26.4742 40.7842 26.4742 42.6811C26.4742 44.578 24.9278 46.1244 23.0309 46.1244C21.134 46.1244 19.5876 44.578 19.5876 42.6811C19.5876 40.7842 21.134 39.2378 23.0309 39.2378Z"
        fill="url(#paint19_linear_0_1)" />
    <path
        d="M42.6186 39.2378C44.5155 39.2378 46.0619 40.7842 46.0619 42.6811C46.0619 44.578 44.5155 46.1244 42.6186 46.1244C40.7217 46.1244 39.1753 44.578 39.1753 42.6811C39.1753 40.7842 40.7217 39.2378 42.6186 39.2378Z"
        fill="url(#paint20_linear_0_1)" />
    <path
        d="M62.2062 39.2378C64.1031 39.2378 65.6495 40.7842 65.6495 42.6811C65.6495 44.578 64.1031 46.1244 62.2062 46.1244C60.3093 46.1244 58.7629 44.578 58.7629 42.6811C58.7629 40.7842 60.3093 39.2378 62.2062 39.2378Z"
        fill="url(#paint21_linear_0_1)" />
    <path
        d="M81.7938 39.2378C83.6907 39.2378 85.2371 40.7842 85.2371 42.6811C85.2371 44.578 83.6907 46.1244 81.7938 46.1244C79.8969 46.1244 78.3505 44.578 78.3505 42.6811C78.3505 40.7842 79.8969 39.2378 81.7938 39.2378Z"
        fill="url(#paint22_linear_0_1)" />
    <path
        d="M101.381 39.2378C103.278 39.2378 104.825 40.7842 104.825 42.6811C104.825 44.578 103.278 46.1244 101.381 46.1244C99.4845 46.1244 97.9381 44.578 97.9381 42.6811C97.9381 40.7842 99.4845 39.2378 101.381 39.2378Z"
        fill="url(#paint23_linear_0_1)" />
    <path
        d="M120.969 39.2378C122.866 39.2378 124.412 40.7842 124.412 42.6811C124.412 44.578 122.866 46.1244 120.969 46.1244C119.072 46.1244 117.526 44.578 117.526 42.6811C117.526 40.7842 119.072 39.2378 120.969 39.2378Z"
        fill="url(#paint24_linear_0_1)" />
    <path
        d="M140.557 39.2378C142.454 39.2378 144 40.7842 144 42.6811C144 44.578 142.454 46.1244 140.557 46.1244C138.66 46.1244 137.113 44.578 137.113 42.6811C137.113 40.7842 138.66 39.2378 140.557 39.2378Z"
        fill="url(#paint25_linear_0_1)" />
    <path
        d="M3.4433 58.8254C5.34021 58.8254 6.8866 60.3718 6.8866 62.2687C6.8866 64.1656 5.34021 65.712 3.4433 65.712C1.54639 65.712 0 64.1656 0 62.2687C0 60.3718 1.54639 58.8254 3.4433 58.8254Z"
        fill="url(#paint26_linear_0_1)" />
    <path
        d="M23.0309 58.8254C24.9278 58.8254 26.4742 60.3718 26.4742 62.2687C26.4742 64.1656 24.9278 65.712 23.0309 65.712C21.134 65.712 19.5876 64.1656 19.5876 62.2687C19.5876 60.3718 21.134 58.8254 23.0309 58.8254Z"
        fill="url(#paint27_linear_0_1)" />
    <path
        d="M42.6186 58.8254C44.5155 58.8254 46.0619 60.3718 46.0619 62.2687C46.0619 64.1656 44.5155 65.712 42.6186 65.712C40.7217 65.712 39.1753 64.1656 39.1753 62.2687C39.1753 60.3718 40.7217 58.8254 42.6186 58.8254Z"
        fill="url(#paint28_linear_0_1)" />
    <path
        d="M62.2062 58.8254C64.1031 58.8254 65.6495 60.3718 65.6495 62.2687C65.6495 64.1656 64.1031 65.712 62.2062 65.712C60.3093 65.712 58.7629 64.1656 58.7629 62.2687C58.7629 60.3718 60.3093 58.8254 62.2062 58.8254Z"
        fill="url(#paint29_linear_0_1)" />
    <path
        d="M81.7938 58.8254C83.6907 58.8254 85.2371 60.3718 85.2371 62.2687C85.2371 64.1656 83.6907 65.712 81.7938 65.712C79.8969 65.712 78.3505 64.1656 78.3505 62.2687C78.3505 60.3718 79.8969 58.8254 81.7938 58.8254Z"
        fill="url(#paint30_linear_0_1)" />
    <path
        d="M101.381 58.8254C103.278 58.8254 104.825 60.3718 104.825 62.2687C104.825 64.1656 103.278 65.712 101.381 65.712C99.4845 65.712 97.9381 64.1656 97.9381 62.2687C97.9381 60.3718 99.4845 58.8254 101.381 58.8254Z"
        fill="url(#paint31_linear_0_1)" />
    <path
        d="M120.969 58.8254C122.866 58.8254 124.412 60.3718 124.412 62.2687C124.412 64.1656 122.866 65.712 120.969 65.712C119.072 65.712 117.526 64.1656 117.526 62.2687C117.526 60.3718 119.072 58.8254 120.969 58.8254Z"
        fill="url(#paint32_linear_0_1)" />
    <path
        d="M140.557 58.8254C142.454 58.8254 144 60.3718 144 62.2687C144 64.1656 142.454 65.712 140.557 65.712C138.66 65.712 137.113 64.1656 137.113 62.2687C137.113 60.3718 138.66 58.8254 140.557 58.8254Z"
        fill="url(#paint33_linear_0_1)" />
    <path
        d="M3.4433 78.413C5.34021 78.413 6.8866 79.9594 6.8866 81.8563C6.8866 83.7532 5.34021 85.2996 3.4433 85.2996C1.54639 85.2996 0 83.7532 0 81.8563C0 79.9594 1.54639 78.413 3.4433 78.413Z"
        fill="url(#paint34_linear_0_1)" />
    <path
        d="M23.0309 78.413C24.9278 78.413 26.4742 79.9594 26.4742 81.8563C26.4742 83.7532 24.9278 85.2996 23.0309 85.2996C21.134 85.2996 19.5876 83.7532 19.5876 81.8563C19.5876 79.9594 21.134 78.413 23.0309 78.413Z"
        fill="url(#paint35_linear_0_1)" />
    <path
        d="M42.6186 78.413C44.5155 78.413 46.0619 79.9594 46.0619 81.8563C46.0619 83.7532 44.5155 85.2996 42.6186 85.2996C40.7217 85.2996 39.1753 83.7532 39.1753 81.8563C39.1753 79.9594 40.7217 78.413 42.6186 78.413Z"
        fill="url(#paint36_linear_0_1)" />
    <path
        d="M62.2062 78.413C64.1031 78.413 65.6495 79.9594 65.6495 81.8563C65.6495 83.7532 64.1031 85.2996 62.2062 85.2996C60.3093 85.2996 58.7629 83.7532 58.7629 81.8563C58.7629 79.9594 60.3093 78.413 62.2062 78.413Z"
        fill="url(#paint37_linear_0_1)" />
    <path
        d="M81.7938 78.413C83.6907 78.413 85.2371 79.9594 85.2371 81.8563C85.2371 83.7532 83.6907 85.2996 81.7938 85.2996C79.8969 85.2996 78.3505 83.7532 78.3505 81.8563C78.3505 79.9594 79.8969 78.413 81.7938 78.413Z"
        fill="url(#paint38_linear_0_1)" />
    <path
        d="M101.381 78.413C103.278 78.413 104.825 79.9594 104.825 81.8563C104.825 83.7532 103.278 85.2996 101.381 85.2996C99.4845 85.2996 97.9381 83.7532 97.9381 81.8563C97.9381 79.9594 99.4845 78.413 101.381 78.413Z"
        fill="url(#paint39_linear_0_1)" />
    <path
        d="M120.969 78.413C122.866 78.413 124.412 79.9594 124.412 81.8563C124.412 83.7532 122.866 85.2996 120.969 85.2996C119.072 85.2996 117.526 83.7532 117.526 81.8563C117.526 79.9594 119.072 78.413 120.969 78.413Z"
        fill="url(#paint40_linear_0_1)" />
    <path
        d="M140.557 78.413C142.454 78.413 144 79.9594 144 81.8563C144 83.7532 142.454 85.2996 140.557 85.2996C138.66 85.2996 137.113 83.7532 137.113 81.8563C137.113 79.9594 138.66 78.413 140.557 78.413Z"
        fill="url(#paint41_linear_0_1)" />
    <path
        d="M3.4433 98.0006C5.34021 98.0006 6.8866 99.547 6.8866 101.444C6.8866 103.341 5.34021 104.887 3.4433 104.887C1.54639 104.887 0 103.341 0 101.444C0 99.547 1.54639 98.0006 3.4433 98.0006Z"
        fill="url(#paint42_linear_0_1)" />
    <path
        d="M23.0309 98.0006C24.9278 98.0006 26.4742 99.547 26.4742 101.444C26.4742 103.341 24.9278 104.887 23.0309 104.887C21.134 104.887 19.5876 103.341 19.5876 101.444C19.5876 99.547 21.134 98.0006 23.0309 98.0006Z"
        fill="url(#paint43_linear_0_1)" />
    <path
        d="M42.6186 98.0006C44.5155 98.0006 46.0619 99.547 46.0619 101.444C46.0619 103.341 44.5155 104.887 42.6186 104.887C40.7217 104.887 39.1753 103.341 39.1753 101.444C39.1753 99.547 40.7217 98.0006 42.6186 98.0006Z"
        fill="url(#paint44_linear_0_1)" />
    <path
        d="M62.2062 98.0006C64.1031 98.0006 65.6495 99.547 65.6495 101.444C65.6495 103.341 64.1031 104.887 62.2062 104.887C60.3093 104.887 58.7629 103.341 58.7629 101.444C58.7629 99.547 60.3093 98.0006 62.2062 98.0006Z"
        fill="url(#paint45_linear_0_1)" />
    <path
        d="M81.7938 98.0006C83.6907 98.0006 85.2371 99.547 85.2371 101.444C85.2371 103.341 83.6907 104.887 81.7938 104.887C79.8969 104.887 78.3505 103.341 78.3505 101.444C78.3505 99.547 79.8969 98.0006 81.7938 98.0006Z"
        fill="url(#paint46_linear_0_1)" />
    <path
        d="M101.381 98.0006C103.278 98.0006 104.825 99.547 104.825 101.444C104.825 103.341 103.278 104.887 101.381 104.887C99.4845 104.887 97.9381 103.341 97.9381 101.444C97.9381 99.547 99.4845 98.0006 101.381 98.0006Z"
        fill="url(#paint47_linear_0_1)" />
    <path
        d="M120.969 98.0006C122.866 98.0006 124.412 99.547 124.412 101.444C124.412 103.341 122.866 104.887 120.969 104.887C119.072 104.887 117.526 103.341 117.526 101.444C117.526 99.547 119.072 98.0006 120.969 98.0006Z"
        fill="url(#paint48_linear_0_1)" />
    <path
        d="M140.557 98.0006C142.454 98.0006 144 99.547 144 101.444C144 103.341 142.454 104.887 140.557 104.887C138.66 104.887 137.113 103.341 137.113 101.444C137.113 99.547 138.66 98.0006 140.557 98.0006Z"
        fill="url(#paint49_linear_0_1)" />
    <path
        d="M3.4433 117.588C5.34021 117.588 6.8866 119.135 6.8866 121.032C6.8866 122.928 5.34021 124.475 3.4433 124.475C1.54639 124.475 0 122.928 0 121.032C0 119.135 1.54639 117.588 3.4433 117.588Z"
        fill="url(#paint50_linear_0_1)" />
    <path
        d="M23.0309 117.588C24.9278 117.588 26.4742 119.135 26.4742 121.032C26.4742 122.928 24.9278 124.475 23.0309 124.475C21.134 124.475 19.5876 122.928 19.5876 121.032C19.5876 119.135 21.134 117.588 23.0309 117.588Z"
        fill="url(#paint51_linear_0_1)" />
    <path
        d="M42.6186 117.588C44.5155 117.588 46.0619 119.135 46.0619 121.032C46.0619 122.928 44.5155 124.475 42.6186 124.475C40.7217 124.475 39.1753 122.928 39.1753 121.032C39.1753 119.135 40.7217 117.588 42.6186 117.588Z"
        fill="url(#paint52_linear_0_1)" />
    <path
        d="M62.2062 117.588C64.1031 117.588 65.6495 119.135 65.6495 121.032C65.6495 122.928 64.1031 124.475 62.2062 124.475C60.3093 124.475 58.7629 122.928 58.7629 121.032C58.7629 119.135 60.3093 117.588 62.2062 117.588Z"
        fill="url(#paint53_linear_0_1)" />
    <path
        d="M81.7938 117.588C83.6907 117.588 85.2371 119.135 85.2371 121.032C85.2371 122.928 83.6907 124.475 81.7938 124.475C79.8969 124.475 78.3505 122.928 78.3505 121.032C78.3505 119.135 79.8969 117.588 81.7938 117.588Z"
        fill="url(#paint54_linear_0_1)" />
    <path
        d="M101.381 117.588C103.278 117.588 104.825 119.135 104.825 121.032C104.825 122.928 103.278 124.475 101.381 124.475C99.4845 124.475 97.9381 122.928 97.9381 121.032C97.9381 119.135 99.4845 117.588 101.381 117.588Z"
        fill="url(#paint55_linear_0_1)" />
    <path
        d="M120.969 117.588C122.866 117.588 124.412 119.135 124.412 121.032C124.412 122.928 122.866 124.475 120.969 124.475C119.072 124.475 117.526 122.928 117.526 121.032C117.526 119.135 119.072 117.588 120.969 117.588Z"
        fill="url(#paint56_linear_0_1)" />
    <path
        d="M140.557 117.588C142.454 117.588 144 119.135 144 121.032C144 122.928 142.454 124.475 140.557 124.475C138.66 124.475 137.113 122.928 137.113 121.032C137.113 119.135 138.66 117.588 140.557 117.588Z"
        fill="url(#paint57_linear_0_1)" />
    <path
        d="M3.4433 137.176C5.34021 137.176 6.8866 138.722 6.8866 140.619C6.8866 142.516 5.34021 144.062 3.4433 144.062C1.54639 144.062 0 142.516 0 140.619C0 138.722 1.54639 137.176 3.4433 137.176Z"
        fill="url(#paint58_linear_0_1)" />
    <path
        d="M23.0309 137.176C24.9278 137.176 26.4742 138.722 26.4742 140.619C26.4742 142.516 24.9278 144.062 23.0309 144.062C21.134 144.062 19.5876 142.516 19.5876 140.619C19.5876 138.722 21.134 137.176 23.0309 137.176Z"
        fill="url(#paint59_linear_0_1)" />
    <path
        d="M42.6186 137.176C44.5155 137.176 46.0619 138.722 46.0619 140.619C46.0619 142.516 44.5155 144.062 42.6186 144.062C40.7217 144.062 39.1753 142.516 39.1753 140.619C39.1753 138.722 40.7217 137.176 42.6186 137.176Z"
        fill="url(#paint60_linear_0_1)" />
    <path
        d="M62.2062 137.176C64.1031 137.176 65.6495 138.722 65.6495 140.619C65.6495 142.516 64.1031 144.062 62.2062 144.062C60.3093 144.062 58.7629 142.516 58.7629 140.619C58.7629 138.722 60.3093 137.176 62.2062 137.176Z"
        fill="url(#paint61_linear_0_1)" />
    <path
        d="M81.7938 137.176C83.6907 137.176 85.2371 138.722 85.2371 140.619C85.2371 142.516 83.6907 144.062 81.7938 144.062C79.8969 144.062 78.3505 142.516 78.3505 140.619C78.3505 138.722 79.8969 137.176 81.7938 137.176Z"
        fill="url(#paint62_linear_0_1)" />
    <path
        d="M101.381 137.176C103.278 137.176 104.825 138.722 104.825 140.619C104.825 142.516 103.278 144.062 101.381 144.062C99.4845 144.062 97.9381 142.516 97.9381 140.619C97.9381 138.722 99.4845 137.176 101.381 137.176Z"
        fill="url(#paint63_linear_0_1)" />
    <path
        d="M120.969 137.176C122.866 137.176 124.412 138.722 124.412 140.619C124.412 142.516 122.866 144.062 120.969 144.062C119.072 144.062 117.526 142.516 117.526 140.619C117.526 138.722 119.072 137.176 120.969 137.176Z"
        fill="url(#paint64_linear_0_1)" />
    <path
        d="M140.557 137.176C142.454 137.176 144 138.722 144 140.619C144 142.516 142.454 144.062 140.557 144.062C138.66 144.062 137.113 142.516 137.113 140.619C137.113 138.722 138.66 137.176 140.557 137.176Z"
        fill="url(#paint65_linear_0_1)" />
    <defs>
        <filter id="filter0_f_0_1" x="167.8" y="839.532" width="160.4" height="160.4" filterUnits="userSpaceOnUse"
            color-interpolation-filters="sRGB">
            <feFlood flood-opacity="0" result="BackgroundImageFix" />
            <feBlend mode="normal" in="SourceGraphic" in2="BackgroundImageFix" result="shape" />
            <feGaussianBlur stdDeviation="5.85" result="effect1_foregroundBlur_0_1" />
        </filter>
        <linearGradient id="paint0_linear_0_1" x1="155.836" y1="-58.7681" x2="620.56" y2="54.5736"
            gradientUnits="userSpaceOnUse">
            <stop stop-color="#FDDDAE" stop-opacity="0.2" />
            <stop offset="1" stop-color="#F9A02D" stop-opacity="0.3" />
        </linearGradient>
        <linearGradient id="paint1_linear_0_1" x1="186.511" y1="851.232" x2="326.132" y2="885.284"
            gradientUnits="userSpaceOnUse">
            <stop stop-color="#FDDDAE" stop-opacity="0.2" />
            <stop offset="1" stop-color="#F9A02D" stop-opacity="0.3" />
        </linearGradient>
        <linearGradient id="paint2_linear_0_1" x1="7.36929" y1="0.0625048" x2="154.124" y2="35.8546"
            gradientUnits="userSpaceOnUse">
            <stop stop-color="#FDDDAE" stop-opacity="0.2" />
            <stop offset="1" stop-color="#F9A02D" stop-opacity="0.3" />
        </linearGradient>
        <linearGradient id="paint3_linear_0_1" x1="7.36929" y1="0.0625048" x2="154.124" y2="35.8546"
            gradientUnits="userSpaceOnUse">
            <stop stop-color="#FDDDAE" stop-opacity="0.2" />
            <stop offset="1" stop-color="#F9A02D" stop-opacity="0.3" />
        </linearGradient>
        <linearGradient id="paint4_linear_0_1" x1="7.36929" y1="0.0625048" x2="154.124" y2="35.8546"
            gradientUnits="userSpaceOnUse">
            <stop stop-color="#FDDDAE" stop-opacity="0.2" />
            <stop offset="1" stop-color="#F9A02D" stop-opacity="0.3" />
        </linearGradient>
        <linearGradient id="paint5_linear_0_1" x1="7.36929" y1="0.0625048" x2="154.124" y2="35.8546"
            gradientUnits="userSpaceOnUse">
            <stop stop-color="#FDDDAE" stop-opacity="0.2" />
            <stop offset="1" stop-color="#F9A02D" stop-opacity="0.3" />
        </linearGradient>
        <linearGradient id="paint6_linear_0_1" x1="7.36929" y1="0.0625048" x2="154.124" y2="35.8546"
            gradientUnits="userSpaceOnUse">
            <stop stop-color="#FDDDAE" stop-opacity="0.2" />
            <stop offset="1" stop-color="#F9A02D" stop-opacity="0.3" />
        </linearGradient>
        <linearGradient id="paint7_linear_0_1" x1="7.36929" y1="0.0625048" x2="154.124" y2="35.8546"
            gradientUnits="userSpaceOnUse">
            <stop stop-color="#FDDDAE" stop-opacity="0.2" />
            <stop offset="1" stop-color="#F9A02D" stop-opacity="0.3" />
        </linearGradient>
        <linearGradient id="paint8_linear_0_1" x1="7.36929" y1="0.0625048" x2="154.124" y2="35.8546"
            gradientUnits="userSpaceOnUse">
            <stop stop-color="#FDDDAE" stop-opacity="0.2" />
            <stop offset="1" stop-color="#F9A02D" stop-opacity="0.3" />
        </linearGradient>
        <linearGradient id="paint9_linear_0_1" x1="7.36929" y1="0.0625048" x2="154.124" y2="35.8546"
            gradientUnits="userSpaceOnUse">
            <stop stop-color="#FDDDAE" stop-opacity="0.2" />
            <stop offset="1" stop-color="#F9A02D" stop-opacity="0.3" />
        </linearGradient>
        <linearGradient id="paint10_linear_0_1" x1="7.36929" y1="0.0625048" x2="154.124" y2="35.8546"
            gradientUnits="userSpaceOnUse">
            <stop stop-color="#FDDDAE" stop-opacity="0.2" />
            <stop offset="1" stop-color="#F9A02D" stop-opacity="0.3" />
        </linearGradient>
        <linearGradient id="paint11_linear_0_1" x1="7.36929" y1="0.0625048" x2="154.124" y2="35.8546"
            gradientUnits="userSpaceOnUse">
            <stop stop-color="#FDDDAE" stop-opacity="0.2" />
            <stop offset="1" stop-color="#F9A02D" stop-opacity="0.3" />
        </linearGradient>
        <linearGradient id="paint12_linear_0_1" x1="7.36929" y1="0.0625048" x2="154.124" y2="35.8546"
            gradientUnits="userSpaceOnUse">
            <stop stop-color="#FDDDAE" stop-opacity="0.2" />
            <stop offset="1" stop-color="#F9A02D" stop-opacity="0.3" />
        </linearGradient>
        <linearGradient id="paint13_linear_0_1" x1="7.36929" y1="0.0625048" x2="154.124" y2="35.8546"
            gradientUnits="userSpaceOnUse">
            <stop stop-color="#FDDDAE" stop-opacity="0.2" />
            <stop offset="1" stop-color="#F9A02D" stop-opacity="0.3" />
        </linearGradient>
        <linearGradient id="paint14_linear_0_1" x1="7.36929" y1="0.0625048" x2="154.124" y2="35.8546"
            gradientUnits="userSpaceOnUse">
            <stop stop-color="#FDDDAE" stop-opacity="0.2" />
            <stop offset="1" stop-color="#F9A02D" stop-opacity="0.3" />
        </linearGradient>
        <linearGradient id="paint15_linear_0_1" x1="7.36929" y1="0.0625048" x2="154.124" y2="35.8546"
            gradientUnits="userSpaceOnUse">
            <stop stop-color="#FDDDAE" stop-opacity="0.2" />
            <stop offset="1" stop-color="#F9A02D" stop-opacity="0.3" />
        </linearGradient>
        <linearGradient id="paint16_linear_0_1" x1="7.36929" y1="0.0625048" x2="154.124" y2="35.8546"
            gradientUnits="userSpaceOnUse">
            <stop stop-color="#FDDDAE" stop-opacity="0.2" />
            <stop offset="1" stop-color="#F9A02D" stop-opacity="0.3" />
        </linearGradient>
        <linearGradient id="paint17_linear_0_1" x1="7.36929" y1="0.0625048" x2="154.124" y2="35.8546"
            gradientUnits="userSpaceOnUse">
            <stop stop-color="#FDDDAE" stop-opacity="0.2" />
            <stop offset="1" stop-color="#F9A02D" stop-opacity="0.3" />
        </linearGradient>
        <linearGradient id="paint18_linear_0_1" x1="7.36929" y1="0.0625048" x2="154.124" y2="35.8546"
            gradientUnits="userSpaceOnUse">
            <stop stop-color="#FDDDAE" stop-opacity="0.2" />
            <stop offset="1" stop-color="#F9A02D" stop-opacity="0.3" />
        </linearGradient>
        <linearGradient id="paint19_linear_0_1" x1="7.36929" y1="0.0625048" x2="154.124" y2="35.8546"
            gradientUnits="userSpaceOnUse">
            <stop stop-color="#FDDDAE" stop-opacity="0.2" />
            <stop offset="1" stop-color="#F9A02D" stop-opacity="0.3" />
        </linearGradient>
        <linearGradient id="paint20_linear_0_1" x1="7.36929" y1="0.0625048" x2="154.124" y2="35.8546"
            gradientUnits="userSpaceOnUse">
            <stop stop-color="#FDDDAE" stop-opacity="0.2" />
            <stop offset="1" stop-color="#F9A02D" stop-opacity="0.3" />
        </linearGradient>
        <linearGradient id="paint21_linear_0_1" x1="7.36929" y1="0.0625048" x2="154.124" y2="35.8546"
            gradientUnits="userSpaceOnUse">
            <stop stop-color="#FDDDAE" stop-opacity="0.2" />
            <stop offset="1" stop-color="#F9A02D" stop-opacity="0.3" />
        </linearGradient>
        <linearGradient id="paint22_linear_0_1" x1="7.36929" y1="0.0625048" x2="154.124" y2="35.8546"
            gradientUnits="userSpaceOnUse">
            <stop stop-color="#FDDDAE" stop-opacity="0.2" />
            <stop offset="1" stop-color="#F9A02D" stop-opacity="0.3" />
        </linearGradient>
        <linearGradient id="paint23_linear_0_1" x1="7.36929" y1="0.0625048" x2="154.124" y2="35.8546"
            gradientUnits="userSpaceOnUse">
            <stop stop-color="#FDDDAE" stop-opacity="0.2" />
            <stop offset="1" stop-color="#F9A02D" stop-opacity="0.3" />
        </linearGradient>
        <linearGradient id="paint24_linear_0_1" x1="7.36929" y1="0.0625048" x2="154.124" y2="35.8546"
            gradientUnits="userSpaceOnUse">
            <stop stop-color="#FDDDAE" stop-opacity="0.2" />
            <stop offset="1" stop-color="#F9A02D" stop-opacity="0.3" />
        </linearGradient>
        <linearGradient id="paint25_linear_0_1" x1="7.36929" y1="0.0625048" x2="154.124" y2="35.8546"
            gradientUnits="userSpaceOnUse">
            <stop stop-color="#FDDDAE" stop-opacity="0.2" />
            <stop offset="1" stop-color="#F9A02D" stop-opacity="0.3" />
        </linearGradient>
        <linearGradient id="paint26_linear_0_1" x1="7.36929" y1="0.0625048" x2="154.124" y2="35.8546"
            gradientUnits="userSpaceOnUse">
            <stop stop-color="#FDDDAE" stop-opacity="0.2" />
            <stop offset="1" stop-color="#F9A02D" stop-opacity="0.3" />
        </linearGradient>
        <linearGradient id="paint27_linear_0_1" x1="7.36929" y1="0.0625048" x2="154.124" y2="35.8546"
            gradientUnits="userSpaceOnUse">
            <stop stop-color="#FDDDAE" stop-opacity="0.2" />
            <stop offset="1" stop-color="#F9A02D" stop-opacity="0.3" />
        </linearGradient>
        <linearGradient id="paint28_linear_0_1" x1="7.36929" y1="0.0625048" x2="154.124" y2="35.8546"
            gradientUnits="userSpaceOnUse">
            <stop stop-color="#FDDDAE" stop-opacity="0.2" />
            <stop offset="1" stop-color="#F9A02D" stop-opacity="0.3" />
        </linearGradient>
        <linearGradient id="paint29_linear_0_1" x1="7.36929" y1="0.0625048" x2="154.124" y2="35.8546"
            gradientUnits="userSpaceOnUse">
            <stop stop-color="#FDDDAE" stop-opacity="0.2" />
            <stop offset="1" stop-color="#F9A02D" stop-opacity="0.3" />
        </linearGradient>
        <linearGradient id="paint30_linear_0_1" x1="7.36929" y1="0.0625048" x2="154.124" y2="35.8546"
            gradientUnits="userSpaceOnUse">
            <stop stop-color="#FDDDAE" stop-opacity="0.2" />
            <stop offset="1" stop-color="#F9A02D" stop-opacity="0.3" />
        </linearGradient>
        <linearGradient id="paint31_linear_0_1" x1="7.36929" y1="0.0625048" x2="154.124" y2="35.8546"
            gradientUnits="userSpaceOnUse">
            <stop stop-color="#FDDDAE" stop-opacity="0.2" />
            <stop offset="1" stop-color="#F9A02D" stop-opacity="0.3" />
        </linearGradient>
        <linearGradient id="paint32_linear_0_1" x1="7.36929" y1="0.0625048" x2="154.124" y2="35.8546"
            gradientUnits="userSpaceOnUse">
            <stop stop-color="#FDDDAE" stop-opacity="0.2" />
            <stop offset="1" stop-color="#F9A02D" stop-opacity="0.3" />
        </linearGradient>
        <linearGradient id="paint33_linear_0_1" x1="7.36929" y1="0.0625048" x2="154.124" y2="35.8546"
            gradientUnits="userSpaceOnUse">
            <stop stop-color="#FDDDAE" stop-opacity="0.2" />
            <stop offset="1" stop-color="#F9A02D" stop-opacity="0.3" />
        </linearGradient>
        <linearGradient id="paint34_linear_0_1" x1="7.36929" y1="0.0625048" x2="154.124" y2="35.8546"
            gradientUnits="userSpaceOnUse">
            <stop stop-color="#FDDDAE" stop-opacity="0.2" />
            <stop offset="1" stop-color="#F9A02D" stop-opacity="0.3" />
        </linearGradient>
        <linearGradient id="paint35_linear_0_1" x1="7.36929" y1="0.0625048" x2="154.124" y2="35.8546"
            gradientUnits="userSpaceOnUse">
            <stop stop-color="#FDDDAE" stop-opacity="0.2" />
            <stop offset="1" stop-color="#F9A02D" stop-opacity="0.3" />
        </linearGradient>
        <linearGradient id="paint36_linear_0_1" x1="7.36929" y1="0.0625048" x2="154.124" y2="35.8546"
            gradientUnits="userSpaceOnUse">
            <stop stop-color="#FDDDAE" stop-opacity="0.2" />
            <stop offset="1" stop-color="#F9A02D" stop-opacity="0.3" />
        </linearGradient>
        <linearGradient id="paint37_linear_0_1" x1="7.36929" y1="0.0625048" x2="154.124" y2="35.8546"
            gradientUnits="userSpaceOnUse">
            <stop stop-color="#FDDDAE" stop-opacity="0.2" />
            <stop offset="1" stop-color="#F9A02D" stop-opacity="0.3" />
        </linearGradient>
        <linearGradient id="paint38_linear_0_1" x1="7.36929" y1="0.0625048" x2="154.124" y2="35.8546"
            gradientUnits="userSpaceOnUse">
            <stop stop-color="#FDDDAE" stop-opacity="0.2" />
            <stop offset="1" stop-color="#F9A02D" stop-opacity="0.3" />
        </linearGradient>
        <linearGradient id="paint39_linear_0_1" x1="7.36929" y1="0.0625048" x2="154.124" y2="35.8546"
            gradientUnits="userSpaceOnUse">
            <stop stop-color="#FDDDAE" stop-opacity="0.2" />
            <stop offset="1" stop-color="#F9A02D" stop-opacity="0.3" />
        </linearGradient>
        <linearGradient id="paint40_linear_0_1" x1="7.36929" y1="0.0625048" x2="154.124" y2="35.8546"
            gradientUnits="userSpaceOnUse">
            <stop stop-color="#FDDDAE" stop-opacity="0.2" />
            <stop offset="1" stop-color="#F9A02D" stop-opacity="0.3" />
        </linearGradient>
        <linearGradient id="paint41_linear_0_1" x1="7.36929" y1="0.0625048" x2="154.124" y2="35.8546"
            gradientUnits="userSpaceOnUse">
            <stop stop-color="#FDDDAE" stop-opacity="0.2" />
            <stop offset="1" stop-color="#F9A02D" stop-opacity="0.3" />
        </linearGradient>
        <linearGradient id="paint42_linear_0_1" x1="7.36929" y1="0.0625048" x2="154.124" y2="35.8546"
            gradientUnits="userSpaceOnUse">
            <stop stop-color="#FDDDAE" stop-opacity="0.2" />
            <stop offset="1" stop-color="#F9A02D" stop-opacity="0.3" />
        </linearGradient>
        <linearGradient id="paint43_linear_0_1" x1="7.36929" y1="0.0625048" x2="154.124" y2="35.8546"
            gradientUnits="userSpaceOnUse">
            <stop stop-color="#FDDDAE" stop-opacity="0.2" />
            <stop offset="1" stop-color="#F9A02D" stop-opacity="0.3" />
        </linearGradient>
        <linearGradient id="paint44_linear_0_1" x1="7.36929" y1="0.0625048" x2="154.124" y2="35.8546"
            gradientUnits="userSpaceOnUse">
            <stop stop-color="#FDDDAE" stop-opacity="0.2" />
            <stop offset="1" stop-color="#F9A02D" stop-opacity="0.3" />
        </linearGradient>
        <linearGradient id="paint45_linear_0_1" x1="7.36929" y1="0.0625048" x2="154.124" y2="35.8546"
            gradientUnits="userSpaceOnUse">
            <stop stop-color="#FDDDAE" stop-opacity="0.2" />
            <stop offset="1" stop-color="#F9A02D" stop-opacity="0.3" />
        </linearGradient>
        <linearGradient id="paint46_linear_0_1" x1="7.36929" y1="0.0625048" x2="154.124" y2="35.8546"
            gradientUnits="userSpaceOnUse">
            <stop stop-color="#FDDDAE" stop-opacity="0.2" />
            <stop offset="1" stop-color="#F9A02D" stop-opacity="0.3" />
        </linearGradient>
        <linearGradient id="paint47_linear_0_1" x1="7.36929" y1="0.0625048" x2="154.124" y2="35.8546"
            gradientUnits="userSpaceOnUse">
            <stop stop-color="#FDDDAE" stop-opacity="0.2" />
            <stop offset="1" stop-color="#F9A02D" stop-opacity="0.3" />
        </linearGradient>
        <linearGradient id="paint48_linear_0_1" x1="7.36929" y1="0.0625048" x2="154.124" y2="35.8546"
            gradientUnits="userSpaceOnUse">
            <stop stop-color="#FDDDAE" stop-opacity="0.2" />
            <stop offset="1" stop-color="#F9A02D" stop-opacity="0.3" />
        </linearGradient>
        <linearGradient id="paint49_linear_0_1" x1="7.36929" y1="0.0625048" x2="154.124" y2="35.8546"
            gradientUnits="userSpaceOnUse">
            <stop stop-color="#FDDDAE" stop-opacity="0.2" />
            <stop offset="1" stop-color="#F9A02D" stop-opacity="0.3" />
        </linearGradient>
        <linearGradient id="paint50_linear_0_1" x1="7.36929" y1="0.0625048" x2="154.124" y2="35.8546"
            gradientUnits="userSpaceOnUse">
            <stop stop-color="#FDDDAE" stop-opacity="0.2" />
            <stop offset="1" stop-color="#F9A02D" stop-opacity="0.3" />
        </linearGradient>
        <linearGradient id="paint51_linear_0_1" x1="7.36929" y1="0.0625048" x2="154.124" y2="35.8546"
            gradientUnits="userSpaceOnUse">
            <stop stop-color="#FDDDAE" stop-opacity="0.2" />
            <stop offset="1" stop-color="#F9A02D" stop-opacity="0.3" />
        </linearGradient>
        <linearGradient id="paint52_linear_0_1" x1="7.36929" y1="0.0625048" x2="154.124" y2="35.8546"
            gradientUnits="userSpaceOnUse">
            <stop stop-color="#FDDDAE" stop-opacity="0.2" />
            <stop offset="1" stop-color="#F9A02D" stop-opacity="0.3" />
        </linearGradient>
        <linearGradient id="paint53_linear_0_1" x1="7.36929" y1="0.0625048" x2="154.124" y2="35.8546"
            gradientUnits="userSpaceOnUse">
            <stop stop-color="#FDDDAE" stop-opacity="0.2" />
            <stop offset="1" stop-color="#F9A02D" stop-opacity="0.3" />
        </linearGradient>
        <linearGradient id="paint54_linear_0_1" x1="7.36929" y1="0.0625048" x2="154.124" y2="35.8546"
            gradientUnits="userSpaceOnUse">
            <stop stop-color="#FDDDAE" stop-opacity="0.2" />
            <stop offset="1" stop-color="#F9A02D" stop-opacity="0.3" />
        </linearGradient>
        <linearGradient id="paint55_linear_0_1" x1="7.36929" y1="0.0625048" x2="154.124" y2="35.8546"
            gradientUnits="userSpaceOnUse">
            <stop stop-color="#FDDDAE" stop-opacity="0.2" />
            <stop offset="1" stop-color="#F9A02D" stop-opacity="0.3" />
        </linearGradient>
        <linearGradient id="paint56_linear_0_1" x1="7.36929" y1="0.0625048" x2="154.124" y2="35.8546"
            gradientUnits="userSpaceOnUse">
            <stop stop-color="#FDDDAE" stop-opacity="0.2" />
            <stop offset="1" stop-color="#F9A02D" stop-opacity="0.3" />
        </linearGradient>
        <linearGradient id="paint57_linear_0_1" x1="7.36929" y1="0.0625048" x2="154.124" y2="35.8546"
            gradientUnits="userSpaceOnUse">
            <stop stop-color="#FDDDAE" stop-opacity="0.2" />
            <stop offset="1" stop-color="#F9A02D" stop-opacity="0.3" />
        </linearGradient>
        <linearGradient id="paint58_linear_0_1" x1="7.36929" y1="0.0625048" x2="154.124" y2="35.8546"
            gradientUnits="userSpaceOnUse">
            <stop stop-color="#FDDDAE" stop-opacity="0.2" />
            <stop offset="1" stop-color="#F9A02D" stop-opacity="0.3" />
        </linearGradient>
        <linearGradient id="paint59_linear_0_1" x1="7.36929" y1="0.0625048" x2="154.124" y2="35.8546"
            gradientUnits="userSpaceOnUse">
            <stop stop-color="#FDDDAE" stop-opacity="0.2" />
            <stop offset="1" stop-color="#F9A02D" stop-opacity="0.3" />
        </linearGradient>
        <linearGradient id="paint60_linear_0_1" x1="7.36929" y1="0.0625048" x2="154.124" y2="35.8546"
            gradientUnits="userSpaceOnUse">
            <stop stop-color="#FDDDAE" stop-opacity="0.2" />
            <stop offset="1" stop-color="#F9A02D" stop-opacity="0.3" />
        </linearGradient>
        <linearGradient id="paint61_linear_0_1" x1="7.36929" y1="0.0625048" x2="154.124" y2="35.8546"
            gradientUnits="userSpaceOnUse">
            <stop stop-color="#FDDDAE" stop-opacity="0.2" />
            <stop offset="1" stop-color="#F9A02D" stop-opacity="0.3" />
        </linearGradient>
        <linearGradient id="paint62_linear_0_1" x1="7.36929" y1="0.0625048" x2="154.124" y2="35.8546"
            gradientUnits="userSpaceOnUse">
            <stop stop-color="#FDDDAE" stop-opacity="0.2" />
            <stop offset="1" stop-color="#F9A02D" stop-opacity="0.3" />
        </linearGradient>
        <linearGradient id="paint63_linear_0_1" x1="7.36929" y1="0.0625048" x2="154.124" y2="35.8546"
            gradientUnits="userSpaceOnUse">
            <stop stop-color="#FDDDAE" stop-opacity="0.2" />
            <stop offset="1" stop-color="#F9A02D" stop-opacity="0.3" />
        </linearGradient>
        <linearGradient id="paint64_linear_0_1" x1="7.36929" y1="0.0625048" x2="154.124" y2="35.8546"
            gradientUnits="userSpaceOnUse">
            <stop stop-color="#FDDDAE" stop-opacity="0.2" />
            <stop offset="1" stop-color="#F9A02D" stop-opacity="0.3" />
        </linearGradient>
        <linearGradient id="paint65_linear_0_1" x1="7.36929" y1="0.0625048" x2="154.124" y2="35.8546"
            gradientUnits="userSpaceOnUse">
            <stop stop-color="#FDDDAE" stop-opacity="0.2" />
            <stop offset="1" stop-color="#F9A02D" stop-opacity="0.3" />
        </linearGradient>
    </defs>
</svg>