<svg width="358" height="389" viewBox="0 0 358 389" fill="none" xmlns="http://www.w3.org/2000/svg">
<g clip-path="url(#clip0_2004_16336)">
<path d="M358.456 14.7843L206.434 150.033L286.401 178.436L358.456 14.7843Z" fill="#FF76C6"/>
<path d="M206.433 150.033L193.847 138.375L358.455 14.7843L206.433 150.033Z" fill="#E73C59"/>
<path d="M193.847 138.375L156.336 137.066L358.456 14.7843L193.847 138.375Z" fill="#FF76C6"/>
<path d="M206.434 150.033L226.512 175.299L237.54 161.073L206.434 150.033Z" fill="#E73C59"/>
<path d="M21.9248 380.272L20.2681 378.296C23.5568 375.53 26.7466 372.665 29.7633 369.775L31.5437 371.628C28.4775 374.567 25.2383 377.456 21.9248 380.247V380.272ZM40.5938 362.39L38.6899 360.661C41.5829 357.5 44.3524 354.24 46.9487 350.93L48.9764 352.511C46.3553 355.845 43.5364 359.155 40.5938 362.366V362.39ZM56.5923 342.088L54.4658 340.656C56.8396 337.124 59.0898 333.469 61.1421 329.813L63.3923 331.073C61.3152 334.778 59.0156 338.507 56.5923 342.088ZM69.2279 319.514L66.8788 318.452C68.6345 314.55 70.217 310.573 71.577 306.621L74.0003 307.461C72.6155 311.462 71.0083 315.513 69.2032 319.514H69.2279ZM77.6104 295.013L75.113 294.42C76.1021 290.246 76.8439 286.023 77.3137 281.923L79.8606 282.219C79.3661 286.418 78.5995 290.716 77.6104 295.013ZM96.6751 278.465C93.6089 278.984 90.4686 279.404 87.4024 279.7L87.1551 277.156C91.334 276.761 95.6118 276.119 99.7412 275.304L100.236 277.823C99.0489 278.045 97.862 278.268 96.6503 278.465H96.6751ZM112.847 274.686L112.105 272.216C116.111 271.031 120.166 269.598 124.122 268.018L125.087 270.413C121.056 272.019 116.927 273.451 112.847 274.686ZM74.4701 280.293C69.9945 280.293 65.6425 280.12 61.513 279.749L61.7356 277.181C65.7661 277.551 70.0439 277.724 74.4453 277.699V280.268L74.4701 280.293ZM136.906 265.103L135.769 262.806C139.503 260.929 143.286 258.879 146.97 256.681L148.281 258.879C144.547 261.102 140.714 263.202 136.931 265.103H136.906ZM48.6549 277.823C44.1793 276.86 39.9757 275.575 36.1677 274.044L37.132 271.648C40.8164 273.13 44.8716 274.34 49.2236 275.279L48.6796 277.798L48.6549 277.823ZM80.553 269.228L77.9813 269.277C77.9071 265.004 77.561 260.855 76.8933 256.953L79.3908 256.261L79.4402 256.508C80.1326 260.559 80.5035 264.832 80.5777 269.228H80.553ZM159.161 251.89L157.702 249.79C161.139 247.395 164.601 244.851 167.964 242.183L169.546 244.208C166.134 246.901 162.647 249.494 159.161 251.914V251.89ZM24.5954 267.87C20.7379 265.128 17.5728 262.016 15.199 258.583L17.3008 257.126C19.5016 260.312 22.4688 263.226 26.079 265.795L24.5954 267.894V267.87ZM179.437 235.86L177.731 233.934C180.871 231.143 184.011 228.204 187.053 225.191L188.858 227.018C185.767 230.081 182.602 233.045 179.437 235.86ZM73.5304 244.579C71.9232 240.479 69.9203 236.799 67.5712 233.638L69.6235 232.106C72.121 235.44 74.2475 239.318 75.929 243.64L73.5304 244.579ZM197.834 217.682L195.93 215.953C198.774 212.841 201.617 209.581 204.337 206.296L206.315 207.926C203.571 211.261 200.702 214.521 197.834 217.682ZM12.8747 245.863L10.3278 246.16C9.80851 241.59 10.6245 237.021 12.7016 232.971L15.0012 234.156C13.1467 237.737 12.4296 241.788 12.8994 245.863H12.8747ZM58.5952 225.24C55.1087 223.042 51.2513 221.609 47.1218 220.992L47.4927 218.448C51.9683 219.115 56.1472 220.671 59.9552 223.067L58.5705 225.24H58.5952ZM214.302 197.751L212.25 196.219C216.973 189.847 219.52 185.747 219.544 185.723L221.745 187.081C221.646 187.254 219.124 191.304 214.327 197.775L214.302 197.751ZM23.2106 225.413L21.8506 223.239C25.4114 220.992 29.5903 219.461 34.2637 218.695L34.7582 221.214C30.3815 221.955 26.5241 223.363 23.2354 225.413H23.2106Z" fill="#38BCFF"/>
</g>
<defs>
<clipPath id="clip0_2004_16336">
<rect width="358" height="389" fill="white" transform="translate(0 0.000488281)"/>
</clipPath>
</defs>
</svg>
