<svg width="209" height="210" viewBox="0 0 209 210" fill="none" xmlns="http://www.w3.org/2000/svg">
<g clip-path="url(#clip0_2004_13836)">
<path d="M193.529 77.6281C204.749 130.353 170.997 182.174 118.151 193.368C65.3044 204.562 13.364 170.888 2.14418 118.163C-9.0572 65.4381 24.6763 13.6169 77.5224 2.42276C130.369 -8.77137 182.309 24.9032 193.529 77.6281Z" fill="#FFDB18"/>
<path d="M14.9166 46.1847C1.94077 66.8763 -3.32721 92.3997 2.14409 118.163C2.32893 119.011 2.55074 119.841 2.75407 120.671C43.0679 87.531 75.0085 76.7057 75.0085 76.7057C75.0085 76.7057 54.5836 59.6656 14.8981 46.1663L14.9166 46.1847Z" fill="#ADBE34"/>
<path d="M187.17 58.0981C172.42 25.0874 140.424 3.01269 104.62 0.541504C78.7422 44.1562 75.0269 76.7242 75.0269 76.7242C75.0269 76.7242 117.356 57.2129 187.17 58.0981Z" fill="#7EABF2"/>
<path d="M75.027 76.7243C75.027 76.7243 53.2342 135.443 74.8236 192.778C88.6128 196.116 103.363 196.522 118.169 193.368C136.302 189.532 152.18 180.902 164.767 169.099C123.585 100.367 75.027 76.7058 75.027 76.7058V76.7243Z" fill="#D6213E"/>
<path d="M89.7588 87.1436C83.8993 99.352 72.5501 106.083 64.3986 102.192C56.2471 98.3009 54.3987 85.2441 60.2581 73.0357C66.1176 60.8273 77.4669 54.0961 85.6183 57.9873C93.7698 61.8785 95.6183 74.9352 89.7588 87.1436Z" fill="white"/>
<path opacity="0.1" d="M114.14 1.66626C136.838 15.0918 154.084 37.5723 159.999 65.364C171.219 118.089 137.467 169.91 84.6205 181.104C72.1991 183.741 59.8148 183.852 48.0034 181.86C68.3729 193.903 93.1601 198.661 118.151 193.368C170.997 182.174 204.749 130.353 193.529 77.6277C184.952 37.3141 152.55 8.15774 114.14 1.66626Z" fill="black"/>
</g>
<defs>
<clipPath id="clip0_2004_13836">
<rect width="209" height="209" fill="white" transform="translate(0 0.283203)"/>
</clipPath>
</defs>
</svg>
