<svg width="237" height="237" viewBox="0 0 237 237" fill="none" xmlns="http://www.w3.org/2000/svg">
<g clip-path="url(#clip0_64_3251)">
<path d="M5.66791 0C8.79035 0 11.3358 2.54547 11.3358 5.66791C11.3358 8.79035 8.79035 11.3358 5.66791 11.3358C2.54547 11.3358 0 8.79035 0 5.66791C0 2.54547 2.54547 0 5.66791 0Z" fill="url(#paint0_linear_64_3251)"/>
<path d="M37.9105 0C41.0329 0 43.5784 2.54547 43.5784 5.66791C43.5784 8.79035 41.0329 11.3358 37.9105 11.3358C34.7881 11.3358 32.2426 8.79035 32.2426 5.66791C32.2426 2.54547 34.7881 0 37.9105 0Z" fill="url(#paint1_linear_64_3251)"/>
<path d="M70.1531 0C73.2755 0 75.821 2.54547 75.821 5.66791C75.821 8.79035 73.2755 11.3358 70.1531 11.3358C67.0306 11.3358 64.4852 8.79035 64.4852 5.66791C64.4852 2.54547 67.0306 0 70.1531 0Z" fill="url(#paint2_linear_64_3251)"/>
<path d="M102.396 0C105.518 0 108.064 2.54547 108.064 5.66791C108.064 8.79035 105.518 11.3358 102.396 11.3358C99.2732 11.3358 96.7278 8.79035 96.7278 5.66791C96.7278 2.54547 99.2732 0 102.396 0Z" fill="url(#paint3_linear_64_3251)"/>
<path d="M134.638 0C137.761 0 140.306 2.54547 140.306 5.66791C140.306 8.79035 137.761 11.3358 134.638 11.3358C131.516 11.3358 128.97 8.79035 128.97 5.66791C128.97 2.54547 131.516 0 134.638 0Z" fill="url(#paint4_linear_64_3251)"/>
<path d="M166.881 0C170.003 0 172.549 2.54547 172.549 5.66791C172.549 8.79035 170.003 11.3358 166.881 11.3358C163.758 11.3358 161.213 8.79035 161.213 5.66791C161.213 2.54547 163.758 0 166.881 0Z" fill="url(#paint5_linear_64_3251)"/>
<path d="M199.123 0C202.246 0 204.791 2.54547 204.791 5.66791C204.791 8.79035 202.246 11.3358 199.123 11.3358C196.001 11.3358 193.456 8.79035 193.456 5.66791C193.456 2.54547 196.001 0 199.123 0Z" fill="url(#paint6_linear_64_3251)"/>
<path d="M231.366 0C234.488 0 237.034 2.54547 237.034 5.66791C237.034 8.79035 234.488 11.3358 231.366 11.3358C228.244 11.3358 225.698 8.79035 225.698 5.66791C225.698 2.54547 228.244 0 231.366 0Z" fill="url(#paint7_linear_64_3251)"/>
<path d="M5.66791 32.2426C8.79035 32.2426 11.3358 34.7881 11.3358 37.9105C11.3358 41.0329 8.79035 43.5784 5.66791 43.5784C2.54547 43.5784 0 41.0329 0 37.9105C0 34.7881 2.54547 32.2426 5.66791 32.2426Z" fill="url(#paint8_linear_64_3251)"/>
<path d="M37.9105 32.2426C41.0329 32.2426 43.5784 34.7881 43.5784 37.9105C43.5784 41.0329 41.0329 43.5784 37.9105 43.5784C34.7881 43.5784 32.2426 41.0329 32.2426 37.9105C32.2426 34.7881 34.7881 32.2426 37.9105 32.2426Z" fill="url(#paint9_linear_64_3251)"/>
<path d="M70.1531 32.2426C73.2755 32.2426 75.821 34.7881 75.821 37.9105C75.821 41.0329 73.2755 43.5784 70.1531 43.5784C67.0306 43.5784 64.4852 41.0329 64.4852 37.9105C64.4852 34.7881 67.0306 32.2426 70.1531 32.2426Z" fill="url(#paint10_linear_64_3251)"/>
<path d="M102.396 32.2426C105.518 32.2426 108.064 34.7881 108.064 37.9105C108.064 41.0329 105.518 43.5784 102.396 43.5784C99.2732 43.5784 96.7278 41.0329 96.7278 37.9105C96.7278 34.7881 99.2732 32.2426 102.396 32.2426Z" fill="url(#paint11_linear_64_3251)"/>
<path d="M134.638 32.2426C137.761 32.2426 140.306 34.7881 140.306 37.9105C140.306 41.0329 137.761 43.5784 134.638 43.5784C131.516 43.5784 128.97 41.0329 128.97 37.9105C128.97 34.7881 131.516 32.2426 134.638 32.2426Z" fill="url(#paint12_linear_64_3251)"/>
<path d="M166.881 32.2426C170.003 32.2426 172.549 34.7881 172.549 37.9105C172.549 41.0329 170.003 43.5784 166.881 43.5784C163.758 43.5784 161.213 41.0329 161.213 37.9105C161.213 34.7881 163.758 32.2426 166.881 32.2426Z" fill="url(#paint13_linear_64_3251)"/>
<path d="M199.123 32.2426C202.246 32.2426 204.791 34.7881 204.791 37.9105C204.791 41.0329 202.246 43.5784 199.123 43.5784C196.001 43.5784 193.456 41.0329 193.456 37.9105C193.456 34.7881 196.001 32.2426 199.123 32.2426Z" fill="url(#paint14_linear_64_3251)"/>
<path d="M231.366 32.2426C234.488 32.2426 237.034 34.7881 237.034 37.9105C237.034 41.0329 234.488 43.5784 231.366 43.5784C228.244 43.5784 225.698 41.0329 225.698 37.9105C225.698 34.7881 228.244 32.2426 231.366 32.2426Z" fill="url(#paint15_linear_64_3251)"/>
<path d="M5.66791 64.4852C8.79035 64.4852 11.3358 67.0306 11.3358 70.1531C11.3358 73.2755 8.79035 75.821 5.66791 75.821C2.54547 75.821 0 73.2755 0 70.1531C0 67.0306 2.54547 64.4852 5.66791 64.4852Z" fill="url(#paint16_linear_64_3251)"/>
<path d="M37.9105 64.4852C41.0329 64.4852 43.5784 67.0306 43.5784 70.1531C43.5784 73.2755 41.0329 75.821 37.9105 75.821C34.7881 75.821 32.2426 73.2755 32.2426 70.1531C32.2426 67.0306 34.7881 64.4852 37.9105 64.4852Z" fill="url(#paint17_linear_64_3251)"/>
<path d="M70.1531 64.4852C73.2755 64.4852 75.821 67.0306 75.821 70.1531C75.821 73.2755 73.2755 75.821 70.1531 75.821C67.0306 75.821 64.4852 73.2755 64.4852 70.1531C64.4852 67.0306 67.0306 64.4852 70.1531 64.4852Z" fill="url(#paint18_linear_64_3251)"/>
<path d="M102.396 64.4852C105.518 64.4852 108.064 67.0306 108.064 70.1531C108.064 73.2755 105.518 75.821 102.396 75.821C99.2732 75.821 96.7278 73.2755 96.7278 70.1531C96.7278 67.0306 99.2732 64.4852 102.396 64.4852Z" fill="url(#paint19_linear_64_3251)"/>
<path d="M134.638 64.4852C137.761 64.4852 140.306 67.0306 140.306 70.1531C140.306 73.2755 137.761 75.821 134.638 75.821C131.516 75.821 128.97 73.2755 128.97 70.1531C128.97 67.0306 131.516 64.4852 134.638 64.4852Z" fill="url(#paint20_linear_64_3251)"/>
<path d="M166.881 64.4852C170.003 64.4852 172.549 67.0306 172.549 70.1531C172.549 73.2755 170.003 75.821 166.881 75.821C163.758 75.821 161.213 73.2755 161.213 70.1531C161.213 67.0306 163.758 64.4852 166.881 64.4852Z" fill="url(#paint21_linear_64_3251)"/>
<path d="M199.123 64.4852C202.246 64.4852 204.791 67.0306 204.791 70.1531C204.791 73.2755 202.246 75.821 199.123 75.821C196.001 75.821 193.456 73.2755 193.456 70.1531C193.456 67.0306 196.001 64.4852 199.123 64.4852Z" fill="url(#paint22_linear_64_3251)"/>
<path d="M231.366 64.4852C234.488 64.4852 237.034 67.0306 237.034 70.1531C237.034 73.2755 234.488 75.821 231.366 75.821C228.244 75.821 225.698 73.2755 225.698 70.1531C225.698 67.0306 228.244 64.4852 231.366 64.4852Z" fill="url(#paint23_linear_64_3251)"/>
<path d="M5.66791 96.7278C8.79035 96.7278 11.3358 99.2732 11.3358 102.396C11.3358 105.518 8.79035 108.064 5.66791 108.064C2.54547 108.064 0 105.518 0 102.396C0 99.2732 2.54547 96.7278 5.66791 96.7278Z" fill="url(#paint24_linear_64_3251)"/>
<path d="M37.9105 96.7278C41.0329 96.7278 43.5784 99.2732 43.5784 102.396C43.5784 105.518 41.0329 108.064 37.9105 108.064C34.7881 108.064 32.2426 105.518 32.2426 102.396C32.2426 99.2732 34.7881 96.7278 37.9105 96.7278Z" fill="url(#paint25_linear_64_3251)"/>
<path d="M70.1531 96.7278C73.2755 96.7278 75.821 99.2732 75.821 102.396C75.821 105.518 73.2755 108.064 70.1531 108.064C67.0306 108.064 64.4852 105.518 64.4852 102.396C64.4852 99.2732 67.0306 96.7278 70.1531 96.7278Z" fill="url(#paint26_linear_64_3251)"/>
<path d="M102.396 96.7278C105.518 96.7278 108.064 99.2732 108.064 102.396C108.064 105.518 105.518 108.064 102.396 108.064C99.2732 108.064 96.7278 105.518 96.7278 102.396C96.7278 99.2732 99.2732 96.7278 102.396 96.7278Z" fill="url(#paint27_linear_64_3251)"/>
<path d="M134.638 96.7278C137.761 96.7278 140.306 99.2732 140.306 102.396C140.306 105.518 137.761 108.064 134.638 108.064C131.516 108.064 128.97 105.518 128.97 102.396C128.97 99.2732 131.516 96.7278 134.638 96.7278Z" fill="url(#paint28_linear_64_3251)"/>
<path d="M166.881 96.7278C170.003 96.7278 172.549 99.2732 172.549 102.396C172.549 105.518 170.003 108.064 166.881 108.064C163.758 108.064 161.213 105.518 161.213 102.396C161.213 99.2732 163.758 96.7278 166.881 96.7278Z" fill="url(#paint29_linear_64_3251)"/>
<path d="M199.123 96.7278C202.246 96.7278 204.791 99.2732 204.791 102.396C204.791 105.518 202.246 108.064 199.123 108.064C196.001 108.064 193.456 105.518 193.456 102.396C193.456 99.2732 196.001 96.7278 199.123 96.7278Z" fill="url(#paint30_linear_64_3251)"/>
<path d="M231.366 96.7278C234.488 96.7278 237.034 99.2732 237.034 102.396C237.034 105.518 234.488 108.064 231.366 108.064C228.244 108.064 225.698 105.518 225.698 102.396C225.698 99.2732 228.244 96.7278 231.366 96.7278Z" fill="url(#paint31_linear_64_3251)"/>
<path d="M5.66791 128.97C8.79035 128.97 11.3358 131.516 11.3358 134.638C11.3358 137.761 8.79035 140.306 5.66791 140.306C2.54547 140.306 0 137.761 0 134.638C0 131.516 2.54547 128.97 5.66791 128.97Z" fill="url(#paint32_linear_64_3251)"/>
<path d="M37.9105 128.97C41.0329 128.97 43.5784 131.516 43.5784 134.638C43.5784 137.761 41.0329 140.306 37.9105 140.306C34.7881 140.306 32.2426 137.761 32.2426 134.638C32.2426 131.516 34.7881 128.97 37.9105 128.97Z" fill="url(#paint33_linear_64_3251)"/>
<path d="M70.1531 128.97C73.2755 128.97 75.821 131.516 75.821 134.638C75.821 137.761 73.2755 140.306 70.1531 140.306C67.0306 140.306 64.4852 137.761 64.4852 134.638C64.4852 131.516 67.0306 128.97 70.1531 128.97Z" fill="url(#paint34_linear_64_3251)"/>
<path d="M102.396 128.97C105.518 128.97 108.064 131.516 108.064 134.638C108.064 137.761 105.518 140.306 102.396 140.306C99.2732 140.306 96.7278 137.761 96.7278 134.638C96.7278 131.516 99.2732 128.97 102.396 128.97Z" fill="url(#paint35_linear_64_3251)"/>
<path d="M134.638 128.97C137.761 128.97 140.306 131.516 140.306 134.638C140.306 137.761 137.761 140.306 134.638 140.306C131.516 140.306 128.97 137.761 128.97 134.638C128.97 131.516 131.516 128.97 134.638 128.97Z" fill="url(#paint36_linear_64_3251)"/>
<path d="M166.881 128.97C170.003 128.97 172.549 131.516 172.549 134.638C172.549 137.761 170.003 140.306 166.881 140.306C163.758 140.306 161.213 137.761 161.213 134.638C161.213 131.516 163.758 128.97 166.881 128.97Z" fill="url(#paint37_linear_64_3251)"/>
<path d="M199.123 128.97C202.246 128.97 204.791 131.516 204.791 134.638C204.791 137.761 202.246 140.306 199.123 140.306C196.001 140.306 193.456 137.761 193.456 134.638C193.456 131.516 196.001 128.97 199.123 128.97Z" fill="url(#paint38_linear_64_3251)"/>
<path d="M231.366 128.97C234.488 128.97 237.034 131.516 237.034 134.638C237.034 137.761 234.488 140.306 231.366 140.306C228.244 140.306 225.698 137.761 225.698 134.638C225.698 131.516 228.244 128.97 231.366 128.97Z" fill="url(#paint39_linear_64_3251)"/>
<path d="M5.66791 161.213C8.79035 161.213 11.3358 163.758 11.3358 166.881C11.3358 170.003 8.79035 172.549 5.66791 172.549C2.54547 172.549 0 170.003 0 166.881C0 163.758 2.54547 161.213 5.66791 161.213Z" fill="url(#paint40_linear_64_3251)"/>
<path d="M37.9105 161.213C41.0329 161.213 43.5784 163.758 43.5784 166.881C43.5784 170.003 41.0329 172.549 37.9105 172.549C34.7881 172.549 32.2426 170.003 32.2426 166.881C32.2426 163.758 34.7881 161.213 37.9105 161.213Z" fill="url(#paint41_linear_64_3251)"/>
<path d="M70.1531 161.213C73.2755 161.213 75.821 163.758 75.821 166.881C75.821 170.003 73.2755 172.549 70.1531 172.549C67.0306 172.549 64.4852 170.003 64.4852 166.881C64.4852 163.758 67.0306 161.213 70.1531 161.213Z" fill="url(#paint42_linear_64_3251)"/>
<path d="M102.396 161.213C105.518 161.213 108.064 163.758 108.064 166.881C108.064 170.003 105.518 172.549 102.396 172.549C99.2732 172.549 96.7278 170.003 96.7278 166.881C96.7278 163.758 99.2732 161.213 102.396 161.213Z" fill="url(#paint43_linear_64_3251)"/>
<path d="M134.638 161.213C137.761 161.213 140.306 163.758 140.306 166.881C140.306 170.003 137.761 172.549 134.638 172.549C131.516 172.549 128.97 170.003 128.97 166.881C128.97 163.758 131.516 161.213 134.638 161.213Z" fill="url(#paint44_linear_64_3251)"/>
<path d="M166.881 161.213C170.003 161.213 172.549 163.758 172.549 166.881C172.549 170.003 170.003 172.549 166.881 172.549C163.758 172.549 161.213 170.003 161.213 166.881C161.213 163.758 163.758 161.213 166.881 161.213Z" fill="url(#paint45_linear_64_3251)"/>
<path d="M199.123 161.213C202.246 161.213 204.791 163.758 204.791 166.881C204.791 170.003 202.246 172.549 199.123 172.549C196.001 172.549 193.456 170.003 193.456 166.881C193.456 163.758 196.001 161.213 199.123 161.213Z" fill="url(#paint46_linear_64_3251)"/>
<path d="M231.366 161.213C234.488 161.213 237.034 163.758 237.034 166.881C237.034 170.003 234.488 172.549 231.366 172.549C228.244 172.549 225.698 170.003 225.698 166.881C225.698 163.758 228.244 161.213 231.366 161.213Z" fill="url(#paint47_linear_64_3251)"/>
<path d="M5.66791 193.456C8.79035 193.456 11.3358 196.001 11.3358 199.123C11.3358 202.246 8.79035 204.791 5.66791 204.791C2.54547 204.791 0 202.246 0 199.123C0 196.001 2.54547 193.456 5.66791 193.456Z" fill="url(#paint48_linear_64_3251)"/>
<path d="M37.9105 193.456C41.0329 193.456 43.5784 196.001 43.5784 199.123C43.5784 202.246 41.0329 204.791 37.9105 204.791C34.7881 204.791 32.2426 202.246 32.2426 199.123C32.2426 196.001 34.7881 193.456 37.9105 193.456Z" fill="url(#paint49_linear_64_3251)"/>
<path d="M70.1531 193.456C73.2755 193.456 75.821 196.001 75.821 199.123C75.821 202.246 73.2755 204.791 70.1531 204.791C67.0306 204.791 64.4852 202.246 64.4852 199.123C64.4852 196.001 67.0306 193.456 70.1531 193.456Z" fill="url(#paint50_linear_64_3251)"/>
<path d="M102.396 193.456C105.518 193.456 108.064 196.001 108.064 199.123C108.064 202.246 105.518 204.791 102.396 204.791C99.2732 204.791 96.7278 202.246 96.7278 199.123C96.7278 196.001 99.2732 193.456 102.396 193.456Z" fill="url(#paint51_linear_64_3251)"/>
<path d="M134.638 193.456C137.761 193.456 140.306 196.001 140.306 199.123C140.306 202.246 137.761 204.791 134.638 204.791C131.516 204.791 128.97 202.246 128.97 199.123C128.97 196.001 131.516 193.456 134.638 193.456Z" fill="url(#paint52_linear_64_3251)"/>
<path d="M166.881 193.456C170.003 193.456 172.549 196.001 172.549 199.123C172.549 202.246 170.003 204.791 166.881 204.791C163.758 204.791 161.213 202.246 161.213 199.123C161.213 196.001 163.758 193.456 166.881 193.456Z" fill="url(#paint53_linear_64_3251)"/>
<path d="M199.123 193.456C202.246 193.456 204.791 196.001 204.791 199.123C204.791 202.246 202.246 204.791 199.123 204.791C196.001 204.791 193.456 202.246 193.456 199.123C193.456 196.001 196.001 193.456 199.123 193.456Z" fill="url(#paint54_linear_64_3251)"/>
<path d="M231.366 193.456C234.488 193.456 237.034 196.001 237.034 199.123C237.034 202.246 234.488 204.791 231.366 204.791C228.244 204.791 225.698 202.246 225.698 199.123C225.698 196.001 228.244 193.456 231.366 193.456Z" fill="url(#paint55_linear_64_3251)"/>
<path d="M5.66791 225.698C8.79035 225.698 11.3358 228.244 11.3358 231.366C11.3358 234.488 8.79035 237.034 5.66791 237.034C2.54547 237.034 0 234.488 0 231.366C0 228.244 2.54547 225.698 5.66791 225.698Z" fill="url(#paint56_linear_64_3251)"/>
<path d="M37.9105 225.698C41.0329 225.698 43.5784 228.244 43.5784 231.366C43.5784 234.488 41.0329 237.034 37.9105 237.034C34.7881 237.034 32.2426 234.488 32.2426 231.366C32.2426 228.244 34.7881 225.698 37.9105 225.698Z" fill="url(#paint57_linear_64_3251)"/>
<path d="M70.1531 225.698C73.2755 225.698 75.821 228.244 75.821 231.366C75.821 234.488 73.2755 237.034 70.1531 237.034C67.0306 237.034 64.4852 234.488 64.4852 231.366C64.4852 228.244 67.0306 225.698 70.1531 225.698Z" fill="url(#paint58_linear_64_3251)"/>
<path d="M102.396 225.698C105.518 225.698 108.064 228.244 108.064 231.366C108.064 234.488 105.518 237.034 102.396 237.034C99.2732 237.034 96.7278 234.488 96.7278 231.366C96.7278 228.244 99.2732 225.698 102.396 225.698Z" fill="url(#paint59_linear_64_3251)"/>
<path d="M134.638 225.698C137.761 225.698 140.306 228.244 140.306 231.366C140.306 234.488 137.761 237.034 134.638 237.034C131.516 237.034 128.97 234.488 128.97 231.366C128.97 228.244 131.516 225.698 134.638 225.698Z" fill="url(#paint60_linear_64_3251)"/>
<path d="M166.881 225.698C170.003 225.698 172.549 228.244 172.549 231.366C172.549 234.488 170.003 237.034 166.881 237.034C163.758 237.034 161.213 234.488 161.213 231.366C161.213 228.244 163.758 225.698 166.881 225.698Z" fill="url(#paint61_linear_64_3251)"/>
<path d="M199.123 225.698C202.246 225.698 204.791 228.244 204.791 231.366C204.791 234.488 202.246 237.034 199.123 237.034C196.001 237.034 193.456 234.488 193.456 231.366C193.456 228.244 196.001 225.698 199.123 225.698Z" fill="url(#paint62_linear_64_3251)"/>
<path d="M231.366 225.698C234.488 225.698 237.034 228.244 237.034 231.366C237.034 234.488 234.488 237.034 231.366 237.034C228.244 237.034 225.698 234.488 225.698 231.366C225.698 228.244 228.244 225.698 231.366 225.698Z" fill="url(#paint63_linear_64_3251)"/>
</g>
<defs>
<linearGradient id="paint0_linear_64_3251" x1="12.1304" y1="7.92602e-06" x2="253.699" y2="58.9163" gradientUnits="userSpaceOnUse">
<stop stop-color="#FDDDAE" stop-opacity="0.2"/>
<stop offset="1" stop-color="#F9A02D" stop-opacity="0.3"/>
</linearGradient>
<linearGradient id="paint1_linear_64_3251" x1="12.1304" y1="7.92602e-06" x2="253.699" y2="58.9163" gradientUnits="userSpaceOnUse">
<stop stop-color="#FDDDAE" stop-opacity="0.2"/>
<stop offset="1" stop-color="#F9A02D" stop-opacity="0.3"/>
</linearGradient>
<linearGradient id="paint2_linear_64_3251" x1="12.1304" y1="7.92602e-06" x2="253.699" y2="58.9163" gradientUnits="userSpaceOnUse">
<stop stop-color="#FDDDAE" stop-opacity="0.2"/>
<stop offset="1" stop-color="#F9A02D" stop-opacity="0.3"/>
</linearGradient>
<linearGradient id="paint3_linear_64_3251" x1="12.1304" y1="7.92602e-06" x2="253.699" y2="58.9163" gradientUnits="userSpaceOnUse">
<stop stop-color="#FDDDAE" stop-opacity="0.2"/>
<stop offset="1" stop-color="#F9A02D" stop-opacity="0.3"/>
</linearGradient>
<linearGradient id="paint4_linear_64_3251" x1="12.1304" y1="7.92602e-06" x2="253.699" y2="58.9163" gradientUnits="userSpaceOnUse">
<stop stop-color="#FDDDAE" stop-opacity="0.2"/>
<stop offset="1" stop-color="#F9A02D" stop-opacity="0.3"/>
</linearGradient>
<linearGradient id="paint5_linear_64_3251" x1="12.1304" y1="7.92602e-06" x2="253.699" y2="58.9163" gradientUnits="userSpaceOnUse">
<stop stop-color="#FDDDAE" stop-opacity="0.2"/>
<stop offset="1" stop-color="#F9A02D" stop-opacity="0.3"/>
</linearGradient>
<linearGradient id="paint6_linear_64_3251" x1="12.1304" y1="7.92602e-06" x2="253.699" y2="58.9163" gradientUnits="userSpaceOnUse">
<stop stop-color="#FDDDAE" stop-opacity="0.2"/>
<stop offset="1" stop-color="#F9A02D" stop-opacity="0.3"/>
</linearGradient>
<linearGradient id="paint7_linear_64_3251" x1="12.1304" y1="7.92602e-06" x2="253.699" y2="58.9163" gradientUnits="userSpaceOnUse">
<stop stop-color="#FDDDAE" stop-opacity="0.2"/>
<stop offset="1" stop-color="#F9A02D" stop-opacity="0.3"/>
</linearGradient>
<linearGradient id="paint8_linear_64_3251" x1="12.1304" y1="7.92602e-06" x2="253.699" y2="58.9163" gradientUnits="userSpaceOnUse">
<stop stop-color="#FDDDAE" stop-opacity="0.2"/>
<stop offset="1" stop-color="#F9A02D" stop-opacity="0.3"/>
</linearGradient>
<linearGradient id="paint9_linear_64_3251" x1="12.1304" y1="7.92602e-06" x2="253.699" y2="58.9163" gradientUnits="userSpaceOnUse">
<stop stop-color="#FDDDAE" stop-opacity="0.2"/>
<stop offset="1" stop-color="#F9A02D" stop-opacity="0.3"/>
</linearGradient>
<linearGradient id="paint10_linear_64_3251" x1="12.1304" y1="7.92602e-06" x2="253.699" y2="58.9163" gradientUnits="userSpaceOnUse">
<stop stop-color="#FDDDAE" stop-opacity="0.2"/>
<stop offset="1" stop-color="#F9A02D" stop-opacity="0.3"/>
</linearGradient>
<linearGradient id="paint11_linear_64_3251" x1="12.1304" y1="7.92602e-06" x2="253.699" y2="58.9163" gradientUnits="userSpaceOnUse">
<stop stop-color="#FDDDAE" stop-opacity="0.2"/>
<stop offset="1" stop-color="#F9A02D" stop-opacity="0.3"/>
</linearGradient>
<linearGradient id="paint12_linear_64_3251" x1="12.1304" y1="7.92602e-06" x2="253.699" y2="58.9163" gradientUnits="userSpaceOnUse">
<stop stop-color="#FDDDAE" stop-opacity="0.2"/>
<stop offset="1" stop-color="#F9A02D" stop-opacity="0.3"/>
</linearGradient>
<linearGradient id="paint13_linear_64_3251" x1="12.1304" y1="7.92602e-06" x2="253.699" y2="58.9163" gradientUnits="userSpaceOnUse">
<stop stop-color="#FDDDAE" stop-opacity="0.2"/>
<stop offset="1" stop-color="#F9A02D" stop-opacity="0.3"/>
</linearGradient>
<linearGradient id="paint14_linear_64_3251" x1="12.1304" y1="7.92602e-06" x2="253.699" y2="58.9163" gradientUnits="userSpaceOnUse">
<stop stop-color="#FDDDAE" stop-opacity="0.2"/>
<stop offset="1" stop-color="#F9A02D" stop-opacity="0.3"/>
</linearGradient>
<linearGradient id="paint15_linear_64_3251" x1="12.1304" y1="7.92602e-06" x2="253.699" y2="58.9163" gradientUnits="userSpaceOnUse">
<stop stop-color="#FDDDAE" stop-opacity="0.2"/>
<stop offset="1" stop-color="#F9A02D" stop-opacity="0.3"/>
</linearGradient>
<linearGradient id="paint16_linear_64_3251" x1="12.1304" y1="7.92602e-06" x2="253.699" y2="58.9163" gradientUnits="userSpaceOnUse">
<stop stop-color="#FDDDAE" stop-opacity="0.2"/>
<stop offset="1" stop-color="#F9A02D" stop-opacity="0.3"/>
</linearGradient>
<linearGradient id="paint17_linear_64_3251" x1="12.1304" y1="7.92602e-06" x2="253.699" y2="58.9163" gradientUnits="userSpaceOnUse">
<stop stop-color="#FDDDAE" stop-opacity="0.2"/>
<stop offset="1" stop-color="#F9A02D" stop-opacity="0.3"/>
</linearGradient>
<linearGradient id="paint18_linear_64_3251" x1="12.1304" y1="7.92602e-06" x2="253.699" y2="58.9163" gradientUnits="userSpaceOnUse">
<stop stop-color="#FDDDAE" stop-opacity="0.2"/>
<stop offset="1" stop-color="#F9A02D" stop-opacity="0.3"/>
</linearGradient>
<linearGradient id="paint19_linear_64_3251" x1="12.1304" y1="7.92602e-06" x2="253.699" y2="58.9163" gradientUnits="userSpaceOnUse">
<stop stop-color="#FDDDAE" stop-opacity="0.2"/>
<stop offset="1" stop-color="#F9A02D" stop-opacity="0.3"/>
</linearGradient>
<linearGradient id="paint20_linear_64_3251" x1="12.1304" y1="7.92602e-06" x2="253.699" y2="58.9163" gradientUnits="userSpaceOnUse">
<stop stop-color="#FDDDAE" stop-opacity="0.2"/>
<stop offset="1" stop-color="#F9A02D" stop-opacity="0.3"/>
</linearGradient>
<linearGradient id="paint21_linear_64_3251" x1="12.1304" y1="7.92602e-06" x2="253.699" y2="58.9163" gradientUnits="userSpaceOnUse">
<stop stop-color="#FDDDAE" stop-opacity="0.2"/>
<stop offset="1" stop-color="#F9A02D" stop-opacity="0.3"/>
</linearGradient>
<linearGradient id="paint22_linear_64_3251" x1="12.1304" y1="7.92602e-06" x2="253.699" y2="58.9163" gradientUnits="userSpaceOnUse">
<stop stop-color="#FDDDAE" stop-opacity="0.2"/>
<stop offset="1" stop-color="#F9A02D" stop-opacity="0.3"/>
</linearGradient>
<linearGradient id="paint23_linear_64_3251" x1="12.1304" y1="7.92602e-06" x2="253.699" y2="58.9163" gradientUnits="userSpaceOnUse">
<stop stop-color="#FDDDAE" stop-opacity="0.2"/>
<stop offset="1" stop-color="#F9A02D" stop-opacity="0.3"/>
</linearGradient>
<linearGradient id="paint24_linear_64_3251" x1="12.1304" y1="7.92602e-06" x2="253.699" y2="58.9163" gradientUnits="userSpaceOnUse">
<stop stop-color="#FDDDAE" stop-opacity="0.2"/>
<stop offset="1" stop-color="#F9A02D" stop-opacity="0.3"/>
</linearGradient>
<linearGradient id="paint25_linear_64_3251" x1="12.1304" y1="7.92602e-06" x2="253.699" y2="58.9163" gradientUnits="userSpaceOnUse">
<stop stop-color="#FDDDAE" stop-opacity="0.2"/>
<stop offset="1" stop-color="#F9A02D" stop-opacity="0.3"/>
</linearGradient>
<linearGradient id="paint26_linear_64_3251" x1="12.1304" y1="7.92602e-06" x2="253.699" y2="58.9163" gradientUnits="userSpaceOnUse">
<stop stop-color="#FDDDAE" stop-opacity="0.2"/>
<stop offset="1" stop-color="#F9A02D" stop-opacity="0.3"/>
</linearGradient>
<linearGradient id="paint27_linear_64_3251" x1="12.1304" y1="7.92602e-06" x2="253.699" y2="58.9163" gradientUnits="userSpaceOnUse">
<stop stop-color="#FDDDAE" stop-opacity="0.2"/>
<stop offset="1" stop-color="#F9A02D" stop-opacity="0.3"/>
</linearGradient>
<linearGradient id="paint28_linear_64_3251" x1="12.1304" y1="7.92602e-06" x2="253.699" y2="58.9163" gradientUnits="userSpaceOnUse">
<stop stop-color="#FDDDAE" stop-opacity="0.2"/>
<stop offset="1" stop-color="#F9A02D" stop-opacity="0.3"/>
</linearGradient>
<linearGradient id="paint29_linear_64_3251" x1="12.1304" y1="7.92602e-06" x2="253.699" y2="58.9163" gradientUnits="userSpaceOnUse">
<stop stop-color="#FDDDAE" stop-opacity="0.2"/>
<stop offset="1" stop-color="#F9A02D" stop-opacity="0.3"/>
</linearGradient>
<linearGradient id="paint30_linear_64_3251" x1="12.1304" y1="7.92602e-06" x2="253.699" y2="58.9163" gradientUnits="userSpaceOnUse">
<stop stop-color="#FDDDAE" stop-opacity="0.2"/>
<stop offset="1" stop-color="#F9A02D" stop-opacity="0.3"/>
</linearGradient>
<linearGradient id="paint31_linear_64_3251" x1="12.1304" y1="7.92602e-06" x2="253.699" y2="58.9163" gradientUnits="userSpaceOnUse">
<stop stop-color="#FDDDAE" stop-opacity="0.2"/>
<stop offset="1" stop-color="#F9A02D" stop-opacity="0.3"/>
</linearGradient>
<linearGradient id="paint32_linear_64_3251" x1="12.1304" y1="7.92602e-06" x2="253.699" y2="58.9163" gradientUnits="userSpaceOnUse">
<stop stop-color="#FDDDAE" stop-opacity="0.2"/>
<stop offset="1" stop-color="#F9A02D" stop-opacity="0.3"/>
</linearGradient>
<linearGradient id="paint33_linear_64_3251" x1="12.1304" y1="7.92602e-06" x2="253.699" y2="58.9163" gradientUnits="userSpaceOnUse">
<stop stop-color="#FDDDAE" stop-opacity="0.2"/>
<stop offset="1" stop-color="#F9A02D" stop-opacity="0.3"/>
</linearGradient>
<linearGradient id="paint34_linear_64_3251" x1="12.1304" y1="7.92602e-06" x2="253.699" y2="58.9163" gradientUnits="userSpaceOnUse">
<stop stop-color="#FDDDAE" stop-opacity="0.2"/>
<stop offset="1" stop-color="#F9A02D" stop-opacity="0.3"/>
</linearGradient>
<linearGradient id="paint35_linear_64_3251" x1="12.1304" y1="7.92602e-06" x2="253.699" y2="58.9163" gradientUnits="userSpaceOnUse">
<stop stop-color="#FDDDAE" stop-opacity="0.2"/>
<stop offset="1" stop-color="#F9A02D" stop-opacity="0.3"/>
</linearGradient>
<linearGradient id="paint36_linear_64_3251" x1="12.1304" y1="7.92602e-06" x2="253.699" y2="58.9163" gradientUnits="userSpaceOnUse">
<stop stop-color="#FDDDAE" stop-opacity="0.2"/>
<stop offset="1" stop-color="#F9A02D" stop-opacity="0.3"/>
</linearGradient>
<linearGradient id="paint37_linear_64_3251" x1="12.1304" y1="7.92602e-06" x2="253.699" y2="58.9163" gradientUnits="userSpaceOnUse">
<stop stop-color="#FDDDAE" stop-opacity="0.2"/>
<stop offset="1" stop-color="#F9A02D" stop-opacity="0.3"/>
</linearGradient>
<linearGradient id="paint38_linear_64_3251" x1="12.1304" y1="7.92602e-06" x2="253.699" y2="58.9163" gradientUnits="userSpaceOnUse">
<stop stop-color="#FDDDAE" stop-opacity="0.2"/>
<stop offset="1" stop-color="#F9A02D" stop-opacity="0.3"/>
</linearGradient>
<linearGradient id="paint39_linear_64_3251" x1="12.1304" y1="7.92602e-06" x2="253.699" y2="58.9163" gradientUnits="userSpaceOnUse">
<stop stop-color="#FDDDAE" stop-opacity="0.2"/>
<stop offset="1" stop-color="#F9A02D" stop-opacity="0.3"/>
</linearGradient>
<linearGradient id="paint40_linear_64_3251" x1="12.1304" y1="7.92602e-06" x2="253.699" y2="58.9163" gradientUnits="userSpaceOnUse">
<stop stop-color="#FDDDAE" stop-opacity="0.2"/>
<stop offset="1" stop-color="#F9A02D" stop-opacity="0.3"/>
</linearGradient>
<linearGradient id="paint41_linear_64_3251" x1="12.1304" y1="7.92602e-06" x2="253.699" y2="58.9163" gradientUnits="userSpaceOnUse">
<stop stop-color="#FDDDAE" stop-opacity="0.2"/>
<stop offset="1" stop-color="#F9A02D" stop-opacity="0.3"/>
</linearGradient>
<linearGradient id="paint42_linear_64_3251" x1="12.1304" y1="7.92602e-06" x2="253.699" y2="58.9163" gradientUnits="userSpaceOnUse">
<stop stop-color="#FDDDAE" stop-opacity="0.2"/>
<stop offset="1" stop-color="#F9A02D" stop-opacity="0.3"/>
</linearGradient>
<linearGradient id="paint43_linear_64_3251" x1="12.1304" y1="7.92602e-06" x2="253.699" y2="58.9163" gradientUnits="userSpaceOnUse">
<stop stop-color="#FDDDAE" stop-opacity="0.2"/>
<stop offset="1" stop-color="#F9A02D" stop-opacity="0.3"/>
</linearGradient>
<linearGradient id="paint44_linear_64_3251" x1="12.1304" y1="7.92602e-06" x2="253.699" y2="58.9163" gradientUnits="userSpaceOnUse">
<stop stop-color="#FDDDAE" stop-opacity="0.2"/>
<stop offset="1" stop-color="#F9A02D" stop-opacity="0.3"/>
</linearGradient>
<linearGradient id="paint45_linear_64_3251" x1="12.1304" y1="7.92602e-06" x2="253.699" y2="58.9163" gradientUnits="userSpaceOnUse">
<stop stop-color="#FDDDAE" stop-opacity="0.2"/>
<stop offset="1" stop-color="#F9A02D" stop-opacity="0.3"/>
</linearGradient>
<linearGradient id="paint46_linear_64_3251" x1="12.1304" y1="7.92602e-06" x2="253.699" y2="58.9163" gradientUnits="userSpaceOnUse">
<stop stop-color="#FDDDAE" stop-opacity="0.2"/>
<stop offset="1" stop-color="#F9A02D" stop-opacity="0.3"/>
</linearGradient>
<linearGradient id="paint47_linear_64_3251" x1="12.1304" y1="7.92602e-06" x2="253.699" y2="58.9163" gradientUnits="userSpaceOnUse">
<stop stop-color="#FDDDAE" stop-opacity="0.2"/>
<stop offset="1" stop-color="#F9A02D" stop-opacity="0.3"/>
</linearGradient>
<linearGradient id="paint48_linear_64_3251" x1="12.1304" y1="7.92602e-06" x2="253.699" y2="58.9163" gradientUnits="userSpaceOnUse">
<stop stop-color="#FDDDAE" stop-opacity="0.2"/>
<stop offset="1" stop-color="#F9A02D" stop-opacity="0.3"/>
</linearGradient>
<linearGradient id="paint49_linear_64_3251" x1="12.1304" y1="7.92602e-06" x2="253.699" y2="58.9163" gradientUnits="userSpaceOnUse">
<stop stop-color="#FDDDAE" stop-opacity="0.2"/>
<stop offset="1" stop-color="#F9A02D" stop-opacity="0.3"/>
</linearGradient>
<linearGradient id="paint50_linear_64_3251" x1="12.1304" y1="7.92602e-06" x2="253.699" y2="58.9163" gradientUnits="userSpaceOnUse">
<stop stop-color="#FDDDAE" stop-opacity="0.2"/>
<stop offset="1" stop-color="#F9A02D" stop-opacity="0.3"/>
</linearGradient>
<linearGradient id="paint51_linear_64_3251" x1="12.1304" y1="7.92602e-06" x2="253.699" y2="58.9163" gradientUnits="userSpaceOnUse">
<stop stop-color="#FDDDAE" stop-opacity="0.2"/>
<stop offset="1" stop-color="#F9A02D" stop-opacity="0.3"/>
</linearGradient>
<linearGradient id="paint52_linear_64_3251" x1="12.1304" y1="7.92602e-06" x2="253.699" y2="58.9163" gradientUnits="userSpaceOnUse">
<stop stop-color="#FDDDAE" stop-opacity="0.2"/>
<stop offset="1" stop-color="#F9A02D" stop-opacity="0.3"/>
</linearGradient>
<linearGradient id="paint53_linear_64_3251" x1="12.1304" y1="7.92602e-06" x2="253.699" y2="58.9163" gradientUnits="userSpaceOnUse">
<stop stop-color="#FDDDAE" stop-opacity="0.2"/>
<stop offset="1" stop-color="#F9A02D" stop-opacity="0.3"/>
</linearGradient>
<linearGradient id="paint54_linear_64_3251" x1="12.1304" y1="7.92602e-06" x2="253.699" y2="58.9163" gradientUnits="userSpaceOnUse">
<stop stop-color="#FDDDAE" stop-opacity="0.2"/>
<stop offset="1" stop-color="#F9A02D" stop-opacity="0.3"/>
</linearGradient>
<linearGradient id="paint55_linear_64_3251" x1="12.1304" y1="7.92602e-06" x2="253.699" y2="58.9163" gradientUnits="userSpaceOnUse">
<stop stop-color="#FDDDAE" stop-opacity="0.2"/>
<stop offset="1" stop-color="#F9A02D" stop-opacity="0.3"/>
</linearGradient>
<linearGradient id="paint56_linear_64_3251" x1="12.1304" y1="7.92602e-06" x2="253.699" y2="58.9163" gradientUnits="userSpaceOnUse">
<stop stop-color="#FDDDAE" stop-opacity="0.2"/>
<stop offset="1" stop-color="#F9A02D" stop-opacity="0.3"/>
</linearGradient>
<linearGradient id="paint57_linear_64_3251" x1="12.1304" y1="7.92602e-06" x2="253.699" y2="58.9163" gradientUnits="userSpaceOnUse">
<stop stop-color="#FDDDAE" stop-opacity="0.2"/>
<stop offset="1" stop-color="#F9A02D" stop-opacity="0.3"/>
</linearGradient>
<linearGradient id="paint58_linear_64_3251" x1="12.1304" y1="7.92602e-06" x2="253.699" y2="58.9163" gradientUnits="userSpaceOnUse">
<stop stop-color="#FDDDAE" stop-opacity="0.2"/>
<stop offset="1" stop-color="#F9A02D" stop-opacity="0.3"/>
</linearGradient>
<linearGradient id="paint59_linear_64_3251" x1="12.1304" y1="7.92602e-06" x2="253.699" y2="58.9163" gradientUnits="userSpaceOnUse">
<stop stop-color="#FDDDAE" stop-opacity="0.2"/>
<stop offset="1" stop-color="#F9A02D" stop-opacity="0.3"/>
</linearGradient>
<linearGradient id="paint60_linear_64_3251" x1="12.1304" y1="7.92602e-06" x2="253.699" y2="58.9163" gradientUnits="userSpaceOnUse">
<stop stop-color="#FDDDAE" stop-opacity="0.2"/>
<stop offset="1" stop-color="#F9A02D" stop-opacity="0.3"/>
</linearGradient>
<linearGradient id="paint61_linear_64_3251" x1="12.1304" y1="7.92602e-06" x2="253.699" y2="58.9163" gradientUnits="userSpaceOnUse">
<stop stop-color="#FDDDAE" stop-opacity="0.2"/>
<stop offset="1" stop-color="#F9A02D" stop-opacity="0.3"/>
</linearGradient>
<linearGradient id="paint62_linear_64_3251" x1="12.1304" y1="7.92602e-06" x2="253.699" y2="58.9163" gradientUnits="userSpaceOnUse">
<stop stop-color="#FDDDAE" stop-opacity="0.2"/>
<stop offset="1" stop-color="#F9A02D" stop-opacity="0.3"/>
</linearGradient>
<linearGradient id="paint63_linear_64_3251" x1="12.1304" y1="7.92602e-06" x2="253.699" y2="58.9163" gradientUnits="userSpaceOnUse">
<stop stop-color="#FDDDAE" stop-opacity="0.2"/>
<stop offset="1" stop-color="#F9A02D" stop-opacity="0.3"/>
</linearGradient>
<clipPath id="clip0_64_3251">
<rect width="237" height="237" fill="white"/>
</clipPath>
</defs>
</svg>
