<svg width="362" height="157" viewBox="0 0 362 157" fill="none" xmlns="http://www.w3.org/2000/svg">
<g clip-path="url(#clip0_2004_16390)">
<path d="M359.809 87.2796C354.923 78.0744 343.745 77.3925 334.758 79.2676C335.264 76.7675 335.32 74.0968 335.208 71.7671C334.815 64.2097 330.04 58.0729 324.929 53.0157C313.696 41.8218 296.171 37.1055 281.455 43.2423C281.736 36.4236 281.343 30.6846 276.681 24.9455C271.289 18.2405 261.179 14.3198 253.147 12.3878C244.497 10.3422 234.724 13.1265 227.029 17.1041C224.614 18.3541 222.592 19.8883 220.851 21.593C219.053 13.3538 215.964 7.44427 208.101 3.58035C198.777 -0.965434 187.599 -0.510856 177.77 1.81886C161.201 5.62595 147.103 18.07 143.62 35.0031C141.654 32.7302 139.239 30.6846 137.386 28.8663C129.634 21.4794 118.794 19.8315 108.459 19.0928C88.1266 17.7291 73.6354 27.2184 64.0869 44.2083C56.3919 36.7646 43.5295 34.4349 33.5317 36.31C31.0603 36.7646 28.7013 37.2191 26.4546 37.7874C14.3786 44.0946 2.86422 51.4815 0.561351 66.4826C-1.62918 80.745 2.58338 93.4164 12.188 102.792C18.3665 107.167 25.8929 109.099 34.0372 108.531H34.0934C34.0372 110.236 34.2057 111.94 34.5427 113.702C36.2839 122.339 45.3269 128.021 52.5164 131.601C67.2884 138.761 92.9008 141.545 105.819 128.703C105.932 128.987 105.988 129.271 106.1 129.442C108.235 134.556 111.773 138.647 115.873 142.227C124.018 149.386 136.038 153.023 146.26 155.694C165.301 160.751 189.116 149.841 195.407 130.805C196.923 136.374 202.259 141.261 206.696 144.045C214.784 148.989 223.659 150.125 232.814 148.25C244.272 145.92 256.348 137.113 259.269 125.862C264.998 137.283 283.253 136.772 293.812 132.283C299.991 129.669 306.955 124.157 310.045 117.509C313.471 121.771 322.907 123.419 326.839 123.532C336.893 123.816 347.171 120.407 354.361 113.304C361.326 106.599 364.415 95.8029 359.809 87.1659V87.2796Z" fill="#B7F0FF"/>
<path d="M349.025 112.622C342.903 117.623 334.028 118.986 326.445 118.702C323.019 118.532 320.211 117.623 317.234 116.089C314.931 114.895 313.752 112.736 311.561 111.77C311.786 109.497 311.393 107.111 310.269 104.724C309.595 107.508 308.472 110.236 307.011 112.679C305.72 120.35 299.71 125.578 291.397 129.101C286.005 131.431 280.613 131.601 274.827 130.749C267.75 129.84 264.605 126.487 259.775 122.396C259.999 119.725 259.775 116.998 258.82 114.157C258.82 117.225 258.033 120.407 257.135 122.794C256.292 125.01 255.113 126.942 253.708 128.646C252.81 130.521 251.686 132.283 250.114 134.044C245.339 139.556 238.15 142.681 231.185 144.159C218.885 146.716 200.574 139.556 196.474 126.43C197.766 126.032 199.114 125.464 200.237 124.782C202.652 123.419 205.629 121.146 206.303 118.248C204.562 119.725 202.596 120.975 200.518 121.998C199.956 122.282 199.338 122.566 198.72 122.907C197.26 123.93 195.519 124.782 193.778 125.237C192.486 125.805 191.138 126.317 189.79 126.771C191.138 127.055 192.598 127.169 194.058 126.942C190.239 134.726 186.757 140.92 178.893 145.693C169.738 151.205 158.28 151.887 148.001 149.841C140.138 148.307 131.825 144.727 124.748 140.863C120.535 138.533 116.94 135.351 113.739 131.715C110.818 128.362 109.695 124.953 109.245 121.146C107.673 122.964 105.932 124.669 103.91 126.26C95.2597 133.078 83.4084 135.351 72.6242 134.669C62.851 134.044 52.797 131.09 46.0008 123.873C44.0911 122.509 42.406 120.862 41.058 118.816C37.0139 112.679 35.2166 105.008 36.4523 97.8486C35.3289 100.292 34.5426 102.735 34.2056 105.349C30.8355 104.326 27.4093 104.156 23.9831 103.588C18.1978 102.622 13.9852 98.7577 10.0535 94.6097C2.35856 86.2568 -1.96635 68.4146 5.89711 58.5844C8.93016 54.7773 12.4687 51.3679 16.0073 48.0154C21.0624 43.2423 26.3421 41.7081 33.0261 40.6285C42.6307 38.9239 55.8863 41.3104 62.5702 49.3792C62.9072 49.7769 63.4127 49.8337 63.9182 49.7769C67.3444 41.3104 73.1859 33.9803 80.4877 29.4345C87.3963 24.3773 96.4392 23.0704 104.808 23.0704C112.222 23.0704 120.142 24.3205 127.051 27.048C130.14 28.2981 134.465 30.9687 138.228 34.3781C142.216 37.1624 145.193 41.8218 146.765 46.8222C148.394 42.7309 146.653 38.9807 143.901 35.685C148.282 19.5475 161.257 8.23982 177.321 4.71683C185.296 3.01216 193.665 3.52356 201.36 6.13739C210.965 9.37626 213.436 15.9108 215.908 24.8887C216.076 25.457 216.413 25.8547 216.75 26.1388C215.29 28.1276 214.054 30.3437 212.931 32.6166H212.987C216.469 27.8435 221.637 24.0932 227.31 22.1613C233.657 18.5247 240.958 16.82 249.215 17.8428C256.461 18.7519 263.425 22.7295 269.267 26.9343C276.007 31.7074 277.243 38.3556 277.13 46.0835C278.029 45.6289 278.984 45.288 279.826 44.947C286.005 42.39 293.138 42.2764 299.485 44.5493C301.507 45.288 303.361 46.1971 305.102 47.2199C313.471 49.7201 321.166 54.8909 325.715 61.5391C326.277 61.8801 326.839 62.4483 327.288 63.3574C330.883 70.517 332.624 78.6426 331.276 86.1432C332.455 84.8363 333.298 83.3589 333.916 81.5974C340.937 81.6542 347.508 82.2224 353.125 87.166C361.494 94.5529 355.933 106.883 348.8 112.736L349.025 112.622Z" fill="white"/>
<path opacity="0.5" d="M353.35 86.9954C347.789 82.0519 341.161 81.4837 334.14 81.4269C333.523 83.1884 332.736 84.6657 331.5 85.9726C332.792 78.4721 331.051 70.3465 327.513 63.1869C327.063 62.3346 326.502 61.7095 325.94 61.3686C321.39 54.7204 313.695 49.6064 305.326 47.0494C303.585 46.0266 301.732 45.1174 299.71 44.3787C293.363 42.049 286.229 42.2195 280.051 44.7765C279.208 45.1174 278.254 45.4583 277.355 45.9129C277.355 45.7993 277.355 45.7425 277.355 45.6288C277.018 46.0266 276.737 46.4243 276.456 46.7653C299.26 47.2198 323.019 78.0743 307.292 101.258C298.53 114.157 280.388 116.714 267.02 110.918C264.661 109.895 261.965 107.792 259.437 105.065C256.067 112.565 250.001 118.873 241.015 122.396C222.423 129.669 211.864 119.441 209.842 105.69C201.697 113.304 190.408 118.305 180.41 119.043C173.782 119.498 163.784 119.327 159.122 113.361C155.808 114.441 152.27 115.236 148.619 115.407C130.196 116.373 119.075 106.77 114.188 93.5868C103.516 105.122 86.9469 112.168 72.231 111.031C60.3234 110.065 44.4842 106.656 41.0018 92.8481C40.2154 89.8366 39.9908 86.8818 40.1593 84.0407C31.4533 86.7113 22.4103 85.9158 15.9511 78.0175C9.21094 69.7215 8.31226 60.6299 11.4576 52.7316C9.60411 54.6067 7.80675 56.5387 6.12172 58.6411C-1.74174 68.4714 2.58317 86.3136 10.2781 94.6665C14.1537 98.8145 18.3663 102.678 24.2077 103.644C27.6339 104.213 31.0601 104.383 34.4302 105.406C34.7672 102.849 35.5535 100.349 36.6769 97.9053C35.4412 105.122 37.2386 112.793 41.2826 118.873C42.6306 120.918 44.3157 122.566 46.2254 123.93C53.0217 131.146 63.0757 134.101 72.8488 134.726C83.633 135.351 95.4843 133.135 104.134 126.316C106.1 124.725 107.841 123.021 109.47 121.202C109.919 125.01 111.043 128.419 113.963 131.771C117.165 135.351 120.76 138.59 124.972 140.92C132.049 144.784 140.362 148.364 148.226 149.898C158.504 151.887 169.963 151.261 179.118 145.75C186.981 141.033 190.408 134.84 194.283 126.998C192.823 127.226 191.362 127.112 190.014 126.828C191.362 126.373 192.71 125.805 194.002 125.294C195.8 124.839 197.485 123.93 198.945 122.964C199.563 122.68 200.181 122.339 200.742 122.055C202.821 121.032 204.786 119.782 206.528 118.305C205.854 121.202 202.877 123.475 200.462 124.839C199.338 125.521 198.046 126.089 196.698 126.487C200.799 139.67 219.109 146.772 231.41 144.215C238.375 142.795 245.564 139.67 250.338 134.101C251.855 132.34 253.034 130.578 253.933 128.703C255.337 126.998 256.517 125.066 257.359 122.85C258.258 120.521 259.044 117.339 259.044 114.213C259.999 117.054 260.224 119.782 259.999 122.453C264.773 126.544 267.919 129.896 275.052 130.805C280.837 131.601 286.229 131.487 291.622 129.158C299.934 125.635 305.944 120.407 307.236 112.736C308.696 110.293 309.82 107.565 310.494 104.781C311.561 107.167 311.954 109.497 311.786 111.827C313.976 112.793 315.156 114.895 317.459 116.145C320.435 117.679 323.244 118.645 326.67 118.759C334.253 118.986 343.127 117.679 349.249 112.679C356.383 106.826 361.943 94.496 353.574 87.1091L353.35 86.9954ZM345.711 95.121C343.857 101.144 338.746 107.054 332.849 109.156C326.108 111.599 315.268 108.815 317.402 99.4964C319.874 88.5865 330.546 86.3136 339.982 85.4612C341.049 85.4044 341.611 85.8022 341.835 86.484C345.149 87.5637 347.059 90.5184 345.711 95.0642V95.121Z" fill="#F1F4F6"/>
<path d="M55.7748 52.8452C55.3816 43.981 45.1591 42.5604 38.419 43.981C31.6789 45.4583 24.2086 50.2314 20.9509 56.766C19.2097 59.4934 18.4795 62.6187 19.3782 65.6303C20.8385 75.8014 34.3749 75.3469 41.3959 71.2557C41.9575 70.9715 42.3507 70.6306 42.9124 70.2329C49.9895 67.1645 56.2241 61.1413 55.7748 52.8452Z" fill="white"/>
<path d="M121.21 40.6852C119.188 30.4572 106.157 30.7981 98.181 32.2755C88.5764 33.9802 73.8043 43.4127 74.6468 54.7203C75.1523 61.3117 79.1402 64.096 84.083 64.7779C88.4079 66.8803 95.2041 66.5962 99.5291 65.2324C109.639 62.164 123.793 53.4702 121.21 40.6852Z" fill="white"/>
<path d="M192.599 15.2857C192.037 15.0584 191.588 14.8311 191.026 14.7175C186.477 12.7287 180.748 13.5242 176.423 15.3993C175.524 15.7971 174.401 16.4221 173.221 17.1608C170.469 18.5814 167.998 20.5133 166.144 23.0135C164.347 25.4 161.763 30.1163 162.774 33.412C162.437 35.1167 162.269 36.9918 162.774 38.8669C163.673 43.1286 168.728 43.8105 172.154 43.4127C175.974 43.015 179.624 41.1966 182.994 39.3215C186.645 37.9009 189.903 35.7985 192.711 33.1279C197.71 28.4116 200.182 18.7518 192.655 15.3425L192.599 15.2857Z" fill="white"/>
</g>
<defs>
<clipPath id="clip0_2004_16390">
<rect width="362" height="157" fill="white" transform="translate(0 0.000488281)"/>
</clipPath>
</defs>
</svg>
