<svg width="48" height="49" viewBox="0 0 48 49" fill="none" xmlns="http://www.w3.org/2000/svg">
<g clip-path="url(#clip0_2004_18024)">
<path d="M33.3516 14.0649V11.1789H32.0609C32.0023 11.1789 31.9447 11.1834 31.8876 11.1915V23.3134H5.58454V8.06018H25.8337L27.1992 6.59827H5.58454C4.77601 6.59827 4.12061 7.25277 4.12061 8.06018V23.3134C4.12061 24.1208 4.77601 24.7753 5.58454 24.7753H31.8876C32.6961 24.7753 33.3516 24.1208 33.3516 23.3134V14.0649Z" fill="#FFB800"/>
<path d="M39.137 11.897H37.218C36.7412 11.897 36.3548 12.2828 36.3548 12.7589C36.3548 13.1196 36.2083 13.4461 35.9717 13.6824C35.7351 13.9186 35.4082 14.065 35.047 14.065H33.3516V15.5269H35.047C36.3695 15.5269 37.4783 14.5974 37.7536 13.3589H39.2905C39.1899 13.0792 39.1373 12.7811 39.1373 12.475V11.897H39.137Z" fill="#FFB800" fill-opacity="0.5"/>
<path d="M24.5438 6.59828L26.4151 4.32086C26.985 3.62739 27.8367 3.22473 28.7356 3.22473H39.1372V2.89283C39.1372 2.48808 39.23 2.10491 39.3954 1.76282H28.7356C27.393 1.76282 26.135 2.35736 25.2835 3.39353L22.6499 6.59828H24.5438Z" fill="#FFB800" fill-opacity="0.5"/>
<path d="M37.0117 9.7902V9.16778C37.0117 8.78281 36.7127 8.46351 36.3275 8.43862C36.3109 8.43772 36.2947 8.43712 36.2788 8.43712C35.8783 8.43712 35.5478 8.76182 35.5478 9.16748V9.50477C35.5478 9.6217 35.4526 9.71674 35.3355 9.71674H32.0612C32.0032 9.71674 31.9456 9.71854 31.8879 9.72274C31.2442 9.76412 30.6357 10.0381 30.1766 10.4966L27.9756 12.6945C27.6564 13.0132 27.2382 13.1727 26.8194 13.1727C26.4006 13.1727 25.9829 13.0132 25.6638 12.6945C25.0249 12.0565 25.0249 11.0231 25.6638 10.3856L27.8402 8.06025L29.2089 6.59834L30.2117 5.52679C30.4534 5.26894 30.4771 4.87618 30.2685 4.59106C30.1226 4.39168 29.8992 4.29004 29.6746 4.29004C29.4789 4.29004 29.2828 4.36709 29.1363 4.5239L27.1989 6.59864L25.8334 8.06055L24.6076 9.37345C23.3511 10.6519 23.4319 12.7584 24.8502 13.9304C25.3392 14.3339 25.9451 14.5786 26.5777 14.6257C27.4946 14.6949 28.3686 14.3693 29.0108 13.7286L31.2118 11.5306C31.3958 11.3466 31.6333 11.2284 31.8876 11.1918C31.9447 11.1835 32.0023 11.1793 32.0609 11.1793H35.6207C36.3887 11.1793 37.0114 10.5574 37.0114 9.7905L37.0117 9.7902Z" fill="#FFB800" fill-opacity="0.5"/>
<path d="M46.2443 0.285034H41.7489C40.714 0.285034 39.8178 0.889167 39.3954 1.76314C39.23 2.10523 39.1372 2.4887 39.1372 2.89315V12.475C39.1372 12.7811 39.1897 13.0792 39.2903 13.3589C39.4188 13.716 39.6254 14.0431 39.9019 14.3192C40.3952 14.8118 41.0509 15.0832 41.7489 15.0832H46.2443C47.2126 15.0832 48.0001 14.2964 48.0001 13.3298V2.03837C48.0001 1.07146 47.2126 0.285034 46.2443 0.285034ZM46.5361 13.3298C46.5361 13.4908 46.4055 13.6212 46.2443 13.6212H41.7489C41.4319 13.6212 41.144 13.4923 40.9371 13.2857C40.7302 13.0792 40.6011 12.7919 40.6011 12.4753V2.89315C40.6011 2.26024 41.1151 1.74695 41.7489 1.74695H46.2443C46.4055 1.74695 46.5361 1.87737 46.5361 2.03837V13.3298Z" fill="#FFB800" fill-opacity="0.5"/>
<path d="M42.7927 2.92883C42.2544 2.92883 41.8179 3.36447 41.8179 3.90234C41.8179 4.44022 42.2544 4.87585 42.7927 4.87585C43.331 4.87585 43.7676 4.43992 43.7676 3.90234C43.7676 3.36477 43.331 2.92883 42.7927 2.92883Z" fill="#FFB800" fill-opacity="0.5"/>
<path d="M24.7465 14.7854C24.2479 14.7854 23.8438 15.189 23.8438 15.687C23.8438 16.185 24.2479 16.5885 24.7465 16.5885C25.2452 16.5885 25.6493 16.185 25.6493 15.687C25.6493 15.189 25.2452 14.7854 24.7465 14.7854Z" fill="#FFB800"/>
<path d="M12.7251 14.7854C12.2264 14.7854 11.8223 15.189 11.8223 15.687C11.8223 16.185 12.2264 16.5885 12.7251 16.5885C13.2238 16.5885 13.6279 16.185 13.6279 15.687C13.6279 15.189 13.2238 14.7854 12.7251 14.7854Z" fill="#FFB800"/>
<path d="M36.5818 24.6285C35.8186 24.6285 35.0986 24.9055 34.539 25.4128C34.5054 25.4434 34.472 25.4748 34.4396 25.5069L31.7009 28.1489L29.6287 30.1478C29.073 29.6489 28.3323 29.3422 27.5352 29.3422H20.4944C20.0023 29.3422 19.5343 29.2328 19.1368 29.0283C17.8989 28.3882 16.5656 28.062 15.1767 28.062C14.4976 28.062 13.8229 28.1411 13.1657 28.2934C12.6178 28.4206 12.0819 28.5984 11.5658 28.8241C10.4609 29.3071 9.44645 30.009 8.59679 30.8971C8.08759 31.4301 7.66096 32.0094 7.31239 32.6225C6.95151 32.4594 6.55701 32.3719 6.14749 32.3719C5.3849 32.3719 4.66824 32.6687 4.12963 33.2066L0.325377 37.0055C-0.108459 37.4388 -0.108459 38.1422 0.325377 38.5778L9.57164 47.8113C10.0079 48.2445 10.7122 48.2445 11.1461 47.8113L11.5652 47.3927L14.9503 44.0123C15.7156 43.2481 15.9543 42.16 15.6694 41.1916L15.918 40.9458C16.6466 40.2154 17.6362 39.8067 18.6693 39.8067H29.3486C30.1601 39.8067 30.9278 39.4419 31.4373 38.8114L38.8047 29.7458C39.3358 29.1812 39.6261 28.4484 39.6261 27.6674C39.6261 26.8864 39.3067 26.0856 38.7293 25.5135C38.1616 24.9439 37.3963 24.6276 36.5824 24.6276L36.5818 24.6285ZM13.744 42.8082L10.3589 46.1887L1.95084 37.7923L5.33596 34.4118C5.49538 34.2526 5.69054 34.1513 5.89529 34.1051C5.9067 34.1024 5.91781 34.0991 5.92892 34.0967C5.93252 34.0961 5.93643 34.0958 5.94003 34.0952C6.00878 34.0826 6.07814 34.0757 6.14749 34.0757C6.33033 34.0757 6.51407 34.1195 6.6807 34.207C6.78068 34.2595 6.87495 34.3279 6.95902 34.4115L13.744 41.1871C14.1643 41.6069 14.1907 42.2707 13.8226 42.7207C13.819 42.7252 13.8145 42.7294 13.8109 42.7339C13.7896 42.7591 13.7677 42.7839 13.744 42.8079V42.8082ZM37.5272 28.6148L30.1136 37.7389C29.9259 37.9701 29.6431 38.1041 29.3459 38.1041H18.4156C17.0922 38.1041 15.8249 38.6297 14.8894 39.5642L14.787 39.6649L14.7089 39.7417L8.66734 33.7085C8.66824 33.7067 8.66914 33.7052 8.67004 33.7034C8.71358 33.6182 8.75951 33.5343 8.80695 33.4512C8.82196 33.4248 8.83757 33.3987 8.85289 33.3727C8.88861 33.3118 8.92494 33.2518 8.96247 33.1922C8.97898 33.1658 8.9952 33.1397 9.01231 33.1136C9.05975 33.0405 9.10838 32.9679 9.15852 32.8965C9.16453 32.8878 9.17053 32.8789 9.17654 32.8702C9.23268 32.791 9.29093 32.7134 9.35067 32.6366C9.36869 32.6132 9.3873 32.5904 9.40561 32.5673C9.44975 32.5119 9.49478 32.4567 9.54072 32.4024C9.56083 32.3785 9.58095 32.3548 9.60167 32.3311C9.65601 32.2684 9.71155 32.2067 9.76799 32.1458C9.7785 32.1344 9.78871 32.1227 9.79922 32.1116C9.86617 32.0406 9.93492 31.971 10.0049 31.9023C10.0244 31.8832 10.0445 31.8646 10.0643 31.8457C10.1172 31.795 10.1709 31.7452 10.2252 31.6961C10.2481 31.6754 10.2709 31.655 10.294 31.6346C10.3552 31.5809 10.4171 31.5282 10.4801 31.4763C10.494 31.4649 10.5072 31.4532 10.521 31.4421C10.5978 31.3798 10.6762 31.3192 10.7555 31.2598C10.7747 31.2454 10.7945 31.2317 10.814 31.2173C10.8762 31.172 10.9389 31.1273 11.0023 31.0835C11.0263 31.0671 11.0506 31.0506 11.0746 31.0344C11.1428 30.9888 11.2118 30.9441 11.2815 30.9007C11.2968 30.8911 11.3118 30.8812 11.3271 30.8719C11.413 30.8191 11.5 30.7681 11.5883 30.7187C11.6051 30.7094 11.6219 30.7004 11.6387 30.6911C11.7108 30.6515 11.7835 30.6128 11.857 30.5757C11.8813 30.5634 11.9054 30.5511 11.9297 30.5391C12.0044 30.5019 12.0798 30.4662 12.156 30.4317C12.1723 30.4245 12.1882 30.4167 12.2044 30.4096C12.2984 30.3676 12.3932 30.3274 12.4887 30.2893C12.4914 30.2881 12.4941 30.2869 12.4968 30.2857C12.5313 30.2719 12.5662 30.2593 12.6007 30.2462C12.6436 30.2297 12.6869 30.2135 12.7301 30.1979C12.7943 30.1748 12.8592 30.1523 12.924 30.131C12.9541 30.1211 12.9844 30.1121 13.0144 30.1025C13.0606 30.0881 13.1069 30.0735 13.1534 30.0597C13.1855 30.0504 13.2177 30.0417 13.2498 30.0327C13.2948 30.0201 13.3402 30.0075 13.3855 29.9958C13.4182 29.9874 13.4509 29.9796 13.4837 29.9715C13.5293 29.9604 13.5746 29.9496 13.6206 29.9394C13.6533 29.9322 13.686 29.925 13.7191 29.9185C13.7656 29.9089 13.8118 29.8996 13.8587 29.8909C13.8911 29.8849 13.9235 29.8789 13.9562 29.8732C14.004 29.8648 14.052 29.857 14.1001 29.8498C14.1316 29.845 14.1628 29.8399 14.1946 29.8357C14.2081 29.8339 14.2216 29.8315 14.2352 29.8297C14.2694 29.8252 14.3039 29.8216 14.3384 29.8177C14.3724 29.8138 14.406 29.8093 14.4399 29.8057C14.4883 29.8006 14.5369 29.7967 14.5855 29.7925C14.6186 29.7898 14.6519 29.7865 14.6849 29.7841C14.7374 29.7805 14.7903 29.7778 14.8431 29.7754C14.8723 29.7739 14.9014 29.7721 14.9308 29.7709C15.0083 29.7682 15.0863 29.7667 15.1641 29.7667C15.1683 29.7667 15.1725 29.7667 15.1767 29.7667C16.2392 29.7667 17.3212 30.0075 18.3546 30.543C18.4162 30.5748 18.4789 30.6032 18.5417 30.632C18.7395 30.7223 18.9431 30.7984 19.1518 30.8581C19.5964 30.9858 20.0606 31.0467 20.5262 31.0467H27.5352C27.588 31.0467 27.6402 31.0506 27.6919 31.0563C27.7066 31.0578 27.721 31.0602 27.7354 31.0623C27.7738 31.0677 27.8117 31.0745 27.8495 31.0829C27.8639 31.0862 27.878 31.0889 27.8921 31.0925C27.9408 31.1048 27.9885 31.1189 28.0351 31.136C28.036 31.1363 28.0369 31.1366 28.0378 31.1369C28.0855 31.1546 28.1314 31.1753 28.1765 31.1978C28.1894 31.2041 28.2017 31.211 28.2143 31.2179C28.2473 31.2356 28.2794 31.2541 28.3107 31.2742C28.3233 31.2823 28.3356 31.2901 28.3479 31.2985C28.3866 31.3249 28.4242 31.3528 28.4599 31.3825C28.4623 31.3843 28.4647 31.3861 28.4671 31.3879C28.5049 31.4199 28.5406 31.4547 28.5746 31.4907C28.5839 31.5006 28.5926 31.5108 28.6016 31.521C28.6265 31.5489 28.6502 31.5779 28.673 31.6079C28.6781 31.6145 28.6842 31.6205 28.689 31.6274C28.6947 31.6352 28.6998 31.6436 28.7055 31.6517C28.7112 31.6601 28.7172 31.6688 28.7229 31.6775C28.7427 31.7075 28.7616 31.7383 28.7787 31.7701C28.7802 31.7728 28.7814 31.7755 28.7826 31.7782C28.7988 31.8085 28.8136 31.8397 28.8271 31.8712C28.8307 31.8796 28.8343 31.8877 28.8376 31.8964C28.8658 31.9656 28.888 32.0382 28.9039 32.1131C28.9057 32.1215 28.9075 32.1302 28.909 32.1386C28.9162 32.1767 28.9222 32.2151 28.9261 32.2543C28.9676 32.6777 28.8094 33.0641 28.5361 33.3352C28.2942 33.575 27.9615 33.7243 27.5931 33.7243H20.7694C20.546 33.7243 20.3431 33.8113 20.1909 33.9522C20.0227 34.1078 19.9165 34.3297 19.9165 34.5761C19.9165 34.6082 19.9186 34.6394 19.9219 34.6706C19.9228 34.6799 19.9249 34.6889 19.9261 34.6982C19.9291 34.7194 19.9327 34.741 19.9372 34.7617C19.9396 34.7725 19.9426 34.783 19.9456 34.7938C19.9507 34.8127 19.9561 34.8313 19.9621 34.8496C19.9657 34.8604 19.9699 34.8711 19.9738 34.8816C19.9807 34.8996 19.9882 34.917 19.9963 34.9344C20.0011 34.9443 20.0056 34.9542 20.0107 34.9641C20.0197 34.9818 20.0299 34.9992 20.0402 35.016C20.0453 35.0244 20.0501 35.033 20.0555 35.0411C20.0681 35.0606 20.0819 35.0792 20.096 35.0975C20.0999 35.1026 20.1035 35.108 20.1074 35.1128C20.1266 35.1362 20.1467 35.1587 20.1681 35.18C20.169 35.1809 20.1699 35.1815 20.1708 35.1824C20.1909 35.2021 20.2122 35.221 20.2344 35.2387C20.2479 35.2495 20.262 35.2597 20.2761 35.2699C20.2821 35.2741 20.2881 35.2789 20.2942 35.2831C20.3149 35.2972 20.3365 35.3101 20.3584 35.3221C20.3656 35.326 20.3731 35.3296 20.3806 35.3332C20.3962 35.3413 20.4118 35.3491 20.4281 35.356C20.4371 35.3598 20.4464 35.3634 20.4557 35.367C20.4707 35.373 20.4857 35.3787 20.5013 35.3838C20.5112 35.3871 20.5211 35.3901 20.5313 35.3931C20.5466 35.3976 20.5626 35.4015 20.5782 35.4051C20.5884 35.4075 20.5983 35.4099 20.6085 35.4117C20.6256 35.415 20.643 35.4174 20.6604 35.4198C20.6697 35.421 20.6787 35.4225 20.6881 35.4234C20.7133 35.4258 20.7391 35.4273 20.7649 35.4273C20.7664 35.4273 20.7676 35.4273 20.7691 35.4273H27.5394C27.6462 35.4273 27.7534 35.4213 27.8603 35.412C28.0675 35.394 28.2734 35.3595 28.4725 35.2984C28.5181 35.2843 28.5635 35.2693 28.6079 35.2534C28.61 35.2528 28.6118 35.2519 28.6139 35.251C28.6559 35.236 28.6977 35.2201 28.7388 35.2033C28.7484 35.1994 28.758 35.1949 28.7676 35.1911C28.8006 35.1773 28.8334 35.1635 28.8658 35.1485C28.8787 35.1425 28.891 35.1362 28.9036 35.1302C28.9321 35.1167 28.9607 35.1029 28.9886 35.0888C29.003 35.0813 29.0168 35.0735 29.0312 35.066C29.0567 35.0522 29.0826 35.0387 29.1075 35.0247C29.1228 35.016 29.1378 35.0064 29.1528 34.9974C29.1759 34.9836 29.1994 34.9698 29.2222 34.9557C29.2381 34.9458 29.2534 34.935 29.269 34.9248C29.2906 34.9107 29.3122 34.8966 29.3333 34.8822C29.3489 34.8714 29.3642 34.8601 29.3795 34.849C29.3999 34.8343 29.4203 34.8199 29.4401 34.8049C29.4555 34.7932 29.4705 34.7809 29.4855 34.7689C29.5047 34.7536 29.5239 34.7389 29.5425 34.7233C29.5578 34.7107 29.5725 34.6975 29.5873 34.6847C29.6053 34.6691 29.6233 34.6538 29.6407 34.6382C29.6557 34.6247 29.6701 34.6106 29.6848 34.5968C29.7016 34.5809 29.7185 34.5653 29.735 34.5491C29.7494 34.5347 29.7635 34.5201 29.7776 34.5054C29.7932 34.4892 29.8091 34.4733 29.8244 34.4565C29.8385 34.4415 29.8521 34.4256 29.8659 34.4103C29.8806 34.3938 29.8953 34.3773 29.9097 34.3609C29.9232 34.345 29.9364 34.3288 29.9496 34.3126C29.9634 34.2958 29.9773 34.279 29.9908 34.2619C30.004 34.2451 30.0163 34.228 30.0292 34.2112C30.0418 34.1942 30.0547 34.1774 30.0673 34.16C30.0799 34.1426 30.0919 34.1246 30.104 34.1069C30.1157 34.0895 30.1277 34.0724 30.1391 34.055C30.1508 34.0371 30.1622 34.0185 30.1736 34.0005C30.1847 33.9831 30.1958 33.9654 30.2063 33.9477C30.2174 33.9291 30.2279 33.9102 30.2388 33.8913C30.249 33.8737 30.2592 33.856 30.2688 33.8377C30.2793 33.8185 30.2889 33.7993 30.2991 33.7798C30.3084 33.7615 30.318 33.7435 30.327 33.7252C30.3366 33.7055 30.3456 33.6857 30.3549 33.6662C30.3634 33.6476 30.3721 33.6293 30.3802 33.6107C30.3889 33.5906 30.3973 33.5702 30.4057 33.5498C30.4135 33.5313 30.421 33.5127 30.4285 33.4941C30.4366 33.4734 30.4441 33.4524 30.4519 33.4317C30.4588 33.4131 30.4657 33.3945 30.472 33.376C30.4792 33.355 30.4861 33.3334 30.4931 33.3121C30.4991 33.2935 30.5051 33.2746 30.5108 33.2557C30.5171 33.2341 30.5231 33.2126 30.5291 33.1913C30.5342 33.1724 30.5396 33.1532 30.5444 33.1343C30.5498 33.1124 30.5549 33.0908 30.56 33.0686C30.5645 33.0494 30.569 33.0303 30.5729 33.0111C30.5774 32.9892 30.5816 32.9673 30.5858 32.9454C30.5894 32.9259 30.593 32.9064 30.5963 32.8867C30.5999 32.8648 30.6032 32.8426 30.6065 32.8207C30.6095 32.8009 30.6122 32.7811 30.6146 32.7613C30.6174 32.7391 30.6198 32.717 30.6222 32.6948C30.6243 32.675 30.6261 32.6549 30.6279 32.6351C30.6297 32.6129 30.6312 32.5904 30.6327 32.5682C30.6339 32.5482 30.6351 32.5281 30.636 32.508C30.6369 32.4858 30.6375 32.4636 30.6378 32.4414C30.6381 32.421 30.6384 32.4006 30.6384 32.3806C30.6384 32.3584 30.6381 32.3362 30.6375 32.3143C30.6369 32.2936 30.6363 32.2729 30.6354 32.2522C30.6345 32.2303 30.6333 32.2082 30.6318 32.1863C30.6297 32.1557 30.6279 32.1251 30.6249 32.0945C30.6198 32.0385 30.6119 31.9836 30.6035 31.929C30.5879 31.8298 30.5672 31.7329 30.542 31.637L32.915 29.3479L35.633 26.726C35.7961 26.5632 35.9912 26.4508 36.199 26.3893C36.3236 26.3524 36.4524 26.3341 36.5812 26.3341C36.5914 26.3341 36.6016 26.3353 36.6121 26.3356C36.6872 26.3374 36.7622 26.3443 36.8364 26.3587C36.8559 26.3626 36.8751 26.3683 36.8943 26.3728C36.9168 26.3782 36.9393 26.3827 36.9616 26.3893C36.9628 26.3896 36.964 26.3902 36.9655 26.3905C37.0928 26.4286 37.2153 26.4864 37.3287 26.5632C37.3987 26.6103 37.4654 26.6642 37.5269 26.7257C37.7899 26.9859 37.9193 27.3292 37.9193 27.6701C37.9193 28.011 37.7902 28.3564 37.5269 28.6169L37.5272 28.6148Z" fill="#FFB800" fill-opacity="0.5"/>
<path d="M5.29443 37.1302C5.29443 37.6678 5.73097 38.1038 6.26929 38.1038C6.80761 38.1038 7.24414 37.6678 7.24414 37.1302C7.24414 36.5927 6.80761 36.1567 6.26929 36.1567C5.73097 36.1567 5.29443 36.5927 5.29443 37.1302Z" fill="#FFB800" fill-opacity="0.5"/>
<path d="M18.0097 13.9217C18.0097 13.3805 18.3246 13.1472 18.9047 13.1472C19.2238 13.1472 19.4901 13.2315 19.754 13.3946C20.0453 13.5745 20.4239 13.5199 20.649 13.2624C20.9219 12.9502 20.8643 12.469 20.5229 12.2337C20.181 11.998 19.7874 11.8277 19.3163 11.7564V11.1259C19.3163 10.8014 19.053 10.5382 18.7282 10.5382C18.4033 10.5382 18.1397 10.8011 18.1397 11.1259V11.7816C17.0039 12.0073 16.3122 12.8252 16.3122 14.0056C16.3122 16.1787 19.4958 16.1565 19.4958 17.3956C19.4958 17.9437 19.1953 18.227 18.5117 18.227C18.1223 18.227 17.7491 18.1155 17.3561 17.8954C17.0228 17.7087 16.6016 17.8139 16.3947 18.1344C16.1654 18.4897 16.2897 18.9634 16.6625 19.164C17.1354 19.4182 17.6674 19.5759 18.14 19.632V20.2487C18.14 20.5731 18.4033 20.8364 18.7284 20.8364C19.0536 20.8364 19.3166 20.5734 19.3166 20.2487V19.5765C20.5545 19.3145 21.1937 18.4273 21.1937 17.273C21.1937 14.971 18.01 15.0712 18.01 13.9226L18.0097 13.9217Z" fill="#FFB800"/>
</g>
<defs>
<clipPath id="clip0_2004_18024">
<rect width="48" height="47.8519" fill="white" transform="translate(0 0.285034)"/>
</clipPath>
</defs>
</svg>
