<svg width="48" height="49" viewBox="0 0 48 49" fill="none" xmlns="http://www.w3.org/2000/svg">
<g clip-path="url(#clip0_2004_18207)">
<path d="M17.4136 5.46628C17.2382 5.46628 17.0629 5.40987 16.9154 5.2927L13.6546 2.71147C13.3065 2.43634 13.2475 1.93034 13.5235 1.5823C13.7995 1.23426 14.3046 1.1761 14.6527 1.45124L17.9135 4.03246C18.2615 4.3076 18.3206 4.8136 18.0446 5.16164C17.8857 5.36213 17.6514 5.46628 17.4144 5.46628H17.4136Z" fill="#FFB800" fill-opacity="0.5"/>
<path d="M30.5864 5.71716C30.3494 5.71716 30.1142 5.61301 29.9562 5.41252C29.6811 5.06448 29.7393 4.55848 30.0873 4.28334L33.3481 1.70212C33.6953 1.42699 34.2013 1.48427 34.4773 1.83318C34.7524 2.18122 34.6943 2.68722 34.3462 2.96235L31.0854 5.54358C30.9379 5.66075 30.7626 5.71716 30.5872 5.71716H30.5864Z" fill="#FFB800" fill-opacity="0.5"/>
<path d="M24.0005 5.0618C23.557 5.0618 23.1968 4.70248 23.1968 4.2581V1.01464C23.1968 0.570261 23.557 0.210938 24.0005 0.210938C24.444 0.210938 24.8042 0.570261 24.8042 1.01464V4.2581C24.8042 4.70248 24.4449 5.0618 24.0005 5.0618Z" fill="#FFB800" fill-opacity="0.5"/>
<path d="M24.0284 35.6485C18.5891 35.4923 14.4838 31.7836 12.9979 25.7272C11.6196 20.1073 10.5659 11.4688 10.8714 8.287C10.9114 7.87474 11.2577 7.56055 11.6717 7.56055H11.676C12.8642 7.56662 36.1421 7.56662 36.3773 7.56662C36.8208 7.56662 37.181 7.92595 37.181 8.37033C37.181 8.46146 37.1654 8.54825 37.1376 8.62984C37.1532 8.68538 37.1619 8.74354 37.1645 8.80429C37.3112 12.0356 36.4172 19.9589 35.0025 25.7272C33.5183 31.7793 29.4156 35.4888 24.0284 35.6485ZM12.432 9.16882C12.3556 12.4322 13.2339 19.9433 14.5593 25.3444C15.862 30.6579 19.4023 33.9083 24.0284 34.042C28.6041 33.9057 32.1401 30.6536 33.4428 25.3444C34.7621 19.9667 35.643 12.4192 35.5701 9.17403C31.8224 9.17403 16.184 9.17403 12.4328 9.16969L12.432 9.16882Z" fill="#FFB800"/>
<path d="M38.5765 26.1907C38.3118 26.1907 38.0531 26.0605 37.8995 25.8209C37.66 25.4486 37.7676 24.9504 38.1408 24.7108C39.4661 23.8594 41.8521 21.9283 42.9326 18.5659C43.4195 17.0505 43.574 15.4179 43.3866 13.8044H40.229C39.7855 13.8044 39.4253 13.4451 39.4253 13.0007C39.4253 12.5563 39.7847 12.197 40.229 12.197H44.0809C44.4706 12.197 44.8048 12.4774 44.8725 12.8619C45.2379 14.944 45.0973 17.0861 44.4628 19.0571C43.2277 22.8977 40.5163 25.0953 39.0096 26.0639C38.8751 26.1499 38.7249 26.1907 38.5765 26.1907Z" fill="#FFB800" fill-opacity="0.5"/>
<path d="M9.42353 26.1906C9.27512 26.1906 9.12496 26.1499 8.99044 26.0639C7.48371 25.0953 4.77143 22.8977 3.53723 19.0571C2.90277 17.0852 2.7613 14.9431 3.12757 12.8618C3.19527 12.4782 3.52855 12.1979 3.91912 12.1979H7.77099C8.21451 12.1979 8.5747 12.5572 8.5747 13.0016C8.5747 13.446 8.21537 13.8053 7.77099 13.8053H4.61346C4.42512 15.4179 4.57962 17.0505 5.06739 18.5667C6.14796 21.9291 8.5339 23.8603 9.85923 24.7117C10.2324 24.9521 10.3409 25.4494 10.1005 25.8218C9.94689 26.0613 9.68825 26.1915 9.42353 26.1915V26.1906Z" fill="#FFB800" fill-opacity="0.5"/>
<path d="M27.7142 27.0187C27.5102 27.0187 27.3063 26.9692 27.1171 26.8703L24.0003 25.2316L20.8836 26.8694C20.447 27.0977 19.9297 27.0612 19.5331 26.7713C19.1356 26.4823 18.9403 26.0023 19.0228 25.5172L19.6182 22.0472L17.0977 19.5892C16.7453 19.2464 16.6203 18.7421 16.7731 18.2743C16.925 17.8065 17.3225 17.4723 17.8085 17.402L21.2915 16.896L22.8503 13.7393C23.0673 13.2984 23.5082 13.0242 24.0003 13.0242C24.4916 13.0242 24.9325 13.2984 25.1495 13.7393L26.7083 16.896L30.193 17.4029C30.6782 17.4723 31.0757 17.8065 31.2276 18.2743C31.3803 18.743 31.2562 19.2464 30.9039 19.5901L28.3825 22.048L28.9779 25.518C29.0612 26.0032 28.866 26.4832 28.4676 26.773C28.2428 26.9362 27.9798 27.0195 27.7151 27.0195L27.7142 27.0187ZM24.1531 25.1509H24.1522C24.1522 25.1509 24.1522 25.1509 24.1531 25.1509ZM18.6895 18.8983L20.861 21.0152C21.1639 21.3112 21.3011 21.7356 21.2299 22.1505L20.7178 25.1405L23.4032 23.7292C23.7755 23.5313 24.2234 23.5305 24.5975 23.7292L27.2811 25.1396L26.7682 22.1496C26.697 21.7356 26.8341 21.3112 27.1353 21.0169L29.3103 18.8975L26.3082 18.46C25.8907 18.3993 25.5305 18.1371 25.343 17.7596L24.0003 15.0386L22.6576 17.7587C22.4702 18.138 22.11 18.4001 21.6925 18.46L18.6903 18.8975L18.6895 18.8983ZM23.7087 14.4484V14.4502C23.7087 14.4502 23.7087 14.4502 23.7087 14.4484Z" fill="#FFB800"/>
<path d="M24.0005 43.2204C23.557 43.2204 23.1968 42.861 23.1968 42.4167V34.8448C23.1968 34.4005 23.557 34.0411 24.0005 34.0411C24.444 34.0411 24.8042 34.4005 24.8042 34.8448V42.4167C24.8042 42.861 24.4449 43.2204 24.0005 43.2204Z" fill="#FFB800"/>
<path d="M34.6274 48.211H31.39C30.9465 48.211 30.5863 47.8517 30.5863 47.4073C30.5863 46.9629 30.9465 46.6036 31.39 46.6036H33.7291C33.3663 45.1047 32.0141 43.9885 30.4049 43.9885H17.596C15.9877 43.9885 14.6346 45.1055 14.2718 46.6036H24.4987C24.9422 46.6036 25.3024 46.9629 25.3024 47.4073C25.3024 47.8517 24.9422 48.211 24.4987 48.211H13.3735C12.93 48.211 12.5698 47.8517 12.5698 47.4073C12.5698 44.636 14.8247 42.3811 17.596 42.3811H30.4049C33.1762 42.3811 35.4311 44.6351 35.4311 47.4073C35.4311 47.8517 35.0718 48.211 34.6274 48.211Z" fill="#FFB800"/>
<path d="M28.8269 48.2109H27.4365C26.993 48.2109 26.6328 47.8516 26.6328 47.4072C26.6328 46.9628 26.993 46.6035 27.4365 46.6035H28.8269C29.2705 46.6035 29.6306 46.9628 29.6306 47.4072C29.6306 47.8516 29.2705 48.2109 28.8269 48.2109Z" fill="#FFB800"/>
</g>
<defs>
<clipPath id="clip0_2004_18207">
<rect width="42.1423" height="48" fill="white" transform="translate(2.92871 0.210938)"/>
</clipPath>
</defs>
</svg>
