<svg width="48" height="49" viewBox="0 0 48 49" fill="none" xmlns="http://www.w3.org/2000/svg">
<g clip-path="url(#clip0_2004_18136)">
<path d="M2.62475 42.498C2.468 42.498 2.31125 42.4488 2.17718 42.3462C1.85283 42.0988 1.78974 41.6344 2.03817 41.3101L10.5204 30.1917C10.5283 30.1818 10.5362 30.172 10.5441 30.1621C11.2292 29.3527 11.1267 27.5891 10.6821 26.34C10.2907 25.2408 10.2661 24.946 10.2789 24.7488L10.3232 23.8576C10.3439 23.4495 10.691 23.133 11.0981 23.1557C11.5063 23.1764 11.8198 23.5234 11.8 23.9306L11.7567 24.805C11.7655 24.8632 11.8138 25.1087 12.0751 25.8441C12.3659 26.6614 12.5256 27.6186 12.5138 28.4724C12.499 29.5607 12.2121 30.4697 11.6857 31.1016L3.2133 42.2062C3.0674 42.3965 2.84755 42.4971 2.62475 42.4971V42.498ZM11.7547 24.8218V24.8297C11.7547 24.8346 11.7547 24.8405 11.7537 24.8454C11.7537 24.8385 11.7547 24.8306 11.7547 24.8218Z" fill="#FFB800"/>
<path d="M12.7393 48.211C12.6003 48.211 12.4594 48.1716 12.3342 48.0897C11.9931 47.866 11.8974 47.4075 12.1222 47.0654L18.8792 36.7791C19.9489 35.1505 21.4424 33.8442 23.2002 33.0013L25.9448 31.6852C26.7167 31.1736 30.2727 27.2164 32.3715 24.7981C32.8704 24.1297 32.6969 23.2059 32.2178 22.7554C31.7012 22.2713 31.2694 21.3338 31.222 21.2283C31.1954 21.1702 31.1767 21.109 31.1668 21.0459L30.9638 19.8304C30.8464 19.1265 30.2944 18.5784 29.5895 18.466L29.1981 18.4039C28.9329 18.3615 28.7111 18.1791 28.6194 17.9267L28.2546 16.9231C28.017 16.2695 27.391 15.8308 26.696 15.8308H26.1972C26.1972 15.8308 26.1962 15.8318 26.1952 15.8318C25.8285 15.8318 25.5169 15.5626 25.4637 15.1998L25.3385 14.3431C25.2281 13.589 24.604 13.0004 23.8469 12.9314L22.6028 12.9689C22.1956 12.9768 21.8535 12.6603 21.8417 12.2522C21.8299 11.844 22.1503 11.5029 22.5584 11.4911L23.843 11.4526C23.8676 11.4526 23.8923 11.4526 23.9169 11.4536C25.3769 11.5552 26.5905 12.681 26.8025 14.1292L26.836 14.355C28.0949 14.4112 29.2119 15.2245 29.6457 16.4174L29.8616 17.0128C31.1757 17.2386 32.203 18.2688 32.4228 19.5879L32.6091 20.7038C32.7629 21.0242 33.0321 21.4925 33.2312 21.6788C34.3216 22.7022 34.4576 24.5132 33.5348 25.7159C33.526 25.7277 33.5161 25.7396 33.5072 25.7504C32.5658 26.8358 27.814 32.2826 26.6911 32.9668C26.6704 32.9796 26.6487 32.9915 26.626 33.0023L23.842 34.3371C22.3277 35.0637 21.0402 36.1896 20.1174 37.5934L13.3604 47.8798C13.2185 48.0957 12.9829 48.213 12.7413 48.213L12.7393 48.211Z" fill="#FFB800"/>
<path d="M45.3751 42.498C45.1661 42.498 44.9581 42.4093 44.8112 42.2377L35.834 31.6783C35.2632 31.004 35.0582 29.7904 35.206 27.9656C35.2938 26.8792 35.2396 25.7622 35.0444 24.6462L34.5514 21.8287C34.4528 21.2806 34.2103 20.762 33.8505 20.3312C33.8298 20.3065 33.8111 20.2809 33.7943 20.2543L31.5742 16.7723C31.3642 16.444 31.0073 16.2281 30.6189 16.1946L27.267 15.9067C26.8598 15.8722 26.5582 15.5133 26.5937 15.1072C26.6291 14.701 26.987 14.3993 27.3932 14.4338L30.7451 14.7217C31.589 14.7947 32.3648 15.2639 32.8203 15.9777L35.0158 19.4213C35.5235 20.0404 35.8656 20.7827 36.0065 21.5714L36.4995 24.3919C36.7164 25.6311 36.7765 26.8743 36.6779 28.0859C36.5527 29.6366 36.741 30.4647 36.9599 30.723L45.936 41.2815C46.2002 41.593 46.1628 42.0593 45.8512 42.3235C45.7122 42.4418 45.5417 42.5 45.3731 42.5L45.3751 42.498Z" fill="#FFB800"/>
<path d="M35.1264 48.2109C34.8681 48.2109 34.6177 48.0759 34.4816 47.8343C34.4402 47.7604 30.279 40.3882 27.9829 37.1675C27.4407 36.4074 26.5968 35.9154 25.6662 35.8178L21.8549 35.4846C21.4477 35.4491 21.147 35.0903 21.1825 34.6841C21.218 34.277 21.5779 33.9763 21.983 34.0118L25.8003 34.345C25.8003 34.345 25.8081 34.345 25.8121 34.346C27.1676 34.486 28.398 35.2007 29.1876 36.3088C31.529 39.5926 35.5976 46.8022 35.7701 47.1078C35.9703 47.4637 35.8451 47.9142 35.4892 48.1153C35.3748 48.1804 35.2496 48.2109 35.1264 48.2109Z" fill="#FFB800"/>
<path d="M30.744 33.0397C30.5389 33.0397 30.3349 32.955 30.189 32.7893C29.0493 31.4959 28.6225 29.2186 29.8824 27.6491C30.1377 27.3307 30.603 27.2794 30.9215 27.5348C31.2399 27.7901 31.2911 28.2554 31.0358 28.5738C30.2738 29.5242 30.5794 30.9941 31.299 31.8114C31.5692 32.118 31.5396 32.5853 31.233 32.8554C31.092 32.9786 30.9185 33.0397 30.744 33.0397Z" fill="#FFB800"/>
<path d="M13.9225 23.8349C13.2886 23.8349 12.6557 23.5904 12.1786 23.1024L11.1415 22.0426C10.686 21.5763 10.4386 20.9611 10.4455 20.3095C10.4524 19.6578 10.7126 19.0476 11.1789 18.5921C11.6452 18.1366 12.2584 17.8872 12.912 17.8961C13.5637 17.903 14.1739 18.1633 14.6294 18.6296L15.6665 19.6894C16.607 20.6506 16.5912 22.1993 15.629 23.1398C15.1549 23.6032 14.5387 23.8349 13.9225 23.8349ZM12.8844 19.3759C12.6419 19.3759 12.3984 19.4666 12.2121 19.6499C11.8335 20.0206 11.8266 20.6308 12.1973 21.0094L13.2344 22.0692C13.6051 22.4478 14.2153 22.4547 14.5939 22.084C14.9725 21.7133 14.9794 21.1031 14.6087 20.7245L13.5716 19.6647C13.3833 19.4725 13.1339 19.3759 12.8844 19.3759Z" fill="#FFB800"/>
<path d="M16.256 21.0705C16.2472 21.0705 16.2383 21.0705 16.2294 21.0705C15.5778 21.0636 14.9675 20.8034 14.5121 20.3371L13.475 19.2773C13.0195 18.812 12.772 18.1958 12.7789 17.5442C12.7859 16.8925 13.0461 16.2823 13.5124 15.8268C13.9777 15.3714 14.5919 15.1259 15.2455 15.1308C15.8972 15.1377 16.5074 15.398 16.9629 15.8643L18 16.9241C18.9405 17.8853 18.9247 19.434 17.9625 20.3745C17.5031 20.8241 16.8978 21.0705 16.257 21.0705H16.256ZM15.2179 16.6096C14.9656 16.6096 14.727 16.7072 14.5456 16.8836C14.3622 17.0631 14.2597 17.3036 14.2567 17.5599C14.2538 17.8163 14.3514 18.0588 14.5308 18.2421L15.5679 19.3019C15.7473 19.4853 15.9879 19.5878 16.2442 19.5908C16.5025 19.5977 16.743 19.4961 16.9264 19.3167C17.305 18.946 17.3119 18.3358 16.9412 17.9572L15.9041 16.8975C15.7247 16.7141 15.4841 16.6116 15.2278 16.6086H15.217L15.2179 16.6096Z" fill="#FFB800"/>
<path d="M18.8322 18.5478C18.1983 18.5478 17.5654 18.3033 17.0882 17.8153L16.0511 16.7555C15.5957 16.2902 15.3482 15.674 15.3551 15.0224C15.362 14.3707 15.6223 13.7605 16.0886 13.305C16.548 12.8555 17.1523 12.609 17.7941 12.609C17.803 12.609 17.8119 12.609 17.8207 12.609C18.4724 12.6159 19.0826 12.8762 19.5381 13.3425L20.5752 14.4023C21.5157 15.3635 21.4999 16.9122 20.5377 17.8527C20.0635 18.3171 19.4474 18.5478 18.8312 18.5478H18.8322ZM17.7941 14.0878C17.5417 14.0878 17.3032 14.1854 17.1218 14.3618C16.9384 14.5413 16.8359 14.7818 16.8329 15.0381C16.83 15.2945 16.9276 15.537 17.107 15.7203L18.1441 16.7801C18.3235 16.9635 18.5641 17.066 18.8204 17.069C19.0757 17.0719 19.3192 16.9743 19.5026 16.7949C19.8812 16.4242 19.8881 15.814 19.5174 15.4354L18.4803 14.3756C18.3008 14.1923 18.0603 14.0898 17.804 14.0868C17.8 14.0868 17.7971 14.0868 17.7931 14.0868L17.7941 14.0878Z" fill="#FFB800"/>
<path d="M21.6528 16.2694C21.0189 16.2694 20.3859 16.025 19.9088 15.537L18.8717 14.4772C17.9312 13.516 17.9469 11.9672 18.9091 11.0267C19.3685 10.5772 19.9729 10.3307 20.6147 10.3307C20.6235 10.3307 20.6324 10.3307 20.6413 10.3307C21.2929 10.3376 21.9032 10.5979 22.3586 11.0642L23.3957 12.1239C23.8512 12.5893 24.0986 13.2054 24.0917 13.8571C24.0848 14.5087 23.8246 15.119 23.3583 15.5744C22.8841 16.0388 22.2679 16.2694 21.6518 16.2694H21.6528ZM20.6147 11.8095C20.3623 11.8095 20.1237 11.9071 19.9423 12.0835C19.5637 12.4542 19.5568 13.0644 19.9275 13.443L20.9646 14.5028C21.1441 14.6862 21.3846 14.7887 21.6409 14.7917C21.6449 14.7917 21.6478 14.7917 21.6518 14.7917C21.9041 14.7917 22.1427 14.6941 22.3241 14.5176C22.5075 14.3382 22.61 14.0976 22.613 13.8413C22.6159 13.585 22.5183 13.3425 22.3389 13.1591L21.3018 12.0993C21.1224 11.9159 20.8818 11.8134 20.6255 11.8104C20.6216 11.8104 20.6186 11.8104 20.6147 11.8104V11.8095Z" fill="#FFB800"/>
<path d="M23.6979 7.81676C23.2898 7.81676 22.9585 7.48552 22.9585 7.07738L22.9556 0.950324C22.9556 0.542183 23.2858 0.210938 23.695 0.210938C24.1031 0.210938 24.4343 0.542183 24.4343 0.950324L24.4373 7.07738C24.4373 7.48552 24.107 7.81676 23.6979 7.81676Z" fill="#FFB800" fill-opacity="0.5"/>
<path d="M31.2791 9.24719C31.151 9.24719 31.0208 9.21368 30.9015 9.14269C30.5506 8.93369 30.4352 8.4802 30.6442 8.12924L33.6313 3.1093C33.8403 2.75834 34.2938 2.64299 34.6448 2.85199C34.9958 3.06099 35.1111 3.51448 34.9021 3.86544L31.915 8.88539C31.777 9.11805 31.5315 9.24719 31.2791 9.24719Z" fill="#FFB800" fill-opacity="0.5"/>
<path d="M37.9532 11.979C37.7501 11.979 37.549 11.8962 37.4031 11.7335C37.13 11.4298 37.1557 10.9626 37.4593 10.6895L40.5726 7.89361C40.8763 7.62053 41.3446 7.64616 41.6166 7.9498C41.8897 8.25344 41.8641 8.72073 41.5605 8.99381L38.4471 11.7897C38.3062 11.9169 38.1297 11.979 37.9532 11.979Z" fill="#FFB800" fill-opacity="0.5"/>
<path d="M16.7203 9.24719C16.468 9.24719 16.2225 9.11805 16.0845 8.88539L13.0974 3.86544C12.8884 3.51448 13.0037 3.06099 13.3547 2.85199C13.7056 2.64299 14.1591 2.75834 14.3681 3.1093L17.3552 8.12924C17.5642 8.4802 17.4489 8.93369 17.0979 9.14269C16.9796 9.21368 16.8495 9.24719 16.7203 9.24719Z" fill="#FFB800" fill-opacity="0.5"/>
<path d="M10.047 11.979C9.87154 11.979 9.69409 11.9169 9.55311 11.7897L6.43881 8.99381C6.13517 8.72073 6.10954 8.25344 6.38262 7.9498C6.65472 7.64616 7.12299 7.62053 7.42663 7.89361L10.5409 10.6895C10.8446 10.9626 10.8702 11.4298 10.5971 11.7335C10.4512 11.8962 10.2491 11.979 10.047 11.979Z" fill="#FFB800" fill-opacity="0.5"/>
</g>
<defs>
<clipPath id="clip0_2004_18136">
<rect width="44.2272" height="48" fill="white" transform="translate(1.88623 0.210938)"/>
</clipPath>
</defs>
</svg>
