 <svg
                    width="19"
                    height="19"
                    viewBox="0 0 19 19"
                    fill="none"
                    xmlns="http://www.w3.org/2000/svg"
                  >
                    <g clip-path="url(#clip0_2004_20449)">
                      <path
                        d="M18.1424 8.70029C18.1422 8.70008 18.142 8.69983 18.1418 8.69962L14.4678 5.04337C14.1926 4.76947 13.7474 4.77049 13.4734 5.04576C13.1995 5.321 13.2005 5.76618 13.4758 6.04012L15.9425 8.49487H1.05176C0.663422 8.49487 0.348633 8.80966 0.348633 9.198C0.348633 9.58633 0.663422 9.90112 1.05176 9.90112H15.9424L13.4758 12.3559C13.2006 12.6298 13.1995 13.075 13.4734 13.3502C13.7474 13.6255 14.1926 13.6265 14.4678 13.3526L18.1418 9.69637C18.142 9.69616 18.1422 9.69591 18.1424 9.6957C18.4178 9.42085 18.4169 8.97423 18.1424 8.70029Z"
                        fill="white"
                      />
                    </g>
                    <defs>
                      <clipPath id="clip0_2004_20449">
                        <rect
                          width="18"
                          height="18"
                          fill="white"
                          transform="translate(0.348633 0.197998)"
                        />
                      </clipPath>
                    </defs>
                  </svg>