<svg width="26" height="26" viewBox="0 0 26 26" fill="none" xmlns="http://www.w3.org/2000/svg">
<path fill-rule="evenodd" clip-rule="evenodd" d="M2 18.5959C2 18.2151 2.15471 17.8506 2.42864 17.586L3.45759 16.5922C3.84928 16.2139 4.06977 15.6922 4.06814 15.1476L4.05867 11.9946C4.04543 7.58319 7.61789 4 12.0293 4C16.4314 4 20 7.56859 20 11.9707L20 15.1716C20 15.702 20.2107 16.2107 20.5858 16.5858L21.5858 17.5858C21.851 17.851 22 18.2107 22 18.5858C22 19.3668 21.3668 20 20.5858 20H16C16 22.2091 14.2091 24 12 24C9.79086 24 8 22.2091 8 20H3.40408C2.62863 20 2 19.3714 2 18.5959ZM10 20C10 21.1046 10.8954 22 12 22C13.1046 22 14 21.1046 14 20H10ZM18 15.1716C18 16.2324 18.4214 17.2499 19.1716 18L4.87851 18C5.64222 17.246 6.07136 16.2161 6.06813 15.1416L6.05867 11.9886C6.04875 8.6841 8.7248 6 12.0293 6C15.3268 6 18 8.67316 18 11.9707L18 15.1716Z" fill="#6F767E"/>
<rect x="13" y="1" width="12" height="12" rx="6" fill="#FF6A55"/>
<rect x="13" y="1" width="12" height="12" rx="6" stroke="#FCFCFC" stroke-width="2"/>
</svg>
