<svg width="20" height="20" viewBox="0 0 20 20" fill="none" xmlns="http://www.w3.org/2000/svg">
<path fill-rule="evenodd" clip-rule="evenodd" d="M4.16666 4.99992H7.49999C8.42046 4.99992 9.16666 5.74611 9.16666 6.66659V15.4653L8.79679 15.342C8.11701 15.1154 7.40515 14.9999 6.6886 14.9999H4.16666C3.70642 14.9999 3.33332 14.6268 3.33332 14.1666V5.83325C3.33332 5.37301 3.70642 4.99992 4.16666 4.99992ZM10.3162 17.3945C10.111 17.4629 9.88903 17.4629 9.68376 17.3945L8.26974 16.9232C7.75991 16.7532 7.22601 16.6666 6.6886 16.6666H4.16666C2.78594 16.6666 1.66666 15.5473 1.66666 14.1666V5.83325C1.66666 4.45254 2.78594 3.33325 4.16666 3.33325H7.49999C8.49557 3.33325 9.3892 3.76971 9.99999 4.46173C10.6108 3.76971 11.5044 3.33325 12.5 3.33325H15.8333C17.214 3.33325 18.3333 4.45254 18.3333 5.83325V14.1666C18.3333 15.5473 17.214 16.6666 15.8333 16.6666H13.3114C12.774 16.6666 12.2401 16.7532 11.7302 16.9232L10.3162 17.3945ZM12.5 4.99992H15.8333C16.2936 4.99992 16.6667 5.37301 16.6667 5.83325V14.1666C16.6667 14.6268 16.2936 14.9999 15.8333 14.9999H13.3114C12.5948 14.9999 11.883 15.1154 11.2032 15.342L10.8333 15.4653V6.66659C10.8333 5.74611 11.5795 4.99992 12.5 4.99992Z" fill="white"/>
</svg>
