<svg width="20" height="20" viewBox="0 0 20 20" fill="none" xmlns="http://www.w3.org/2000/svg">
<path fill-rule="evenodd" clip-rule="evenodd" d="M4.16666 5.00016H7.49999C8.42046 5.00016 9.16666 5.74636 9.16666 6.66683V15.4656L8.79679 15.3423C8.11701 15.1157 7.40515 15.0002 6.6886 15.0002H4.16666C3.70642 15.0002 3.33332 14.6271 3.33332 14.1668V5.8335C3.33332 5.37326 3.70642 5.00016 4.16666 5.00016ZM10.3162 17.3948C10.111 17.4632 9.88903 17.4632 9.68376 17.3948L8.26974 16.9234C7.75991 16.7535 7.22601 16.6668 6.6886 16.6668H4.16666C2.78594 16.6668 1.66666 15.5475 1.66666 14.1668V5.8335C1.66666 4.45278 2.78594 3.3335 4.16666 3.3335H7.49999C8.49557 3.3335 9.3892 3.76996 9.99999 4.46198C10.6108 3.76996 11.5044 3.3335 12.5 3.3335H15.8333C17.214 3.3335 18.3333 4.45278 18.3333 5.8335V14.1668C18.3333 15.5475 17.214 16.6668 15.8333 16.6668H13.3114C12.774 16.6668 12.2401 16.7535 11.7302 16.9234L10.3162 17.3948ZM12.5 5.00016H15.8333C16.2936 5.00016 16.6667 5.37326 16.6667 5.8335V14.1668C16.6667 14.6271 16.2936 15.0002 15.8333 15.0002H13.3114C12.5948 15.0002 11.883 15.1157 11.2032 15.3423L10.8333 15.4656V6.66683C10.8333 5.74636 11.5795 5.00016 12.5 5.00016Z" fill="#FFFFFF"/>
</svg>
