<svg width="32" height="32" viewBox="0 0 32 32" fill="none" xmlns="http://www.w3.org/2000/svg">
<path d="M8.94277 7.05752C8.42207 6.53682 7.57785 6.53682 7.05715 7.05752C6.53645 7.57822 6.53645 8.42244 7.05715 8.94313L14.1143 16.0003L7.05703 23.0575C6.53633 23.5782 6.53633 24.4224 7.05703 24.9431C7.57773 25.4638 8.42195 25.4638 8.94265 24.9431L15.9999 17.8859L23.0572 24.9431C23.5779 25.4638 24.4221 25.4639 24.9428 24.9432C25.4635 24.4225 25.4635 23.5782 24.9428 23.0575L17.8855 16.0003L24.9426 8.94314C25.4633 8.42244 25.4633 7.57822 24.9426 7.05752C24.4219 6.53682 23.5777 6.53682 23.057 7.05752L15.9999 14.1146L8.94277 7.05752Z" fill="#6F767E"/>
</svg>
