<svg width="32" height="21" viewBox="0 0 32 21" fill="none" xmlns="http://www.w3.org/2000/svg">
<path d="M23.504 20.0499C21.6267 20.0499 20.0053 19.3459 18.64 17.9379C17.2747 16.5299 16.592 14.6739 16.592 12.3699C16.592 11.4739 16.72 10.5139 16.976 9.48989C17.4453 7.56989 18.2773 5.92723 19.472 4.56189C20.7093 3.15389 22.1173 2.10856 23.696 1.42589C25.2747 0.700558 26.8107 0.337891 28.304 0.337891C30.0533 0.337891 30.928 0.849892 30.928 1.87389C30.928 2.12989 30.9067 2.32189 30.864 2.44989C30.736 2.91922 30.48 3.32456 30.096 3.66589C29.712 3.96456 29.1147 4.39123 28.304 4.94589C27.3653 5.62856 26.6827 6.18323 26.256 6.60989C25.8293 7.03656 25.616 7.54856 25.616 8.14589C25.616 8.52989 25.7227 8.91389 25.936 9.29789C26.192 9.68189 26.576 10.1939 27.088 10.8339C27.7707 11.7299 28.2827 12.4766 28.624 13.0739C28.9653 13.6712 29.136 14.3539 29.136 15.1219C29.136 15.5486 29.072 15.9966 28.944 16.4659C28.6027 17.6179 27.9627 18.5139 27.024 19.1539C26.0853 19.7512 24.912 20.0499 23.504 20.0499ZM8.912 20.0499C7.03467 20.0499 5.41333 19.3459 4.048 17.9379C2.68267 16.5299 2 14.6739 2 12.3699C2 11.4739 2.128 10.5139 2.384 9.48989C2.85333 7.56989 3.68533 5.92723 4.88 4.56189C6.11733 3.15389 7.52533 2.10856 9.104 1.42589C10.6827 0.700558 12.2187 0.337891 13.712 0.337891C15.4613 0.337891 16.336 0.849892 16.336 1.87389C16.336 2.12989 16.3147 2.32189 16.272 2.44989C16.144 2.91922 15.888 3.32456 15.504 3.66589C15.12 3.96456 14.5227 4.39123 13.712 4.94589C12.7733 5.62856 12.0907 6.18323 11.664 6.60989C11.2373 7.03656 11.024 7.54856 11.024 8.14589C11.024 8.52989 11.1307 8.91389 11.344 9.29789C11.6 9.68189 11.984 10.1939 12.496 10.8339C13.1787 11.7299 13.6907 12.4766 14.032 13.0739C14.3733 13.6712 14.544 14.3539 14.544 15.1219C14.544 15.5486 14.48 15.9966 14.352 16.4659C14.0107 17.6179 13.3707 18.5139 12.432 19.1539C11.4933 19.7512 10.32 20.0499 8.912 20.0499Z" fill="white"/>
</svg>
