<svg width="24" height="25" viewBox="0 0 24 25" fill="none" xmlns="http://www.w3.org/2000/svg">
<path d="M17.1765 9.16347C18.7198 10.2706 20.6105 10.9221 22.6525 10.9221V6.97861C22.2661 6.97869 21.8806 6.93825 21.5025 6.85786V9.96193C19.4606 9.96193 17.5702 9.31049 16.0265 8.2034V16.2509C16.0265 20.2766 12.7745 23.5399 8.76333 23.5399C7.26666 23.5399 5.87556 23.0858 4.71997 22.307C6.03888 23.6604 7.87821 24.5 9.91309 24.5C13.9245 24.5 17.1766 21.2367 17.1766 17.2108V9.16347H17.1765ZM18.5951 5.18499C17.8064 4.32023 17.2885 3.20267 17.1765 1.96717V1.45996H16.0867C16.361 3.03028 17.2966 4.37187 18.5951 5.18499ZM7.25706 19.2178C6.81638 18.6379 6.57824 17.9286 6.57931 17.1992C6.57931 15.358 8.06672 13.8651 9.90177 13.8651C10.2438 13.865 10.5837 13.9176 10.9096 14.0214V9.98977C10.5287 9.93739 10.1443 9.91515 9.7601 9.9233V13.0613C9.43394 12.9575 9.09384 12.9048 8.75177 12.9051C6.91671 12.9051 5.42938 14.3979 5.42938 16.2393C5.42938 17.5414 6.17284 18.6687 7.25706 19.2178Z" fill="#FF004F"/>
<path d="M16.0265 8.20332C17.5702 9.31041 19.4607 9.96185 21.5025 9.96185V6.85778C20.3628 6.61414 19.3538 6.0164 18.5951 5.18499C17.2966 4.37179 16.361 3.0302 16.0867 1.45996H13.2241V17.2106C13.2176 19.0468 11.7327 20.5336 9.90162 20.5336C8.82257 20.5336 7.86394 20.0174 7.25682 19.2178C6.17269 18.6687 5.42923 17.5413 5.42923 16.2394C5.42923 14.3981 6.91655 12.9052 8.75161 12.9052C9.1032 12.9052 9.44208 12.9602 9.75995 13.0614V9.92338C5.81921 10.0051 2.6499 13.2365 2.6499 17.2107C2.6499 19.1946 3.43913 20.9931 4.72006 22.3071C5.87565 23.0858 7.26675 23.54 8.76342 23.54C12.7747 23.54 16.0265 20.2765 16.0265 16.2509V8.20332H16.0265Z" fill="black"/>
<path d="M21.5025 6.8578V6.01848C20.4748 6.02005 19.4672 5.73119 18.5952 5.18493C19.3671 6.03306 20.3835 6.61787 21.5025 6.8578ZM16.0867 1.45998C16.0605 1.30991 16.0404 1.15885 16.0265 1.00721V0.5H12.074V16.2508C12.0677 18.0868 10.5829 19.5736 8.75164 19.5736C8.214 19.5736 7.70638 19.4455 7.25685 19.2179C7.86397 20.0174 8.82259 20.5336 9.90164 20.5336C11.7326 20.5336 13.2177 19.0469 13.2241 17.2107V1.45998H16.0867ZM9.76014 9.92341V9.02989C9.42988 8.98459 9.09691 8.96186 8.76353 8.96202C4.75192 8.96194 1.5 12.2254 1.5 16.2508C1.5 18.7745 2.77806 20.9987 4.72017 22.307C3.43924 20.993 2.65001 19.1944 2.65001 17.2106C2.65001 13.2365 5.81924 10.0051 9.76014 9.92341Z" fill="#00F2EA"/>
</svg>
