<svg width="24" height="25" viewBox="0 0 24 25" fill="none" xmlns="http://www.w3.org/2000/svg">
<path fill-rule="evenodd" clip-rule="evenodd" d="M5.08852 3.25015C5.96102 3.25015 6.19768 3.26194 6.37971 3.33063C6.61706 3.42019 6.82155 3.57984 6.966 3.78839C7.07679 3.94833 7.14563 4.17506 7.35724 5.02151L7.47953 5.51066C7.78077 6.71562 7.8883 7.17478 7.87149 7.61282C7.85575 8.02301 7.76244 8.4265 7.5965 8.80196C7.4193 9.2029 7.1211 9.56824 6.32144 10.5186L4.92295 12.1807C3.91348 10.2051 3.23168 7.96159 2.92862 5.49006C2.81457 4.55991 2.80285 4.32548 2.8876 4.08486C2.98298 3.81406 3.25373 3.50809 3.51091 3.38045C3.60708 3.33273 3.73485 3.29486 3.98252 3.27341C4.24376 3.25079 4.57881 3.25015 5.08852 3.25015ZM7.4692 11.4844L5.71436 13.5699C6.98811 15.5846 8.64357 17.2758 10.6247 18.588L13.1145 16.7237L13.2006 16.6593C14.0128 16.0508 14.5361 15.6589 15.129 15.4245C15.6532 15.2173 16.2101 15.1051 16.7737 15.0931C17.4111 15.0795 18.0453 15.2382 19.0298 15.4845L19.1341 15.5106L19.8424 15.6877L19.9631 15.7178C20.6297 15.8838 21.1508 16.0136 21.5658 16.301C22.0246 16.6188 22.3759 17.0687 22.5729 17.5909C22.7511 18.0632 22.7507 18.5901 22.7501 19.2614L22.75 19.3813V19.4117C22.75 19.8929 22.75 20.3003 22.7212 20.6384C22.6908 20.9961 22.6248 21.3306 22.4633 21.6561C22.162 22.2631 21.5528 22.8022 20.9136 23.0273C20.3021 23.2427 19.6992 23.1682 18.9486 23.0753L18.8273 23.0603C15.6136 22.6662 12.7265 21.6664 10.2624 20.1374C7.73479 18.569 5.66356 16.4507 4.14702 13.8814C2.73938 11.4966 1.81498 8.73256 1.43977 5.67262L1.42481 5.5513C1.33197 4.80081 1.25741 4.19802 1.4728 3.58653C1.69795 2.94733 2.23704 2.33809 2.84409 2.03682C3.16802 1.87606 3.4988 1.80968 3.85313 1.779C4.1867 1.75012 4.58702 1.75013 5.05801 1.75014L5.08852 1.75015L5.21294 1.75007C5.89983 1.74945 6.43687 1.74897 6.90925 1.92721C7.43143 2.12423 7.8813 2.47548 8.19909 2.93429C8.48657 3.34933 8.61635 3.87045 8.78235 4.53698L8.81245 4.6577L8.93474 5.14686L8.9628 5.25903C9.22656 6.31312 9.39642 6.99198 9.37039 7.67035C9.34738 8.26985 9.21101 8.85957 8.96848 9.40832C8.69406 10.0292 8.2434 10.5646 7.54366 11.3959L7.54365 11.3959L7.4692 11.4844ZM19.0099 21.5715C16.4117 21.2529 14.0654 20.5157 12.0174 19.4191L14.0136 17.9244C14.9415 17.2297 15.2974 16.9709 15.6804 16.8195C16.039 16.6778 16.4201 16.601 16.8057 16.5927C17.2174 16.584 17.6457 16.6847 18.7703 16.9658L19.4786 17.1429C20.3251 17.3545 20.5518 17.4233 20.7117 17.5341C20.9203 17.6786 21.0799 17.8831 21.1695 18.1204C21.2384 18.3029 21.25 18.5313 21.25 19.3813C21.25 19.901 21.2494 20.2442 21.2266 20.5111C21.205 20.7654 21.1666 20.8946 21.1197 20.9892C20.992 21.2464 20.6861 21.5172 20.4153 21.6125C20.1746 21.6973 19.9402 21.6856 19.0099 21.5715Z" fill="#22272F"/>
</svg>
