<svg width="24" height="25" viewBox="0 0 24 25" fill="none" xmlns="http://www.w3.org/2000/svg">
<g clip-path="url(#clip0_36_22616)">
<path d="M23.5221 6.6859C23.3864 6.17531 23.119 5.70932 22.7466 5.33455C22.3743 4.95979 21.91 4.6894 21.4003 4.55044C19.5239 4.0459 12.0239 4.0459 12.0239 4.0459C12.0239 4.0459 4.52393 4.0459 2.64756 4.55044C2.13786 4.6894 1.67358 4.95979 1.30121 5.33455C0.928842 5.70932 0.661431 6.17531 0.525744 6.6859C0.0239258 8.57044 0.0239258 12.5004 0.0239258 12.5004C0.0239258 12.5004 0.0239258 16.4304 0.525744 18.315C0.661431 18.8256 0.928842 19.2916 1.30121 19.6663C1.67358 20.0411 2.13786 20.3115 2.64756 20.4504C4.52393 20.955 12.0239 20.955 12.0239 20.955C12.0239 20.955 19.5239 20.955 21.4003 20.4504C21.91 20.3115 22.3743 20.0411 22.7466 19.6663C23.119 19.2916 23.3864 18.8256 23.5221 18.315C24.0239 16.4304 24.0239 12.5004 24.0239 12.5004C24.0239 12.5004 24.0239 8.57044 23.5221 6.6859Z" fill="#FF0302"/>
<path d="M9.56934 16.0689V8.93164L15.8421 12.5003L9.56934 16.0689Z" fill="#FEFEFE"/>
</g>
<defs>
<clipPath id="clip0_36_22616">
<rect width="24" height="24" fill="white" transform="translate(0 0.5)"/>
</clipPath>
</defs>
</svg>
