<svg width="24" height="25" viewBox="0 0 24 25" fill="none" xmlns="http://www.w3.org/2000/svg">
<path fill-rule="evenodd" clip-rule="evenodd" d="M5.75 9.30006C5.75 5.75042 8.4882 3.25 12 3.25C15.5118 3.25 18.25 5.75042 18.25 9.30006C18.25 12.2034 16.9978 14.3182 15.5601 15.7183C14.8382 16.4212 14.0739 16.9389 13.4093 17.2777C12.7191 17.6296 12.2133 17.75 12 17.75C11.7867 17.75 11.2809 17.6296 10.5907 17.2777C9.9261 16.9389 9.16178 16.4212 8.43991 15.7183C7.00217 14.3182 5.75 12.2034 5.75 9.30006ZM12 1.75C7.73402 1.75 4.25 4.84964 4.25 9.30006C4.25 12.6782 5.72005 15.1634 7.39342 16.7929C8.22711 17.6048 9.11557 18.2093 9.90935 18.614C10.6774 19.0056 11.4356 19.25 12 19.25C12.5644 19.25 13.3226 19.0056 14.0907 18.614C14.8844 18.2093 15.7729 17.6048 16.6066 16.7929C18.2799 15.1634 19.75 12.6782 19.75 9.30006C19.75 4.84964 16.266 1.75 12 1.75ZM12 7.25C11.3096 7.25 10.75 7.80964 10.75 8.5C10.75 9.19036 11.3096 9.75 12 9.75C12.6904 9.75 13.25 9.19036 13.25 8.5C13.25 7.80964 12.6904 7.25 12 7.25ZM9.25 8.5C9.25 6.98122 10.4812 5.75 12 5.75C13.5188 5.75 14.75 6.98122 14.75 8.5C14.75 10.0188 13.5188 11.25 12 11.25C10.4812 11.25 9.25 10.0188 9.25 8.5ZM4.92345 17.234C5.07038 17.6212 4.87555 18.0543 4.48827 18.2012C3.83542 18.4489 3.36741 18.7115 3.07621 18.9595C2.7811 19.2108 2.75 19.3715 2.75 19.4299C2.75 19.4981 2.79718 19.7064 3.22642 20.0179C3.63898 20.3174 4.28423 20.6183 5.14905 20.8838C6.86949 21.412 9.29184 21.75 12 21.75C14.7082 21.75 17.1305 21.412 18.8509 20.8838C19.7158 20.6183 20.361 20.3174 20.7736 20.0179C21.2028 19.7064 21.25 19.4981 21.25 19.4299C21.25 19.3715 21.2189 19.2108 20.9238 18.9595C20.6326 18.7115 20.1646 18.4489 19.5117 18.2012C19.1245 18.0543 18.9296 17.6212 19.0766 17.234C19.2235 16.8467 19.6565 16.6518 20.0438 16.7988C20.7808 17.0784 21.4239 17.4151 21.8963 17.8175C22.3649 18.2165 22.75 18.757 22.75 19.4299C22.75 20.2095 22.2375 20.8088 21.6547 21.2319C21.0552 21.667 20.236 22.0277 19.2912 22.3178C17.3923 22.9007 14.8147 23.25 12 23.25C9.18532 23.25 6.60766 22.9007 4.70881 22.3178C3.76399 22.0277 2.94478 21.667 2.34528 21.2319C1.76246 20.8088 1.25 20.2095 1.25 19.4299C1.25 18.757 1.63512 18.2165 2.10368 17.8175C2.57615 17.4151 3.21925 17.0784 3.95617 16.7988C4.34345 16.6518 4.77651 16.8467 4.92345 17.234Z" fill="#22272F"/>
</svg>
