<svg width="32" height="32" viewBox="0 0 32 32" fill="none" xmlns="http://www.w3.org/2000/svg">
    <path
        d="M28.6077 22.2373L24.8863 18.5159C23.5572 17.1868 21.2978 17.7185 20.7661 19.4463C20.3674 20.6425 19.0383 21.307 17.8422 21.0411C15.184 20.3766 11.5955 16.921 10.931 14.13C10.5323 12.9337 11.3297 11.6047 12.5259 11.206C14.2537 10.6744 14.7853 8.41493 13.4562 7.08586L9.73481 3.36445C8.67155 2.4341 7.07666 2.4341 6.14631 3.36445L3.62107 5.88969C1.09582 8.54784 3.88688 15.5919 10.1335 21.8386C16.3802 28.0852 23.4243 31.0093 26.0824 28.3511L28.6077 25.8258C29.5381 24.7626 29.5381 23.1677 28.6077 22.2373Z"
        fill="url(#paint0_linear_2005_35)" />
    <defs>
        <linearGradient id="paint0_linear_2005_35" x1="2.69482" y1="16.5688" x2="29.3075" y2="12.9305"
            gradientUnits="userSpaceOnUse">
            <stop stop-color="#FC8D26" />
            <stop offset="1" stop-color="#F5B556" />
        </linearGradient>
    </defs>
</svg>