<svg width="36" height="37" viewBox="0 0 36 37" fill="none" xmlns="http://www.w3.org/2000/svg">
    <path
        d="M18 36.9395C27.9411 36.9395 36 28.8806 36 18.9395C36 8.99833 27.9411 0.939453 18 0.939453C8.05887 0.939453 0 8.99833 0 18.9395C0 28.8806 8.05887 36.9395 18 36.9395Z"
        fill="url(#paint0_linear_150_129)" />
    <path
        d="M36.0001 19.2657C35.8595 27.2462 30.5221 33.961 23.2292 36.1688L12.9636 25.9032L28.2524 11.5215L36.0001 19.2657Z"
        fill="url(#paint1_linear_150_129)" />
    <path
        d="M28.9686 13.251C28.969 13.5723 28.9059 13.8905 28.783 14.1873C28.66 14.4842 28.4796 14.7538 28.2522 14.9807L16.8749 26.3573C16.6477 26.5845 16.378 26.7648 16.0812 26.8878C15.7843 27.0108 15.4662 27.0741 15.1449 27.0741C14.8235 27.0741 14.5054 27.0108 14.2085 26.8878C13.9117 26.7648 13.642 26.5845 13.4148 26.3573L7.74692 20.6901C7.51459 20.464 7.32948 20.1941 7.20236 19.8959C7.07524 19.5977 7.00863 19.2772 7.00641 18.9531C7.00418 18.629 7.06639 18.3076 7.18941 18.0077C7.31243 17.7078 7.49381 17.4353 7.72302 17.2061C7.95223 16.9769 8.2247 16.7955 8.5246 16.6725C8.82451 16.5495 9.14586 16.4873 9.47001 16.4895C9.79415 16.4917 10.1146 16.5583 10.4128 16.6854C10.711 16.8126 10.981 16.9977 11.207 17.23L15.1445 21.1675L24.7921 11.5213C25.1343 11.1793 25.5702 10.9465 26.0447 10.8521C26.5192 10.7578 27.011 10.8063 27.458 10.9914C27.905 11.1765 28.2871 11.49 28.5559 11.8922C28.8248 12.2943 28.9684 12.7672 28.9686 13.251Z"
        fill="white" />
    <defs>
        <linearGradient id="paint0_linear_150_129" x1="5.27203" y1="6.21148" x2="30.728" y2="31.6674"
            gradientUnits="userSpaceOnUse">
            <stop stop-color="#F8DA30" />
            <stop offset="1" stop-color="#FDAB22" />
        </linearGradient>
        <linearGradient id="paint1_linear_150_129" x1="20.3767" y1="18.4817" x2="32.1449" y2="30.2499"
            gradientUnits="userSpaceOnUse">
            <stop stop-color="#D38718" />
            <stop offset="1" stop-color="#D38718" stop-opacity="0" />
        </linearGradient>
    </defs>
</svg>