<svg width="150" height="150" viewBox="0 0 150 150" fill="none" xmlns="http://www.w3.org/2000/svg">
    <path
        d="M127.676 66.2305C126.418 63.8004 125.622 61.1854 124.502 59.1192C129.775 54.8501 131.36 44.4156 126 39.1908C121.518 33.5442 111.885 34.3311 107.228 38.0836C104.999 40.467 104.246 38.9001 101.755 37.7756C101.737 31.8597 99.8529 25.9995 96.3071 21.1116C80.1915 0.000715256 48.2075 10.2306 48.656 37.4089C41.4426 41.1228 35.5653 46.3827 31.3294 52.8071C19.0915 41.6098 6.46947 59.8667 7.24735 71.3078C7.03092 81.8677 16.0571 92.079 26.0086 93.8614C27.8393 102.305 33.3178 110.39 39.645 115.103C40.3698 115.621 41.3862 116.264 42.2826 116.844C42.2812 117.49 42.2392 118.266 42.2088 118.819C42.0718 122.217 41.6776 126.31 43.8219 130.946C47.1347 137.92 56.0899 141.279 63.6773 139.034C70.3993 136.749 71.92 132.422 72.8874 128.608C76.429 128.842 79.925 129.048 83.297 128.556C86.3583 139.488 93.0335 140.029 97.8278 140.179C114.811 139.798 114.151 127.185 115.271 116.744C120.823 111.993 123.606 107.437 126.266 100.947C142.132 103.072 145.289 86.134 141.108 74.8914C138.649 68.1549 131.982 66.7281 127.676 66.2305Z"
        fill="white" />
    <path
        d="M124.798 72.7301C122.203 72.4835 119.719 64.4633 118.66 62.5031C118.107 61.4798 114.6 57.5696 116.836 56.2908C120.139 54.3987 121.824 52.8209 122.486 49.4958C122.884 47.4922 122.531 45.4154 120.998 43.7226C118.226 40.664 114.093 41.5867 111.011 43.673C109.912 44.4971 108.887 45.3425 107.889 46.2899C105.961 48.1207 105.308 47.7369 103.331 46.4182C100.605 44.6019 97.6333 43.2114 94.5996 41.9961C96.7796 31.0517 89.8928 18.369 76.5728 16.776C61.21 14.9386 53.3745 29.2889 55.8674 41.5505C42.1126 46.942 32.9561 58.151 30.8726 72.943C30.6851 74.2439 30.4866 75.6832 28.8813 75.6742C27.8775 75.6673 27.0093 74.7785 26.4918 74.0234C24.4138 70.9882 26.0729 66.653 27.5454 63.7852C28.5913 61.6714 28.1179 59.4741 26.653 57.6998C26.0081 56.9184 25.1034 56.3949 24.1395 56.1915C22.1048 55.7657 20.9362 56.6669 19.3874 58.1939C12.2821 65.1791 12.0251 76.4798 19.6345 83.3713C21.5906 85.142 23.9532 86.1679 26.4075 87.0141C27.875 87.5198 30.3954 87.3317 31.4187 88.7931C32.2999 90.0499 32.6342 93.0988 33.1501 94.6244C35.0869 100.348 38.7616 106.052 43.659 109.677C44.9855 110.658 48.1308 112.247 48.6385 113.764C49.2703 115.646 48.9699 118.289 48.8941 120.294C48.8044 122.669 48.757 125.725 49.8573 127.925C52.0292 132.265 57.2429 133.803 61.8854 132.527C64.0145 131.94 65.0564 130.436 65.9431 128.55C66.7686 126.793 65.9988 120.7 69.6212 121.376C73.0091 122.01 76.4686 122.097 79.9039 122.094C83.655 122.09 88.8625 119.684 89.464 124.72C89.978 129.019 91.56 133.159 96.4726 133.395C100.457 133.587 105.433 133.108 106.665 128.439C107.493 125.299 108.081 122.178 108.438 118.954C108.644 117.098 108.36 115.074 108.668 113.252C108.637 113.44 110.796 111.679 111.197 111.357C113.573 109.342 115.489 106.844 117.26 104.302C118.468 102.572 120.935 94.5349 123.26 94.2359C127.185 93.7302 132.107 95.7511 134.489 91.4896C136.687 87.5602 136.255 81.2789 134.768 77.2068C133.347 73.3131 128.295 73.0629 124.798 72.7301Z"
        fill="#68182B" />
    <path
        d="M129.212 77.1716C125.15 76.2256 121.277 77.3053 119.168 73.127C117.742 70.3012 117.114 67.1442 115.447 64.3805C114.191 62.2969 112.304 60.3539 111.62 58.0147C110.985 55.8402 112.709 54.3719 114.587 53.1839C117.523 51.3257 118.62 51.05 118.924 48.571C119.038 47.6525 118.833 46.7341 118.099 46.0574C116.538 44.6202 114.349 45.8983 112.891 46.8863C109.966 49.076 108.468 52.4219 104.395 51.4359C102.617 51.0059 100.936 49.2289 99.3438 48.3436C97.458 47.2943 95.5329 46.382 93.5395 45.5703C93.2652 46.2448 92.9373 46.8994 92.5838 47.543C94.3698 48.1769 96.2129 48.9465 97.192 50.6222C98.0126 52.0257 98.4391 53.6566 98.3136 55.2868C98.2048 56.7186 97.6742 58.1856 96.5849 59.1577C95.2508 60.3462 93.6628 60.1043 92.1704 59.5029C92.1675 59.5015 92.1663 59.5015 92.1642 59.5007C81.0372 54.8312 69.4598 54.3565 58.2432 59.0226C58.2164 59.0342 58.1922 59.0363 58.1654 59.046C56.6337 59.6096 54.9705 59.6228 53.8157 58.175C52.8318 56.9451 52.0869 55.4678 51.9994 53.8644C51.9098 52.2335 52.6706 50.3897 53.8323 49.2432C54.9409 48.1462 56.3657 47.5993 57.8328 47.1583C57.484 46.4954 57.1879 45.8105 56.9157 45.1154C44.2854 50.0846 36.3588 60.4577 34.4612 73.9308C33.7666 78.7554 28.896 81.1862 24.9618 77.8369C20.1559 73.7449 21.8399 66.765 24.3314 61.9062C24.5443 61.4811 24.394 60.8237 24.0256 60.3469C23.6865 59.9073 23.1678 59.762 22.4691 60.4261C17.2939 65.3733 15.2426 74.3788 21.1517 79.7297C24.4238 82.6946 27.1655 82.8689 31.2885 84.0024C32.395 84.3075 33.3184 85.0387 33.9716 85.9709C37.0935 90.4302 37.2066 96.4681 40.5841 101.075C42.6386 103.877 45.0993 106.587 48.1804 108.288C49.7686 109.165 50.7814 109.892 51.7392 111.434C53.8346 114.806 50.2861 127.842 55.6743 128.728C58.4097 129.178 62.1331 129.983 62.8877 125.659C63.1826 124.117 63.41 122.564 63.5677 121.002C63.6815 120.049 64.1872 118.772 65.0732 118.283C69.3113 115.951 75.1961 118.508 79.9048 118.373C83.3195 118.275 89.0716 116.068 91.8469 118.843C93.4771 120.473 92.9521 124.162 93.4206 126.054C94.946 132.204 102.544 130.064 103.572 125.578C103.866 124.398 104.116 123.208 104.322 122.009C104.717 119.385 103.536 112.65 105.997 110.791C111.977 106.277 115.97 100.416 118.325 93.3307C119.437 89.9821 123.665 90.6828 126.281 90.6958C130.369 90.7165 131.951 89.7662 132.091 85.4869C132.173 82.9483 132.696 77.9831 129.212 77.1716ZM82.3448 104.209C81.0612 104.976 79.6791 105.509 78.23 105.841C78.23 106.005 78.2177 107.098 78.1542 107.491C78.0674 108.035 77.8779 108.56 77.4735 108.931C76.8092 109.541 75.9363 109.731 75.0503 109.658C73.5028 109.53 72.5118 108.748 72.133 107.456C72.0331 107.114 71.9537 106.029 71.949 105.88C68.9786 105.221 66.3659 103.703 64.223 101.511C63.521 100.754 62.9427 99.9751 63.0055 98.8885C63.0579 97.9763 63.565 97.0647 64.2417 96.4597C64.9437 95.8319 65.7424 95.3807 66.687 95.2615C67.5902 95.1472 68.1979 95.5481 68.8484 96.0725C69.8978 96.8691 70.8596 97.5346 71.9689 98.0796C71.9779 95.6728 71.9888 93.2662 72.0075 90.8581C67.4098 90.6672 62.9124 88.5754 62.9311 83.1086C62.9484 77.445 66.8214 73.3624 72.1633 72.1815C72.164 72.043 72.164 71.9032 72.1654 71.7647C72.1689 70.6974 72.3494 69.7638 73.2423 69.0857C73.8781 68.6035 74.7933 68.3953 75.5828 68.5013C77.5416 68.7624 78.3045 70.1171 78.4292 71.9878C78.4346 72.1595 78.4382 72.3302 78.4429 72.5018C80.7104 73.1578 82.754 74.2768 84.5689 75.8127C85.9063 77.0343 86.4885 79.2254 84.9473 80.5716C83.2426 82.0619 82.0079 81.621 79.5729 80.0245C79.2111 79.7874 78.8308 79.5821 78.4346 79.4071C78.4242 81.1013 78.4173 82.7971 78.4105 84.4906C87.7958 86.4175 90.5725 98.7254 82.3448 104.209ZM112.301 74.9371C110.993 76.4646 108.557 76.9475 106.706 76.2325C104.599 75.4188 103.354 73.4873 103.407 71.2295C103.462 70.0204 103.835 68.891 104.599 67.9457C105.419 66.9308 106.656 66.4168 107.928 66.2885C110.111 66.0716 112.227 67.2641 113.115 69.2803C113.932 71.1336 113.627 73.388 112.301 74.9371Z"
        fill="#FF2E60" />
    <path
        d="M110.643 73.3337C110.187 73.8973 109.501 74.1827 108.796 74.2536C107.584 74.3743 106.409 73.7128 105.916 72.5931C105.462 71.5644 105.632 70.3131 106.368 69.4539C107.094 68.6049 108.445 68.3377 109.473 68.7339C110.643 69.1865 111.334 70.2588 111.305 71.512C111.275 72.1823 111.067 72.8093 110.643 73.3337Z"
        fill="#FFC522" />
    <path
        d="M74.876 20.4384C92.1861 19.6406 97.349 44.5657 82.9347 52.0305C81.6855 52.6768 82.0148 52.6197 80.286 52.3916C76.9546 51.9534 73.6048 51.8769 70.2678 52.1849C68.8112 52.3207 68.2875 52.3316 67.1108 51.6351C53.2167 43.4206 57.7497 21.2253 74.876 20.4384Z"
        fill="#FF7A0D" />
    <path
        d="M91.4372 51.0756C92.9502 51.622 94.1567 52.2256 94.5674 54.0543C94.6907 54.6034 94.6198 55.1532 94.4839 55.6859C94.2758 56.5009 93.3208 55.9801 92.8559 55.7885C90.9308 54.9955 88.9843 54.3298 87.0239 53.78C88.0202 53.064 88.9201 52.2828 89.7236 51.4442C90.3423 50.7979 90.72 50.8166 91.4372 51.0756Z"
        fill="#DDA96B" />
    <path
        d="M63.1474 53.4554C61.3704 53.9232 59.6044 54.4938 57.8543 55.1896C57.2858 55.417 56.5824 55.829 56.1049 54.9732C55.8534 54.5254 55.635 53.8831 55.7246 53.3637C56.0188 51.6728 57.5305 51.0665 59.043 50.6476C60.0608 50.3638 60.0511 50.5092 60.5919 51.1071C61.3553 51.9513 62.209 52.7361 63.1474 53.4554Z"
        fill="#DDA96B" />
    <path
        d="M79.0836 97.5369C78.3973 98.0701 78.292 97.7974 78.296 97.1125C78.3098 95.6291 78.3249 94.1476 78.3401 92.6663C78.3498 91.8815 78.5068 91.763 79.0284 92.1957C79.8174 92.8467 80.3416 93.7521 80.4402 94.9394C80.5312 96.0431 79.9077 96.8987 79.0836 97.5369Z"
        fill="#FF2E60" />
    <path
        d="M77.2894 86.5422C76.393 86.4436 76.1649 86.5422 76.1732 85.426C76.1891 82.898 76.1836 80.3714 76.209 77.8441C76.2194 76.7533 76.4522 76.3998 77.6222 76.7672C78.9996 77.2034 80.058 77.7008 81.21 78.496C81.6998 78.8357 82.1754 79.1719 82.617 79.2347C83.3185 79.3333 84.0481 78.8082 83.4342 77.8822C83.3171 77.7058 83.1661 77.5514 82.9904 77.3916C81.2534 75.9213 79.2671 74.9291 77.0525 74.4165C76.5653 74.3034 76.2408 73.8226 76.2326 73.3396C76.2243 72.889 76.2127 72.4392 76.1968 71.9885C76.1686 71.5667 76.1534 70.7751 75.583 70.7345C75.4583 70.7263 75.3267 70.7166 75.1965 70.7166C74.4993 70.7166 74.4015 71.0596 74.398 71.7652C74.3959 72.213 74.3945 72.6609 74.3925 73.1087C74.3878 74.0616 73.5203 74.1732 72.9862 74.2773C69.209 75.0656 65.181 77.7721 65.1658 82.0998C65.15 87.18 68.5585 88.7495 73.1294 88.64C74.1712 88.6158 74.2525 88.8377 74.2456 89.7561C74.2167 93.089 74.2063 96.4196 74.1932 99.7525C74.1885 101.035 73.8734 101.212 72.7807 100.829C70.9796 100.196 69.4919 99.3178 67.9693 98.1898C67.4622 97.8102 66.6265 97.1632 65.7012 98.1561C65.0357 98.8686 65.1893 99.273 65.8017 99.9324C67.8935 102.072 70.3878 103.406 73.3395 103.894C73.8281 103.976 74.1525 104.514 74.1594 104.971C74.1662 105.424 74.1766 105.877 74.1931 106.329C74.2199 107.123 74.4403 107.427 75.2431 107.435C76.0954 107.44 75.9956 107.152 75.9956 106.331C75.9991 105.868 76.001 105.405 76.0032 104.942C76.006 104.482 76.3379 103.947 76.823 103.865C78.3939 103.599 79.8484 103.1 81.2169 102.281C87.8018 97.8937 85.4109 87.4398 77.2894 86.5422ZM74.286 85.6491C74.2756 86.6254 74.0683 86.6958 73.1698 86.7653C72.8177 86.7921 72.4664 86.8198 72.1143 86.8466C69.2748 86.9651 67.4158 84.9084 67.7577 82.0938C68.1098 79.1972 70.1458 77.1879 72.9514 76.6587C74.1153 76.4404 74.377 76.3121 74.364 77.7356C74.3405 80.374 74.313 83.0109 74.286 85.6491ZM79.2635 100.079C79.0286 100.205 77.7277 100.73 77.4508 100.806C76.4999 101.092 76.028 100.995 76.0383 99.7299C76.0672 96.5155 76.1037 93.3007 76.1347 90.087C76.1452 88.9654 76.378 88.6966 77.548 89.0107C80.1753 89.7177 82.8079 91.9335 82.6729 94.939C82.568 97.2811 81.2271 99.0217 79.2635 100.079Z"
        fill="#FFC522" />
    <path
        d="M72.0723 83.8281C72.0633 84.5385 71.7933 84.6667 71.2586 84.5365C70.2169 84.2857 69.769 83.4203 69.9983 82.1216C70.1844 81.0694 70.6653 80.2951 71.3571 79.75C72.0503 79.1995 72.1143 79.5812 72.1074 80.3124C72.0956 81.4841 72.084 82.656 72.0723 83.8281Z"
        fill="#FF2E60" />
    <path
        d="M90.8163 33.2114C91.0465 36.4409 90.5131 39.5566 89.1283 42.4855C87.753 45.3959 85.5749 47.8502 82.5192 49.0015C80.0407 49.9337 77.0042 48.4619 74.4048 48.5439C70.8025 48.659 68.1168 49.8834 64.9789 47.2189C62.7093 45.291 61.3477 42.2552 60.5291 39.4668C59.5907 36.2691 60.2728 32.6896 61.1588 29.5732C61.3291 28.9757 61.5069 28.3633 61.6949 27.75C56.8579 35.1858 58.1327 46.326 67.1105 51.6348C68.2874 52.3314 68.8111 52.3204 70.2676 52.1846C73.6045 51.8766 76.9545 51.953 80.2857 52.3913C82.0145 52.6194 81.6852 52.6766 82.9344 52.0303C90.1162 48.3106 92.4349 40.2579 90.8163 33.2114Z"
        fill="#EF6200" />
    <path
        d="M76.469 24.5655C72.5575 24.0074 68.4276 25.0368 65.9297 28.4861C64.3532 30.6661 63.6429 33.4416 64.1824 36.1846C64.6495 38.5583 66.7401 39.5476 69.1123 39.5042C72.3191 39.4485 74.7643 38.3833 77.809 40.2359C79.021 40.9725 80.6265 41.9007 82.1554 41.5271C85.2147 40.7795 86.5817 38.7959 86.8904 36.5123C87.8005 29.7663 83.2531 25.533 76.469 24.5655Z"
        fill="#FFB85A" />
    <path
        d="M61.2994 51.8197C59.9566 52.3764 57.4547 53.8882 55.7432 53.9522C55.8045 54.3174 55.943 54.6846 56.1049 54.9734C56.5824 55.8292 57.2859 55.4172 57.8544 55.1898C59.6045 54.4939 61.3705 53.9233 63.1474 53.4555C62.4832 52.9463 61.8776 52.393 61.2994 51.8197Z"
        fill="#C48D51" />
    <path
        d="M88.2387 52.8209C87.848 53.1502 87.449 53.4741 87.0239 53.7801C88.9841 54.3299 90.9306 54.9956 92.8559 55.7887C93.321 55.9802 94.276 56.5011 94.4839 55.686C94.6198 55.1533 94.6907 54.6035 94.5674 54.0544C94.5605 54.022 94.5474 53.9966 94.5406 53.9641C92.5562 54.5173 90.3831 53.614 88.2387 52.8209Z"
        fill="#C48D51" />
    <path
        d="M111.305 71.5119C111.312 71.2163 111.271 70.9339 111.201 70.6637C111.156 70.8896 111.094 71.1177 110.993 71.3486C110.564 72.3346 109.63 73.0257 108.563 73.1021C107.591 73.1718 106.781 72.5502 106.35 71.7303C105.955 70.9766 106.069 70.1641 106.392 69.4337C106.385 69.442 106.375 69.4454 106.368 69.4536C105.631 70.3128 105.462 71.5641 105.915 72.5928C106.409 73.7126 107.584 74.374 108.795 74.2534C109.501 74.1825 110.187 73.8971 110.643 73.3335C111.067 72.8093 111.275 72.1822 111.305 71.5119Z"
        fill="#FFA222" />
    <path
        d="M131.757 87.9002C127.666 92.4223 123.625 88.3737 119.311 90.0128C117.701 90.6247 117.209 92.2618 116.695 93.7604C115.276 97.8939 113.778 101.014 110.986 104.405C109.122 106.671 106.106 108.06 104.415 110.441C103.121 112.264 103.25 114.891 103.345 116.983C103.46 119.489 103.323 121.661 102.988 124.118C102.619 126.829 100.639 128.823 97.1616 128.399C95.0904 128.149 94.112 127.097 93.9804 122.542C93.9667 122.075 93.9859 121.595 94.006 121.116C94.1679 117.223 92.776 116.317 89.2229 116.328C86.2394 116.336 83.3855 117.029 80.3918 117.132C78.5259 117.198 75.4308 116.834 71.7695 116.388C69.2519 116.083 67.2207 115.511 64.7823 117.191C62.1957 118.974 62.2583 121.786 61.9283 124.654C61.5046 128.327 58.805 128.37 56.5167 127.687C54.5074 127.088 54.103 126.058 53.8984 122.097C53.7089 118.386 54.4007 113.998 52.9171 110.474C52.1461 108.641 49.9495 107.916 48.3379 106.934C40.0049 101.858 39.7382 97.086 36.5943 88.144C35.8122 85.9185 34.838 83.3547 32.5842 82.6532C29.4555 81.6816 26.5278 81.8952 23.5415 80.1954C20.7069 78.5804 18.6377 75.9289 17.6538 72.8994C17.9459 75.4082 19.027 77.8073 21.1512 79.7304C24.4234 82.6953 27.165 82.8696 31.2881 84.0031C32.3946 84.3082 33.318 85.0394 33.9712 85.9716C37.0931 90.4309 37.2062 96.4688 40.5836 101.076C42.6382 103.878 45.0989 106.588 48.18 108.289C49.7682 109.166 50.781 109.892 51.7388 111.434C53.8342 114.807 50.2857 127.843 55.6739 128.729C58.4093 129.179 62.1327 129.984 62.8873 125.659C63.1822 124.117 63.4096 122.565 63.5673 121.002C63.6811 120.049 64.1868 118.773 65.0728 118.284C69.3109 115.952 75.1957 118.509 79.9044 118.374C83.3191 118.276 89.0712 116.068 91.8465 118.844C93.4767 120.474 92.9517 124.163 93.4202 126.055C94.9456 132.205 102.544 130.065 103.572 125.579C103.866 124.399 104.116 123.209 104.322 122.01C104.717 119.385 103.536 112.651 105.997 110.792C111.977 106.278 115.97 100.417 118.324 93.3314C119.437 89.9828 123.665 90.6835 126.281 90.6965C129.443 90.7113 131.101 90.1381 131.757 87.9002Z"
        fill="#EA0F4D" />
    <path
        d="M104.681 74.8337C103.835 73.8766 103.375 72.6165 103.407 71.2294C103.462 70.0202 103.835 68.8908 104.599 67.9455C105.419 66.9306 106.656 66.4166 107.928 66.2884C110.111 66.0714 112.227 67.264 113.115 69.2801C113.571 70.315 113.665 71.4719 113.439 72.5639C114.17 70.6222 113.639 68.3278 111.946 66.8154C109.531 64.6575 105.883 65.2988 103.96 67.7049C102.324 69.7514 102.79 73.0822 104.681 74.8337Z"
        fill="#EA0F4D" />
    <path
        d="M99.0603 53.3252C98.6497 51.3531 97.5279 50.1364 96.0727 49.3268C96.5068 49.6907 96.8925 50.1101 97.1917 50.6222C98.0122 52.0257 98.4388 53.6566 98.3133 55.2868C98.2045 56.7185 97.6739 58.1856 96.5845 59.1576C95.2505 60.3461 93.6625 60.1043 92.1701 59.5028C92.1672 59.5014 92.166 59.5014 92.1639 59.5007C81.0369 54.8312 69.4595 54.3565 58.2429 59.0225C58.2161 59.0342 58.1919 59.0363 58.1651 59.046C56.6334 59.6095 54.9702 59.6228 53.8154 58.175C52.8315 56.945 52.0866 55.4678 51.9991 53.8644C51.9674 53.2939 52.046 52.6972 52.2037 52.1121C51.299 54.0166 51.505 56.1423 52.8817 58.3843C55.1651 62.1037 59.7512 59.4083 62.7692 58.432C68.2352 56.6626 74.207 56.4552 79.8789 57.047C83.5762 57.4322 87.2887 58.3891 90.7 59.8657C92.3233 60.5677 93.7015 61.2829 95.5038 61.0115C98.4065 60.5751 99.5371 55.6196 99.0603 53.3252Z"
        fill="#EA0F4D" />
    <path
        d="M57.335 46.125C57.1875 45.7921 57.0477 45.4552 56.9154 45.1155C44.4 50.0399 36.5121 60.2726 34.5237 73.5672C35.3423 71.9287 35.9037 70.1235 36.577 68.4085C38.4035 63.7515 40.7236 59.2797 43.9289 55.4171C47.5357 51.0707 52.2797 48.3064 57.335 46.125Z"
        fill="#FF6699" />
    <path
        d="M110.052 50.8253C112.856 48.5143 114.952 46.3784 118.319 46.3246C118.246 46.235 118.188 46.1399 118.099 46.0572C116.538 44.62 114.349 45.8981 112.891 46.886C109.966 49.0757 108.468 52.4216 104.395 51.4356C102.617 51.0056 100.936 49.2286 99.3438 48.3433C97.458 47.294 95.5329 46.3817 93.5395 45.57C93.443 45.8056 93.3342 46.0371 93.2261 46.2701C95.3745 47.4351 97.5614 48.455 99.614 49.8723C101.261 51.0091 103.154 52.7069 105.298 52.7592C107.23 52.8085 108.592 52.0278 110.052 50.8253Z"
        fill="#FF6699" />
    <path
        d="M82.3449 104.209C81.0613 104.976 79.6791 105.509 78.2301 105.841C78.2301 106.005 78.2177 107.098 78.1542 107.491C78.0674 108.035 77.878 108.56 77.4735 108.931C76.8093 109.541 75.9363 109.731 75.0503 109.658C73.5028 109.53 72.5119 108.748 72.133 107.456C72.0332 107.114 71.9538 106.029 71.949 105.88C68.9786 105.221 66.366 103.703 64.223 101.511C63.521 100.754 62.9428 99.9751 63.0056 98.8885C63.058 97.9762 63.5651 97.0646 64.2417 96.4596C64.6056 96.1344 64.9976 95.8603 65.4207 95.6507C62.544 96.0737 61.538 99.7828 63.3088 102.046C65.4599 104.793 70.2328 105.214 71.6204 108.488C72.2179 109.9 74.3661 110.558 75.758 110.296C76.3561 110.183 77.2015 110.074 77.6886 109.618C78.6395 108.726 79.1926 106.728 80.158 106.111C82.5627 104.57 84.4217 103.98 86.025 101.447C87.6097 98.9407 87.8145 96.2913 87.0971 93.8413C87.5974 97.6194 86.1801 101.653 82.3449 104.209Z"
        fill="#FF6699" />
    <path
        d="M84.9473 80.5717C83.2427 82.062 82.008 81.6211 79.5729 80.0246C79.2112 79.7875 78.8309 79.5822 78.4347 79.4072C78.4326 79.7365 78.4312 80.0658 78.4299 80.3959C79.4276 80.9594 80.2344 81.8676 81.4024 82.1412C82.4579 82.3899 83.5949 82.0338 84.503 81.5108C85.7157 80.8107 86.1111 79.6078 85.8487 78.4785C85.8707 79.2365 85.6192 79.984 84.9473 80.5717Z"
        fill="#FF6699" />
    <path
        d="M64.6681 89.4779C66.1136 90.5439 67.7729 90.8594 69.4031 91.5685C70.8934 92.2176 71.561 93.8774 71.9813 95.6591C71.9889 94.0593 71.9944 92.4593 72.0075 90.858C67.4097 90.6672 62.9123 88.5754 62.931 83.1085C62.9462 78.3074 65.7352 74.6509 69.8363 72.9261C65.1992 74.1739 61.9581 78.8489 62.0022 83.6453C62.0209 85.7069 62.9635 88.2185 64.6681 89.4779Z"
        fill="#FF6699" />
</svg>