<svg width="150" height="150" viewBox="0 0 150 150" fill="none" xmlns="http://www.w3.org/2000/svg">
    <path
        d="M70.9332 132.998C102.031 133.635 127.029 108.17 127.42 76.2592C133.755 74.6111 136.962 71.0062 136.962 65.5161C136.415 58.7872 132.824 57.5772 129.564 53.8282C130.64 50.6994 130.468 47.359 128.984 44.1323C127.494 40.8905 124.861 38.6994 121.53 37.8354C121.076 31.8389 119.038 24.0254 110.623 23.8469C107.157 23.8469 104.272 25.6191 102.443 27.126C92.7026 20.5555 80.9632 16.9905 68.7834 16.9905C-6.15279 17.7821 -5.6388 132.963 70.9332 132.998Z"
        fill="white" />
    <path
        d="M79.5059 125.576C102.495 121.928 117.7 104.002 120.291 81.2049C120.692 77.684 120.813 74.2328 120.592 70.7173C121.572 70.512 122.53 70.3205 123.427 70.1841C126.174 69.7652 130.212 69.205 130.212 65.516C130.212 64.0938 129.168 63.006 128.267 62.0757C125.908 59.6399 123.432 57.3753 121.178 54.8272C121.166 54.812 121.15 54.8037 121.137 54.7892C123.158 52.7119 124.285 50.0687 122.852 46.9523C121.55 44.1218 118.775 43.8387 115.972 44.4229C115.274 41.383 114.714 38.3422 114.326 35.2431C114.153 33.8526 113.904 32.5925 112.865 31.5534C110.722 29.4106 107.749 31.3101 106.082 32.9197C105.045 33.9216 104.004 34.9399 102.967 35.9686C83.8223 19.8131 53.3629 19.2557 34.7615 36.75C18.0183 52.4962 15.4457 80.9719 25.7981 100.727C35.869 119.944 58.732 128.873 79.5059 125.576Z"
        fill="#68182B" />
    <path
        d="M124.147 63.3291C126.84 65.9474 125.311 66.1589 122.438 66.5963C119.912 66.9816 117.386 67.3666 114.861 67.7512C109.738 68.5326 106.432 68.9252 103.157 65.0081C107.933 62.6909 112.659 60.2781 117.276 57.6825C117.613 57.4917 117.948 57.2857 118.28 57.0728C118.351 57.2036 118.438 57.3333 118.548 57.4587C120.345 59.4905 122.202 61.4377 124.147 63.3291Z"
        fill="#FFC522" />
    <path
        d="M117.022 47.8766C120.21 47.5197 120.222 49.6336 119.236 51.447C118.436 52.9153 116.789 53.6815 115.397 54.4698C101.889 62.0649 87.5219 68.6485 73.2007 74.5973C70.9958 75.5137 69.1727 73.6981 71.948 72.0748C73.0111 71.4546 74.0687 70.8284 75.1284 70.2042C78.7017 68.1006 82.2826 66.0102 85.873 63.9369C94.3797 59.0263 102.937 54.1426 111.786 49.8678C113.022 49.2801 115.172 48.0838 117.022 47.8766Z"
        fill="#DDA96B" />
    <path
        d="M67.6115 76.3288C69.9349 81.4455 78.1066 76.9502 82.4329 74.6579C82.5908 85.809 69.5297 91.7496 61.0969 83.5987C56.8752 79.519 57.3541 72.4449 59.9738 67.7099C63.3432 61.6198 71.6114 61.4157 76.9821 64.7644C72.2388 67.2704 64.7864 70.1085 67.6115 76.3288Z"
        fill="#FF2E60" />
    <path
        d="M59.5169 62.5346C53.293 67.3716 53.0884 77.4188 56.5747 83.7695C60.3284 90.6087 69.0659 92.2914 75.9829 90.2995C83.4126 88.16 86.5814 80.0469 86.0034 72.952C90.1279 71.0964 94.2551 69.225 98.3575 67.2985C101.766 80.9651 95.9838 96.7803 82.479 102.471C70.2448 107.626 55.5922 103.95 47.1559 93.8863C37.8258 82.7572 39.4114 64.2274 48.8288 53.7145C60.3443 40.858 81.8341 43.5479 92.4554 55.8676C88.457 58.1194 84.4861 60.4213 80.5257 62.7309C74.3596 57.7659 65.878 57.5903 59.5169 62.5346Z"
        fill="#E5E5E5" />
    <path
        d="M105.205 39.157C106.225 38.1084 110.204 32.7821 110.881 37.4159C111.281 40.1527 111.791 42.8509 112.413 45.5449C111.474 45.9233 110.611 46.3202 109.907 46.6549C105.625 48.724 101.41 50.9303 97.2343 53.2131C96.5479 50.2048 96.9538 47.6933 99.3606 45.1668C101.288 43.1437 103.258 41.1599 105.205 39.157Z"
        fill="#FFC522" />
    <path
        d="M33.1321 44.2101C48.3568 23.0414 81.3778 22.783 100.343 38.6153C98.4932 40.5219 96.6899 42.4703 94.9957 44.461C92.6173 47.2576 92.6669 50.4651 93.4689 53.6903C82.7051 42.09 63.2941 38.8585 50.3757 49.2827C37.8073 59.4244 35.262 79.1738 43.5964 92.7344C51.6937 105.91 69.1555 109.851 83.0722 104.624C97.441 99.2283 103.796 82.3212 100.825 68.0129C102.62 70.1379 104.592 71.7055 107.643 72.2069C110.457 72.67 113.741 72.1448 116.936 71.4869C117.995 92.0156 107.723 112.656 87.6419 119.831C68.4707 126.681 46.4572 120.936 33.3976 105.429C19.2304 88.6092 20.7098 61.4846 33.1321 44.2101Z"
        fill="#00EBED" />
    <path
        d="M33.3976 105.429C46.4572 120.936 68.4708 126.681 87.6419 119.831C107.723 112.657 117.995 92.0157 116.936 71.4871C115.276 71.8289 113.594 72.1305 111.965 72.2808C112.513 72.9216 113.027 73.5933 113.455 74.3458C115.287 77.5656 114.438 81.9815 113.843 85.4197C112.634 92.4181 109.825 98.5331 105.427 104.086C96.7071 115.098 83.4649 121.137 69.4765 120.499C55.497 119.86 42.1699 112.897 33.3718 102.097C28.5183 96.1402 25.8884 88.6008 24.4422 81.1443C23.9365 78.5412 23.5747 75.8664 23.3521 73.1675C22.8095 84.8161 25.9245 96.5563 33.3976 105.429Z"
        fill="#19BFBB" />
    <path
        d="M50.3757 49.2827C63.2941 38.8585 82.7052 42.0901 93.4689 53.6903C93.2167 52.6761 93.0541 51.6654 93.0031 50.6668C90.2394 47.7709 86.4684 45.6727 82.9103 44.2431C76.6134 41.7137 70.0801 40.6423 63.3664 41.8715C48.9135 44.5188 38.9702 56.6744 37.9202 71.1362C37.6397 75.0071 38.2702 79.0062 39.6248 82.731C36.9612 70.703 40.657 57.1244 50.3757 49.2827Z"
        fill="#19BFBB" />
    <path
        d="M100.825 68.0131C103.797 82.3212 97.441 99.2284 83.0722 104.624C69.1554 109.851 51.6937 105.911 43.5964 92.7345C43.1168 91.9531 42.6812 91.1463 42.2734 90.3277C44.0622 94.676 47.1779 98.6675 50.4618 101.554C55.8981 106.332 63.3085 108.41 70.4219 108.448C82.5748 108.512 94.1386 102.266 99.2848 91.1126C101.906 85.4316 103.775 76.9436 102.513 69.7496C101.92 69.2271 101.362 68.6489 100.825 68.0131Z"
        fill="#6CFFFB" />
    <path
        d="M33.1323 44.2101C28.5509 50.5808 25.4629 58.293 24.0945 66.3332C28.7439 51.283 37.5228 37.6425 52.9023 31.6707C67.5722 25.9752 87.3195 28.838 99.2698 39.7509C99.6295 39.3739 99.9801 38.9901 100.343 38.6153C81.378 22.7831 48.3568 23.0415 33.1323 44.2101Z"
        fill="#6CFFFB" />
    <path
        d="M97.2378 62.1089C92.5979 64.4211 87.9347 66.686 83.2637 68.9342C79.6271 70.6851 74.8696 73.9798 70.6382 74.1569C70.9476 74.7894 72.0149 75.0898 73.2006 74.5972C87.5218 68.6481 101.888 62.0646 115.397 54.4696C116.789 53.6813 118.436 52.9151 119.236 51.4469C119.534 50.8992 119.738 50.3238 119.794 49.798C117.509 51.462 115.007 52.8421 112.541 54.1968C107.509 56.9618 102.377 59.5484 97.2378 62.1089Z"
        fill="#C48D51" />
    <path
        d="M104.162 48.1018C101.922 49.1222 98.8375 50.35 97.979 52.8154C101.913 50.676 105.879 48.6013 109.907 46.6549C110.611 46.3201 111.473 45.9232 112.413 45.5448C111.965 43.5991 111.593 41.6463 111.26 39.6827C110.643 43.3682 108.163 46.2765 104.162 48.1018Z"
        fill="#FFA222" />
    <path
        d="M124.147 63.3291C122.202 61.4377 120.345 59.4905 118.548 57.4587C118.437 57.3333 118.351 57.2038 118.28 57.0728C117.947 57.2857 117.613 57.4917 117.276 57.6825C112.827 60.1837 108.276 62.5126 103.677 64.7525C106.466 66.2298 110.621 63.4847 112.983 62.1963C115.564 60.788 117.678 60.0548 120.507 61.4356C121.832 62.0825 123.058 62.992 124.331 63.7348C124.472 63.8168 124.611 63.8851 124.751 63.96C124.578 63.766 124.384 63.56 124.147 63.3291Z"
        fill="#FFA222" />
    <path
        d="M96.9402 50.9785C98.0702 47.7284 100.156 45.2514 102.642 42.6608C105.174 40.0225 107.379 37.7563 110.433 36.0552C109.172 34.1659 106.087 38.2503 105.206 39.1571C103.258 41.16 101.289 43.1439 99.3607 45.1667C97.5733 47.0421 96.8933 48.91 96.9402 50.9785Z"
        fill="#FBE134" />
    <path
        d="M125.528 65.2108C122.757 66.4415 119.265 66.6895 116.403 67.0643C112.482 67.5769 108.441 68.0814 104.771 66.5875C107.56 68.7765 110.574 68.4052 114.861 67.7513C117.386 67.3668 119.912 66.9818 122.438 66.5965C124.373 66.3016 125.693 66.1065 125.528 65.2108Z"
        fill="#FBE134" />
    <path
        d="M61.0968 83.5986C69.5297 91.7497 82.5906 85.809 82.4328 74.6578C81.209 75.3062 79.676 76.1268 78.056 76.8606C78.9918 77.1816 79.7469 77.697 79.8503 78.6686C80.0743 80.7776 77.3071 82.8462 75.8106 83.8334C74.1109 84.9565 72.2458 85.2535 70.2543 85.3652C66.2325 85.5918 62.4119 83.7521 59.9956 80.5813C58.6471 78.8134 58.1283 76.8964 57.978 74.9037C57.8528 78.1168 58.7423 81.3236 61.0968 83.5986Z"
        fill="#EA0F4D" />
    <path
        d="M59.9735 67.7099C59.8536 67.9256 59.744 68.1515 59.6338 68.3761C62.4546 64.831 67.9288 62.9163 71.9926 63.6025C73.6354 63.8801 73.669 65.551 72.2757 66.3813C71.3215 66.9505 70.354 67.4072 69.4405 68.0522C68.0645 69.0217 67.0917 70.3171 66.4708 71.8598C65.6894 73.7979 66.5796 75.9428 68.1204 77.1865C67.9288 76.9364 67.7579 76.6526 67.6111 76.3287C64.7861 70.1082 72.2385 67.2703 76.9818 64.7642C71.6109 61.4156 63.3427 61.6197 59.9735 67.7099Z"
        fill="#FF6699" />
    <path
        d="M53.2818 71.6815C52.9428 75.0404 53.8282 78.4689 55.5134 81.4049C53.2225 75.141 54.0189 66.8073 59.5166 62.5348C65.8777 57.5905 74.3594 57.7662 80.5254 62.7312C80.8753 62.5272 81.2269 62.3253 81.5754 62.1214C80.2966 61.0154 78.8428 60.0756 77.5874 59.3053C74.7578 57.5683 71.1928 57.4009 67.9799 57.7233C59.9233 58.5308 54.1018 63.5847 53.2818 71.6815Z"
        fill="#C6C6C6" />
    <path
        d="M41.8757 83.2411C42.8499 87.1361 44.5685 90.8009 47.1558 93.8865C55.5921 103.95 70.2447 107.626 82.4788 102.471C95.9837 96.7803 101.766 80.9653 98.3574 67.2987C94.2549 69.2252 90.1278 71.0965 86.0033 72.9521C90.2669 72.3768 92.427 71.8518 95.7722 71.0863C99.2876 70.2821 98.1513 77.0435 97.9413 79.1065C97.0269 88.063 92.1308 95.9192 84.2009 100.274C73.3917 106.209 59.8318 103.91 50.6065 96.0882C46.9862 93.0181 43.8174 88.3087 41.8757 83.2411Z"
        fill="#C6C6C6" />
    <path
        d="M75.9829 90.2993C70.3034 91.9357 63.4002 91.0855 59.0332 86.9451C62.284 90.6748 67.4337 92.3332 72.5566 91.9921C79.5384 91.527 84.4979 86.5219 85.9683 79.877C86.2955 78.4012 86.4638 76.3445 86.0627 74.5813C86.0688 81.2442 82.849 88.3232 75.9829 90.2993Z"
        fill="#F4F4F4" />
    <path
        d="M62.8943 48.1803C69.48 46.7211 76.1792 47.8055 82.2364 50.6097C85.4266 52.0863 89.1914 54.5991 87.025 58.5079C86.8844 58.7615 86.7149 58.993 86.5558 59.232C88.516 58.102 90.4819 56.9782 92.4552 55.8675C81.8339 43.5478 60.3443 40.8579 48.8286 53.7143C46.7705 56.0122 45.1106 58.7063 43.8325 61.6092C47.8607 54.9321 54.4808 50.0449 62.8943 48.1803Z"
        fill="#F4F4F4" />
</svg>