<svg width="150" height="150" viewBox="0 0 150 150" fill="none" xmlns="http://www.w3.org/2000/svg">
    <path
        d="M36.7571 109.902C38.9812 110.188 41.3081 110.428 43.8181 110.629C43.4075 111.369 43.0753 112.155 42.8252 112.982C39.8418 122.578 49.6574 130.659 58.8787 131.009C68.1206 131.905 84.2182 132.497 92.757 126.909C95.3346 129.418 99.8215 130.565 102.979 130.79C108.106 131.347 113.503 131.333 118.92 130.944C127.681 130.69 136.257 127.13 135.859 113.918C136.319 104.331 136.645 96.1774 135.781 85.4734C135.803 81.0886 133.735 73.419 128.148 70.9192C128.286 60.7631 127.899 51.6087 126.971 43.0642C126.52 36.0253 124.136 25.8905 116.95 22.2572C113.751 20.4644 110.406 20.1041 108.194 19.8643C99.0366 18.8736 89.9381 18.6123 81.4702 18.4774C70.8068 18.297 59.0487 18.489 49.3274 19.1927C37.8731 20.0601 24.4345 20.5239 18.6276 30.3464C11.1008 43.1794 13.8493 75.7701 15.9562 90.9146C17.2502 102.875 26.1344 109.008 36.7571 109.902Z"
        fill="white" />
    <path
        d="M22.6081 89.7667C23.065 92.4166 23.6485 95.1357 25.2312 97.3721C28.1168 101.45 32.9267 102.601 37.6197 103.207C42.7101 103.863 47.8427 104.193 52.9691 104.4C56.049 104.524 59.131 104.592 62.2157 104.629C63.2031 104.641 63.4518 104.915 63.3499 105.857C63.2432 106.828 62.9682 107.771 62.3371 108.478C61.2415 109.708 58.9312 109.606 57.4292 109.811C54.2955 110.238 50.3123 111.545 49.2857 114.938C48.4016 117.857 50.3275 120.573 52.6501 122.144C54.7455 123.56 57.2872 123.997 59.7457 124.315C65.9449 125.118 72.3665 124.935 78.5698 124.258C83.2137 123.751 90.0479 123.058 91.4716 117.548C92.4666 113.695 88.952 110.849 85.5558 110.041C83.7113 109.603 81.1316 109.963 79.5083 108.894C78.4666 108.207 78.1027 106.908 77.9993 105.621C77.9173 104.605 78.0875 104.505 79.414 104.463C82.2955 104.379 85.1755 104.27 88.0508 104.131C90.2363 104.024 92.4211 103.891 94.606 103.747C94.6638 108.048 94.8175 112.357 95.2269 116.634C95.4805 119.273 96.1212 121.558 98.6513 122.843C100.245 123.653 101.958 123.887 103.717 124.08C108.495 124.605 113.398 124.555 118.187 124.229C122.075 123.965 127.301 123.724 128.503 119.137C129.083 116.924 129.054 114.4 129.186 112.128C129.347 109.357 129.446 106.58 129.499 103.802C129.614 97.9013 129.59 91.9633 129.058 86.0797C128.818 83.4139 128.669 80.4139 126.806 78.3069C125.554 76.8911 123.8 76.2144 121.989 75.8643C121.759 75.8202 121.524 75.7899 121.292 75.7493C121.606 65.1164 121.409 54.3683 120.261 43.7933C119.862 40.1216 119.451 36.3518 117.888 32.9612C116.977 30.9823 115.573 29.222 113.65 28.1449C111.735 27.0722 109.612 26.8069 107.468 26.5754C98.8102 25.6383 90.0652 25.3656 81.3638 25.2269C70.8409 25.0596 60.2955 25.1966 49.7935 25.9256C45.1778 26.2454 40.5642 26.6883 35.9876 27.3898C31.3436 28.1009 26.9379 29.7834 24.3523 33.9238C22.7965 36.4132 22.1268 39.2864 21.6803 42.1527C21.0947 45.9161 20.8259 49.7229 20.6827 53.5262C20.3609 62.1211 20.622 70.7635 21.3482 79.3328C21.6415 82.8221 22.0128 86.3148 22.6081 89.7667Z"
        fill="#68182B" />
    <path
        d="M78.1347 112.38C80.9507 113.754 85.2308 112.559 87.4634 115.145C88.9145 116.826 86.5153 118.664 85.0842 119.283C85.4121 119.141 84.5171 119.461 84.3519 119.508C84.0005 119.612 83.6449 119.7 83.2881 119.782C82.2008 120.033 81.0963 120.217 79.9917 120.367C74.2114 121.149 68.2356 121.311 62.4202 120.868C60.3076 120.707 58.1124 120.489 56.1046 119.767C55.0546 119.39 52.184 117.734 52.8732 115.927C53.3651 114.635 55.2743 114.022 56.463 113.728C58.3137 113.271 60.2734 113.345 62.1068 112.809C65.359 111.859 66.7329 108.928 67.0456 105.852C67.1758 104.578 67.2047 104.65 68.3273 104.646C69.9954 104.641 71.6642 104.624 73.333 104.596C74.2143 104.583 74.237 104.877 74.3093 105.72C74.5408 108.424 75.5592 111.121 78.1347 112.38Z"
        fill="#FFC522" />
    <path
        d="M125.271 85.3672C125.077 83.427 124.982 81.1256 123.097 80.0701C122.294 79.6201 120.415 79.3164 119.113 79.1841C114.767 78.7424 110.321 78.843 105.974 79.2303C104.474 79.364 102.931 79.506 101.477 79.9179C99.8196 80.385 99.3546 81.9952 99.0789 83.7219C98.3651 89.3519 98.2728 95.0715 98.2961 100.741C98.3181 106.08 98.4407 111.451 98.9604 116.768C99.1332 118.535 99.6915 119.494 101.458 119.97C102.962 120.375 104.562 120.462 106.109 120.558C110.428 120.825 114.802 120.794 119.116 120.44C120.469 120.328 121.926 120.245 123.223 119.802C125.114 119.156 125.062 117.426 125.212 115.701C125.628 110.889 125.773 106.047 125.814 101.219C125.861 95.9389 125.795 90.6273 125.271 85.3672ZM122.512 106.214C122.45 107.764 122.372 109.315 122.242 110.861C122.108 112.478 121.89 114.108 120.405 115.056C119.421 115.685 118.23 115.831 117.096 115.968C115.587 116.151 114.063 116.217 112.544 116.236C109.935 116.27 106.733 116.454 104.296 115.356C102.444 114.426 102.008 112.884 101.847 110.937C101.7 109.163 101.62 107.381 101.561 105.603C101.414 101.206 101.396 96.7955 101.611 92.4016C101.753 89.4995 101.419 84.6488 104.7 83.3479C107.102 82.3958 110.157 82.4501 112.696 82.448C115.151 82.4452 118.687 82.2944 120.616 84.1223C121.892 85.3314 122.111 87.123 122.272 88.7835C122.45 90.6101 122.538 92.4457 122.592 94.2805C122.711 98.2562 122.672 102.239 122.512 106.214Z"
        fill="#DDA96B" />
    <path
        d="M106.9 85.0896C108.108 84.8788 109.341 84.7918 110.564 84.7328C112.989 84.6163 115.98 84.3764 118.298 85.2723C119.483 85.7306 119.803 86.8646 119.962 88.0381C120.166 89.5381 120.23 91.0685 120.297 92.5801C120.454 96.1114 120.456 99.6494 120.374 103.183C120.31 105.986 120.29 108.848 119.94 111.636C119.756 113.104 118.885 113.45 117.574 113.665C116.182 113.895 114.752 113.951 113.344 113.989C111.773 114.031 110.197 114.017 108.627 113.913C107.644 113.849 106.148 113.755 105.423 113.428C104.098 112.763 104.127 111.642 104.03 110.303C103.928 108.884 103.86 107.463 103.809 106.043C103.684 102.594 103.653 99.1395 103.73 95.6904C103.767 94.0078 103.83 92.3238 103.946 90.6453C104.045 89.2231 103.962 87.3257 104.739 86.0834C105.226 85.3046 105.962 85.2536 106.9 85.0896Z"
        fill="#FF2E60" />
    <path
        d="M80.6856 86.2011C63.2947 86.8798 45.717 86.3836 28.4461 84.0092C26.4155 83.7288 25.4889 83.9535 25.8498 86.6089C26.1006 88.4588 26.4148 90.3054 26.8972 92.1018C27.7158 95.1514 29.6505 97.3465 32.6692 98.4036C37.119 99.9608 42.252 100.051 46.9181 100.36C52.3261 100.719 57.7487 100.874 63.1686 100.922C72.4593 101.005 81.7591 100.775 91.0373 100.245C93.9662 100.078 94.5582 99.8341 94.5907 96.8107C94.634 92.9597 94.7898 89.1019 95.1976 85.2764C90.3676 85.6939 85.5301 86.013 80.6856 86.2011ZM74.2784 96.2759C73.0546 97.7035 70.7748 98.1611 69.0432 97.492C67.0657 96.7272 65.8917 94.9164 65.9412 92.7957C65.9922 91.6553 66.345 90.597 67.0643 89.7068C67.8353 88.7532 68.997 88.2729 70.1911 88.1544C72.2307 87.9512 74.2116 89.0728 75.0418 90.9538C75.8109 92.7006 75.5283 94.8159 74.2784 96.2759Z"
        fill="#00EBED" />
    <path
        d="M72.6667 94.718C72.2513 95.232 71.6249 95.4911 70.9806 95.5551C69.8802 95.6647 68.8122 95.0597 68.3644 94.0447C67.949 93.1028 68.1019 91.9618 68.7757 91.1749C69.4365 90.4053 70.665 90.1585 71.5993 90.5189C72.6667 90.9316 73.2992 91.9072 73.2722 93.0517C73.244 93.6665 73.0545 94.2379 72.6667 94.718Z"
        fill="#5CFFCD" />
    <path
        d="M115.996 39.7482C115.462 36.6007 114.604 32.7182 111.46 31.1926C109.834 30.4036 107.918 30.3334 106.145 30.1604C104.446 29.9944 102.745 29.8579 101.041 29.7379C91.8439 29.093 82.6126 28.874 73.3942 28.8904C63.5633 28.907 53.7034 29.1777 43.9145 30.132C39.7369 30.5405 34.7829 30.6647 31.0099 32.6503C28.0589 34.2027 26.6912 36.8402 25.9601 39.6721C24.2308 46.3728 24.2763 53.655 24.281 60.5247C24.2846 66.2291 24.4878 71.9487 24.939 77.6448C25.187 80.7591 26.0668 81.4661 29.206 81.885C32.4582 82.3212 35.72 82.6835 38.988 82.9812C57.7279 84.6894 76.7022 84.6735 95.4509 83.0282C95.4523 83.0116 95.4488 82.995 95.4509 82.9793C95.8802 80.1013 97.1238 77.4776 100.029 76.4702C101.901 75.8204 104.015 75.6854 105.974 75.5098C108.746 75.2637 111.606 75.1005 114.453 75.1473C116.705 75.1817 117.564 75.8625 117.631 72.6041C117.653 71.4962 117.669 70.3895 117.672 69.2824C117.699 59.5037 117.637 49.415 115.996 39.7482ZM84.4834 67.8042C83.8481 68.8474 82.8139 69.759 81.9808 70.5162C80.7158 71.6648 79.1951 73.0312 77.5125 73.5169C74.8769 74.2763 73.2861 71.5871 72.0526 69.7762C71.2382 68.5802 70.3804 67.413 69.4736 66.285C69.178 65.9184 68.879 65.5567 68.5772 65.1977C68.1988 64.7513 67.82 64.7615 67.2839 65.3604C66.612 66.1128 66.063 66.9547 65.4945 67.7857C64.9715 68.5519 64.4513 69.4173 63.4468 69.5475C61.3474 69.8196 60.1994 66.8955 59.509 65.3919C57.6466 61.3447 56.294 57.0203 55.3101 52.6789C54.8836 50.7903 54.528 48.8728 54.3627 46.9427C54.2565 45.6964 54.1802 44.3023 54.5929 43.098C55.3881 40.7815 58.1904 40.951 60.1774 41.2058C63.6727 41.6537 67.0909 42.7685 70.3638 44.0385C73.656 45.3159 76.9523 46.7891 79.8869 48.772C81.216 49.6692 83.4981 51.3413 82.2006 53.1611C81.5901 54.0156 80.3912 54.3944 79.4983 54.8816C78.8954 55.2131 77.8053 55.6561 77.4092 56.2479C76.9276 56.9679 78.8774 58.3757 79.386 58.867C80.2541 59.7062 81.1498 60.5178 82.0683 61.2999C83.332 62.3781 84.4681 63.4509 84.854 64.8966C85.1387 65.9687 85.0417 66.8872 84.4834 67.8042Z"
        fill="#E5E5E5" />
    <path
        d="M56.5382 44.886C56.6023 43.6328 56.873 43.2504 58.4536 43.2862C58.8244 43.2952 59.195 43.3303 59.552 43.3654C62.4114 43.6466 65.2529 44.5615 67.9485 45.5152C71.0518 46.6129 74.0993 47.9316 76.9526 49.5776C77.6347 49.9705 78.3058 50.3844 78.955 50.8309C80.2186 51.7038 80.1629 52.0042 79.371 52.4238C77.9047 53.1996 75.7667 54.0445 75.206 55.7491C74.477 57.9644 76.8279 59.5223 78.2446 60.863C79.1714 61.7388 80.1278 62.5793 81.1062 63.3965C81.9433 64.0966 82.9976 64.966 82.7916 66.1926C82.5374 67.0669 81.3212 68.0847 80.6074 68.7495C79.6199 69.6673 78.4328 70.8007 77.1471 71.281C76.3259 71.589 75.7112 71.0378 75.2007 70.4301C74.4447 69.5254 73.8619 68.4534 73.1735 67.4942C72.5713 66.6542 71.9456 65.8301 71.3028 65.0199C70.6938 64.2523 70.0413 63.1209 69.1042 62.7373C67.4477 62.0593 66.1103 63.2382 65.1534 64.4405C64.6593 65.0607 64.2129 65.7132 63.7679 66.3677C63.1614 67.2497 63.0967 67.4268 62.6709 66.7177C62.476 66.3917 62.3134 66.0176 62.2107 65.8289C60.3131 62.326 59.0907 58.3833 58.0717 54.5462C57.25 51.4629 56.3687 48.108 56.5382 44.886Z"
        fill="#FF2E60" />
    <path
        d="M74.0737 96.475C76.4689 95.283 76.3744 91.4865 75.1211 89.5062C73.4061 86.7928 69.6958 86.6674 67.3228 88.4588C64.8348 90.3377 64.7555 93.6099 66.7069 95.8582C66.9205 96.1047 67.1905 96.3191 67.4833 96.5127C66.4753 95.586 65.9068 94.2714 65.9413 92.7955C65.9923 91.6552 66.3451 90.5968 67.0644 89.7066C67.8354 88.753 68.9971 88.2727 70.1912 88.1542C72.2308 87.951 74.2117 89.0727 75.0419 90.9537C75.811 92.7003 75.5284 94.8157 74.2785 96.2757C74.2164 96.3482 74.1399 96.4074 74.0737 96.475Z"
        fill="#19BFBB" />
    <path
        d="M46.918 100.36C52.3261 100.719 57.7487 100.874 63.1686 100.922C72.4593 101.005 81.7591 100.774 91.0373 100.245C93.2594 100.118 94.1338 99.9406 94.4418 98.5454C90.9546 99.5416 86.7738 99.3337 83.5685 99.3771C76.3069 99.4721 69.0584 99.7154 61.794 99.6279C54.7488 99.5432 47.6381 99.3365 40.6245 98.6302C36.673 98.2327 32.7434 97.1233 29.7042 94.4631C28.1898 93.1401 27.1646 91.4113 26.3308 89.5737C26.4927 90.4239 26.6739 91.2694 26.8972 92.1017C27.7158 95.1513 29.6504 97.3465 32.6692 98.4036C37.1189 99.9607 42.252 100.051 46.918 100.36Z"
        fill="#19BFBB" />
    <path
        d="M73.1187 92.1148C73.147 92.3588 73.1524 92.6137 73.105 92.8969C72.9189 94.016 72.0163 94.6601 70.9269 94.7097C69.3119 94.7841 68.1832 93.2194 68.3954 91.7808C68.0682 92.487 68.0462 93.3227 68.3644 94.0449C68.8122 95.0598 69.8803 95.6648 70.9806 95.5553C71.6247 95.4913 72.2511 95.2322 72.6667 94.7182C73.0545 94.2379 73.244 93.6667 73.2724 93.0522C73.2807 92.7191 73.2181 92.4083 73.1187 92.1148Z"
        fill="#27D89D" />
    <path
        d="M125.097 111.598C124.909 113.698 124.785 116.454 123.194 118.05C121.959 119.29 119.383 119.33 117.806 119.509C115.32 119.792 112.815 119.893 110.315 119.924C107.793 119.955 105.177 119.922 102.68 119.523C100.125 119.116 99.732 116.543 99.4929 114.384C98.8163 108.268 98.8535 102.019 98.6902 95.8761C98.6378 93.9193 98.5882 91.9619 98.5359 90.005C98.3334 93.5809 98.281 97.1701 98.2961 100.741C98.3182 106.08 98.4408 111.451 98.9604 116.768C99.1333 118.535 99.6916 119.494 101.458 119.97C102.962 120.375 104.562 120.462 106.109 120.558C110.428 120.825 114.802 120.794 119.116 120.439C120.469 120.328 121.926 120.245 123.223 119.802C125.114 119.156 125.062 117.426 125.212 115.701C125.628 110.889 125.773 106.047 125.814 101.219C125.832 99.2638 125.822 97.305 125.791 95.3454C125.693 97.9222 125.599 100.5 125.516 103.078C125.426 105.919 125.352 108.766 125.097 111.598Z"
        fill="#C48D51" />
    <path
        d="M122.829 86.3312C122.137 83.0025 119.511 82.1957 116.435 81.9015C112.69 81.5433 107.467 81.2441 104.045 83.1569C102.421 84.0649 101.913 86.0569 101.838 88.175C102.102 86.0844 102.781 84.109 104.7 83.3477C107.102 82.3956 110.157 82.4499 112.696 82.4478C115.151 82.445 118.687 82.2942 120.616 84.1221C121.892 85.3312 122.111 87.1228 122.272 88.7833C122.45 90.6098 122.538 92.4455 122.592 94.2803C122.711 98.2559 122.671 102.239 122.512 106.213C122.45 107.764 122.372 109.315 122.242 110.861C122.229 111.023 122.213 111.185 122.197 111.348C123.425 108.285 123.209 104.871 123.21 101.561C123.211 96.4467 123.884 91.3935 122.829 86.3312Z"
        fill="#C48D51" />
    <path
        d="M57.8398 118.371C55.9023 117.94 53.3515 116.753 53.7202 114.89C53.3418 115.176 53.0305 115.513 52.8734 115.927C52.1844 117.734 55.0548 119.39 56.1048 119.767C58.1126 120.489 60.3078 120.707 62.4204 120.868C68.2358 121.312 74.2116 121.149 79.9919 120.368C81.0964 120.217 82.2008 120.033 83.2883 119.782C83.6451 119.701 84.0007 119.612 84.3521 119.508C84.5175 119.461 85.4125 119.141 85.0844 119.283C86.4121 118.71 88.566 117.087 87.7144 115.513C84.9486 119.526 78.4044 119.566 73.9132 119.733C70.5514 119.858 67.2332 119.833 63.8865 119.45C61.8512 119.217 59.8379 118.818 57.8398 118.371Z"
        fill="#FFA222" />
    <path
        d="M119.94 111.635C120.022 110.984 120.084 110.328 120.133 109.67C119.306 110.698 118.178 111.345 116.313 111.485C114.973 111.586 113.57 111.433 112.227 111.376C110.492 111.303 108.802 111.038 107.428 109.894C105.724 108.475 105.824 105.137 105.724 103.156C105.553 99.7664 105.467 96.3199 105.525 92.9273C105.585 89.5022 105.997 86.5524 108.323 84.9056C107.847 84.9566 107.371 85.0069 106.901 85.0896C105.962 85.2537 105.226 85.3046 104.739 86.0832C103.962 87.3255 104.045 89.2231 103.946 90.6452C103.83 92.3237 103.767 94.0077 103.73 95.6902C103.653 99.1395 103.684 102.594 103.809 106.043C103.86 107.463 103.927 108.884 104.029 110.303C104.127 111.642 104.098 112.763 105.423 113.428C106.148 113.755 107.643 113.849 108.627 113.913C110.197 114.017 111.773 114.03 113.344 113.988C114.752 113.951 116.182 113.895 117.574 113.665C118.885 113.45 119.756 113.104 119.94 111.635Z"
        fill="#EA0F4D" />
    <path
        d="M82.6196 66.5825C80.002 68.8728 76.7278 70.3749 74.0406 66.8822C72.6605 65.0908 71.6538 60.9085 69.1562 60.1932C68.2984 59.9479 67.6182 59.9362 66.7777 60.3352C62.5658 62.3307 61.1629 59.5318 60.0804 56.6042C58.7011 52.874 57.68 49.0299 56.5341 45.2264C56.4398 48.3443 57.279 51.5703 58.0714 54.5461C59.0904 58.3833 60.3127 62.3258 62.2103 65.8288C62.313 66.0176 62.4756 66.3917 62.6705 66.7177C63.0963 67.4267 63.1611 67.2496 63.7675 66.3677C64.2125 65.7131 64.6591 65.0607 65.153 64.4405C66.1101 63.2382 67.4475 62.0592 69.1038 62.7373C70.0409 63.1211 70.6934 64.2524 71.3025 65.0199C71.9454 65.8302 72.5709 66.6543 73.1731 67.4941C73.8613 68.4533 74.4443 69.5254 75.2003 70.4301C75.711 71.0378 76.3255 71.589 77.1468 71.281C78.4325 70.8007 79.6197 69.6674 80.607 68.7495C81.2175 68.1812 82.1883 67.3571 82.6196 66.5825Z"
        fill="#EA0F4D" />
    <path
        d="M117.774 98.5724C117.782 95.9624 117.867 93.3277 117.791 90.7196C117.647 86.0405 113.437 87.3896 112.91 90.1127C112.49 92.2694 112.717 95.1274 112.657 96.9828C112.577 99.4233 112.061 103.991 112.722 106.998C113.152 108.952 117.157 110.313 117.697 106.667C118.078 104.108 117.767 100.646 117.774 98.5724Z"
        fill="#FF6699" />
    <path
        d="M71.2225 49.4756C68.3713 48.1823 64.5747 46.679 63.1776 46.1422C60.8535 45.2499 59.6408 45.8252 60.5151 47.8743C64.2696 56.6525 65.1461 57.9691 70.6471 55.0759C73.6865 53.4787 74.6173 51.0169 71.2225 49.4756Z"
        fill="#FF6699" />
    <path
        d="M95.4511 83.0281C95.4525 83.0115 95.449 82.9949 95.4511 82.9792C95.8804 80.1013 97.124 77.4775 100.029 76.4701C101.902 75.8203 104.016 75.6854 105.974 75.5097C108.746 75.2636 111.606 75.1005 114.453 75.1472C116.705 75.1816 117.564 75.8625 117.631 72.604C117.653 71.4962 117.669 70.3895 117.673 69.2823C117.699 59.5037 117.637 49.4151 115.996 39.7481C115.938 39.4077 115.874 39.0549 115.807 38.7014C116.233 43.8058 116.292 48.9431 116.173 54.0624C116.051 59.2611 116.437 66.0348 114.335 70.8917C113.035 73.8957 108.248 73.1145 105.635 73.3528C102.941 73.5994 100.207 74.0019 97.7309 75.1373C95.6638 76.0861 94.0384 77.9747 92.4454 79.5243C90.7387 81.1848 88.1537 81.1744 85.933 81.3185C71.5654 82.2501 56.9721 81.7024 42.6563 80.3292C38.1419 79.8958 32.7847 79.9095 29.082 76.933C25.7863 74.2843 25.7927 66.6204 25.5054 62.899C24.9487 55.7014 25.4124 48.5377 25.5812 41.3629C24.2555 47.5882 24.2763 54.227 24.281 60.5246C24.2846 66.229 24.4878 71.9486 24.939 77.6447C25.187 80.759 26.0668 81.466 29.206 81.8849C32.4583 82.3211 35.72 82.6834 38.988 82.9812C57.7281 84.6893 76.7024 84.6735 95.4511 83.0281Z"
        fill="#C6C6C6" />
    <path
        d="M82.7099 60.6467C81.8837 59.8433 81.0067 59.104 80.1544 58.3268C78.3822 56.7132 81.6744 55.1263 82.5013 54.4318C83.7009 53.4238 83.4913 52.1208 82.9209 50.8709C82.1264 49.1345 80.0883 47.9501 78.5442 46.9903C76.0864 45.4642 73.5384 44.0034 70.8367 42.95C66.6088 41.3039 60.1844 38.842 55.7417 41.082C53.1096 42.4085 53.964 46.5472 54.4932 48.7426C54.5655 49.043 54.6407 49.3661 54.7184 49.6975C54.5662 48.7839 54.4422 47.8647 54.3628 46.9429C54.2567 45.6965 54.1803 44.3025 54.593 43.0981C55.3882 40.7816 58.1905 40.9511 60.1775 41.206C63.6728 41.6539 67.0911 42.7686 70.364 44.0386C73.6561 45.316 76.9524 46.7892 79.887 48.7722C81.2161 49.6693 83.4982 51.3415 82.2007 53.1613C81.5902 54.0157 80.3913 54.3946 79.4984 54.8818C78.8955 55.2132 77.8055 55.6563 77.4093 56.2481C76.9277 56.9681 78.8775 58.3759 79.3861 58.8671C80.2543 59.7064 81.15 60.5179 82.0684 61.3C83.3321 62.3783 84.4682 63.4511 84.8541 64.8968C85.0637 65.683 85.0609 66.3864 84.8273 67.0666C86.1206 64.9868 84.7171 62.5953 82.7099 60.6467Z"
        fill="#C6C6C6" />
    <path
        d="M110.718 32.9074C112.344 33.409 113.667 34.1601 114.789 35.0819C114.115 33.4366 113.104 31.9903 111.46 31.1924C109.834 30.4034 107.917 30.3332 106.145 30.1601C104.445 29.9941 102.745 29.8576 101.041 29.7377C91.8438 29.0928 82.6125 28.8737 73.3941 28.8901C63.5632 28.9067 53.7032 29.1775 43.9144 30.1317C39.7368 30.5402 34.7827 30.6644 31.0098 32.65C28.8525 33.7849 27.5467 35.5026 26.7124 37.449C32.7895 32.4082 41.1033 32.0374 49.0842 31.6467C60.2415 31.1003 71.3573 30.4919 82.534 30.5912C87.5073 30.6353 92.4792 30.8145 97.4427 31.11C101.895 31.3751 106.429 31.5866 110.718 32.9074Z"
        fill="#F4F4F4" />
    <path
        d="M70.2667 69.2636C71.9933 71.875 73.8502 75.7355 77.5834 74.5889C80.2437 73.7724 83.4401 70.7807 84.3076 68.0495C83.6681 68.9879 82.7462 69.8203 81.9808 70.5161C80.7158 71.6648 79.1951 73.0311 77.5125 73.5168C74.8769 74.2762 73.2861 71.587 72.0526 69.7762C71.2382 68.5801 70.3804 67.4129 69.4736 66.2849C69.178 65.9184 68.879 65.5566 68.5772 65.1976C68.1988 64.7512 67.82 64.7614 67.2839 65.3603C66.6121 66.1128 66.063 66.9547 65.4945 67.7856C64.9715 68.5519 64.4513 69.4172 63.4468 69.5474C61.3474 69.8196 60.1994 66.8954 59.509 65.3918C57.6473 61.3453 56.2954 57.0238 55.3115 52.6829C55.6512 56.2106 56.7205 59.797 57.8326 62.9637C58.7601 65.6067 59.5449 69.0436 61.9365 70.7751C65.396 73.2798 66.9655 64.2674 70.2667 69.2636Z"
        fill="#F4F4F4" />
</svg>