<svg width="150" height="150" viewBox="0 0 150 150" fill="none" xmlns="http://www.w3.org/2000/svg">
    <path
        d="M139.277 67.354C139.405 50.5736 135.092 38.5454 116.164 37.434C113.915 25.5801 105.289 20.8217 95.5481 20.7233C86.4316 20.0061 77.8928 19.9082 69.0272 19.8674C56.1171 19.8674 44.8949 20.4938 34.7196 21.7809C25.8629 22.9013 13.8395 26.3077 11.6871 42.8814C10.1396 54.7981 10.371 68.3214 12.3967 84.2225C13.0527 94.5674 18.4918 106.007 29.8013 106.411C26.6455 113.673 31.1207 123.897 40.1414 123.609C47.2982 123.433 52.2323 118.884 57.2008 115.48C60.8334 115.835 64.8048 116.001 69.5756 116.001C75.3393 116.004 80.9797 115.767 86.7038 115.787C89.338 115.798 91.6745 117.857 95.2691 121.215C100.839 127.325 114.006 135.337 120.447 125.544C122.553 122.205 122.484 118.027 121.734 114.595C133.176 112.865 137.603 102.937 138.005 93.2454C139.02 84.9461 139.471 76.7976 139.277 67.354Z"
        fill="white" />
    <path
        d="M132.528 67.4863C132.42 61.972 132.259 55.9444 129.744 50.9237C126.482 44.4139 116.957 44.2264 110.321 43.7814C109.858 39.0561 108.81 34.4465 106.255 31.4783C103.283 28.0263 99.2654 27.8044 94.9928 27.4509C88.8419 26.9424 82.6602 26.7812 76.4913 26.6814C62.8596 26.4602 49.1063 26.7648 35.567 28.4777C25.5308 29.7475 19.7195 33.4469 18.3807 43.7512C16.692 56.7551 17.4402 70.3997 19.0925 83.3704C19.6491 87.7451 20.2266 92.1202 22.9344 95.7349C25.9041 99.6989 29.2533 99.6046 32.2624 99.8175C34.5955 99.9815 37.5279 100.157 39.2855 100.306C40.7587 100.431 40.4706 101.007 39.9504 101.747C37.5052 105.228 34.0696 110.937 36.2856 114.72C38.6917 118.827 44.3782 116.084 47.2018 114.231C49.4887 112.727 51.7258 111.127 53.9451 109.498C55.2605 108.534 55.4788 108.503 56.7287 108.644C66.634 109.752 76.7951 109 86.7298 109.038C96.4857 109.077 101.215 120.769 109.961 123.11C117.136 125.031 115.842 116.561 114.104 112.919C113.058 110.726 109.303 108.419 113.444 108.078C115.085 107.942 116.781 108.102 118.426 108.102C121.853 108.101 124.899 106.972 127.349 104.594C130.757 101.285 130.958 95.1784 131.482 90.8066C132.409 83.0872 132.681 75.2557 132.528 67.4863Z"
        fill="#68182B" />
    <path
        d="M91.1743 65.7252C91.4045 72.4088 81.5667 72.2227 81.4875 65.5322C81.9368 59.3105 90.9642 59.6232 91.1743 65.7252Z"
        fill="#FF2E60" />
    <path
        d="M128.782 75.9062C128.63 82.1777 128.197 88.4912 127.23 94.693C126.923 96.6615 126.55 98.6397 125.712 100.457C123.713 104.791 118.597 104.419 114.597 104.324C111.386 104.247 105.991 105.104 107.538 109.557C107.836 110.412 108.552 111.161 109.072 111.845C109.922 112.963 114.959 121.854 108.548 118.593C105.36 116.972 102.402 113.369 99.5761 111.162C96.9798 109.134 94.2692 107.3 91.1962 106.067C87.7338 104.678 83.7446 105.304 80.0666 105.319C74.2842 105.345 68.4387 105.573 62.6349 105.337C60.7319 105.258 59.781 105.168 61.221 104.12C61.9982 103.553 62.7761 102.991 63.5582 102.437C66.6931 100.218 71.7858 100.948 75.3577 100.82C80.0747 100.65 84.7862 100.352 89.4907 99.9711C94.504 99.5652 100.873 99.6653 105.264 96.9408C108.442 94.9701 109.642 90.4819 110.192 87.0319C111.797 76.9481 111.286 66.3311 110.826 56.1769C110.762 54.7445 110.74 53.1005 110.702 51.3448C110.625 47.6634 110.562 47.445 114.581 47.8715C120.825 48.533 126.575 50.1309 127.983 57.3759C129.154 63.3928 128.928 69.8118 128.782 75.9062Z"
        fill="#DDA96B" />
    <path
        d="M59.5022 65.5322C59.9508 59.3105 68.9783 59.6232 69.1884 65.7252C69.4186 72.4088 59.5807 72.2227 59.5022 65.5322Z"
        fill="#FF2E60" />
    <path
        d="M105.658 40.3067C105.235 37.9724 104.748 34.7574 102.822 33.1796C100.373 31.1691 96.8194 31.2889 93.8172 31.0828C88.0509 30.6867 82.2715 30.4731 76.4913 30.4022C62.6199 30.2334 48.4405 30.2575 34.6905 32.3204C27.6107 33.3822 23.2809 35.9833 22.1875 43.2359C21.4042 48.4324 21.2669 53.7447 21.3027 58.993C21.3724 68.9438 21.1002 80.3003 24.054 89.9168C26.4656 97.7709 34.3322 95.7279 40.738 96.5824C44.8596 97.13 46.7138 99.1187 44.0308 102.789C42.8878 104.346 41.7095 105.929 40.8971 107.695C39.7188 110.255 38.4655 115.521 43.7247 112.067C46.7978 110.048 49.7103 107.782 52.695 105.635C57.177 102.41 61.7198 97.9522 67.4716 97.4024C75.3631 96.648 83.3516 96.8559 91.2614 96.0932C98.4127 95.4035 105.133 95.2795 106.474 86.8556C107.202 82.2846 107.335 77.5945 107.394 72.9739C107.529 62.2044 107.585 50.9423 105.658 40.3067ZM50.8928 66.3661C50.2975 71.3946 46.7794 74.7969 41.5504 74.4558C38.6869 74.269 36.4799 72.6954 35.1672 70.4911C33.2718 67.3133 33.1718 62.7976 36.3034 59.6197C37.924 57.9744 40.2411 57.0697 43.0192 57.1916C47.4878 57.3874 51.422 61.8826 50.8928 66.3661ZM72.8788 66.3661C72.2835 71.3946 68.7654 74.7969 63.5364 74.4558C60.6729 74.269 58.4659 72.6954 57.1532 70.4911C55.2578 67.3133 55.1577 62.7976 58.2893 59.6197C59.91 57.9744 62.2271 57.0697 65.0045 57.1916C69.4736 57.3874 73.408 61.8826 72.8788 66.3661ZM94.8646 66.3661C94.2693 71.3946 90.7512 74.7969 85.5222 74.4558C82.6589 74.269 80.4519 72.6954 79.1392 70.4911C77.2437 67.3133 77.1437 62.7976 80.2748 59.6197C81.896 57.9744 84.2132 57.0697 86.9905 57.1916C91.4587 57.3874 95.3938 61.8826 94.8646 66.3661Z"
        fill="#FFC522" />
    <path
        d="M37.5164 65.5322C37.9649 59.3105 46.9925 59.6232 47.2026 65.7252C47.4328 72.4088 37.595 72.2227 37.5164 65.5322Z"
        fill="#FF2E60" />
    <path
        d="M75.3579 100.82C71.7861 100.947 66.6934 100.218 63.5584 102.437C62.7763 102.99 61.9984 103.553 61.2213 104.12C59.7812 105.168 60.7321 105.258 62.6352 105.337C62.7345 105.341 62.8343 105.34 62.9342 105.344C64.492 104.433 66.1388 103.674 67.9724 103.187C72.1258 102.082 77.0104 102.547 81.2809 102.457C88.9522 102.298 96.8506 102.03 104.121 99.3301C111.806 96.4769 112.33 88.4298 112.764 81.2543C113.387 70.9391 113.397 59.737 110.687 49.6167C110.674 50.0832 110.688 50.653 110.703 51.3448C110.74 53.1004 110.762 54.7443 110.827 56.177C111.286 66.331 111.797 76.9481 110.192 87.0319C109.642 90.4819 108.442 94.9701 105.264 96.9408C100.873 99.6651 94.5042 99.5653 89.4909 99.9711C84.7865 100.351 80.0749 100.65 75.3579 100.82Z"
        fill="#C48D51" />
    <path
        d="M127.984 57.3757C126.653 50.5226 121.433 48.7236 115.588 47.9891C119.064 49.5437 122.397 51.2158 124.479 54.7766C127.26 59.5322 127.13 65.7575 127.145 71.0885C127.16 77.6246 126.662 84.0799 125.892 90.5657C125.496 93.891 125.144 97.6054 123.627 100.64C122.943 102.009 121.839 103.111 120.637 104.099C122.776 103.693 124.669 102.718 125.712 100.457C126.55 98.6395 126.923 96.6613 127.23 94.6928C128.197 88.491 128.63 82.1775 128.782 75.906C128.928 69.8118 129.154 63.3928 127.984 57.3757Z"
        fill="#F4C38E" />
    <path
        d="M52.6954 105.635C57.1774 102.41 61.7201 97.9519 67.472 97.4021C75.3635 96.6477 83.3519 96.8557 91.2617 96.093C98.4131 95.4033 105.133 95.2793 106.475 86.8553C107.202 82.2844 107.336 77.5942 107.394 72.9737C107.516 63.2557 107.558 53.1396 106.152 43.4402C106.375 45.8717 106.572 48.3053 106.622 50.7582C106.74 56.3986 106.393 62.0464 106.111 67.6771C105.819 73.5048 105.898 79.4034 104.986 85.1782C104.526 88.0921 103.433 90.9563 100.741 92.4521C98.1321 93.9033 94.2487 94.0941 91.3928 94.4289C85.8759 95.0766 78.0275 94.8884 72.2491 95.313C63.2692 95.9744 62.7668 97.2478 57.5207 100.417C54.8962 102.002 46.338 108.705 44.9364 109.745C44.8316 109.821 41.7111 112.026 42.0852 110.176C42.8859 106.218 49.2503 101.314 47.1991 97.0059C45.7584 93.9805 41.5774 94.2382 38.7414 94.1714C36.1962 94.1107 32.5493 94.1176 30.1143 93.3397C26.1124 92.0609 25.1643 89.0713 24.2356 85.3029C23.333 81.64 22.0776 69.3039 22.159 43.4767C21.4065 48.596 21.2687 53.8244 21.3031 58.9927C21.3728 68.9435 21.1006 80.3 24.0544 89.9165C26.466 97.7706 34.3326 95.7277 40.7383 96.5821C44.86 97.1298 46.7142 99.1184 44.0312 102.789C42.8882 104.346 41.7099 105.929 40.8974 107.695C39.7192 110.255 38.4659 115.521 43.7251 112.067C46.7982 110.048 49.7105 107.782 52.6954 105.635Z"
        fill="#FFA222" />
    <path
        d="M60.467 73.6233C59.0731 72.9185 57.9472 71.8236 57.1535 70.491C55.258 67.3132 55.158 62.7975 58.2896 59.6196C59.9103 57.9743 62.2273 57.0696 65.0047 57.1915C69.4737 57.3871 73.4081 61.8824 72.8789 66.3658C72.8244 66.826 72.7369 67.267 72.635 67.6984C72.8045 67.2368 72.9415 66.7399 73.0456 66.1936C73.4453 64.0729 72.8002 61.3465 71.3637 59.7099C67.6492 55.4801 61.7878 55.3092 57.6253 58.9245C53.8102 62.2365 54.9416 68.7141 58.0436 72.0372C58.7161 72.7587 59.5485 73.2795 60.467 73.6233Z"
        fill="#FFA222" />
    <path
        d="M35.6904 58.9245C31.876 62.2366 33.0067 68.7141 36.1093 72.0373C36.7267 72.6994 37.4832 73.1866 38.3135 73.529C36.9975 72.8234 35.9282 71.7691 35.1674 70.491C33.2719 67.3132 33.1719 62.7975 36.3035 59.6197C37.9242 57.9743 40.2412 57.0696 43.0194 57.1915C47.4876 57.3871 51.422 61.8824 50.8928 66.3658C50.8253 66.9322 50.7164 67.4737 50.578 67.9946C50.8013 67.4488 50.9853 66.8611 51.1107 66.1935C51.5104 64.0728 50.8653 61.3463 49.4295 59.7098C45.7142 55.4802 39.8528 55.3092 35.6904 58.9245Z"
        fill="#FFA222" />
    <path
        d="M81.5021 73.0481C80.5436 72.375 79.743 71.5047 79.1394 70.4911C77.2439 67.3133 77.1439 62.7976 80.275 59.6198C81.8961 57.9744 84.2134 57.0697 86.9906 57.1916C91.4589 57.3872 95.3939 61.8825 94.8648 66.3659C94.7524 67.3168 94.5348 68.2083 94.2206 69.0297C94.6884 68.2111 95.044 67.3045 95.2534 66.1938C95.6531 64.073 95.008 61.3466 93.5722 59.7101C89.8569 55.4803 83.9957 55.3093 79.8333 58.9246C76.0182 62.2367 77.1495 68.7142 80.2522 72.0374C80.623 72.4348 81.046 72.7676 81.5021 73.0481Z"
        fill="#FFA222" />
    <path
        d="M89.9038 32.4655C94.1744 32.7412 98.8356 32.8747 102.756 34.7958C103.522 35.1699 104.166 35.677 104.731 36.2626C104.319 35.0464 103.735 33.9269 102.822 33.1793C100.373 31.1688 96.8195 31.2886 93.8174 31.0826C88.051 30.6864 82.2717 30.4728 76.4914 30.4019C62.62 30.2331 48.4406 30.2573 34.6906 32.3201C29.1825 33.1456 25.3482 34.915 23.3982 39.0711C24.6294 37.879 26.0213 36.8456 27.6432 36.0167C31.3253 34.1329 35.6786 33.7208 39.7299 33.3702C50.6392 32.4269 61.549 31.7351 72.5045 31.8047C78.3093 31.8419 84.1121 32.0921 89.9038 32.4655Z"
        fill="#FBE134" />
    <path
        d="M69.1884 65.7252C69.1616 64.9452 68.9872 64.2624 68.7081 63.6719C68.9528 64.56 68.985 65.4922 68.7074 66.4611C68.1514 68.3993 66.1559 69.3509 64.2908 69.368C62.4304 69.3853 60.8553 68.1878 60.2704 66.4562C59.8038 65.074 60.0354 63.725 60.7052 62.5529C60.0506 63.2845 59.5937 64.2658 59.5022 65.5322C59.5807 72.2227 69.4186 72.4088 69.1884 65.7252Z"
        fill="#EA0F4D" />
    <path
        d="M47.2026 65.7253C47.1722 64.8578 46.9503 64.1205 46.6134 63.4894C46.9076 64.432 46.969 65.4249 46.6713 66.4612C46.1153 68.3993 44.1205 69.3509 42.2554 69.368C40.395 69.3853 38.8193 68.1878 38.235 66.4562C37.7809 65.1134 37.9917 63.8042 38.6174 62.657C38.0152 63.3763 37.6031 64.3286 37.5164 65.5323C37.5949 72.2227 47.4326 72.4088 47.2026 65.7253Z"
        fill="#EA0F4D" />
    <path
        d="M82.0807 66.4564C81.7051 65.3435 81.7879 64.2543 82.1805 63.26C81.8112 63.8885 81.5527 64.6346 81.4873 65.5324C81.5665 72.2229 91.4042 72.4088 91.174 65.7254C91.1354 64.6044 90.7952 63.6825 90.2679 62.9556C90.7227 64.0532 90.8708 65.228 90.5174 66.4613C89.9614 68.3995 87.9659 69.3511 86.1008 69.3682C84.2407 69.3853 82.6658 68.1878 82.0807 66.4564Z"
        fill="#EA0F4D" />
    <path
        d="M45.5181 64.2541C45.1378 62.801 44.0766 62.1822 42.2962 62.1953C40.9808 62.2069 39.3843 63.08 39.3741 64.5545C39.3549 67.1218 42.3727 67.9424 44.3543 67.0204C45.4264 66.523 45.8005 65.3359 45.5181 64.2541Z"
        fill="#FF6699" />
    <path
        d="M67.6931 64.2541C67.3128 62.801 66.2517 62.1822 64.4712 62.1953C63.1559 62.2069 61.5594 63.08 61.5492 64.5545C61.5299 67.1218 64.5478 67.9424 66.5293 67.0204C67.6016 66.523 67.9757 65.3359 67.6931 64.2541Z"
        fill="#FF6699" />
    <path
        d="M89.3595 64.2541C88.9792 62.801 87.9173 62.1822 86.1375 62.1953C84.8224 62.2069 83.2259 63.08 83.2157 64.5545C83.1957 67.1218 86.2141 67.9424 88.1957 67.0204C89.2679 66.523 89.642 65.3359 89.3595 64.2541Z"
        fill="#FF6699" />
</svg>