<svg width="16" height="16" viewBox="0 0 16 16" fill="none" xmlns="http://www.w3.org/2000/svg">
<path d="M8.00001 0.666992C8.3682 0.666992 8.66668 0.965469 8.66668 1.33366V2.00033H10C11.4728 2.00033 12.6667 3.19423 12.6667 4.66699V5.33366C12.6667 5.70185 12.3682 6.00033 12 6.00033C11.6318 6.00033 11.3333 5.70185 11.3333 5.33366V4.66699C11.3333 3.93061 10.7364 3.33366 10 3.33366H6.00001C5.26363 3.33366 4.66668 3.93061 4.66668 4.66699V4.74497C4.66668 5.60583 5.21754 6.37011 6.03422 6.64233L10.3874 8.0934C11.7486 8.54712 12.6667 9.82091 12.6667 11.2557V11.3337C12.6667 12.8064 11.4728 14.0003 10 14.0003H8.66668V14.667C8.66668 15.0352 8.3682 15.3337 8.00001 15.3337C7.63182 15.3337 7.33334 15.0352 7.33334 14.667V14.0003H6.00001C4.52725 14.0003 3.33334 12.8064 3.33334 11.3337V10.667C3.33334 10.2988 3.63182 10.0003 4.00001 10.0003C4.3682 10.0003 4.66668 10.2988 4.66668 10.667V11.3337C4.66668 12.07 5.26363 12.667 6.00001 12.667H10C10.7364 12.667 11.3333 12.07 11.3333 11.3337V11.2557C11.3333 10.3948 10.7825 9.63054 9.9658 9.35832L5.61258 7.90725C4.25144 7.45353 3.33334 6.17974 3.33334 4.74497V4.66699C3.33334 3.19423 4.52725 2.00033 6.00001 2.00033H7.33334V1.33366C7.33334 0.965469 7.63182 0.666992 8.00001 0.666992Z" fill="#F74A4A"/>
</svg>
