<svg width="32" height="55" viewBox="0 0 32 55" fill="none" xmlns="http://www.w3.org/2000/svg">
<g clip-path="url(#clip0_2004_20043)">
<path d="M31.7948 14.5479C32.9532 8.14149 29.1068 1.91749 22.7452 0.554289C16.3772 -0.812111 10.3196 3.29029 8.7484 9.60389C7.0876 16.2823 1.75 36.0647 1.75 36.0647L27.3212 41.5495C27.3212 41.5495 30.5692 21.3223 31.7916 14.5511L31.7948 14.5479Z" fill="#F03C69"/>
<path d="M5.19989 38.6019C5.17749 38.5987 5.15509 38.5923 5.13589 38.5859C4.19509 38.3459 3.62229 37.3891 3.86229 36.4483L10.8671 8.87388C11.1071 7.92988 12.0767 7.36028 13.0047 7.60028C13.9455 7.84028 14.5183 8.79708 14.2783 9.73788L7.27349 37.3091C7.03989 38.2307 6.12149 38.7939 5.19989 38.5955V38.6019Z" fill="#CE2450"/>
<path d="M23.1388 42.4512C22.2172 42.2528 21.6124 41.36 21.7756 40.4256L26.694 12.4064C26.8604 11.4496 27.7756 10.8096 28.7324 10.976C29.6828 11.1456 30.3292 12.0576 30.1628 13.0144L25.2444 41.0336C25.078 41.9904 24.1628 42.6304 23.206 42.464C23.1836 42.4608 23.1612 42.4544 23.1388 42.4512Z" fill="#CE2450"/>
<path d="M14.1695 40.5249C13.2191 40.3201 12.6143 39.3857 12.8191 38.4353L19.7407 6.15368C19.9455 5.20328 20.8799 4.59848 21.8303 4.80328C22.7807 5.00808 23.3855 5.94248 23.1807 6.89288L16.2559 39.1745C16.0511 40.1249 15.1167 40.7297 14.1663 40.5249H14.1695Z" fill="#CE2450"/>
<path d="M15.8464 51.005C15.4016 53.0786 13.36 54.397 11.2864 53.9522C9.21283 53.5074 7.89443 51.4658 8.33923 49.3922L10.656 38.5954C11.1008 36.5218 18.608 38.1314 18.1632 40.205L15.8464 51.0018V51.005Z" fill="#F9B50B"/>
<path d="M18.1625 40.2084C18.6073 38.1348 11.1001 36.5252 10.6553 38.5988L9.96094 41.8308C10.1753 41.85 10.3865 41.882 10.6009 41.9268C14.2073 42.7012 16.3929 46.9092 15.6953 51.5108C15.7529 51.3476 15.8073 51.1812 15.8457 51.0052L18.1625 40.2084Z" fill="#F79411"/>
<path d="M29.0332 41.914C28.8188 42.922 27.8268 43.562 26.8188 43.3444L1.47482 37.9108C0.46682 37.6964 -0.17318 36.7044 0.0444204 35.6964H0.0412204C0.25562 34.6884 1.24762 34.0484 2.25562 34.2628L27.5996 39.6996C28.6076 39.914 29.2476 40.906 29.03 41.914H29.0332Z" fill="#F9B50B"/>
<path d="M0.0410156 35.6964C0.255416 34.6884 1.24742 34.0484 2.25542 34.2628L27.5994 39.6996C28.6074 39.914 29.2474 40.906 29.0298 41.914L0.0410156 35.6964Z" fill="#FECF29"/>
<path opacity="0.7" d="M28.5312 16.2788C27.056 23.162 21.4464 27.7956 16.0032 26.6276C10.56 25.4596 7.34397 18.9348 8.82237 12.0516C10.3008 5.1684 15.9072 0.531596 21.3504 1.6996C26.7936 2.8676 30.0096 9.3924 28.5312 16.2756V16.2788Z" fill="#FF6C9D"/>
<g opacity="0.4">
<path d="M13.005 7.60321C12.0738 7.36321 11.1042 7.93281 10.8674 8.87681L8.63379 17.664C8.95699 19.7696 9.73139 21.6736 10.861 23.1936L14.2786 9.74081C14.5186 8.80001 13.949 7.84001 13.005 7.60321Z" fill="#F03C69"/>
<path d="M28.7619 10.9824C28.7619 10.9824 28.7427 10.976 28.7331 10.976C27.7763 10.8064 26.8643 11.4464 26.6947 12.4064L24.7363 23.5648C26.5283 21.7248 27.9043 19.2064 28.5347 16.2784C28.9251 14.4576 28.9859 12.6624 28.7651 10.9824H28.7619Z" fill="#F03C69"/>
<path d="M21.8305 4.80328C20.8801 4.59848 19.9457 5.20328 19.7409 6.15368L15.3857 26.4641C15.5905 26.5249 15.7953 26.5793 16.0033 26.6241C16.9825 26.8353 17.9681 26.8545 18.9313 26.7073L23.1809 6.88968C23.3857 5.93928 22.7809 5.00488 21.8305 4.80008V4.80328Z" fill="#F03C69"/>
</g>
<path d="M17.7093 5.71828C17.5045 6.66868 16.5573 7.27028 15.5941 7.06548C14.6309 6.85748 14.0133 5.91988 14.2149 4.96948C14.4197 4.01908 15.3669 3.41748 16.3301 3.62228C17.2933 3.83028 17.9109 4.76788 17.7093 5.71828Z" fill="white"/>
<path d="M19.5049 3.81441C19.3833 4.38081 18.8201 4.73921 18.2441 4.61761C17.6681 4.49601 17.3001 3.93601 17.4217 3.36961C17.5433 2.80321 18.1065 2.44481 18.6825 2.56641C19.2585 2.69121 19.6265 3.24801 19.5049 3.81441Z" fill="white"/>
</g>
<defs>
<clipPath id="clip0_2004_20043">
<rect width="32" height="53.7472" fill="white" transform="translate(0 0.291748)"/>
</clipPath>
</defs>
</svg>
