<svg width="32" height="32" viewBox="0 0 32 32" fill="none" xmlns="http://www.w3.org/2000/svg">
    <path fill-rule="evenodd" clip-rule="evenodd"
        d="M16.0022 0C6.98833 0 0.0012535 6.58892 0.0012535 15.5216C-0.0265004 17.6821 0.406916 19.8237 1.27256 21.8035C2.13821 23.7832 3.41618 25.5555 5.02116 27.002C5.15084 27.1165 5.25583 27.2563 5.32973 27.4127C5.40363 27.5691 5.44488 27.739 5.45099 27.9119L5.53883 30.7608C5.54554 30.9704 5.60362 31.1751 5.70797 31.357C5.81232 31.5388 5.95974 31.6923 6.13727 31.8038C6.3148 31.9154 6.51701 31.9816 6.72613 31.9967C6.93526 32.0118 7.14488 31.9753 7.33659 31.8904L10.5117 30.491C10.78 30.3708 11.082 30.3485 11.3651 30.4282C12.8749 30.843 14.4333 31.054 15.9991 31.0558C25.0098 31.0558 32 24.4512 32 15.5342C32 6.61715 25.0129 0 16.0022 0Z"
        fill="white" />
    <path fill-rule="evenodd" clip-rule="evenodd"
        d="M6.39239 20.059L11.0986 12.6041C11.2748 12.323 11.5075 12.0817 11.7818 11.8952C12.0562 11.7087 12.3662 11.5812 12.6924 11.5208C13.0185 11.4603 13.3537 11.4682 13.6766 11.544C13.9996 11.6197 14.3033 11.7617 14.5686 11.9609L18.3084 14.7659C18.4735 14.8941 18.6766 14.9637 18.8857 14.9637C19.0947 14.9637 19.2979 14.8941 19.463 14.7659L24.5237 10.9318C24.6654 10.824 24.8404 10.7695 25.0182 10.7777C25.196 10.7859 25.3653 10.8563 25.4965 10.9766C25.6277 11.097 25.7124 11.2596 25.7359 11.436C25.7593 11.6125 25.7201 11.7916 25.6249 11.9421L20.9187 19.4001C20.7409 19.6795 20.5071 19.9191 20.2322 20.1038C19.9572 20.2885 19.647 20.4143 19.3211 20.4732C18.9951 20.5321 18.6605 20.523 18.3383 20.4463C18.0161 20.3696 17.7132 20.227 17.4487 20.0276L13.7089 17.2226C13.5425 17.0974 13.3399 17.0296 13.1316 17.0296C12.9234 17.0296 12.7207 17.0974 12.5543 17.2226L7.50305 21.0536C7.3626 21.1602 7.18942 21.2146 7.01322 21.2075C6.83702 21.2004 6.66879 21.1321 6.53742 21.0145C6.40605 20.8968 6.31973 20.7371 6.29327 20.5628C6.2668 20.3884 6.30185 20.2103 6.39239 20.059V20.059Z"
        fill="#3DB54A" />
</svg>