<svg width="24" height="24" viewBox="0 0 24 24" fill="none" xmlns="http://www.w3.org/2000/svg">
<path d="M8.53428 4.97827C8.32648 4.9737 8.12242 5.03394 7.95046 5.15071C7.77851 5.26747 7.6472 5.435 7.57481 5.62984C7.50242 5.82468 7.49253 6.0372 7.54652 6.23792C7.60052 6.43864 7.71571 6.61747 7.87608 6.74969L13.9952 11.9919L7.87608 17.2322C7.76514 17.3137 7.67223 17.4173 7.60318 17.5364C7.53412 17.6555 7.49039 17.7876 7.47474 17.9244C7.45909 18.0612 7.47186 18.1997 7.51223 18.3313C7.5526 18.4629 7.61972 18.5848 7.70938 18.6893C7.79903 18.7938 7.9093 18.8786 8.03326 18.9385C8.15723 18.9984 8.29223 19.032 8.4298 19.0373C8.56738 19.0426 8.70457 19.0195 8.83278 18.9694C8.961 18.9192 9.07747 18.8431 9.17491 18.7458L16.1808 12.7516C16.2908 12.6577 16.3791 12.5412 16.4397 12.4099C16.5003 12.2785 16.5317 12.1356 16.5317 11.9909C16.5317 11.8463 16.5003 11.7034 16.4397 11.572C16.3791 11.4407 16.2908 11.324 16.1808 11.2302L9.17491 5.23018C8.99793 5.07298 8.77093 4.98384 8.53428 4.97827Z" fill="url(#paint0_radial_2004_13835)"/>
<defs>
<radialGradient id="paint0_radial_2004_13835" cx="0" cy="0" r="1" gradientUnits="userSpaceOnUse" gradientTransform="translate(7.46826 4.97803) rotate(72.1353) scale(14.7723 10.783)">
<stop stop-color="#FFC007"/>
<stop offset="1" stop-color="#FF5723"/>
</radialGradient>
</defs>
</svg>
