<svg width="21" height="21" viewBox="0 0 21 21" fill="none" xmlns="http://www.w3.org/2000/svg">
    <path
        d="M5.06906 13.7239C6.87732 15.8854 9.05407 17.5873 11.5385 18.7916C12.4844 19.2398 13.7495 19.7717 15.1588 19.8628C15.2462 19.8666 15.3298 19.8704 15.4172 19.8704C16.3631 19.8704 17.1229 19.5437 17.7421 18.8713C17.7459 18.8675 17.7535 18.8599 17.7573 18.8523C17.9776 18.5864 18.2283 18.3471 18.4905 18.0926C18.669 17.9216 18.8513 17.7431 19.0261 17.5607C19.8353 16.7174 19.8353 15.6461 19.0185 14.8293L16.7354 12.5462C16.3479 12.1435 15.8844 11.9308 15.3982 11.9308C14.9119 11.9308 14.4447 12.1435 14.0458 12.5424L12.6858 13.9024C12.5604 13.8302 12.4313 13.7657 12.3097 13.7049C12.1577 13.6289 12.0172 13.5567 11.8918 13.4769C10.6534 12.6906 9.52893 11.6649 8.45385 10.3467C7.91061 9.65909 7.54592 9.08166 7.29139 8.49284C7.64849 8.16993 7.98279 7.83183 8.30569 7.50133C8.41966 7.38357 8.53742 7.2658 8.65519 7.14804C9.06546 6.73776 9.2858 6.2629 9.2858 5.78044C9.2858 5.29799 9.06926 4.82313 8.65519 4.41285L7.52312 3.28079C7.39016 3.14783 7.2648 3.01867 7.13564 2.88571C6.88492 2.62738 6.62279 2.36146 6.36447 2.12213C5.97319 1.73845 5.51352 1.53711 5.02727 1.53711C4.54481 1.53711 4.08135 1.73845 3.67487 2.12593L2.2541 3.54671C1.73745 4.06336 1.44494 4.69017 1.38416 5.41575C1.31198 6.32368 1.47913 7.28859 1.9122 8.45485C2.577 10.2593 3.5799 11.9346 5.06906 13.7239ZM2.31108 5.49553C2.35667 4.99028 2.55041 4.56861 2.9151 4.20391L4.32828 2.79074C4.54861 2.578 4.79174 2.46783 5.02727 2.46783C5.259 2.46783 5.49453 2.578 5.71107 2.79833C5.96559 3.03386 6.20492 3.28079 6.46324 3.54291C6.5924 3.67587 6.72536 3.80883 6.85832 3.94559L7.99039 5.07765C8.22591 5.31318 8.34748 5.55251 8.34748 5.78804C8.34748 6.02357 8.22591 6.2629 7.99039 6.49843C7.87262 6.61619 7.75486 6.73776 7.63709 6.85552C7.2838 7.21262 6.9533 7.55072 6.5886 7.87362C6.58101 7.88122 6.57721 7.88502 6.56961 7.89261C6.2543 8.20792 6.30369 8.50803 6.37967 8.73596C6.38347 8.74736 6.38726 8.75496 6.39106 8.76635C6.68358 9.46914 7.09005 10.1377 7.72446 10.9355C8.86412 12.3411 10.0646 13.4314 11.3866 14.2709C11.5499 14.3773 11.7247 14.4609 11.888 14.5444C12.04 14.6204 12.1805 14.6926 12.3059 14.7724C12.3211 14.78 12.3325 14.7876 12.3477 14.7952C12.473 14.8597 12.5946 14.8901 12.7162 14.8901C13.0201 14.8901 13.2176 14.6964 13.2822 14.6318L14.703 13.211C14.9233 12.9907 15.1626 12.8729 15.3982 12.8729C15.6869 12.8729 15.9224 13.0515 16.0706 13.211L18.3613 15.4979C18.8172 15.9538 18.8134 16.4477 18.3499 16.9301C18.1903 17.1011 18.0232 17.2644 17.8446 17.4354C17.5787 17.6937 17.3014 17.9596 17.0507 18.2597C16.6138 18.7308 16.0934 18.9511 15.421 18.9511C15.3564 18.9511 15.288 18.9473 15.2234 18.9435C13.9774 18.8637 12.8187 18.3775 11.9488 17.9634C9.58591 16.82 7.51173 15.1978 5.79084 13.1388C4.37386 11.4332 3.42035 9.84523 2.78974 8.14334C2.39845 7.09865 2.2503 6.2591 2.31108 5.49553Z"
        fill="black" fill-opacity="0.65" />
</svg>