<svg width="21" height="21" viewBox="0 0 21 21" fill="none" xmlns="http://www.w3.org/2000/svg">
    <g clip-path="url(#clip0_165_1840)">
        <path
            d="M10.4999 0.704102C6.42603 0.704102 3.11182 4.01831 3.11182 8.09219C3.11182 9.43335 3.71329 10.8758 3.7385 10.9366C3.93276 11.3977 4.31608 12.1139 4.59248 12.5337L9.6581 20.2091C9.8654 20.5237 10.1722 20.7041 10.4999 20.7041C10.8276 20.7041 11.1344 20.5237 11.3417 20.2095L16.4078 12.5337C16.6846 12.1139 17.0675 11.3977 17.2618 10.9366C17.287 10.8762 17.888 9.43378 17.888 8.09219C17.888 4.01831 14.5738 0.704102 10.4999 0.704102ZM16.4604 10.5994C16.287 11.0127 15.9302 11.6789 15.682 12.0553L10.6159 19.731C10.516 19.8827 10.4843 19.8827 10.3843 19.731L5.31825 12.0553C5.0701 11.6789 4.71329 11.0122 4.53989 10.5989C4.5325 10.5811 3.981 9.25343 3.981 8.09219C3.981 4.49767 6.90538 1.57329 10.4999 1.57329C14.0944 1.57329 17.0188 4.49767 17.0188 8.09219C17.0188 9.25517 16.466 10.5863 16.4604 10.5994Z"
            fill="black" fill-opacity="0.65" />
        <path
            d="M10.4999 4.18129C8.34302 4.18129 6.58857 5.93617 6.58857 8.09263C6.58857 10.2491 8.34302 12.004 10.4999 12.004C12.6568 12.004 14.4113 10.2491 14.4113 8.09263C14.4113 5.93617 12.6568 4.18129 10.4999 4.18129ZM10.4999 11.1348C8.82281 11.1348 7.45775 9.77016 7.45775 8.09263C7.45775 6.4151 8.82281 5.05047 10.4999 5.05047C12.177 5.05047 13.5421 6.4151 13.5421 8.09263C13.5421 9.77016 12.177 11.1348 10.4999 11.1348Z"
            fill="black" fill-opacity="0.65" />
    </g>
    <defs>
        <clipPath id="clip0_165_1840">
            <rect width="20" height="20" fill="white" transform="translate(0.5 0.704102)" />
        </clipPath>
    </defs>
</svg>