<svg width="24" height="24" viewBox="0 0 24 24" fill="none" xmlns="http://www.w3.org/2000/svg">
<path d="M14.9949 5.00842C15.2026 5.00387 15.4066 5.06385 15.5785 5.18012C15.7504 5.29639 15.8817 5.4632 15.954 5.65721C16.0264 5.85121 16.0363 6.06283 15.9823 6.26269C15.9283 6.46255 15.8132 6.64062 15.6529 6.77228L9.53603 11.9921L15.6529 17.21C15.7638 17.2912 15.8567 17.3943 15.9257 17.5129C15.9947 17.6315 16.0384 17.7631 16.0541 17.8993C16.0697 18.0355 16.057 18.1734 16.0166 18.3044C15.9762 18.4355 15.9091 18.5569 15.8195 18.6609C15.7299 18.765 15.6197 18.8494 15.4958 18.909C15.3718 18.9687 15.2369 19.0022 15.0994 19.0074C14.9618 19.0127 14.8247 18.9897 14.6965 18.9398C14.5684 18.8898 14.4519 18.8141 14.3545 18.7172L7.35131 12.7486C7.24133 12.6551 7.15302 12.5391 7.09246 12.4083C7.0319 12.2775 7.00055 12.1352 7.00055 11.9912C7.00055 11.8471 7.0319 11.7048 7.09246 11.574C7.15302 11.4433 7.24133 11.3271 7.35131 11.2336L14.3545 5.25925C14.5315 5.10272 14.7584 5.01397 14.9949 5.00842Z" fill="url(#paint0_radial_2004_13833)"/>
<defs>
<radialGradient id="paint0_radial_2004_13833" cx="0" cy="0" r="1" gradientUnits="userSpaceOnUse" gradientTransform="translate(16.0605 5.00818) rotate(107.93) scale(14.7147 10.775)">
<stop stop-color="#FFC007"/>
<stop offset="1" stop-color="#FF5723"/>
</radialGradient>
</defs>
</svg>
