<svg xmlns="http://www.w3.org/2000/svg" width="32" height="32" viewBox="0 0 32 32" fill="none">
  <path d="M9.33333 8H8C5.79086 8 4 9.79086 4 12V25.3333C4 27.5425 5.79086 29.3333 8 29.3333H18.6667C20.8758 29.3333 22.6667 27.5425 22.6667 25.3333V24H20V25.3333C20 26.0697 19.403 26.6667 18.6667 26.6667H8C7.26362 26.6667 6.66667 26.0697 6.66667 25.3333V12C6.66667 11.2636 7.26362 10.6667 8 10.6667H9.33333V8Z" fill="#57595C"/>
  <path fill-rule="evenodd" clip-rule="evenodd" d="M27.9869 9.33329C27.9956 9.44052 28 9.54844 28 9.65681V20C28 22.2091 26.2092 24 24 24H13.3334C11.1242 24 9.33337 22.2091 9.33337 20V6.66663C9.33337 4.45749 11.1242 2.66663 13.3334 2.66663H21.0099C21.1182 2.66663 21.2261 2.67102 21.3334 2.67972V2.66663L21.3477 2.6809C22.2848 2.76029 23.1682 3.16809 23.8383 3.8382L26.8285 6.82839C27.4986 7.4985 27.9064 8.38189 27.9858 9.31901L28 9.33329H27.9869ZM24 21.3333H13.3334C12.597 21.3333 12 20.7363 12 20V6.66663C12 5.93025 12.597 5.33329 13.3334 5.33329H21.0099C21.1198 5.33329 21.2284 5.34688 21.3334 5.37313V6.66663C21.3334 8.13939 22.5273 9.33329 24 9.33329H25.2935C25.3198 9.43824 25.3334 9.54682 25.3334 9.65681V20C25.3334 20.7363 24.7364 21.3333 24 21.3333Z" fill="#57595C"/>
</svg>