<svg xmlns="http://www.w3.org/2000/svg" width="32" height="32" viewBox="0 0 32 32" fill="none">
  <path d="M17.5513 9.51416C17.8106 10.3916 18.2896 11.1748 18.9245 11.8001L14.4486 14.4857C14.1892 13.6082 13.7102 12.825 13.0753 12.1998L17.5513 9.51416Z" fill="white"/>
  <path d="M13.0753 19.8002L17.5513 22.4858C17.8106 21.6083 18.2896 20.8251 18.9245 20.1998L14.4486 17.5143C14.1892 18.3917 13.7102 19.1749 13.0753 19.8002Z" fill="white"/>
  <path fill-rule="evenodd" clip-rule="evenodd" d="M22.6667 10.6666C24.1395 10.6666 25.3334 9.47272 25.3334 7.99996C25.3334 6.5272 24.1395 5.33329 22.6667 5.33329C21.1939 5.33329 20 6.5272 20 7.99996C20 9.47272 21.1939 10.6666 22.6667 10.6666ZM28 7.99996C28 10.9455 25.6122 13.3333 22.6667 13.3333C19.7212 13.3333 17.3334 10.9455 17.3334 7.99996C17.3334 5.05444 19.7212 2.66663 22.6667 2.66663C25.6122 2.66663 28 5.05444 28 7.99996Z" fill="white"/>
  <path fill-rule="evenodd" clip-rule="evenodd" d="M22.6667 26.6666C24.1395 26.6666 25.3334 25.4727 25.3334 24C25.3334 22.5272 24.1395 21.3333 22.6667 21.3333C21.1939 21.3333 20 22.5272 20 24C20 25.4727 21.1939 26.6666 22.6667 26.6666ZM28 24C28 26.9455 25.6122 29.3333 22.6667 29.3333C19.7212 29.3333 17.3334 26.9455 17.3334 24C17.3334 21.0544 19.7212 18.6666 22.6667 18.6666C25.6122 18.6666 28 21.0544 28 24Z" fill="white"/>
  <path fill-rule="evenodd" clip-rule="evenodd" d="M9.33333 18.6666C10.8061 18.6666 12 17.4727 12 16C12 14.5272 10.8061 13.3333 9.33333 13.3333C7.86057 13.3333 6.66667 14.5272 6.66667 16C6.66667 17.4727 7.86057 18.6666 9.33333 18.6666ZM14.6667 16C14.6667 18.9455 12.2789 21.3333 9.33333 21.3333C6.38781 21.3333 4 18.9455 4 16C4 13.0544 6.38781 10.6666 9.33333 10.6666C12.2789 10.6666 14.6667 13.0544 14.6667 16Z" fill="white"/>
</svg>