<svg width="28" height="29" viewBox="0 0 28 29" fill="none" xmlns="http://www.w3.org/2000/svg">
<g clip-path="url(#clip0_2004_22451)">
<path d="M14.2591 1.46276C15.0084 0.120728 15.917 0.246054 16.28 1.73692L17.6246 7.25911C17.9875 8.75258 19.5123 10.2408 21.0135 10.5672L26.6844 11.8074C28.1857 12.1364 28.3293 13.0398 27.003 13.8179L22.1571 16.6612C20.8334 17.4393 19.977 19.3113 20.2564 20.8205L21.4026 27.0424C21.6819 28.5515 20.943 28.985 19.7603 28.0032L14.6429 23.7526C13.4628 22.7709 11.3479 22.4837 9.9485 23.1129L3.88074 25.8414C2.48129 26.4706 1.88339 25.857 2.55701 24.4758L5.32718 18.7865C5.99819 17.4053 5.67443 15.374 4.60657 14.2696L0.698036 10.233C-0.369827 9.13117 0.00875497 8.29827 1.54397 8.38182L7.3402 8.70297C8.8728 8.78914 10.7396 7.76041 11.4889 6.42099L14.2591 1.46276Z" fill="#FFBF27"/>
<path d="M13.7341 12.8779C13.0031 12.7787 12.3268 13.2904 12.2276 14.0241C12.1284 14.7578 12.6402 15.4314 13.3738 15.5306C14.1049 15.6299 14.7811 15.1181 14.8803 14.3844C14.9795 13.6534 14.4678 12.9771 13.7341 12.8779Z" fill="#FC8544"/>
<path d="M13.9144 11.5464C14.4183 11.6142 14.8804 11.2618 14.9483 10.7605C15.0162 10.2565 14.6637 9.7944 14.1624 9.72651C13.6585 9.65863 13.1964 10.0111 13.1285 10.5124C13.0606 11.0163 13.4131 11.4785 13.9144 11.5464Z" fill="#FC8544"/>
<path d="M14.3165 8.59331C14.6168 8.63508 14.8935 8.42359 14.9353 8.12333C14.9771 7.82307 14.7656 7.54631 14.4654 7.50453C14.1651 7.46276 13.8883 7.67424 13.8466 7.97451C13.8048 8.27477 14.0163 8.55153 14.3165 8.59331Z" fill="#FC8544"/>
<path d="M14.6457 6.18077C14.8572 6.20949 15.0556 6.06066 15.0843 5.84917C15.113 5.63768 14.9642 5.43925 14.7527 5.41053C14.5412 5.38181 14.3428 5.53063 14.3141 5.74212C14.2854 5.95361 14.4342 6.15204 14.6457 6.18077Z" fill="#FC8544"/>
<path d="M17.1809 13.0998C16.6744 13.139 16.2958 13.5829 16.3376 14.0894C16.3768 14.5959 16.8206 14.9745 17.3272 14.9327C17.8337 14.8936 18.2123 14.4497 18.1705 13.9432C18.1313 13.4366 17.6875 13.0581 17.1809 13.0998Z" fill="#FC8544"/>
<path d="M19.8101 13.2644C19.5073 13.2879 19.2801 13.5542 19.3062 13.8571C19.3324 14.1599 19.5961 14.3871 19.8989 14.361C20.2018 14.3349 20.4289 14.0712 20.4028 13.7683C20.3793 13.4654 20.113 13.2383 19.8101 13.2644Z" fill="#FC8544"/>
<path d="M22.5094 13.6011C22.4937 13.387 22.3058 13.2277 22.0917 13.2434C21.8776 13.259 21.7183 13.447 21.734 13.6611C21.7496 13.8752 21.9376 14.0345 22.1517 14.0188C22.3658 14.0032 22.5251 13.8152 22.5094 13.6011Z" fill="#FC8544"/>
<path d="M10.904 13.3505C11.0789 12.8727 10.8309 12.3453 10.3557 12.173C9.87792 11.998 9.35052 12.2461 9.1782 12.7213C9.00327 13.1991 9.25131 13.7265 9.72649 13.8988C10.2043 14.0737 10.7317 13.8257 10.904 13.3505Z" fill="#FC8544"/>
<path d="M7.77625 11.6246C7.49166 11.5202 7.17574 11.6664 7.0713 11.9536C6.96686 12.2382 7.11307 12.5541 7.40028 12.6586C7.68486 12.763 8.00079 12.6168 8.10522 12.3296C8.20966 12.045 8.06345 11.7291 7.77625 11.6246Z" fill="#FC8544"/>
<path d="M5.58306 10.9979C5.38202 10.9248 5.15748 11.0293 5.08437 11.2303C5.01127 11.4314 5.1157 11.6559 5.31674 11.729C5.51778 11.8021 5.74232 11.6977 5.81543 11.4966C5.88853 11.2956 5.7841 11.0711 5.58306 10.9979Z" fill="#FC8544"/>
<path d="M14.8855 17.1285C14.4391 17.3713 14.2746 17.9301 14.5174 18.3739C14.7602 18.8204 15.319 18.9849 15.7628 18.7421C16.2093 18.4993 16.3738 17.9405 16.131 17.4966C15.8881 17.0502 15.3294 16.8857 14.8855 17.1285Z" fill="#FC8544"/>
<path d="M16.3089 19.7447C16.0425 19.8909 15.9433 20.2225 16.0895 20.4915C16.2357 20.7578 16.5673 20.857 16.8363 20.7108C17.1052 20.5646 17.2018 20.233 17.0556 19.964C16.9094 19.6951 16.5778 19.5985 16.3089 19.7421V19.7447Z" fill="#FC8544"/>
<path d="M17.4704 21.8858C17.2824 21.9876 17.2119 22.2252 17.3137 22.4132C17.4156 22.6012 17.6532 22.6717 17.8411 22.5698C18.0291 22.468 18.0996 22.2304 17.9978 22.0424C17.896 21.8544 17.6584 21.7839 17.4704 21.8858Z" fill="#FC8544"/>
<path d="M11.5935 16.6794C11.228 16.3269 10.6458 16.3374 10.2933 16.7029C9.94082 17.0684 9.95127 17.6507 10.3168 18.0032C10.6823 18.3557 11.2646 18.3452 11.617 17.9797C11.9695 17.6141 11.9591 17.0319 11.5935 16.6794Z" fill="#FC8544"/>
<path d="M9.52299 18.8231C9.30367 18.6116 8.95642 18.6168 8.74494 18.8361C8.53346 19.0554 8.53868 19.4027 8.75799 19.6142C8.97731 19.8257 9.32456 19.8205 9.53605 19.6011C9.74753 19.3818 9.74231 19.0346 9.52299 18.8231Z" fill="#FC8544"/>
<path d="M7.28028 20.5828C7.13146 20.7369 7.13407 20.9823 7.29073 21.1338C7.44477 21.2826 7.6902 21.28 7.84163 21.1233C7.99045 20.9693 7.98784 20.7238 7.83119 20.5724C7.67714 20.4236 7.43172 20.4262 7.28028 20.5828Z" fill="#FC8544"/>
<g opacity="0.1">
<path d="M26.6845 11.81L24.5514 11.3427C24.8438 11.7004 24.6375 12.1755 23.9039 12.6064L19.7499 15.045C18.6142 15.7108 17.8805 17.3165 18.1207 18.609L19.105 23.9432C19.3426 25.2382 18.7108 25.609 17.6977 24.7682L13.3114 21.1259C12.2984 20.2852 10.489 20.0398 9.28797 20.5776L4.08964 22.9145C3.73717 23.0737 3.44475 23.1364 3.22021 23.1207L2.55965 24.4784C1.88865 25.8596 2.48393 26.4732 3.88338 25.844L9.95114 23.1155C11.3506 22.4863 13.4654 22.7735 14.6456 23.7552L19.763 28.0058C20.9431 28.9876 21.682 28.5541 21.4052 27.045L20.259 20.8231C19.9797 19.3139 20.836 17.4419 22.1598 16.6638L27.0056 13.8205C28.3294 13.0424 28.1858 12.139 26.6871 11.81H26.6845Z" fill="#723424"/>
</g>
<g opacity="0.3">
<path d="M4.41098 10.0893C5.5154 9.93267 6.61459 9.88306 7.71379 9.85956C7.98793 9.85695 8.26208 9.85173 8.53622 9.85434C8.80776 9.85173 9.10279 9.86739 9.30644 9.8465C9.75813 9.80473 10.2229 9.64546 10.6458 9.41831C11.0688 9.19115 11.4604 8.89089 11.7503 8.53841C11.826 8.44964 11.8834 8.36348 11.9513 8.26165L12.168 7.91178C12.3116 7.6794 12.4604 7.44964 12.6119 7.21987C13.2176 6.30342 13.8494 5.40264 14.5753 4.55408C14.2332 5.61674 13.7946 6.62718 13.3351 7.62457C13.2176 7.87261 13.1001 8.12066 12.9774 8.36609L12.7946 8.73423C12.7215 8.86739 12.638 9.01622 12.544 9.14154C12.3586 9.40003 12.1393 9.62718 11.9043 9.83084C11.6667 10.0267 11.4108 10.199 11.1393 10.3452C10.5962 10.6298 9.99834 10.8256 9.35344 10.8413C9.0088 10.8413 8.75815 10.8047 8.4814 10.7786C8.20986 10.7499 7.93572 10.716 7.66418 10.682C6.57543 10.5384 5.48929 10.3687 4.40576 10.0893H4.41098Z" fill="white"/>
</g>
</g>
<defs>
<clipPath id="clip0_2004_22451">
<rect width="27.8193" height="28" fill="white" transform="translate(0.0898438 0.533203)"/>
</clipPath>
</defs>
</svg>
