<svg width="29" height="29" viewBox="0 0 29 29" fill="none" xmlns="http://www.w3.org/2000/svg">
<g clip-path="url(#clip0_2004_20406)">
<path d="M28.427 11.2058C28.2437 10.6388 27.7408 10.2361 27.1459 10.1825L19.0643 9.4487L15.8686 1.96893C15.633 1.42076 15.0964 1.06592 14.5001 1.06592C13.9039 1.06592 13.3673 1.42075 13.1316 1.97021L9.93597 9.4487L1.85312 10.1825C1.25923 10.2374 0.757632 10.6388 0.573271 11.2058C0.38891 11.7728 0.559172 12.3946 1.00843 12.7866L7.11714 18.144L5.31582 26.0788C5.18402 26.6622 5.41046 27.2653 5.89454 27.6152C6.15474 27.8032 6.45916 27.8989 6.76615 27.8989C7.03083 27.8989 7.29338 27.8276 7.52902 27.6866L14.5001 23.5202L21.4687 27.6866C21.9786 27.9934 22.6214 27.9654 23.1045 27.6152C23.5888 27.2643 23.815 26.661 23.6832 26.0788L21.8819 18.144L27.9906 12.7877C28.4398 12.3946 28.6114 11.7738 28.427 11.2058Z" fill="#FFC107"/>
</g>
<defs>
<clipPath id="clip0_2004_20406">
<rect width="28" height="28" fill="white" transform="translate(0.5 0.465332)"/>
</clipPath>
</defs>
</svg>
