<svg width="19" height="18" viewBox="0 0 19 18" fill="none" xmlns="http://www.w3.org/2000/svg">
<path d="M10.9033 0.834227L12.9067 4.20347C12.989 4.34805 13.1008 4.47393 13.2349 4.57303C13.369 4.67213 13.5225 4.74226 13.6855 4.77892L17.5273 5.64209C17.8175 5.70562 18.086 5.84341 18.3061 6.04182C18.5263 6.24023 18.6904 6.49237 18.7822 6.77324C18.8741 7.05411 18.8905 7.35396 18.8299 7.64308C18.7692 7.93219 18.6336 8.20053 18.4364 8.4215L15.8308 11.3563C15.7229 11.4803 15.6415 11.6249 15.5917 11.7812C15.542 11.9376 15.5248 12.1023 15.5413 12.2655L15.9148 16.1613C15.9444 16.4557 15.8961 16.7528 15.7746 17.023C15.6532 17.2932 15.4627 17.5271 15.2222 17.7016C14.9817 17.8761 14.6994 17.985 14.4035 18.0177C14.1075 18.0503 13.8081 18.0055 13.535 17.8876L9.9132 16.2879C9.76153 16.2225 9.59795 16.1887 9.43261 16.1887C9.26727 16.1887 9.10369 16.2225 8.95202 16.2879L5.33893 17.8445C5.06578 17.9623 4.76638 18.0071 4.47042 17.9745C4.17446 17.9419 3.89222 17.8329 3.65171 17.6584C3.41119 17.484 3.22074 17.25 3.09926 16.9798C2.97778 16.7096 2.92948 16.4126 2.95915 16.1181L3.33262 12.2223C3.34912 12.0592 3.33195 11.8944 3.28217 11.7381C3.23239 11.5817 3.15105 11.4371 3.04311 11.3131L0.437517 8.37835C0.245379 8.15857 0.113453 7.8933 0.0544616 7.60812C-0.00453015 7.32293 0.0114012 7.02746 0.100718 6.75017C0.190035 6.47289 0.349725 6.22315 0.564394 6.02503C0.779063 5.82691 1.04147 5.6871 1.32631 5.61907L5.16812 4.7559C5.33122 4.72337 5.48573 4.65746 5.6218 4.56235C5.75787 4.46724 5.87253 4.34502 5.95848 4.20347L7.9619 0.834227C8.11292 0.580117 8.328 0.369528 8.58591 0.223236C8.84382 0.0769427 9.13565 0 9.43261 0C9.72957 0 10.0214 0.0769427 10.2793 0.223236C10.5372 0.369528 10.7523 0.580117 10.9033 0.834227Z" fill="url(#paint0_radial_5063_36937)"/>
<path d="M14.2089 17.7612C14.0094 17.7601 13.8123 17.718 13.6299 17.6375L10.011 16.0809C9.82838 16.0017 9.63125 15.9608 9.43199 15.9608C9.23272 15.9608 9.0356 16.0017 8.85297 16.0809L5.23987 17.6375C5.05751 17.718 4.86038 17.7601 4.66085 17.7612C4.45562 17.76 4.25289 17.7163 4.06551 17.6331C3.87813 17.5499 3.71018 17.4289 3.57229 17.2779C3.43492 17.1282 3.3309 16.9514 3.26704 16.759C3.20318 16.5666 3.18092 16.363 3.20172 16.1615L3.5694 12.26C3.58842 12.0637 3.56663 11.8655 3.50537 11.678C3.44411 11.4904 3.3447 11.3173 3.2133 11.1695L0.607703 8.23471C0.439088 8.04452 0.323253 7.81394 0.271611 7.5657C0.21997 7.31747 0.234306 7.06014 0.313207 6.81909C0.392109 6.57804 0.532852 6.36158 0.721564 6.19105C0.910276 6.02052 1.14044 5.9018 1.38938 5.8466L5.23119 4.98343C5.4252 4.94098 5.60835 4.8593 5.76922 4.74347C5.9301 4.62764 6.06527 4.48014 6.16631 4.31016L8.16683 0.938034C8.29701 0.719767 8.48211 0.538937 8.70394 0.413333C8.92577 0.28773 9.17668 0.22168 9.43199 0.22168C9.68729 0.22168 9.9382 0.28773 10.16 0.413333C10.3819 0.538937 10.567 0.719767 10.6971 0.938034L12.6977 4.31016C12.7987 4.48014 12.9339 4.62764 13.0947 4.74347C13.2556 4.8593 13.4388 4.94098 13.6328 4.98343L17.4746 5.8466C17.7235 5.9018 17.9537 6.02052 18.1424 6.19105C18.3311 6.36158 18.4719 6.57804 18.5508 6.81909C18.6297 7.06014 18.644 7.31747 18.5924 7.5657C18.5407 7.81394 18.4249 8.04452 18.2563 8.23471L15.6507 11.1695C15.5193 11.3173 15.4199 11.4904 15.3586 11.678C15.2973 11.8655 15.2755 12.0637 15.2946 12.26L15.668 16.1557C15.6888 16.3573 15.6666 16.5609 15.6027 16.7533C15.5389 16.9456 15.4348 17.1225 15.2975 17.2721C15.1601 17.4242 14.9924 17.5463 14.805 17.6305C14.6176 17.7147 14.4146 17.7592 14.2089 17.7612Z" fill="url(#paint1_radial_5063_36937)"/>
<g style="mix-blend-mode:multiply">
<path d="M17.4747 5.85207L17.3618 5.82617C16.1806 8.34376 14.4262 10.5736 12.0203 12.0698C9.65791 13.54 6.29669 14.3716 3.42764 13.753L3.19603 16.1612C3.17523 16.3627 3.19749 16.5663 3.26135 16.7587C3.32521 16.9511 3.42923 17.1279 3.56661 17.2776C3.7045 17.4287 3.87245 17.5496 4.05983 17.6328C4.24721 17.716 4.44994 17.7597 4.65517 17.761C4.85469 17.7598 5.05182 17.7177 5.23419 17.6372L8.85307 16.0806C9.0357 16.0014 9.23282 15.9605 9.43209 15.9605C9.63136 15.9605 9.82848 16.0014 10.0111 16.0806L13.6242 17.6372C13.8066 17.7177 14.0037 17.7598 14.2032 17.761C14.4085 17.7597 14.6112 17.716 14.7986 17.6328C14.9859 17.5496 15.1539 17.4287 15.2918 17.2776C15.4292 17.1279 15.5332 16.9511 15.597 16.7587C15.6609 16.5663 15.6832 16.3627 15.6624 16.1612L15.2947 12.2597C15.2757 12.0634 15.2974 11.8653 15.3587 11.6777C15.42 11.4901 15.5194 11.317 15.6508 11.1692L18.2564 8.23442C18.425 8.04423 18.5408 7.81365 18.5925 7.56541C18.6441 7.31718 18.6298 7.05985 18.5509 6.8188C18.472 6.57775 18.3312 6.36129 18.1425 6.19076C17.9538 6.02023 17.7236 5.90151 17.4747 5.84631V5.85207Z" fill="#FFF7B8"/>
</g>
<path d="M15.2976 17.0648C15.0918 17.2923 14.8191 17.4497 14.5183 17.5148C14.2175 17.5799 13.9037 17.5493 13.6214 17.4274L10.0112 15.8708C9.82889 15.7902 9.63162 15.7485 9.43213 15.7485C9.23264 15.7485 9.03538 15.7902 8.85311 15.8708L5.24291 17.4389C4.96055 17.5608 4.64676 17.5914 4.34594 17.5263C4.04512 17.4612 3.7725 17.3038 3.56665 17.0763C3.34757 16.8391 3.21679 16.5345 3.19607 16.2132C3.1802 16.4091 3.2049 16.6062 3.26863 16.7922C3.33237 16.9783 3.43379 17.1494 3.56665 17.295C3.70454 17.4461 3.87249 17.567 4.05987 17.6503C4.24725 17.7335 4.44998 17.7771 4.65521 17.7784C4.85473 17.7772 5.05186 17.7351 5.23423 17.6547L8.85311 16.0808C9.03574 16.0016 9.23286 15.9607 9.43213 15.9607C9.6314 15.9607 9.82852 16.0016 10.0112 16.0808L13.6242 17.6374C13.8066 17.7179 14.0037 17.76 14.2033 17.7611C14.4085 17.7598 14.6112 17.7162 14.7986 17.633C14.986 17.5498 15.1539 17.4288 15.2918 17.2777C15.4247 17.1321 15.5261 16.961 15.5898 16.775C15.6536 16.5889 15.6783 16.3918 15.6624 16.1959C15.6423 16.518 15.5138 16.824 15.2976 17.0648Z" fill="#FFA900"/>
<path d="M3.57252 12.0295C3.58794 11.8368 3.5641 11.6429 3.50242 11.4595C3.44074 11.2761 3.34249 11.1069 3.21353 10.9621L0.607932 8.03016C0.392901 7.79091 0.264506 7.48709 0.24315 7.16699C0.228903 7.35969 0.25386 7.55327 0.316533 7.73617C0.379206 7.91908 0.478309 8.08756 0.607932 8.23157L3.21353 11.1664C3.42533 11.4071 3.55149 11.7104 3.57252 12.0295Z" fill="#FFA900"/>
<path d="M18.2563 8.03027L15.6507 10.9622C15.5217 11.107 15.4234 11.2762 15.3618 11.4596C15.3001 11.643 15.2762 11.8369 15.2917 12.0296C15.3127 11.7105 15.4389 11.4072 15.6507 11.1665L18.2563 8.23168C18.3852 8.08836 18.4838 7.92082 18.5465 7.73896C18.6092 7.5571 18.6345 7.36461 18.621 7.17285C18.5984 7.49094 18.4701 7.79254 18.2563 8.03027Z" fill="#FFA900"/>
<path d="M3.56933 12.5043C3.57801 12.422 3.57801 12.3391 3.56933 12.2568L3.19586 16.1526C3.18862 16.2378 3.18862 16.3235 3.19586 16.4087V16.3914L3.56933 12.5043Z" fill="#FFFF53"/>
<path d="M0.312192 7.06329C0.389337 6.82113 0.529622 6.60358 0.718786 6.43277C0.90795 6.26196 1.13925 6.14396 1.38917 6.09078L5.23098 5.22761C5.42524 5.18483 5.60854 5.10271 5.76943 4.98637C5.93032 4.87004 6.06535 4.72198 6.1661 4.55146L8.16662 1.18222C8.2968 0.963948 8.4819 0.783118 8.70373 0.657515C8.92556 0.531911 9.17647 0.465861 9.43178 0.465861C9.68708 0.465861 9.93799 0.531911 10.1598 0.657515C10.3816 0.783118 10.5668 0.963948 10.6969 1.18222L12.6975 4.55434C12.7992 4.72378 12.9345 4.87086 13.0953 4.98661C13.2561 5.10237 13.4389 5.18436 13.6326 5.22761L17.4744 6.09078C17.7243 6.14396 17.9556 6.26196 18.1448 6.43277C18.3339 6.60358 18.4742 6.82113 18.5514 7.06329C18.5874 7.17334 18.6098 7.28736 18.6179 7.4028C18.6489 7.05046 18.55 6.69894 18.3396 6.41365C18.1293 6.12837 17.8218 5.92876 17.4744 5.85197L13.6326 4.9888C13.4386 4.94635 13.2554 4.86467 13.0945 4.74884C12.9337 4.63302 12.7985 4.48552 12.6975 4.31553L10.6969 0.943404C10.5668 0.725137 10.3816 0.544308 10.1598 0.418705C9.93799 0.293101 9.68708 0.227051 9.43178 0.227051C9.17647 0.227051 8.92556 0.293101 8.70373 0.418705C8.4819 0.544308 8.2968 0.725137 8.16662 0.943404L6.1661 4.31553C6.06506 4.48552 5.92989 4.63302 5.76901 4.74884C5.60814 4.86467 5.42499 4.94635 5.23098 4.9888L1.38917 5.85197C1.03857 5.9258 0.727254 6.12455 0.513932 6.41076C0.300609 6.69697 0.200019 7.05085 0.231129 7.40568C0.243692 7.28864 0.270924 7.17362 0.312192 7.06329Z" fill="#FFFF53"/>
<path d="M15.2946 12.2598C15.2859 12.342 15.2859 12.425 15.2946 12.5072L15.6681 16.403V16.4203C15.6753 16.335 15.6753 16.2494 15.6681 16.1642L15.2946 12.2598Z" fill="#FFFF53"/>
<path d="M8.27354 1.99645C7.89428 2.62944 7.85374 3.29983 8.18089 3.48973C8.50804 3.67963 9.07838 3.32573 9.45474 2.69274C9.83111 2.05975 9.87453 1.38935 9.54738 1.19657C9.22024 1.0038 8.63543 1.36345 8.27354 1.99645Z" fill="white"/>
<path d="M7.08409 4.3444C7.0634 4.42042 7.06449 4.50068 7.08722 4.57613C7.10996 4.65158 7.15343 4.71922 7.21276 4.77143C7.27209 4.82365 7.3449 4.85836 7.42301 4.87167C7.50112 4.88498 7.58141 4.87635 7.65485 4.84675C7.72829 4.81715 7.79196 4.76776 7.83868 4.70415C7.88539 4.64053 7.91331 4.56522 7.91929 4.48668C7.92526 4.40815 7.90905 4.32952 7.87249 4.25964C7.83592 4.18977 7.78045 4.13143 7.71233 4.0912C7.59505 4.04385 7.46381 4.04382 7.34651 4.0911C7.2292 4.13837 7.13506 4.22924 7.08409 4.3444Z" fill="white"/>
<path d="M1.45603 7.02325C1.44072 7.08067 1.44183 7.1412 1.45924 7.19802C1.47664 7.25485 1.50964 7.30573 1.55454 7.34494C1.59944 7.38415 1.65445 7.41014 1.71339 7.41999C1.77233 7.42984 1.83287 7.42316 1.8882 7.40069C1.94354 7.37822 1.99147 7.34087 2.02661 7.29282C2.06175 7.24477 2.08272 7.18793 2.08714 7.1287C2.09157 7.06946 2.07929 7.01017 2.05167 6.95749C2.02406 6.9048 1.98221 6.86082 1.93083 6.83048C1.84194 6.79556 1.74292 6.79612 1.65445 6.83204C1.56597 6.86796 1.49488 6.93647 1.45603 7.02325Z" fill="#FFFE52"/>
<path d="M13.4653 15.459C13.2511 15.8157 13.3003 16.2358 13.5754 16.3969C13.8504 16.5581 14.2412 16.3969 14.4439 16.0402C14.5521 15.9009 14.6012 15.7251 14.5807 15.5503C14.5601 15.3755 14.4715 15.2157 14.3339 15.1051C14.0646 14.9439 13.6767 15.1022 13.4653 15.459Z" fill="#FFD605"/>
<defs>
<radialGradient id="paint0_radial_5063_36937" cx="0" cy="0" r="1" gradientUnits="userSpaceOnUse" gradientTransform="translate(9.31391 7.56696) scale(10.4745 10.4098)">
<stop stop-color="#FFFF53"/>
<stop offset="0.18" stop-color="#FFFB50"/>
<stop offset="0.36" stop-color="#FFEF48"/>
<stop offset="0.54" stop-color="#FFDA3A"/>
<stop offset="0.73" stop-color="#FFBE27"/>
<stop offset="0.91" stop-color="#FF990E"/>
<stop offset="1" stop-color="#FF8400"/>
</radialGradient>
<radialGradient id="paint1_radial_5063_36937" cx="0" cy="0" r="1" gradientUnits="userSpaceOnUse" gradientTransform="translate(9.31618 7.60459) scale(10.2024 10.1394)">
<stop stop-color="#FFFF53"/>
<stop offset="0.22" stop-color="#FFFC4F"/>
<stop offset="0.44" stop-color="#FFF143"/>
<stop offset="0.66" stop-color="#FFE12E"/>
<stop offset="0.88" stop-color="#FFC912"/>
<stop offset="1" stop-color="#FFBA00"/>
</radialGradient>
</defs>
</svg>
