<svg width="25" height="24" viewBox="0 0 25 24" fill="none" xmlns="http://www.w3.org/2000/svg">
<path fill-rule="evenodd" clip-rule="evenodd" d="M12.3333 10C13.9901 10 15.3333 8.65685 15.3333 7C15.3333 5.34315 13.9901 4 12.3333 4C10.6764 4 9.33325 5.34315 9.33325 7C9.33325 8.65685 10.6764 10 12.3333 10ZM12.3333 12C15.0947 12 17.3333 9.76142 17.3333 7C17.3333 4.23858 15.0947 2 12.3333 2C9.57183 2 7.33325 4.23858 7.33325 7C7.33325 9.76142 9.57183 12 12.3333 12Z" fill="#6F767E"/>
<path fill-rule="evenodd" clip-rule="evenodd" d="M9.33325 16C7.12411 16 5.33325 17.7909 5.33325 20V21C5.33325 21.5523 4.88554 22 4.33325 22C3.78097 22 3.33325 21.5523 3.33325 21V20C3.33325 16.6863 6.01954 14 9.33325 14H15.3333C18.647 14 21.3333 16.6863 21.3333 20V21C21.3333 21.5523 20.8855 22 20.3333 22C19.781 22 19.3333 21.5523 19.3333 21V20C19.3333 17.7909 17.5424 16 15.3333 16H9.33325Z" fill="#6F767E"/>
</svg>
