<svg width="24" height="24" viewBox="0 0 24 24" fill="none" xmlns="http://www.w3.org/2000/svg">
<path fill-rule="evenodd" clip-rule="evenodd" d="M15.8096 14.3925C16.0438 14.2154 16.252 14.0038 16.4267 13.7633C16.7991 13.2508 16.9997 12.6335 16.9997 12C16.9997 11.3664 16.7991 10.7492 16.4267 10.2366C16.2519 9.99607 16.0435 9.78438 15.8092 9.6072C15.7523 9.56409 15.6976 9.51731 15.6459 9.46739C15.5985 9.42162 15.5537 9.37322 15.5119 9.32259C15.2473 9.00149 15.1074 8.59076 15.2357 8.19576C15.4064 7.6705 15.9778 7.37483 16.4587 7.64646C16.6524 7.75587 16.8385 7.87801 17.0156 8.012M17.0156 8.012C17.406 8.30723 17.7535 8.66022 18.0448 9.06106C18.6654 9.91529 18.9997 10.9441 18.9997 12C18.9997 13.0559 18.6654 14.0847 18.0448 14.9389C17.7535 15.3398 17.4061 15.6927 17.0156 15.988C16.8385 16.122 16.6524 16.2441 16.4587 16.3535C15.9778 16.6251 15.4064 16.3295 15.2357 15.8042C15.1074 15.4092 15.2473 14.9985 15.5119 14.6774C15.5537 14.6267 15.5985 14.5783 15.6459 14.5326C15.6976 14.4827 15.7526 14.4356 15.8096 14.3925" fill="white"/>
<path fill-rule="evenodd" clip-rule="evenodd" d="M17.8876 17.2596C18.6588 16.8362 19.3317 16.246 19.8542 15.5268C20.5989 14.5017 21.0001 13.2671 21.0001 12.0001C21.0001 10.733 20.5989 9.49844 19.8542 8.47335C19.3064 7.71944 18.5935 7.10727 17.7752 6.68039C17.7739 6.67972 17.7726 6.67906 17.7713 6.67839C17.7359 6.65974 17.7015 6.63951 17.6682 6.61782C17.6321 6.59427 17.5973 6.569 17.564 6.54218C17.2063 6.25418 17.0188 5.78705 17.1632 5.34267C17.3339 4.81741 17.9017 4.52437 18.4015 4.75919C18.5022 4.80648 18.6018 4.85582 18.7002 4.90717C19.7912 5.47632 20.7418 6.29252 21.4722 7.29778C22.4652 8.66456 23.0001 10.3106 23.0001 12.0001C23.0001 13.6895 22.4652 15.3356 21.4722 16.7023C20.7418 17.7076 19.7912 18.5238 18.7002 19.093C18.6018 19.1443 18.5022 19.1936 18.4015 19.2409C17.9017 19.4758 17.3339 19.1827 17.1632 18.6575C17.0188 18.2131 17.2063 17.7459 17.564 17.4579C17.5973 17.4311 17.6321 17.4059 17.6682 17.3823C17.7015 17.3606 17.7359 17.3404 17.7713 17.3217C17.7726 17.3211 17.7739 17.3204 17.7752 17.3197C17.8129 17.3001 17.8503 17.28 17.8876 17.2596Z" fill="white"/>
<path fill-rule="evenodd" clip-rule="evenodd" d="M6 14.9999C6.48445 14.9999 6.95243 15.1758 7.31701 15.4948L12 19.5924L12 4.40746L7.31701 8.50507C6.95243 8.82408 6.48445 8.99992 6 8.99992H4C3.44772 8.99992 3 9.44764 3 9.99992V13.9999C3 14.5522 3.44772 14.9999 4 14.9999H6ZM6 16.9999L10.683 21.0975C11.9762 22.2291 14 21.3107 14 19.5924V4.40746C14 2.68914 11.9762 1.77078 10.683 2.9023L6 6.99992H4C2.34315 6.99992 1 8.34307 1 9.99992V13.9999C1 15.6568 2.34315 16.9999 4 16.9999H6Z" fill="white"/>
</svg>
