<svg width="32" height="32" viewBox="0 0 32 32" fill="none" xmlns="http://www.w3.org/2000/svg">
<path fill-rule="evenodd" clip-rule="evenodd" d="M15.9998 29.3334C23.3636 29.3334 29.3332 23.3639 29.3332 16.0001C29.3332 8.63628 23.3636 2.66675 15.9998 2.66675C8.63604 2.66675 2.6665 8.63628 2.6665 16.0001C2.6665 23.3639 8.63604 29.3334 15.9998 29.3334ZM11.057 20.9429C10.5363 20.4222 10.5363 19.578 11.057 19.0573L14.1143 16L11.0572 12.9429C10.5365 12.4222 10.5365 11.578 11.0572 11.0573C11.5779 10.5366 12.4221 10.5366 12.9428 11.0573L15.9999 14.1144L19.057 11.0573C19.5777 10.5366 20.4219 10.5366 20.9426 11.0573C21.4633 11.578 21.4633 12.4222 20.9426 12.9429L17.8855 16L20.9428 19.0573C21.4635 19.578 21.4635 20.4222 20.9428 20.9429C20.4221 21.4636 19.5779 21.4636 19.0572 20.9429L15.9999 17.8857L12.9426 20.9429C12.4219 21.4636 11.5777 21.4636 11.057 20.9429Z" fill="white"/>
</svg>
