<svg width="25" height="24" viewBox="0 0 25 24" fill="none" xmlns="http://www.w3.org/2000/svg">
<path d="M7.20708 5.29289C6.81655 4.90237 6.18339 4.90237 5.79286 5.29289C5.40234 5.68342 5.40234 6.31658 5.79286 6.70711L11.0857 12L5.79277 17.2929C5.40225 17.6834 5.40225 18.3166 5.79277 18.7071C6.1833 19.0976 6.81646 19.0976 7.20698 18.7071L12.4999 13.4142L17.7929 18.7071C18.1834 19.0976 18.8166 19.0976 19.2071 18.7071C19.5976 18.3166 19.5976 17.6834 19.2071 17.2929L13.9141 12L19.207 6.70711C19.5975 6.31658 19.5975 5.68342 19.207 5.29289C18.8165 4.90237 18.1833 4.90237 17.7928 5.29289L12.4999 10.5857L7.20708 5.29289Z" fill="#F74A4A"/>
</svg>
