<svg width="375" height="1087" viewBox="0 0 375 1087" fill="none" xmlns="http://www.w3.org/2000/svg">
<g clip-path="url(#clip0_481_4431)">
<rect width="375" height="1055" fill="url(#paint0_linear_481_4431)"/>
<path d="M-1004 1057C-1004 1057 -621.687 810 -241.006 810C139.675 810 498 1057 498 1057H-1004Z" fill="#D5F7C1"/>
<path d="M-191.438 989.653C-182.457 978.666 -171.581 968.183 -159.511 958.006C-147.111 947.97 -133.187 938.409 -117.945 929.379C-87.2129 911.403 -50.7137 895.887 -10.7127 883.139C9.30832 876.793 30.2357 871.146 51.7398 866.225C61.05 864.101 70.525 862.144 80 860.355C43.5 850.019 6.49997 839.501 -43.5 830C-92.8112 840.148 -147.688 858.509 -192.056 876.961C-214.59 886.438 -236.176 897.033 -256.362 908.691C-276.218 920.517 -294.921 933.237 -311.482 946.936C-344.644 974.389 -369.609 1005.31 -386.828 1037.26L-387.364 1038.21C-388.641 1040.65 -389.589 1043.16 -390.248 1045.76C-391.154 1049.56 -391.195 1053.31 -390.618 1057H-225.795C-219.821 1033.63 -208.822 1010.93 -191.438 989.653Z" fill="#C7F4B4"/>
<path d="M-46 1087C-46 1087 211.069 919 467.059 919C723.049 919 964 1087 964 1087H-46Z" fill="#E2FFD2"/>
<path d="M544.504 1028.33C531.96 1017.47 517.726 1007.37 502.593 997.964C487.173 988.667 470.638 980.189 453.313 972.551C418.447 957.344 380.273 945.729 340.95 937.228C335.702 936.091 330.418 935.023 325.134 934C300.908 939.023 277.112 945.047 254 951.775C258.493 952.639 262.95 953.571 267.407 954.526C285.02 958.345 302.202 962.754 318.7 967.8C351.697 977.87 382.107 990.327 408.059 1004.99C420.963 1012.35 432.824 1020.19 443.464 1028.49C453.852 1036.9 463.27 1045.63 471.177 1054.79C480.092 1065.13 487.173 1075.93 492.744 1087H594C581.743 1066.34 565.388 1046.43 544.504 1028.35V1028.33Z" fill="#D8F9CB"/>
<path d="M263.936 948.577C261.956 944.829 257.025 942.883 255.909 938.703C254.721 934.306 258.357 930.739 259.688 926.919C260.876 923.532 260.984 919.856 259.94 916.396C257.961 909.802 251.949 905.009 247.737 900.108C244.894 896.829 242.914 892.18 244.57 888.18C245.146 886.847 246.046 885.694 246.766 884.396C249.537 879.351 248.277 872.649 244.462 868.324C240.646 864.036 234.671 861.982 228.911 862.198C223.152 861.982 217.176 864 213.361 868.324C209.545 872.613 208.285 879.315 211.057 884.396C211.741 885.658 212.677 886.847 213.253 888.18C214.909 892.18 212.929 896.829 210.085 900.108C205.837 905.009 199.862 909.802 197.882 916.396C196.838 919.856 196.946 923.532 198.134 926.919C199.502 930.775 203.102 934.306 201.914 938.703C200.798 942.883 195.902 944.829 193.886 948.577C191.439 953.189 192.015 959.135 194.678 963.532C197.81 968.757 203.39 972.108 209.221 973.802C215.053 975.496 222.828 975.712 228.911 975.928C234.995 975.712 242.77 975.496 248.601 973.802C254.433 972.108 260.012 968.757 263.144 963.532C265.808 959.135 266.384 953.189 263.936 948.577Z" fill="#D2F6BC"/>
<path d="M244.642 942.09C244.174 941.622 243.382 941.622 242.914 942.09L230.171 954.847V922.451L244.534 908.072C245.002 907.604 245.002 906.811 244.534 906.342C244.066 905.874 243.274 905.874 242.806 906.342L230.171 918.991V905.622C230.171 904.937 229.631 904.396 228.947 904.396C228.263 904.396 227.723 904.937 227.723 905.622V935.532L209.293 917.081C208.825 916.613 208.033 916.613 207.565 917.081C207.097 917.55 207.097 918.342 207.565 918.811L227.723 938.991V964.829L213.109 950.198C212.641 949.73 211.849 949.73 211.381 950.198C210.913 950.667 210.913 951.46 211.381 951.928L227.723 968.288V993.766C227.723 994.451 228.263 994.991 228.947 994.991C229.631 994.991 230.171 994.451 230.171 993.766V958.27L244.642 943.784C245.11 943.315 245.11 942.523 244.642 942.054V942.09Z" fill="#FEFFFD"/>
<path d="M60.8909 791.021C71.33 792.03 77.7734 796.534 79.6452 807.417C81.0491 815.417 86.9885 817.724 91.0561 823.922C95.3037 830.336 90.5522 833.615 91.1641 839.85C91.4521 842.913 94.0439 845.111 95.8797 847.561C100.847 854.156 100.523 864.102 95.4118 870.552C91.6321 875.309 85.6207 877.976 79.6092 878.084C73.3098 878.192 68.2702 873.94 62.1508 873.651C55.4194 873.327 49.9479 878.588 43.3605 879.129C26.1541 880.57 16.615 856.534 26.91 844.606C28.9978 842.192 31.6616 839.417 32.4175 836.21C33.3534 832.282 30.9777 829.435 30.4017 825.651C28.8179 815.814 40.0848 811.345 45.0524 805.003C47.0682 802.408 48.4361 799.381 50.4879 796.787C52.5037 794.228 57.6512 790.697 60.8909 791.021Z" fill="#CFF6BF"/>
<path d="M79.1414 846.156C78.5655 845.579 77.6296 845.579 77.0896 846.156L62.511 860.751V842.733L70.8622 834.372C71.4381 833.796 71.4381 832.859 70.8622 832.318C70.2862 831.742 69.3503 831.742 68.8104 832.318L62.511 838.624V825.435C62.511 824.642 61.863 823.958 61.0351 823.958C60.2072 823.958 59.5592 824.606 59.5592 825.435V850.192L46.4564 837.075C45.8805 836.498 44.9446 836.498 44.4046 837.075C43.8287 837.651 43.8287 838.588 44.4046 839.129L59.5952 854.336V896.787C59.5952 897.579 60.2432 898.264 61.0711 898.264C61.899 898.264 62.5469 897.615 62.5469 896.787V864.931L79.1774 848.282C79.7534 847.706 79.7534 846.769 79.1774 846.228L79.1414 846.156Z" fill="#EAFFE3"/>
<path d="M61 1055.36C61.6292 1045.44 69.5527 1029.62 79.294 1027.8C89.0353 1025.95 99.6854 1031.44 103.88 1040.44C110.149 1024.81 125.227 1013.91 141.4 1009.32C151.561 1006.45 162.747 1005.82 172.512 1009.9C182.253 1013.98 190.13 1023.5 190.153 1034.1C195.117 1028.59 206.024 1031.51 207.585 1038.76C213.085 1029.62 224.784 1024.72 235.154 1027.19C245.525 1029.66 254.054 1035.29 254.87 1045.93C255.173 1041.91 259.88 1043.69 263.772 1044.74C267.664 1045.76 270.577 1052.34 273.257 1055.36H61Z" fill="#FCFCFD"/>
<path d="M508.4 1046.03C504.182 1035.78 487.24 1034.61 481.67 1044.2C483.744 1027.19 470.204 1009.81 453.192 1007.71C436.203 1005.61 418.818 1019.17 416.72 1036.18C413.691 1028.29 400.407 1027.73 396.748 1035.36C395.583 1029.85 389.967 1025.65 384.374 1026.14C378.781 1026.61 373.933 1031.7 373.724 1037.32C371.999 1028.17 369.272 1018.89 363.237 1011.82C346.527 992.192 319.75 1009.04 309.613 1026.31C308.891 1027.54 300.478 1041.43 300.571 1041.54C296.19 1035.9 287.614 1034.01 281.275 1037.3C274.936 1040.59 271.534 1048.69 273.608 1055.55H527.58L508.423 1046.03H508.4Z" fill="#FCFCFD"/>
<path d="M-153 1054.89C-152.091 1051.09 -148.829 1047.96 -145.007 1047.19C-141.185 1046.42 -136.967 1048.01 -134.636 1051.16C-132.818 1048.41 -130.861 1045.54 -127.971 1043.93C-125.081 1042.32 -120.933 1042.46 -118.952 1045.12C-118.859 1036.81 -113.802 1028.74 -106.344 1025.05C-95.4613 1019.66 -80.896 1023.11 -78.519 1036.2C-77.0042 1025.21 -74.3009 1013.52 -66.0744 1006.06C-59.7822 1000.34 -51.9286 999.102 -43.7487 999.009C-38.715 998.939 -33.588 999.265 -28.9271 1001.13C-16.0397 1006.27 -10.4 1021.06 -6.1819 1034.29C-1.87057 1024.7 9.94478 1019.22 20.0356 1022.11C30.1264 1024.98 37.2809 1035.88 35.9292 1046.31C39.0986 1042.41 44.3654 1040.33 49.3293 1040.99C54.2931 1041.64 61.9137 1047.85 60.8883 1054.94H-152.977L-153 1054.89Z" fill="#FCFCFD"/>
</g>
<defs>
<linearGradient id="paint0_linear_481_4431" x1="187.5" y1="0" x2="187.5" y2="1055" gradientUnits="userSpaceOnUse">
<stop stop-color="#D6FFC6" stop-opacity="0"/>
<stop offset="0.48567" stop-color="#CFFABF" stop-opacity="0.28492"/>
<stop offset="1" stop-color="#BDEEAD"/>
</linearGradient>
<clipPath id="clip0_481_4431">
<rect width="375" height="1055" fill="white"/>
</clipPath>
</defs>
</svg>
