<svg width="1440" height="775" viewBox="0 0 1440 775" fill="none" xmlns="http://www.w3.org/2000/svg">
<g clip-path="url(#clip0_361_9260)">
<rect x="-240" width="1920" height="775.836" fill="url(#paint0_linear_361_9260)"/>
<path d="M-423 771C-423 771 -40.6872 524 339.994 524C720.675 524 1079 771 1079 771H-423Z" fill="#D5F7C1"/>
<path d="M389.562 703.653C398.543 692.666 409.419 682.183 421.489 672.006C433.889 661.97 447.813 652.409 463.055 643.379C493.787 625.403 530.286 609.887 570.287 597.139C590.308 590.793 611.236 585.146 632.74 580.225C642.05 578.101 651.525 576.144 661 574.355C624.5 564.019 587.5 553.501 537.5 544C488.189 554.148 433.312 572.509 388.944 590.961C366.41 600.438 344.824 611.033 324.638 622.691C304.782 634.517 286.079 647.237 269.518 660.936C236.356 688.389 211.391 719.309 194.172 751.263L193.636 752.213C192.359 754.645 191.411 757.162 190.752 759.762C189.846 763.564 189.805 767.31 190.382 771H355.205C361.179 747.628 372.178 724.928 389.562 703.653Z" fill="#C7F4B4"/>
<path d="M670 801C670 801 927.069 633 1183.06 633C1439.05 633 1680 801 1680 801H670Z" fill="#E2FFD2"/>
<path d="M1260.5 742.332C1247.96 731.467 1233.73 721.375 1218.59 711.964C1203.17 702.667 1186.64 694.189 1169.31 686.551C1134.45 671.344 1096.27 659.729 1056.95 651.228C1051.7 650.091 1046.42 649.023 1041.13 648C1016.91 653.023 993.112 659.047 970 665.775C974.493 666.639 978.95 667.571 983.407 668.526C1001.02 672.345 1018.2 676.754 1034.7 681.8C1067.7 691.87 1098.11 704.327 1124.06 718.988C1136.96 726.353 1148.82 734.195 1159.46 742.491C1169.85 750.902 1179.27 759.63 1187.18 768.791C1196.09 779.133 1203.17 789.93 1208.74 801H1310C1297.74 780.338 1281.39 760.426 1260.5 742.355V742.332Z" fill="#D8F9CB"/>
<path d="M1172.88 594.793C1170.83 590.901 1165.75 588.883 1164.6 584.559C1163.38 580.018 1167.12 576.342 1168.52 572.342C1169.75 568.847 1169.85 565.027 1168.81 561.459C1166.76 554.613 1160.53 549.676 1156.18 544.595C1153.26 541.207 1151.17 536.378 1152.9 532.234C1153.48 530.829 1154.45 529.64 1155.17 528.306C1158.05 523.081 1156.75 516.126 1152.79 511.694C1148.83 507.225 1142.64 505.135 1136.67 505.351C1130.73 505.135 1124.5 507.225 1120.54 511.694C1116.58 516.162 1115.28 523.081 1118.16 528.306C1118.88 529.64 1119.86 530.829 1120.43 532.234C1122.16 536.378 1120.07 541.171 1117.16 544.595C1112.76 549.676 1106.57 554.649 1104.52 561.459C1103.44 565.027 1103.55 568.847 1104.81 572.342C1106.21 576.306 1109.96 580.018 1108.73 584.559C1107.58 588.883 1102.51 590.901 1100.45 594.793C1097.93 599.586 1098.51 605.712 1101.25 610.288C1104.48 615.694 1110.28 619.153 1116.33 620.919C1122.38 622.685 1130.4 622.901 1136.7 623.117C1143 622.901 1151.03 622.685 1157.08 620.919C1163.12 619.153 1168.88 615.694 1172.16 610.288C1174.89 605.712 1175.51 599.586 1172.95 594.793H1172.88Z" fill="#D2F6BC"/>
<path d="M1152.9 588.09C1152.4 587.586 1151.6 587.586 1151.1 588.09L1137.89 601.315V567.766L1152.76 552.883C1153.26 552.378 1153.26 551.586 1152.76 551.081C1152.25 550.577 1151.46 550.577 1150.96 551.081L1137.85 564.198V550.36C1137.85 549.676 1137.28 549.099 1136.59 549.099C1135.91 549.099 1135.33 549.676 1135.33 550.36V581.315L1116.26 562.216C1115.75 561.712 1114.96 561.712 1114.46 562.216C1113.95 562.721 1113.95 563.514 1114.46 564.018L1135.33 584.919V611.658L1120.22 596.523C1119.71 596.018 1118.92 596.018 1118.42 596.523C1117.91 597.027 1117.91 597.82 1118.42 598.324L1135.33 615.261V641.64C1135.33 642.324 1135.91 642.901 1136.59 642.901C1137.28 642.901 1137.85 642.324 1137.85 641.64V604.919L1152.86 589.892C1153.37 589.387 1153.37 588.595 1152.86 588.09H1152.9Z" fill="#FEFFFD"/>
<path d="M237.072 503.381C234.408 498.336 227.785 495.705 226.273 490.084C224.689 484.174 229.549 479.381 231.385 474.192C233.005 469.651 233.113 464.678 231.745 460.03C229.081 451.129 220.982 444.678 215.294 438.048C211.479 433.615 208.815 427.381 211.047 421.976C211.803 420.174 213.062 418.624 213.998 416.894C217.742 410.084 216.05 401.075 210.903 395.273C205.755 389.471 197.692 386.732 189.953 387.021C182.213 386.732 174.15 389.471 169.002 395.273C163.855 401.075 162.163 410.084 165.907 416.894C166.843 418.624 168.103 420.174 168.858 421.976C171.09 427.381 168.427 433.615 164.611 438.048C158.923 444.678 150.824 451.093 148.16 460.03C146.756 464.678 146.9 469.651 148.52 474.192C150.356 479.381 155.216 484.174 153.632 490.084C152.12 495.705 145.497 498.336 142.833 503.381C139.521 509.615 140.313 517.579 143.877 523.525C148.088 530.552 155.612 535.093 163.495 537.363C171.342 539.633 181.817 539.958 190.025 540.21C198.196 539.921 208.671 539.633 216.554 537.363C224.401 535.093 231.925 530.552 236.172 523.525C239.736 517.579 240.528 509.615 237.216 503.381H237.072Z" fill="#CFF6BF"/>
<path d="M211.083 494.66C210.435 494.012 209.391 494.012 208.743 494.66L191.572 511.849V468.21L210.939 448.822C211.587 448.174 211.587 447.129 210.939 446.48C210.291 445.831 209.247 445.831 208.599 446.48L191.572 463.525V445.543C191.572 444.642 190.852 443.885 189.916 443.885C188.981 443.885 188.261 444.606 188.261 445.543V485.831L163.423 460.967C162.775 460.318 161.731 460.318 161.083 460.967C160.435 461.615 160.435 462.66 161.083 463.309L188.225 490.48V525.291L168.534 505.579C167.886 504.931 166.843 504.931 166.195 505.579C165.547 506.228 165.547 507.273 166.195 507.922L188.189 529.94V564.282C188.189 565.183 188.909 565.94 189.845 565.94C190.78 565.94 191.5 565.219 191.5 564.282V516.498L211.011 496.967C211.659 496.318 211.659 495.273 211.011 494.624L211.083 494.66Z" fill="#EAFFE3"/>
<path d="M979.936 662.577C977.956 658.829 973.025 656.883 971.909 652.703C970.721 648.306 974.357 644.739 975.688 640.919C976.876 637.532 976.984 633.856 975.94 630.396C973.961 623.802 967.949 619.009 963.737 614.108C960.894 610.829 958.914 606.18 960.57 602.18C961.146 600.847 962.046 599.694 962.766 598.396C965.537 593.351 964.277 586.649 960.462 582.324C956.646 578.036 950.671 575.982 944.911 576.198C939.152 575.982 933.176 578 929.361 582.324C925.545 586.613 924.285 593.315 927.057 598.396C927.741 599.658 928.677 600.847 929.253 602.18C930.909 606.18 928.929 610.829 926.085 614.108C921.837 619.009 915.862 623.802 913.882 630.396C912.838 633.856 912.946 637.532 914.134 640.919C915.502 644.775 919.102 648.306 917.914 652.703C916.798 656.883 911.902 658.829 909.886 662.577C907.439 667.189 908.015 673.135 910.678 677.531C913.81 682.757 919.39 686.108 925.221 687.802C931.053 689.495 938.828 689.712 944.911 689.928C950.995 689.712 958.77 689.495 964.601 687.802C970.433 686.108 976.012 682.757 979.144 677.531C981.808 673.135 982.384 667.189 979.936 662.577Z" fill="#D2F6BC"/>
<path d="M960.642 656.09C960.174 655.622 959.382 655.622 958.914 656.09L946.171 668.847V636.45L960.534 622.072C961.002 621.604 961.002 620.811 960.534 620.342C960.066 619.874 959.274 619.874 958.806 620.342L946.171 632.991V619.622C946.171 618.937 945.631 618.396 944.947 618.396C944.263 618.396 943.723 618.937 943.723 619.622V649.531L925.293 631.081C924.825 630.613 924.033 630.613 923.565 631.081C923.097 631.55 923.097 632.342 923.565 632.811L943.723 652.991V678.829L929.109 664.198C928.641 663.73 927.849 663.73 927.381 664.198C926.913 664.667 926.913 665.459 927.381 665.928L943.723 682.288V707.766C943.723 708.45 944.263 708.991 944.947 708.991C945.631 708.991 946.171 708.45 946.171 707.766V672.27L960.642 657.784C961.11 657.315 961.11 656.522 960.642 656.054V656.09Z" fill="#FEFFFD"/>
<path d="M641.891 505.021C652.33 506.03 658.774 510.534 660.645 521.417C662.049 529.417 667.989 531.724 672.056 537.922C676.304 544.336 671.552 547.615 672.164 553.85C672.452 556.913 675.044 559.111 676.88 561.561C681.848 568.156 681.524 578.102 676.412 584.552C672.632 589.309 666.621 591.976 660.609 592.084C654.31 592.192 649.27 587.94 643.151 587.651C636.42 587.327 630.948 592.588 624.361 593.129C607.154 594.57 597.615 570.534 607.91 558.606C609.998 556.192 612.662 553.417 613.418 550.21C614.354 546.282 611.978 543.435 611.402 539.651C609.818 529.814 621.085 525.345 626.053 519.003C628.068 516.408 629.436 513.381 631.488 510.787C633.504 508.228 638.651 504.697 641.891 505.021Z" fill="#CFF6BF"/>
<path d="M660.141 560.156C659.565 559.579 658.63 559.579 658.09 560.156L643.511 574.751V556.733L651.862 548.372C652.438 547.796 652.438 546.859 651.862 546.318C651.286 545.742 650.35 545.742 649.81 546.318L643.511 552.624V539.435C643.511 538.642 642.863 537.958 642.035 537.958C641.207 537.958 640.559 538.606 640.559 539.435V564.192L627.456 551.075C626.88 550.498 625.945 550.498 625.405 551.075C624.829 551.651 624.829 552.588 625.405 553.129L640.595 568.336V610.787C640.595 611.579 641.243 612.264 642.071 612.264C642.899 612.264 643.547 611.615 643.547 610.787V578.931L660.177 562.282C660.753 561.706 660.753 560.769 660.177 560.228L660.141 560.156Z" fill="#EAFFE3"/>
<path d="M1266.33 583.225C1283.28 584.847 1293.79 592.234 1296.85 609.892C1299.12 622.901 1308.77 626.685 1315.39 636.739C1322.27 647.189 1314.6 652.523 1315.57 662.649C1316.07 667.622 1320.25 671.225 1323.24 675.225C1331.3 685.964 1330.8 702.108 1322.48 712.667C1316.36 720.414 1306.57 724.739 1296.78 724.919C1286.52 725.135 1278.35 718.18 1268.34 717.712C1257.4 717.207 1248.51 725.748 1237.74 726.649C1209.74 728.991 1194.26 689.928 1210.96 670.468C1214.35 666.541 1218.7 662.036 1219.93 656.811C1221.44 650.396 1217.62 645.784 1216.61 639.622C1214.06 623.622 1232.35 616.342 1240.44 606C1243.76 601.784 1245.95 596.847 1249.26 592.631C1252.58 588.45 1260.89 582.721 1266.22 583.225H1266.33Z" fill="#D2F6BC"/>
<path d="M1296.02 672.955C1295.09 672.018 1293.58 672.018 1292.68 672.955L1268.99 696.667V667.369L1282.56 653.784C1283.5 652.847 1283.5 651.333 1282.56 650.432C1281.62 649.495 1280.11 649.495 1279.21 650.432L1268.99 660.667V639.189C1268.99 637.892 1267.91 636.811 1266.61 636.811C1265.32 636.811 1264.24 637.892 1264.24 639.189V679.477L1242.89 658.108C1241.96 657.171 1240.44 657.171 1239.54 658.108C1238.61 659.045 1238.61 660.559 1239.54 661.459L1264.24 686.18V755.225C1264.24 756.523 1265.32 757.604 1266.61 757.604C1267.91 757.604 1268.99 756.523 1268.99 755.225V703.369L1296.06 676.27C1297 675.333 1297 673.82 1296.06 672.919L1296.02 672.955Z" fill="#FEFFFD"/>
<path d="M-46 775.355C-45.3708 765.438 -37.4473 749.617 -27.706 747.797C-17.9647 745.954 -7.3146 751.437 -3.1198 760.444C3.1491 744.81 18.2271 733.913 34.4004 729.316C44.5611 726.446 55.7473 725.816 65.5118 729.899C75.2531 733.983 83.13 743.503 83.1533 754.097C88.1172 748.59 99.0237 751.507 100.585 758.764C106.085 749.617 117.784 744.717 128.154 747.19C138.525 749.664 147.054 755.287 147.87 765.928C148.173 761.914 152.88 763.688 156.772 764.738C160.664 765.765 163.577 772.345 166.257 775.355H-46Z" fill="#FCFCFD"/>
<path d="M502 775.355C502.629 765.438 510.553 749.617 520.294 747.797C530.035 745.954 540.685 751.437 544.88 760.444C551.149 744.81 566.227 733.913 582.4 729.316C592.561 726.446 603.747 725.816 613.512 729.899C623.253 733.983 631.13 743.503 631.153 754.097C636.117 748.59 647.024 751.507 648.585 758.764C654.085 749.617 665.784 744.717 676.154 747.19C686.525 749.664 695.054 755.287 695.87 765.928C696.173 761.914 700.88 763.688 704.772 764.738C708.664 765.765 711.577 772.345 714.257 775.355H502Z" fill="#FCFCFD"/>
<path d="M161 776.72C161.233 768.062 163.936 758.822 170.904 753.712C177.872 748.601 189.734 750.141 192.927 758.192C194.605 754.972 196.516 751.542 199.779 749.955C203.041 748.368 207.958 749.838 208.425 753.432C211.641 742.464 218.446 731.1 229.585 728.51C238.557 726.434 248.159 730.914 254.055 737.984C259.974 745.055 262.701 754.272 263.936 763.419C265.52 758.122 273.001 756.675 277.825 759.405C282.649 762.112 285.329 771.656 287.59 776.72H161.023H161Z" fill="#FCFCFD"/>
<path d="M1153 776.72C1153.23 768.062 1155.94 758.822 1162.9 753.712C1169.87 748.601 1181.73 750.141 1184.93 758.192C1186.61 754.972 1188.52 751.542 1191.78 749.955C1195.04 748.368 1199.96 749.838 1200.42 753.432C1203.64 742.464 1210.45 731.1 1221.59 728.51C1230.56 726.434 1240.16 730.914 1246.05 737.984C1251.97 745.055 1254.7 754.272 1255.94 763.419C1257.52 758.122 1265 756.675 1269.83 759.405C1274.65 762.112 1277.33 771.656 1279.59 776.72H1153.02H1153Z" fill="#FCFCFD"/>
<path d="M949.4 766.025C945.182 755.781 928.24 754.614 922.67 764.205C924.744 747.194 911.204 729.81 894.192 727.71C877.203 725.61 859.818 739.167 857.72 756.178C854.691 748.291 841.407 747.731 837.748 755.361C836.583 749.854 830.967 745.654 825.374 746.144C819.781 746.611 814.933 751.698 814.724 757.321C812.999 748.174 810.272 738.887 804.237 731.817C787.527 712.192 760.75 729.04 750.613 746.307C749.891 747.544 741.478 761.428 741.571 761.545C737.19 755.898 728.614 754.008 722.275 757.298C715.936 760.588 712.534 768.685 714.608 775.546H968.58L949.423 766.025H949.4Z" fill="#FCFCFD"/>
<path d="M1515.4 766.025C1511.18 755.781 1494.24 754.614 1488.67 764.205C1490.74 747.194 1477.2 729.81 1460.19 727.71C1443.2 725.61 1425.82 739.167 1423.72 756.178C1420.69 748.291 1407.41 747.731 1403.75 755.361C1402.58 749.854 1396.97 745.654 1391.37 746.144C1385.78 746.611 1380.93 751.698 1380.72 757.321C1379 748.174 1376.27 738.887 1370.24 731.817C1353.53 712.192 1326.75 729.04 1316.61 746.307C1315.89 747.544 1307.48 761.428 1307.57 761.545C1303.19 755.898 1294.61 754.008 1288.27 757.298C1281.94 760.588 1278.53 768.685 1280.61 775.546H1534.58L1515.42 766.025H1515.4Z" fill="#FCFCFD"/>
<path d="M288 774.895C288.909 771.091 292.171 767.964 295.993 767.194C299.815 766.424 304.033 768.011 306.364 771.161C308.182 768.408 310.139 765.538 313.029 763.928C315.919 762.318 320.067 762.458 322.048 765.118C322.141 756.811 327.198 748.737 334.656 745.05C345.539 739.66 360.104 743.113 362.481 756.204C363.996 745.213 366.699 733.523 374.926 726.056C381.218 720.339 389.071 719.102 397.251 719.009C402.285 718.939 407.412 719.265 412.073 721.132C424.96 726.266 430.6 741.06 434.818 754.29C439.129 744.7 450.945 739.216 461.036 742.11C471.126 744.98 478.281 755.877 476.929 766.308C480.099 762.411 485.365 760.334 490.329 760.987C495.293 761.641 502.914 767.848 501.888 774.941H288.023L288 774.895Z" fill="#FCFCFD"/>
<path d="M939 774.895C939.909 771.091 943.171 767.964 946.993 767.194C950.815 766.424 955.033 768.011 957.364 771.161C959.182 768.408 961.139 765.538 964.029 763.928C966.919 762.318 971.067 762.458 973.048 765.118C973.141 756.811 978.198 748.737 985.656 745.05C996.539 739.66 1011.1 743.113 1013.48 756.204C1015 745.213 1017.7 733.523 1025.93 726.056C1032.22 720.339 1040.07 719.102 1048.25 719.009C1053.29 718.939 1058.41 719.265 1063.07 721.132C1075.96 726.266 1081.6 741.06 1085.82 754.29C1090.13 744.7 1101.94 739.216 1112.04 742.11C1122.13 744.98 1129.28 755.877 1127.93 766.308C1131.1 762.411 1136.37 760.334 1141.33 760.987C1146.29 761.641 1153.91 767.848 1152.89 774.941H939.023L939 774.895Z" fill="#FCFCFD"/>
</g>
<defs>
<linearGradient id="paint0_linear_361_9260" x1="720" y1="0" x2="720" y2="775.836" gradientUnits="userSpaceOnUse">
<stop stop-color="#D6FFC6" stop-opacity="0"/>
<stop offset="0.48567" stop-color="#CFFABF" stop-opacity="0.28492"/>
<stop offset="1" stop-color="#BDEEAD"/>
</linearGradient>
<clipPath id="clip0_361_9260">
<rect width="1921" height="775" fill="white" transform="translate(-241)"/>
</clipPath>
</defs>
</svg>
