<svg width="56" height="42" viewBox="0 0 56 42" fill="none" xmlns="http://www.w3.org/2000/svg">
<path fill-rule="evenodd" clip-rule="evenodd" d="M0 20.5625C0 33.332 6.09766 41.2344 16.1055 41.2344C26.1133 41.2344 32.1836 33.2773 32.1836 20.5352C32.1836 7.79297 26.0586 0 16.1055 0C6.15234 0 0 7.82031 0 20.5625ZM23.7891 20.5625C23.7891 29.6133 20.9727 34.6172 16.1055 34.6172C11.2383 34.6172 8.39453 29.6133 8.39453 20.5625C8.39453 11.5938 11.293 6.61719 16.1055 6.61719C20.9453 6.61719 23.7891 11.5664 23.7891 20.5625ZM46.8398 36.8047C46.8398 39.293 48.5078 40.9336 50.9414 40.9336C53.375 40.9336 55.0156 39.293 55.0156 36.8047V4.92188C55.0156 2.07812 53.2656 0.300781 50.3398 0.300781C48.6445 0.300781 47.332 0.546875 45.418 1.85938L37.5977 7.27344C36.3125 8.17578 35.8203 9.10547 35.8203 10.3633C35.8203 12.1133 37.0508 13.3164 38.7188 13.3164C39.5664 13.3164 40.1406 13.125 40.9062 12.5781L46.6758 8.55859H46.8398V36.8047Z" fill="#D4F6D3"/>
</svg>
