<svg width="67" height="42" viewBox="0 0 67 42" fill="none" xmlns="http://www.w3.org/2000/svg">
<path fill-rule="evenodd" clip-rule="evenodd" d="M0 20.5625C0 33.332 6.09766 41.2344 16.1055 41.2344C26.1133 41.2344 32.1836 33.2773 32.1836 20.5352C32.1836 7.79297 26.0586 0 16.1055 0C6.15234 0 0 7.82031 0 20.5625ZM23.7891 20.5625C23.7891 29.6133 20.9727 34.6172 16.1055 34.6172C11.2383 34.6172 8.39453 29.6133 8.39453 20.5625C8.39453 11.5938 11.293 6.61719 16.1055 6.61719C20.9453 6.61719 23.7891 11.5664 23.7891 20.5625ZM36.9414 36.832C36.9414 38.9102 38.2266 40.3594 40.8242 40.3594H62.6719C64.8047 40.3594 66.0898 39.0195 66.0898 37.0781C66.0898 35.082 64.8047 33.7969 62.6719 33.7969H47.7969V33.6328L56.3281 25.4297C62.7812 19.332 65.1328 16.3242 65.1328 11.5117C65.1328 4.73047 59.5 0.0273438 51.1328 0.0273438C43.668 0.0273438 38.7188 4.10156 37.3789 8.47656C37.1875 9.05078 37.0781 9.625 37.0781 10.2539C37.0781 12.3047 38.3906 13.6172 40.6055 13.6172C42.3828 13.6172 43.3398 12.8516 44.2695 11.2109C45.6914 8.03906 47.8789 6.45312 51.0508 6.45312C54.5781 6.45312 57.0938 8.77734 57.0938 12.0312C57.0938 14.875 55.8359 16.7891 50.9688 21.4648L39.2109 32.7031C37.543 34.2344 36.9414 35.2734 36.9414 36.832Z" fill="#FDDCCC"/>
</svg>
