<svg width="68" height="42" viewBox="0 0 68 42" fill="none" xmlns="http://www.w3.org/2000/svg">
<path fill-rule="evenodd" clip-rule="evenodd" d="M0 20.5625C0 33.332 6.09766 41.2344 16.1055 41.2344C26.1133 41.2344 32.1836 33.2773 32.1836 20.5352C32.1836 7.79297 26.0586 0 16.1055 0C6.15234 0 0 7.82031 0 20.5625ZM23.7891 20.5625C23.7891 29.6133 20.9727 34.6172 16.1055 34.6172C11.2383 34.6172 8.39453 29.6133 8.39453 20.5625C8.39453 11.5938 11.293 6.61719 16.1055 6.61719C20.9453 6.61719 23.7891 11.5664 23.7891 20.5625ZM37.9258 34.0977C39.7852 37.9805 44.4062 41.2344 51.9258 41.2344C61.0859 41.2344 67.293 36.4766 67.293 29.3125C67.293 23.8711 63.4922 20.4258 57.6133 19.8789V19.7148C62.2617 18.7578 65.8438 15.4766 65.8438 10.4727C65.8438 4.15625 60.2109 0.0273438 51.8711 0.0273438C44.8984 0.0273438 40.4141 3.25391 38.6641 7.10938C38.2539 8.03906 38.0625 8.83203 38.0625 9.76172C38.0625 11.7578 39.2383 13.0977 41.5352 13.0977C43.3945 13.0977 44.3516 12.4141 45.2539 10.5547C46.5391 7.76562 48.5625 6.37109 51.8984 6.37109C55.8906 6.37109 58.0234 8.47656 58.0234 11.6484C58.0234 14.875 55.3438 17.1172 51.2148 17.1172H49.6016C47.6055 17.1172 46.457 18.3203 46.457 20.043C46.457 21.8203 47.6055 22.9961 49.6016 22.9961H51.3242C56.1094 22.9961 58.9258 25.1289 58.8984 28.957C58.8984 32.2383 56.1094 34.5898 52.0625 34.5898C47.9609 34.5898 45.8281 32.9492 44.4336 30.1875C43.6133 28.6836 42.5742 28.0273 40.9336 28.0273C38.6641 28.0273 37.2969 29.3672 37.2969 31.5C37.2969 32.3203 37.4883 33.1953 37.9258 34.0977Z" fill="#B9F6D7"/>
</svg>
