<svg width="70" height="42" viewBox="0 0 70 42" fill="none" xmlns="http://www.w3.org/2000/svg">
<path fill-rule="evenodd" clip-rule="evenodd" d="M0 20.5625C0 33.332 6.09766 41.2344 16.1055 41.2344C26.1133 41.2344 32.1836 33.2773 32.1836 20.5352C32.1836 7.79297 26.0586 0 16.1055 0C6.15234 0 0 7.82031 0 20.5625ZM23.7891 20.5625C23.7891 29.6133 20.9727 34.6172 16.1055 34.6172C11.2383 34.6172 8.39453 29.6133 8.39453 20.5625C8.39453 11.5938 11.293 6.61719 16.1055 6.61719C20.9453 6.61719 23.7891 11.5664 23.7891 20.5625ZM56.082 36.9141C56.082 39.5391 57.7227 40.9336 59.9922 40.9336C62.2617 40.9336 63.9297 39.5391 63.9297 36.9141V33.1133H66.1719C68.332 33.1133 69.5625 31.7734 69.5625 29.832C69.5625 27.8906 68.3594 26.5234 66.1719 26.5234H63.9297V6.26172C63.9297 2.57031 61.3047 0.300781 57.1211 0.300781C53.7852 0.300781 51.7891 1.66797 49.0547 5.85156C44.7617 12.2227 40.8242 18.2383 38.1172 23.1055C36.8867 25.2656 36.3945 26.7969 36.3945 28.4922C36.3945 31.2539 38.3906 33.1133 41.3711 33.1133H56.082V36.9141ZM56.2461 6.89062V26.7422H43.6133V26.5234C46.8125 20.5625 50.4492 15.0117 56.082 6.89062H56.2461Z" fill="#E5DBFA"/>
</svg>
