<svg width="68" height="42" viewBox="0 0 68 42" fill="none" xmlns="http://www.w3.org/2000/svg">
<path fill-rule="evenodd" clip-rule="evenodd" d="M0 20.5625C0 33.332 6.09766 41.2344 16.1055 41.2344C26.1133 41.2344 32.1836 33.2773 32.1836 20.5352C32.1836 7.79297 26.0586 0 16.1055 0C6.15234 0 0 7.82031 0 20.5625ZM23.7891 20.5625C23.7891 29.6133 20.9727 34.6172 16.1055 34.6172C11.2383 34.6172 8.39453 29.6133 8.39453 20.5625C8.39453 11.5938 11.293 6.61719 16.1055 6.61719C20.9453 6.61719 23.7891 11.5664 23.7891 20.5625ZM38.4453 34.125C40.4141 38.3086 45.8828 41.2344 52.1445 41.2344C61.1406 41.2344 67.4023 35.5469 67.4023 27.125C67.4023 19.6055 62.043 14.3008 54.4961 14.3008C50.4766 14.3008 47.25 15.8867 45.6367 18.4297H45.4727L46.4023 7.46484H61.9883C64.0664 7.46484 65.3789 6.17969 65.3789 4.18359C65.3789 2.1875 64.0391 0.902344 61.9883 0.902344H44.6797C41.4805 0.902344 39.7578 2.24219 39.4844 5.57812L38.3359 20.043C38.3086 20.1797 38.3086 20.2617 38.3086 20.3711C38.1992 22.5859 39.4844 24.4727 42.1914 24.4727C44.0234 24.4727 44.8438 24.0625 46.457 22.5586C47.8516 21.2188 49.8203 20.207 52.1719 20.207C56.4648 20.207 59.5273 23.1602 59.5273 27.3164C59.5273 31.582 56.4375 34.6719 52.1445 34.6719C48.5898 34.6719 46.2656 32.9492 44.8438 30.1055C43.9141 28.6289 42.875 28.0547 41.2344 28.0547C39.1016 28.0547 37.7891 29.3125 37.7891 31.418C37.7891 32.4023 38.0352 33.25 38.4453 34.125Z" fill="#CDDFFA"/>
</svg>
