<svg width="69" height="42" viewBox="0 0 69 42" fill="none" xmlns="http://www.w3.org/2000/svg">
<path fill-rule="evenodd" clip-rule="evenodd" d="M0 20.5625C0 33.332 6.09766 41.2344 16.1055 41.2344C26.1133 41.2344 32.1836 33.2773 32.1836 20.5352C32.1836 7.79297 26.0586 0 16.1055 0C6.15234 0 0 7.82031 0 20.5625ZM23.7891 20.5625C23.7891 29.6133 20.9727 34.6172 16.1055 34.6172C11.2383 34.6172 8.39453 29.6133 8.39453 20.5625C8.39453 11.5938 11.293 6.61719 16.1055 6.61719C20.9453 6.61719 23.7891 11.5664 23.7891 20.5625ZM39.0469 32.5117C41.9453 38.3086 46.9219 41.2344 53.1836 41.2344C61.9883 41.2344 68.3867 35.4102 68.3867 27.2344C68.3867 19.8242 63.1641 14.3828 55.5352 14.3828C50.2031 14.3828 46.3203 17.0625 44.7891 20.7266H44.625V20.3164C44.6797 11.8945 47.5508 6.53516 53.1836 6.53516C55.8906 6.53516 57.8047 7.54688 59.6094 9.81641C60.8125 11.2109 61.7969 11.9219 63.4375 11.9219C65.5977 11.9219 66.8828 10.5 66.8828 8.66797C66.8828 7.92969 66.6914 7.21875 66.3086 6.45312C64.4492 2.76172 59.7461 0 53.2109 0C42.957 0 36.7227 7.875 36.7227 20.9453C36.7227 25.5391 37.543 29.4492 39.0469 32.5117ZM60.3477 27.5898C60.3203 31.5547 57.1211 34.6719 53.0742 34.6719C49.0273 34.6719 45.8555 31.5 45.8555 27.4258C45.8555 23.4062 48.9727 20.4805 53.1562 20.4805C57.3125 20.4805 60.3477 23.4336 60.3477 27.5898Z" fill="#FEECCA"/>
</svg>
