<svg width="376" height="376" viewBox="0 0 376 376" fill="none" xmlns="http://www.w3.org/2000/svg">
<g clip-path="url(#clip0_481_4595)">
<rect width="375" height="376" transform="translate(0.5)" fill="#E3FCDC"/>
<path d="M16.5 0L16.5 376" stroke="url(#paint0_linear_481_4595)"/>
<path d="M130.833 0L130.833 376" stroke="url(#paint1_linear_481_4595)"/>
<path d="M245.167 0L245.167 376" stroke="url(#paint2_linear_481_4595)"/>
<path d="M359.5 0L359.5 376" stroke="url(#paint3_linear_481_4595)"/>
<g opacity="0.8">
<path d="M-6.40711 59.0058C-6.40711 59.0058 -6.31711 58.9658 -6.27711 58.9358C-6.0871 58.8158 -6.1671 58.5558 -6.3671 58.5458C-6.4171 58.4258 -6.46711 58.3058 -6.48711 58.1658C-6.52711 57.8858 -6.51711 57.6158 -6.65711 57.3558C-6.75711 57.1858 -7.03711 57.1658 -7.10711 57.3758C-7.24711 57.8258 -7.2071 58.6158 -6.8671 58.9758C-6.7471 59.1058 -6.54711 59.1358 -6.40711 59.0158V59.0058ZM-12.9571 108.236C-13.5071 108.006 -14.0871 107.766 -14.5971 107.436C-14.9471 107.216 -15.2571 107.686 -14.9571 107.946C-14.5271 108.316 -14.0171 108.546 -13.4971 108.776C-13.0471 108.976 -12.5371 109.286 -12.0571 109.396C-11.7671 109.466 -11.4171 109.126 -11.6871 108.866C-12.0171 108.536 -12.5471 108.406 -12.9671 108.226L-12.9571 108.236ZM-24.3071 53.1658C-24.8371 53.8658 -25.0171 54.6558 -25.1871 55.4958C-25.2571 55.8258 -24.6871 55.9558 -24.6071 55.6258C-24.4271 54.8858 -24.2171 54.1658 -23.7471 53.5458C-23.4871 53.1958 -24.0371 52.8058 -24.3071 53.1558V53.1658ZM-12.8371 38.0358C-12.2771 37.3158 -11.5271 36.6758 -10.6471 36.3858C-9.5371 36.0258 -8.98711 36.5458 -8.06711 37.0558C-7.83711 37.1858 -7.5671 36.9858 -7.6771 36.7258C-8.1071 35.6958 -9.4371 35.3858 -10.4471 35.6058C-11.6571 35.8658 -12.5971 36.7458 -13.2471 37.7558C-13.4171 38.0258 -13.0371 38.2858 -12.8371 38.0358ZM-10.6071 36.9758C-10.9171 37.0258 -10.9171 37.5558 -10.5871 37.5458C-10.2471 37.5458 -9.92711 37.5858 -9.59711 37.6658C-9.30711 37.7358 -9.01711 37.9158 -8.71711 37.9158C-8.54711 37.9158 -8.34711 37.7358 -8.46711 37.5558C-8.87711 36.9158 -9.9471 36.8758 -10.6171 36.9758H-10.6071ZM52.6729 88.6058C52.5429 88.5958 52.4329 88.6458 52.3629 88.7358C50.9729 89.1358 49.7429 89.9458 48.4229 90.5258C46.7329 91.2658 45.1329 91.2058 43.4029 91.6158C43.2629 91.6458 43.1729 91.7458 43.1129 91.8458C42.1029 92.2358 41.2129 92.7658 40.0729 92.6358C38.8929 92.5058 38.1429 91.8058 37.1729 91.2458C37.0229 91.1558 36.8229 91.1958 36.6929 91.3058C32.4329 90.2358 24.8429 90.1858 22.6829 86.0458C22.6429 85.9758 22.5929 85.9258 22.5329 85.8858C21.8429 85.2758 20.8929 84.9958 20.0929 84.6058C19.8629 84.4958 19.6829 84.6058 19.5929 84.7858C19.2629 84.8158 18.9429 84.8858 18.6129 84.9058C18.3429 84.9258 18.0729 84.9158 17.8029 84.9258C13.0729 81.7958 8.6729 78.6758 4.9729 74.2758C1.2229 69.8058 -0.897114 64.8858 -3.31711 59.6858C-3.34711 59.6258 -3.38711 59.5858 -3.43711 59.5458C-3.67711 59.0558 -3.9471 58.6658 -4.3671 58.3058C-4.6771 58.0458 -5.0871 57.7358 -5.5071 57.6758C-5.7371 57.0658 -5.97711 56.4558 -6.15711 55.8258C-6.26711 55.4358 -6.31711 55.0258 -6.45711 54.6558C-5.96711 54.0958 -5.53711 53.3758 -5.63711 52.6458C-5.63711 52.5758 -5.6871 52.5158 -5.7271 52.4658C-5.9971 50.8358 -6.41711 49.2358 -6.79711 47.6258C-7.14711 46.1458 -7.25711 44.7258 -7.34711 43.2458C-6.90711 41.3858 -6.51711 39.5058 -6.06711 37.6458C-5.76711 36.4058 -5.20711 34.4358 -6.38711 33.4658C-7.84711 32.2758 -10.3871 33.6558 -11.7271 34.3858C-13.4271 35.3058 -15.4471 36.4758 -16.8171 38.0358C-22.0371 42.1158 -26.8071 48.7958 -28.8471 54.7958C-28.8771 54.8858 -28.8471 54.9658 -28.7971 55.0358C-29.0871 56.0058 -28.9471 57.1158 -29.3171 58.1058C-29.7171 59.1758 -30.6971 59.9858 -31.0071 61.0358C-34.2671 71.4358 -33.5871 82.6958 -28.5271 92.3358C-28.4971 92.3858 -28.4571 92.4258 -28.4171 92.4458C-27.6971 94.3358 -26.6871 96.8858 -25.1671 98.0658C-24.3171 98.7258 -23.1471 98.9058 -22.2571 99.5558C-20.2971 100.996 -18.7571 103.606 -18.8771 106.096C-18.8871 106.356 -18.7171 106.506 -18.5171 106.556C-9.80711 114.146 1.8429 119.606 13.6129 118.636C14.9529 118.756 16.1929 119.536 17.5229 119.496C18.6329 119.466 19.4529 118.636 20.3629 118.076C25.2129 117.896 29.7429 115.876 33.9429 113.556C37.9629 111.336 42.4529 108.906 45.6829 105.596C47.3729 103.866 58.6529 89.1958 52.6729 88.6158V88.6058ZM48.5829 99.9058C46.2429 103.636 43.4529 106.386 39.7029 108.756C33.3729 112.766 27.2629 115.806 19.9229 117.446C18.9729 117.676 18.3229 118.666 17.2429 118.626C16.1329 118.576 15.1129 117.926 14.0229 117.996C1.5429 117.676 -8.0471 113.266 -17.9771 105.996C-17.9171 103.506 -19.1771 101.086 -21.0071 99.4258C-22.0071 98.5158 -22.9571 98.3158 -24.0471 97.6558C-26.0871 96.4158 -26.9471 93.5058 -28.1871 91.5758C-32.0871 81.6858 -33.0271 71.6758 -30.3971 61.3358C-30.3971 61.3058 -30.3971 61.2858 -30.3971 61.2558C-28.6171 60.3558 -27.1971 56.3458 -28.1471 54.7558C-26.4071 51.8058 -24.8771 48.7858 -22.8271 46.0258C-21.2471 43.9058 -19.4271 42.0658 -17.5971 40.2158C-17.4771 40.2158 -17.3571 40.1858 -17.2671 40.0858C-15.5771 38.1758 -13.4571 36.6758 -11.2071 35.5058C-10.0871 34.9258 -7.07711 33.2358 -6.99711 35.4358C-6.89711 37.8958 -8.79711 40.5158 -8.48711 43.0158C-8.55711 43.2958 -8.6071 43.5858 -8.5871 43.8958C-8.5871 43.9958 -8.5371 44.0758 -8.4771 44.1158C-8.5071 45.2358 -8.21711 46.3858 -7.95711 47.4558C-7.52711 49.2358 -7.0771 51.0158 -6.4771 52.7558C-6.5771 53.0058 -6.6571 53.2658 -6.7571 53.5158C-6.8471 53.7458 -6.9471 53.9758 -7.0571 54.2058C-7.1671 54.2458 -7.2571 54.3058 -7.2871 54.4158C-7.4471 55.0258 -7.19711 55.6558 -6.98711 56.2358C-6.76711 56.8858 -6.4571 57.4458 -6.0571 57.9958C-6.0571 58.0858 -6.05711 58.1758 -5.98711 58.2458C-5.72711 58.5758 -5.23711 58.6958 -4.90711 58.9558C-4.59711 59.1958 -4.28711 59.5058 -4.04711 59.8358C-4.04711 59.8658 -4.04711 59.8958 -4.04711 59.9358C-1.66711 70.4758 7.6029 81.0358 17.3829 85.4658C17.4029 85.4758 17.4129 85.5058 17.4429 85.5058C17.4629 85.5058 17.4929 85.5058 17.5129 85.5158C17.5429 85.5258 17.5729 85.5458 17.6129 85.5658C17.6729 85.5958 17.7329 85.5958 17.7929 85.5758C18.4529 85.7158 19.2529 85.7258 19.8129 85.4258C20.4429 85.7458 21.1329 86.0758 21.8229 86.2858C21.8229 86.3358 21.8329 86.3858 21.8529 86.4358C22.9829 89.0458 24.7429 89.4758 27.3729 90.1558C30.4529 90.9558 33.6529 91.8058 36.8329 92.0358C37.5129 92.8858 38.7729 93.4058 39.8029 93.5558C41.1429 93.7558 42.3229 93.2558 43.4329 92.5558C46.2629 93.5458 50.4529 91.2458 52.5829 89.4358C54.5629 90.2458 49.1429 99.0358 48.5929 99.9058H48.5829ZM-26.4971 81.4358C-23.4171 82.3958 -23.6271 76.5458 -23.8071 75.0358C-23.8471 74.7058 -24.2971 74.7758 -24.3471 75.0558C-24.5471 76.0558 -24.4671 77.0358 -24.5371 78.0458C-24.5371 78.2258 -24.5571 78.4058 -24.5671 78.5758C-24.4371 79.4558 -24.8371 79.8858 -25.7471 79.8858C-26.3571 80.4658 -26.7671 80.4658 -26.9871 79.8858C-27.1671 79.6458 -27.3071 79.3758 -27.4171 79.0958C-28.1271 77.3258 -27.9571 75.3258 -27.8271 73.4758C-27.7971 73.0458 -28.4071 73.0058 -28.4771 73.4158C-28.7771 75.0658 -28.9171 76.7858 -28.5171 78.4358C-28.2571 79.5058 -27.6671 81.0658 -26.4971 81.4358ZM-27.7171 71.7358C-27.2771 71.4658 -26.9471 71.0658 -26.5971 70.6758C-25.7471 70.9758 -25.2071 71.7058 -25.1471 72.6358C-25.1271 72.9158 -24.6271 72.9058 -24.6371 72.6158C-24.6871 71.4058 -25.4371 70.3858 -26.5671 69.9358C-26.6771 69.8958 -26.8271 69.9058 -26.9171 69.9958C-27.3271 70.4358 -27.8171 70.8558 -28.0871 71.3958C-28.1871 71.5958 -27.9171 71.8458 -27.7171 71.7358ZM-24.6271 83.4058C-23.1771 82.8258 -22.5871 80.5858 -22.8671 79.1858C-22.9071 78.9658 -23.2471 78.9158 -23.3171 79.1458C-23.6771 80.2758 -23.4271 81.6058 -24.3671 82.5258C-25.0571 83.1958 -26.6571 83.2358 -26.9071 82.1058C-26.9771 81.8058 -27.4371 81.8858 -27.3871 82.1858C-27.1871 83.4558 -25.6871 83.8258 -24.6171 83.3958L-24.6271 83.4058ZM-23.5471 71.6758C-23.6771 73.4658 -23.3071 75.4058 -23.0971 77.1758C-23.0571 77.5158 -22.5571 77.4158 -22.5771 77.0858C-22.6771 75.3258 -22.6471 73.3758 -23.0771 71.6558C-23.1371 71.4058 -23.5271 71.3958 -23.5471 71.6758ZM-15.1671 59.0258C-14.9971 58.4258 -14.7171 57.8658 -14.5471 57.2658C-14.3171 56.4158 -14.2171 55.5858 -14.5271 54.7458C-15.0471 53.3458 -16.4971 52.7958 -17.7071 53.7658C-19.4071 55.1358 -18.8571 58.1858 -18.4371 59.9858C-18.3571 60.3258 -17.8371 60.2358 -17.8971 59.8958C-18.0971 58.7958 -18.2271 57.6758 -18.1771 56.5558C-18.1571 56.1158 -18.0971 55.6858 -17.9671 55.2658C-17.0571 55.1158 -16.1471 54.9658 -15.2271 54.8258C-14.6971 55.2258 -15.1471 56.8958 -15.2771 57.3258C-15.4871 58.0458 -15.8271 58.7258 -15.9571 59.4758C-16.0471 59.9658 -15.7871 63.6658 -17.3971 62.7658C-17.7671 62.5558 -18.1571 63.0758 -17.7871 63.3158C-16.5771 64.0958 -15.6171 63.0458 -15.3771 61.8558C-15.1871 60.9158 -15.4271 60.0058 -15.1571 59.0258H-15.1671ZM-14.6471 61.7558C-13.9871 60.6458 -13.3871 59.2958 -13.4171 57.9858C-13.4171 57.7358 -13.8071 57.5858 -13.8871 57.8758C-14.2571 59.1358 -14.4871 60.3458 -15.0671 61.5358C-15.1871 61.7758 -14.7871 61.9858 -14.6471 61.7558ZM-2.38711 84.6758C-1.31711 83.2858 -1.61711 81.3758 -2.27711 79.7558C-1.47711 80.8358 -0.907101 81.9658 -1.1171 83.4258C-1.3371 85.0358 -2.44711 86.3458 -3.84711 87.1058C-4.12711 87.2558 -3.92711 87.6958 -3.62711 87.5658C-0.23711 86.0958 0.962902 80.9658 -2.4271 78.7158C-2.5471 78.6358 -2.6771 78.6758 -2.7571 78.7458C-2.8371 78.5958 -2.91711 78.4358 -2.99711 78.2958C-3.90711 76.7358 -5.7171 74.1958 -7.7871 74.9858C-8.1471 75.1258 -7.9571 75.6958 -7.5871 75.6158C-5.6071 75.2158 -3.9271 78.1458 -3.3071 79.5358C-2.5271 81.2958 -1.90711 84.0158 -4.15711 85.0158C-8.19711 86.8058 -9.8571 81.2658 -10.2871 78.5358C-10.3471 78.1558 -10.9071 78.2658 -10.8771 78.6358C-10.6671 81.2258 -9.8971 84.1958 -7.4171 85.5258C-5.78711 86.3958 -3.5771 86.2058 -2.3971 84.6758H-2.38711ZM-9.1171 73.6158C-9.4771 73.7158 -9.80711 73.8758 -9.99711 74.2158C-10.1871 74.5558 -10.0771 74.7358 -9.85711 74.9958C-9.69711 75.1758 -9.3971 74.9958 -9.4771 74.7758C-9.4171 74.6858 -9.35711 74.5858 -9.26711 74.5158C-9.04711 74.3558 -8.69711 74.3158 -8.43711 74.3058C-7.92711 74.2858 -7.4971 74.5758 -7.0071 74.5758C-6.8071 74.5758 -6.59711 74.3758 -6.71711 74.1558C-7.13711 73.4058 -8.3871 73.3858 -9.1171 73.6058V73.6158ZM-10.0571 77.3758C-10.0571 77.7558 -9.5471 77.7958 -9.4771 77.4358C-9.3671 76.8658 -8.9771 76.6158 -8.5571 76.2858C-8.3871 76.1558 -8.47711 75.8158 -8.70711 75.8258C-9.50711 75.8458 -10.0471 76.6358 -10.0671 77.3858L-10.0571 77.3758ZM6.6329 83.7358C7.1529 86.1158 10.0729 88.2358 12.4629 88.1458C13.3129 88.1158 13.9629 87.6458 14.0529 86.7558C14.1729 85.5558 13.1329 84.6158 12.1429 84.1658C11.9129 84.0558 11.6529 84.4058 11.8529 84.5858C12.4129 85.1158 13.5929 85.8058 13.3929 86.6958C13.0729 88.1558 10.8429 87.2058 10.1529 86.8458C8.61289 86.0558 7.88289 84.8258 7.04289 83.3858C7.02289 83.3558 7.00289 83.3558 6.98289 83.3358C6.98289 83.0858 6.98289 82.8458 6.98289 82.5958C7.30289 82.5958 7.5729 82.6858 7.9129 82.7058C8.1329 82.7158 8.33289 82.4258 8.15289 82.2458C7.75289 81.8558 7.1229 81.8458 6.6029 81.9558C6.4229 81.9958 6.3129 82.1558 6.3329 82.3358C6.3829 82.7358 6.43289 83.1458 6.48289 83.5458C6.49289 83.6458 6.57289 83.6958 6.65289 83.7258L6.6329 83.7358ZM3.68289 106.676C3.43289 106.596 3.19289 106.966 3.45289 107.106C4.42289 107.646 5.5129 107.996 6.4429 108.596C8.3529 109.826 8.4929 113.126 6.1029 113.566C5.2929 113.716 4.40289 113.656 3.59289 113.546C0.152893 113.086 -2.8571 111.406 -5.1971 108.876C-5.4471 108.606 -5.86711 108.966 -5.62711 109.246C-2.85711 112.496 2.8929 115.926 7.3229 114.046C8.8029 113.416 9.60289 112.166 9.18289 110.536C8.56289 108.156 5.72289 107.296 3.67289 106.686L3.68289 106.676ZM-5.90711 107.536C-5.96711 107.896 -5.43711 107.926 -5.35711 107.586C-4.99711 105.976 -3.4071 105.086 -1.8371 105.166C-0.457104 105.236 0.662903 105.966 1.8229 106.606C2.1729 106.796 2.50289 106.346 2.18289 106.096C-0.247112 104.126 -5.2171 103.496 -5.8971 107.536H-5.90711ZM-12.3571 91.8758C-12.5771 91.8158 -12.8471 92.0858 -12.6471 92.2858C-12.2271 92.7058 -11.8371 93.0258 -11.7171 93.6458C-11.5971 94.2458 -11.7171 94.9458 -12.1571 95.3958C-13.1371 96.3658 -14.9171 95.7358 -15.3471 94.5258C-15.4271 94.2958 -15.8371 94.4158 -15.7571 94.6558C-15.2771 96.2558 -13.1471 97.0558 -11.8271 95.9058C-10.7371 94.9558 -10.7271 92.3158 -12.3671 91.8758H-12.3571ZM33.9529 99.1058C32.5429 98.3858 30.2229 99.2058 28.8729 99.7258C28.5529 99.8458 28.7529 100.276 29.0429 100.256C30.1129 100.176 31.1229 99.7858 32.1829 99.6258C34.0729 99.3458 35.3229 101.026 34.6629 102.796C33.4729 106.006 29.4129 104.916 27.0729 103.986C26.8329 103.886 26.6229 104.266 26.8629 104.396C29.4729 105.906 34.8829 106.606 35.5629 102.426C35.7729 101.156 35.1329 99.7058 33.9629 99.1058H33.9529ZM25.8929 103.046C26.0329 103.406 26.5429 103.146 26.4329 102.786C26.2429 102.186 26.4629 101.556 26.8729 101.106C27.0529 100.906 27.2829 100.726 27.5429 100.636C27.7929 100.536 28.0629 100.546 28.3129 100.436C28.4929 100.356 28.5429 100.056 28.3529 99.9558C27.6329 99.5758 26.7329 100.176 26.2829 100.726C25.7429 101.386 25.5929 102.256 25.8929 103.046ZM15.0929 101.356C13.4229 100.896 11.4929 101.726 10.7529 103.296C10.5929 103.626 11.0829 103.836 11.2929 103.576C12.2229 102.426 13.6429 101.606 15.1529 102.186C16.5429 102.726 16.8529 103.946 17.2829 105.216C17.3629 105.446 17.7629 105.426 17.8129 105.196C18.2129 103.506 16.6429 101.776 15.0829 101.346L15.0929 101.356ZM25.1829 92.3258C25.5329 92.9058 24.7629 92.9458 24.4029 92.8958C23.6529 92.7858 22.9929 92.3158 22.6129 91.6758C22.4629 91.4158 22.0429 91.6058 22.1829 91.8858C22.7229 92.9458 24.2429 93.9858 25.4629 93.3958C26.7929 92.7558 25.3229 91.3758 24.4329 91.2658C24.0829 91.2258 24.0029 91.7058 24.3029 91.8458C24.5629 91.9658 25.0229 92.0758 25.1829 92.3358V92.3258ZM7.64289 114.736C2.42289 114.926 -1.62711 114.166 -5.49711 110.356C-5.73711 110.116 -6.12711 110.436 -5.90711 110.706C-2.86711 114.416 3.0029 116.866 7.7229 115.226C7.9529 115.146 7.8829 114.726 7.6329 114.736H7.64289ZM9.9429 109.446C10.4229 110.586 10.7029 111.776 10.0929 112.946C9.91289 113.276 10.3729 113.626 10.5929 113.296C11.3829 112.066 11.5429 110.236 10.3729 109.176C10.1629 108.986 9.8229 109.176 9.9429 109.456V109.446ZM0.782894 104.216C2.29289 105.246 4.12289 105.896 5.84289 106.496C6.13289 106.596 6.30289 106.156 6.01289 106.046C4.31289 105.366 2.7029 104.476 1.0029 103.826C0.762894 103.736 0.58289 104.076 0.792889 104.226L0.782894 104.216ZM-4.31711 75.4258C-4.12711 75.9758 -3.8071 76.4458 -3.4471 76.8858C-3.2071 77.1858 -2.70711 76.8658 -2.88711 76.5258C-3.14711 76.0058 -3.43711 75.5258 -3.85711 75.1258C-4.08711 74.9058 -4.42711 75.1258 -4.31711 75.4258ZM3.79289 76.0058C0.992889 72.1158 -1.0371 68.0858 -3.3371 63.9258C-3.4771 63.6758 -3.94711 63.7758 -3.85711 64.0958C-2.56711 68.5058 0.362892 72.9358 3.37289 76.3658C3.60289 76.6258 3.98289 76.2958 3.78289 76.0158L3.79289 76.0058ZM-5.37711 62.7358C-5.38711 63.3358 -5.0671 63.9658 -4.8671 64.5158C-4.7671 64.8058 -4.26711 64.6458 -4.34711 64.3458C-4.49711 63.7658 -4.5671 63.0758 -4.9171 62.5858C-5.0471 62.4058 -5.37711 62.5158 -5.37711 62.7258V62.7358ZM-4.04711 61.8058C-4.43711 61.1758 -4.7771 60.3858 -5.3371 59.8958C-5.4971 59.7558 -5.80711 59.9458 -5.74711 60.1558C-5.52711 60.8658 -4.9571 61.5058 -4.5371 62.1258C-4.3571 62.3958 -3.86711 62.0958 -4.04711 61.8058ZM7.2129 86.0558C7.0229 85.8358 6.60289 86.0758 6.76289 86.3458C8.16289 88.8058 11.9229 90.5658 14.6629 89.5258C14.8729 89.4458 14.8129 89.0858 14.5829 89.0858C13.2029 89.0658 11.9729 89.1658 10.6429 88.6758C9.2029 88.1358 8.2029 87.1958 7.2129 86.0658V86.0558ZM11.8129 83.6558C12.0529 83.6758 12.1729 83.3558 11.9729 83.2158C11.6829 83.0058 11.3329 82.8758 11.0329 82.6758C10.7029 82.4558 10.4129 82.1958 10.1429 81.9058C9.90289 81.6358 9.4929 81.9858 9.7129 82.2658C10.2029 82.8858 10.9829 83.5858 11.8029 83.6458L11.8129 83.6558ZM21.8729 93.4458C22.0929 93.7058 22.4529 93.3758 22.2729 93.1058C21.7729 92.3658 21.2729 91.6258 20.8229 90.8558C21.2229 90.2858 21.8429 90.2458 22.5129 90.3658C22.8029 90.4158 22.9529 89.9758 22.7129 89.8258C21.9429 89.3458 20.8229 89.7358 20.3429 90.4558C20.0129 90.9558 20.3829 91.2858 20.6629 91.7358C21.0329 92.3258 21.4229 92.8958 21.8729 93.4358V93.4458ZM22.2929 91.0658C22.6929 91.2058 23.1129 91.3558 23.5429 91.3058C23.7429 91.2858 23.8129 90.9758 23.6429 90.8758C23.2729 90.6558 22.8329 90.6158 22.4029 90.5858C22.1229 90.5658 22.0229 90.9758 22.2929 91.0658ZM33.1229 97.4658C30.8829 97.1158 29.2029 98.9458 27.0229 99.0158C26.7029 99.0258 26.6329 99.4858 26.9729 99.5258C28.3029 99.7058 29.2929 99.1058 30.4929 98.6058C32.7129 97.6858 34.4929 98.2758 35.8729 100.196C36.0829 100.486 36.5129 100.176 36.3729 99.8658C35.8029 98.5658 34.5229 97.6758 33.1229 97.4558V97.4658ZM31.3029 105.906C27.9429 106.606 25.3329 104.976 24.9229 101.476C24.8929 101.196 24.4529 101.216 24.4229 101.496C24.1629 105.046 28.1729 108.016 31.4529 106.386C31.7029 106.266 31.5829 105.846 31.3029 105.906ZM41.4429 100.866C41.1229 100.736 40.9529 101.226 41.2529 101.366C42.3029 101.846 43.6329 100.786 43.2829 99.6358C43.1229 99.1258 42.6929 98.7558 42.1829 98.6258C41.7429 98.5058 40.9229 98.5758 40.7829 99.1158C40.7229 99.3258 40.8729 99.5258 41.1029 99.4958C41.4029 99.4658 41.5929 99.2558 41.9229 99.2958C42.1929 99.3258 42.5029 99.4658 42.6529 99.7058C43.0929 100.416 42.0729 101.116 41.4429 100.866ZM18.4029 112.956C17.9929 113.226 18.2829 113.926 18.7429 113.666C19.3829 113.306 22.9129 111.496 23.3329 112.906C23.8329 114.576 19.8529 114.706 18.9829 114.716C18.6129 114.716 18.5429 115.296 18.9229 115.306C20.3829 115.336 24.4829 115.246 24.0129 112.796C23.5829 110.546 19.4829 112.276 18.4029 112.956ZM-26.1971 89.3058C-27.2071 89.2158 -27.2471 90.3058 -27.1471 91.0258C-26.9471 92.5458 -26.2471 94.0158 -25.1771 95.1058C-24.8771 95.4058 -24.4171 95.0258 -24.6671 94.6758C-25.2071 93.9458 -25.6971 93.1958 -26.0071 92.3358C-26.0471 92.2258 -26.4571 91.1058 -26.3671 90.8858C-25.9871 89.9458 -25.4071 90.8758 -25.1871 91.1458C-24.0271 92.5858 -23.5171 94.3258 -23.4071 96.1558C-23.3871 96.5558 -22.7071 96.5258 -22.6971 96.1258C-22.6571 94.6358 -23.0071 93.1958 -23.7371 91.8858C-24.1771 91.0858 -25.1371 89.4058 -26.1871 89.3058H-26.1971ZM44.6829 102.916C43.5029 103.856 42.5929 105.116 41.4129 106.096C40.1329 107.156 38.7829 108.106 37.3029 108.866C37.0129 109.016 37.2229 109.476 37.5229 109.336C40.2829 108.056 43.7329 106.076 45.1529 103.256C45.2929 102.976 44.8929 102.746 44.6729 102.926L44.6829 102.916ZM46.4829 100.636C46.1429 100.786 45.9629 101.066 45.7429 101.346C45.4029 101.766 46.0929 102.246 46.4229 101.826C46.6529 101.536 46.8529 101.316 46.9229 100.946C46.9729 100.706 46.6829 100.556 46.4829 100.636ZM49.5329 95.5058C49.0429 96.0058 48.7529 96.6358 48.4229 97.2458C48.0829 97.8558 47.7729 98.4758 47.4629 99.1058C47.2929 99.4458 47.8629 99.7458 48.0629 99.4158C48.4329 98.8058 48.7929 98.1958 49.1429 97.5758C49.4629 97.0058 49.8329 96.4558 49.9829 95.8158C50.0429 95.5758 49.7629 95.2758 49.5429 95.5058H49.5329ZM49.5729 91.8658C49.2429 91.9858 49.4229 92.5258 49.7629 92.4458C50.2929 92.3258 50.2529 93.0158 50.3629 93.3058C50.4229 93.4658 50.6429 93.5258 50.7829 93.4558C51.2729 93.2158 51.1429 92.5658 50.8629 92.2058C50.5329 91.7758 50.0629 91.6958 49.5729 91.8658ZM43.2429 93.9358C43.4529 93.6758 43.1229 93.4158 42.8729 93.4958C42.0029 93.7758 41.2729 94.2558 40.3429 94.3858C39.3329 94.5258 38.3729 94.4458 37.4229 94.0858C37.0829 93.9558 36.9129 94.4558 37.2329 94.6058C39.0129 95.4158 41.8629 95.6258 43.2529 93.9458L43.2429 93.9358ZM43.9229 93.7958C44.1629 93.6658 44.3229 93.5758 44.5029 93.3658C44.6929 93.1458 44.4429 92.7458 44.1629 92.8258C43.9029 92.9058 43.7429 93.0058 43.5329 93.1758C43.2029 93.4358 43.5529 93.9858 43.9329 93.7958H43.9229ZM35.4729 92.1458C34.8229 91.8758 33.9929 91.9558 33.4029 92.3358C33.1529 92.4958 33.3329 92.9258 33.6129 92.7758C34.1429 92.4758 34.6629 92.5258 35.1929 92.7958C35.6829 93.0358 35.8529 93.4858 36.1929 93.8658C36.3629 94.0558 36.6729 93.9558 36.7029 93.7058C36.7929 92.9758 36.0829 92.4058 35.4829 92.1458H35.4729ZM-8.8071 48.5758C-8.6471 49.2658 -8.38711 49.9058 -8.31711 50.6158C-8.22711 51.4758 -8.3871 52.2958 -8.6171 53.1158C-8.7271 53.5158 -8.1771 53.7258 -8.0071 53.3458C-7.3671 51.8658 -7.31711 49.6858 -8.35711 48.3658C-8.51711 48.1658 -8.8671 48.3258 -8.8071 48.5758ZM-26.7871 56.9858C-26.9371 55.2758 -26.4771 53.8158 -25.6671 52.3358C-25.1371 51.3658 -24.3971 50.5258 -23.9771 49.5158C-23.8671 49.2358 -24.2271 48.9858 -24.4571 49.1858C-26.4971 50.9658 -27.9271 54.4258 -27.3771 57.0958C-27.2971 57.4758 -26.7571 57.3658 -26.7871 56.9958V56.9858ZM-29.1871 61.2758C-30.4871 61.9958 -31.0271 63.7058 -30.8771 65.1058C-30.8371 65.4858 -30.2671 65.3758 -30.2971 65.0058C-30.3871 63.6258 -29.7571 62.7258 -28.8671 61.7658C-28.6571 61.5458 -28.8671 61.0958 -29.1871 61.2758Z" fill="#FEC841"/>
<path d="M22.2299 237.186C22.2299 237.186 22.1999 237.166 22.1899 237.156C22.0699 237.086 21.9299 237.266 22.0399 237.356C23.5599 238.536 25.1699 239.976 26.9399 240.776C26.6999 241.686 26.7098 242.696 26.6498 243.626C26.5798 244.706 26.5299 245.796 26.5799 246.876C26.5799 247.036 26.7699 247.046 26.8299 246.946C27.7999 246.466 28.5999 245.686 29.4499 245.026C30.1499 244.496 30.8299 243.956 31.4599 243.336C32.8299 244.106 34.2298 244.816 35.6798 245.436C35.7598 245.496 35.8699 245.536 35.9699 245.556C36.2499 245.676 36.5299 245.796 36.8199 245.906C37.0199 245.976 37.1099 245.716 36.9799 245.586C36.9799 245.406 36.9999 245.226 36.9799 245.046C36.9999 244.946 36.9899 244.846 36.9399 244.766C36.7499 243.166 35.9299 241.576 35.6399 240.026C35.6399 240.006 35.6298 239.986 35.6198 239.966C36.9998 238.676 38.1899 236.806 39.2199 235.246C39.2499 235.206 39.2499 235.166 39.2499 235.126C39.3099 235.016 39.2499 234.836 39.0999 234.846C38.0799 234.896 37.0798 234.936 36.0598 234.926C35.2298 234.926 34.3299 234.856 33.5099 235.046C32.8699 234.116 32.3998 233.106 31.8698 232.116C31.5098 231.456 31.0799 230.596 30.4199 230.176C30.4199 230.016 30.1799 229.916 30.0799 230.096C29.1299 231.836 28.6099 233.796 28.0799 235.666C26.1299 236.096 24.0599 236.436 22.2199 237.206L22.2299 237.186Z" fill="#366394"/>
<path d="M347.35 107.661C347.55 108.371 347.98 109.061 348.29 109.721C348.67 110.521 349.04 111.341 349.5 112.101C349.52 112.131 349.55 112.151 349.58 112.161C349.63 112.231 349.74 112.251 349.79 112.161C350.13 111.421 350.28 110.531 350.49 109.741C350.68 109.031 351.04 108.221 351.12 107.471C351.98 107.371 352.84 107.531 353.7 107.601C354.22 107.641 354.99 107.771 355.48 107.481C355.58 107.511 355.71 107.411 355.63 107.301C354.75 106.081 353.41 105.171 352.28 104.191C352.49 103.421 352.76 102.681 353.05 101.931C353.31 101.241 353.63 100.501 353.66 99.7611C353.77 99.6911 353.69 99.5511 353.59 99.6011C352.32 100.181 350.69 100.481 349.57 101.361C348.86 100.541 347.92 99.8111 347.15 99.0411C346.44 98.3211 345.71 97.4711 344.79 97.0111C344.68 96.9611 344.6 97.0911 344.67 97.1711C344.75 98.3311 345.1 99.5111 345.34 100.641C345.57 101.701 345.76 102.811 346.11 103.841C344.71 104.791 343.28 105.791 342.04 106.941C341.93 107.041 342.07 107.191 342.18 107.151C342.79 107.471 343.69 107.431 344.33 107.451C345.31 107.481 346.35 107.411 347.31 107.661C347.32 107.661 347.33 107.661 347.35 107.661Z" fill="#D57275"/>
<path d="M395.084 269.738C382.324 264.678 368.454 262.068 355.304 258.158C354.764 257.998 354.464 258.788 354.994 258.978C367.924 263.568 381.554 266.958 394.834 270.398C395.264 270.508 395.504 269.908 395.074 269.738H395.084ZM367.514 255.668C367.894 255.728 368.024 255.138 367.664 255.018C366.054 254.458 364.384 254.098 362.724 253.718C362.224 253.598 361.924 254.348 362.444 254.488C364.114 254.938 365.804 255.408 367.514 255.678V255.668ZM383.764 260.258C384.164 260.328 384.304 259.698 383.924 259.568C380.224 258.328 376.424 257.178 372.634 256.248C372.214 256.148 371.974 256.778 372.394 256.888C376.204 257.908 379.884 259.548 383.764 260.258ZM407.724 261.308C393.054 255.758 377.694 252.088 362.594 247.928C362.144 247.808 361.894 248.478 362.344 248.608C377.434 252.968 392.544 257.128 407.494 261.938C407.904 262.068 408.124 261.468 407.724 261.308ZM361.844 242.128C365.354 243.498 369.164 244.138 372.844 244.848C373.184 244.918 373.314 244.348 372.984 244.248C369.374 243.198 365.614 242.858 362.074 241.508C361.674 241.358 361.454 241.968 361.844 242.128Z" fill="#6B92B3"/>
<path d="M338.174 229.648C338.114 229.628 338.064 229.618 338.014 229.608C337.574 227.838 336.894 226.178 335.954 224.728C337.214 223.778 338.504 222.848 339.844 221.998C340.034 221.878 340.104 221.688 340.104 221.508C340.194 221.668 340.304 221.818 340.454 221.938C340.814 222.218 341.234 222.318 341.664 222.298C342.264 222.918 342.704 222.818 343.354 222.448C343.394 222.438 343.424 222.438 343.464 222.418C343.674 222.298 343.884 222.178 344.084 222.058C344.274 221.948 344.444 221.718 344.444 221.478C344.484 221.448 344.524 221.428 344.554 221.398C344.474 221.298 344.414 221.198 344.354 221.078C344.074 220.518 344.074 219.818 344.314 219.188C344.454 218.808 344.684 218.468 344.994 218.208C344.964 218.168 344.954 218.128 344.924 218.088C344.014 216.868 342.004 216.338 340.954 217.508C340.754 217.498 340.564 217.568 340.424 217.778C340.024 218.408 338.664 220.128 339.334 220.868C339.374 220.908 339.414 220.948 339.464 220.978C339.434 220.988 339.394 220.988 339.364 221.018C337.964 221.858 336.604 222.808 335.274 223.808C333.454 221.468 330.824 219.868 327.174 219.648C326.214 219.588 325.274 219.648 324.354 219.798C323.814 217.268 323.524 214.788 323.584 212.158C323.584 212.078 323.564 212.008 323.544 211.938C323.814 211.938 324.074 211.938 324.314 211.918C324.614 211.898 324.774 211.588 324.774 211.318C324.894 211.228 325.004 211.118 325.104 211.018C325.504 210.608 325.774 210.058 325.644 209.468C325.424 208.438 324.204 207.928 323.244 208.008C322.664 208.058 322.144 208.328 321.824 208.818C321.804 208.838 321.804 208.868 321.784 208.888C321.664 208.978 321.594 209.118 321.614 209.288C321.554 209.508 321.554 209.718 321.584 209.938C321.584 209.968 321.574 209.998 321.564 210.028C321.514 210.348 321.494 210.698 321.624 211.008C321.784 211.398 322.074 211.628 322.434 211.758C322.394 211.838 322.354 211.918 322.354 212.038C322.224 214.688 322.424 217.458 323.144 220.038C320.374 220.758 317.914 222.368 316.084 224.528C314.254 223.828 311.654 224.338 309.854 224.478C305.694 224.808 301.454 225.468 297.454 226.678C294.794 227.488 288.544 229.798 292.034 233.048C303.824 252.548 333.524 263.648 354.094 251.368C354.174 251.318 354.234 251.258 354.284 251.198C354.494 251.278 354.734 251.258 354.954 251.068C364.474 242.878 344.084 232.228 338.134 229.648H338.174ZM342.224 218.028C342.114 218.108 342.004 218.208 341.914 218.318C341.874 218.268 341.834 218.218 341.794 218.158C341.934 218.098 342.074 218.048 342.224 218.028ZM339.924 221.008C339.924 221.008 339.924 221.038 339.934 221.058C339.924 221.048 339.904 221.038 339.884 221.028C339.894 221.028 339.904 221.018 339.924 221.008ZM324.254 209.498C324.254 209.498 324.304 209.538 324.394 209.638C324.424 209.668 324.424 209.728 324.434 209.708C324.434 209.828 324.474 209.698 324.434 209.848C324.434 209.818 324.434 209.838 324.414 209.868C324.354 209.738 324.294 209.598 324.224 209.468C324.234 209.478 324.254 209.488 324.264 209.498H324.254ZM322.644 210.328C322.644 210.158 322.674 209.988 322.684 209.818C322.704 209.818 322.714 209.818 322.724 209.838C322.814 209.898 322.914 209.928 323.024 209.928C323.084 209.998 323.144 210.068 323.194 210.138C323.224 210.178 323.234 210.228 323.264 210.278C323.084 210.128 322.814 210.178 322.644 210.328ZM323.934 221.338C324.034 221.338 324.134 221.318 324.234 221.268C325.014 221.128 325.834 221.058 326.694 221.078C330.064 221.158 332.474 222.578 334.134 224.678C332.524 225.958 330.994 227.338 329.584 228.778C329.244 229.128 329.684 229.688 330.084 229.368C331.664 228.118 333.214 226.838 334.794 225.598C336.724 228.628 337.364 232.738 337.184 236.518C337.054 236.538 336.934 236.578 336.804 236.688C329.524 243.248 318.894 239.278 313.694 232.068C315.224 226.958 318.734 222.428 323.944 221.338H323.934ZM354.054 249.948C353.904 250.078 353.844 250.218 353.824 250.368C353.774 250.368 353.734 250.368 353.684 250.388C341.984 254.408 331.104 256.208 319.044 252.218C307.934 248.548 299.444 241.228 292.484 232.038C292.424 231.958 292.344 231.918 292.254 231.898C291.094 228.778 302.274 226.848 304.094 226.558C307.704 225.978 311.504 226.288 315.094 225.888C314.044 227.478 313.324 229.278 313.004 231.198C312.674 231.098 312.274 231.498 312.424 231.878C316.254 241.398 330.394 244.498 337.774 237.798C337.854 237.728 337.904 237.648 337.944 237.568C338.284 237.568 338.624 237.378 338.644 236.938C338.764 234.918 338.654 232.818 338.284 230.808C343.364 234.568 362.314 242.908 354.064 249.938L354.054 249.948ZM320.674 246.968C310.514 243.298 301.794 238.338 293.564 231.318C293.244 231.048 292.904 231.568 293.194 231.838C300.794 238.728 310.214 245.698 320.514 247.668C320.924 247.748 321.054 247.098 320.674 246.968ZM354.344 248.558C345.154 249.438 336.344 250.328 327.254 248.078C326.804 247.968 326.544 248.618 326.994 248.768C335.314 251.558 346.004 251.508 354.464 249.238C354.894 249.118 354.784 248.518 354.344 248.558ZM315.914 232.208C316.604 234.278 318.914 235.278 321.014 234.938C324.124 234.438 324.894 230.408 323.004 228.218C322.454 227.588 321.714 227.158 320.894 226.968C320.004 226.758 318.474 226.698 317.794 227.408C317.634 227.568 317.644 227.768 317.734 227.918C316.034 228.368 315.344 230.458 315.914 232.198V232.208ZM318.784 228.458C318.974 228.438 319.044 228.278 319.024 228.128C319.564 228.058 320.114 227.938 320.674 228.068C321.294 228.218 321.844 228.568 322.244 229.068C322.984 230.008 323.154 231.428 322.634 232.508C321.954 233.928 320.374 234.098 318.994 233.698C317.734 233.328 316.914 232.598 316.714 231.238C316.514 229.808 317.344 228.618 318.794 228.458H318.784Z" fill="#D9AF73"/>
</g>
</g>
<defs>
<linearGradient id="paint0_linear_481_4595" x1="17" y1="0" x2="17" y2="376" gradientUnits="userSpaceOnUse">
<stop stop-color="#A7E893"/>
<stop offset="0.375" stop-color="#8DD584"/>
<stop offset="1" stop-color="#9BC586" stop-opacity="0"/>
</linearGradient>
<linearGradient id="paint1_linear_481_4595" x1="131.333" y1="0" x2="131.333" y2="376" gradientUnits="userSpaceOnUse">
<stop stop-color="#A7E893"/>
<stop offset="0.375" stop-color="#8DD584"/>
<stop offset="1" stop-color="#9BC586" stop-opacity="0"/>
</linearGradient>
<linearGradient id="paint2_linear_481_4595" x1="245.667" y1="0" x2="245.667" y2="376" gradientUnits="userSpaceOnUse">
<stop stop-color="#A7E893"/>
<stop offset="0.375" stop-color="#8DD584"/>
<stop offset="1" stop-color="#9BC586" stop-opacity="0"/>
</linearGradient>
<linearGradient id="paint3_linear_481_4595" x1="360" y1="0" x2="360" y2="376" gradientUnits="userSpaceOnUse">
<stop stop-color="#A7E893"/>
<stop offset="0.375" stop-color="#8DD584"/>
<stop offset="1" stop-color="#9BC586" stop-opacity="0"/>
</linearGradient>
<clipPath id="clip0_481_4595">
<rect width="375" height="376" fill="white" transform="translate(0.5)"/>
</clipPath>
</defs>
</svg>
