<svg width="1440" height="360" viewBox="0 0 1440 360" fill="none" xmlns="http://www.w3.org/2000/svg">
<g clip-path="url(#clip0_361_9402)">
<rect width="1440" height="360" fill="#E3FCDC"/>
<path d="M164 0L164 360" stroke="url(#paint0_linear_361_9402)"/>
<path d="M534.667 0L534.667 360" stroke="url(#paint1_linear_361_9402)"/>
<path d="M905.333 0L905.333 360" stroke="url(#paint2_linear_361_9402)"/>
<path d="M1276 0V360" stroke="url(#paint3_linear_361_9402)"/>
<g opacity="0.8">
<path d="M184.593 81.0058C184.593 81.0058 184.683 80.9658 184.723 80.9358C184.913 80.8158 184.833 80.5558 184.633 80.5458C184.583 80.4258 184.533 80.3058 184.513 80.1658C184.473 79.8858 184.483 79.6158 184.343 79.3558C184.243 79.1858 183.963 79.1658 183.893 79.3758C183.753 79.8258 183.793 80.6158 184.133 80.9758C184.253 81.1058 184.453 81.1358 184.593 81.0158V81.0058ZM178.043 130.236C177.493 130.006 176.913 129.766 176.403 129.436C176.053 129.216 175.743 129.686 176.043 129.946C176.473 130.316 176.983 130.546 177.503 130.776C177.953 130.976 178.463 131.286 178.943 131.396C179.233 131.466 179.583 131.126 179.313 130.866C178.983 130.536 178.453 130.406 178.033 130.226L178.043 130.236ZM166.693 75.1658C166.163 75.8658 165.983 76.6558 165.813 77.4958C165.743 77.8258 166.313 77.9558 166.393 77.6258C166.573 76.8858 166.783 76.1658 167.253 75.5458C167.513 75.1958 166.963 74.8058 166.693 75.1558V75.1658ZM178.163 60.0358C178.723 59.3158 179.473 58.6758 180.353 58.3858C181.463 58.0258 182.013 58.5458 182.933 59.0558C183.163 59.1858 183.433 58.9858 183.323 58.7258C182.893 57.6958 181.563 57.3858 180.553 57.6058C179.343 57.8658 178.403 58.7458 177.753 59.7558C177.583 60.0258 177.963 60.2858 178.163 60.0358ZM180.393 58.9758C180.083 59.0258 180.083 59.5558 180.413 59.5458C180.753 59.5458 181.073 59.5858 181.403 59.6658C181.693 59.7358 181.983 59.9158 182.283 59.9158C182.453 59.9158 182.653 59.7358 182.533 59.5558C182.123 58.9158 181.053 58.8758 180.383 58.9758H180.393ZM243.673 110.606C243.543 110.596 243.433 110.646 243.363 110.736C241.973 111.136 240.743 111.946 239.423 112.526C237.733 113.266 236.133 113.206 234.403 113.616C234.263 113.646 234.173 113.746 234.113 113.846C233.103 114.236 232.213 114.766 231.073 114.636C229.893 114.506 229.143 113.806 228.173 113.246C228.023 113.156 227.823 113.196 227.693 113.306C223.433 112.236 215.843 112.186 213.683 108.046C213.643 107.976 213.593 107.926 213.533 107.886C212.843 107.276 211.893 106.996 211.093 106.606C210.863 106.496 210.683 106.606 210.593 106.786C210.263 106.816 209.943 106.886 209.613 106.906C209.343 106.926 209.073 106.916 208.803 106.926C204.073 103.796 199.673 100.676 195.973 96.2758C192.223 91.8058 190.103 86.8858 187.683 81.6858C187.653 81.6258 187.613 81.5858 187.563 81.5458C187.323 81.0558 187.053 80.6658 186.633 80.3058C186.323 80.0458 185.913 79.7358 185.493 79.6758C185.263 79.0658 185.023 78.4558 184.843 77.8258C184.733 77.4358 184.683 77.0258 184.543 76.6558C185.033 76.0958 185.463 75.3758 185.363 74.6458C185.363 74.5758 185.313 74.5158 185.273 74.4658C185.003 72.8358 184.583 71.2358 184.203 69.6258C183.853 68.1458 183.743 66.7258 183.653 65.2458C184.093 63.3858 184.483 61.5058 184.933 59.6458C185.233 58.4058 185.793 56.4358 184.613 55.4658C183.153 54.2758 180.613 55.6558 179.273 56.3858C177.573 57.3058 175.553 58.4758 174.183 60.0358C168.963 64.1158 164.193 70.7958 162.153 76.7958C162.123 76.8858 162.153 76.9658 162.203 77.0358C161.913 78.0058 162.053 79.1158 161.683 80.1058C161.283 81.1758 160.303 81.9858 159.993 83.0358C156.733 93.4358 157.413 104.696 162.473 114.336C162.503 114.386 162.543 114.426 162.583 114.446C163.303 116.336 164.313 118.886 165.833 120.066C166.683 120.726 167.853 120.906 168.743 121.556C170.703 122.996 172.243 125.606 172.123 128.096C172.113 128.356 172.283 128.506 172.483 128.556C181.193 136.146 192.843 141.606 204.613 140.636C205.953 140.756 207.193 141.536 208.523 141.496C209.633 141.466 210.453 140.636 211.363 140.076C216.213 139.896 220.743 137.876 224.943 135.556C228.963 133.336 233.453 130.906 236.683 127.596C238.373 125.866 249.653 111.196 243.673 110.616V110.606ZM239.583 121.906C237.243 125.636 234.453 128.386 230.703 130.756C224.373 134.766 218.263 137.806 210.923 139.446C209.973 139.676 209.323 140.666 208.243 140.626C207.133 140.576 206.113 139.926 205.023 139.996C192.543 139.676 182.953 135.266 173.023 127.996C173.083 125.506 171.823 123.086 169.993 121.426C168.993 120.516 168.043 120.316 166.953 119.656C164.913 118.416 164.053 115.506 162.813 113.576C158.913 103.686 157.973 93.6758 160.603 83.3358C160.603 83.3058 160.603 83.2858 160.603 83.2558C162.383 82.3558 163.803 78.3458 162.853 76.7558C164.593 73.8058 166.123 70.7858 168.173 68.0258C169.753 65.9058 171.573 64.0658 173.403 62.2158C173.523 62.2158 173.643 62.1858 173.733 62.0858C175.423 60.1758 177.543 58.6758 179.793 57.5058C180.913 56.9258 183.923 55.2358 184.003 57.4358C184.103 59.8958 182.203 62.5158 182.513 65.0158C182.443 65.2958 182.393 65.5858 182.413 65.8958C182.413 65.9958 182.463 66.0758 182.523 66.1158C182.493 67.2358 182.783 68.3858 183.043 69.4558C183.473 71.2358 183.923 73.0158 184.523 74.7558C184.423 75.0058 184.343 75.2658 184.243 75.5158C184.153 75.7458 184.053 75.9758 183.943 76.2058C183.833 76.2458 183.743 76.3058 183.713 76.4158C183.553 77.0258 183.803 77.6558 184.013 78.2358C184.233 78.8858 184.543 79.4458 184.943 79.9958C184.943 80.0858 184.943 80.1758 185.013 80.2458C185.273 80.5758 185.763 80.6958 186.093 80.9558C186.403 81.1958 186.713 81.5058 186.953 81.8358C186.953 81.8658 186.953 81.8958 186.953 81.9358C189.333 92.4758 198.603 103.036 208.383 107.466C208.403 107.476 208.413 107.506 208.443 107.506C208.463 107.506 208.493 107.506 208.513 107.516C208.543 107.526 208.573 107.546 208.613 107.566C208.673 107.596 208.733 107.596 208.793 107.576C209.453 107.716 210.253 107.726 210.813 107.426C211.443 107.746 212.133 108.076 212.823 108.286C212.823 108.336 212.833 108.386 212.853 108.436C213.983 111.046 215.743 111.476 218.373 112.156C221.453 112.956 224.653 113.806 227.833 114.036C228.513 114.886 229.773 115.406 230.803 115.556C232.143 115.756 233.323 115.256 234.433 114.556C237.263 115.546 241.453 113.246 243.583 111.436C245.563 112.246 240.143 121.036 239.593 121.906H239.583ZM164.503 103.436C167.583 104.396 167.373 98.5458 167.193 97.0358C167.153 96.7058 166.703 96.7758 166.653 97.0558C166.453 98.0558 166.533 99.0358 166.463 100.046C166.463 100.226 166.443 100.406 166.433 100.576C166.563 101.456 166.163 101.886 165.253 101.886C164.643 102.466 164.233 102.466 164.013 101.886C163.833 101.646 163.693 101.376 163.583 101.096C162.873 99.3258 163.043 97.3258 163.173 95.4758C163.203 95.0458 162.593 95.0058 162.523 95.4158C162.223 97.0658 162.083 98.7858 162.483 100.436C162.743 101.506 163.333 103.066 164.503 103.436ZM163.283 93.7358C163.723 93.4658 164.053 93.0658 164.403 92.6758C165.253 92.9758 165.793 93.7058 165.853 94.6358C165.873 94.9158 166.373 94.9058 166.363 94.6158C166.313 93.4058 165.563 92.3858 164.433 91.9358C164.323 91.8958 164.173 91.9058 164.083 91.9958C163.673 92.4358 163.183 92.8558 162.913 93.3958C162.813 93.5958 163.083 93.8458 163.283 93.7358ZM166.373 105.406C167.823 104.826 168.413 102.586 168.133 101.186C168.093 100.966 167.753 100.916 167.683 101.146C167.323 102.276 167.573 103.606 166.633 104.526C165.943 105.196 164.343 105.236 164.093 104.106C164.023 103.806 163.563 103.886 163.613 104.186C163.813 105.456 165.313 105.826 166.383 105.396L166.373 105.406ZM167.453 93.6758C167.323 95.4658 167.693 97.4058 167.903 99.1758C167.943 99.5158 168.443 99.4158 168.423 99.0858C168.323 97.3258 168.353 95.3758 167.923 93.6558C167.863 93.4058 167.473 93.3958 167.453 93.6758ZM175.833 81.0258C176.003 80.4258 176.283 79.8658 176.453 79.2658C176.683 78.4158 176.783 77.5858 176.473 76.7458C175.953 75.3458 174.503 74.7958 173.293 75.7658C171.593 77.1358 172.143 80.1858 172.563 81.9858C172.643 82.3258 173.163 82.2358 173.103 81.8958C172.903 80.7958 172.773 79.6758 172.823 78.5558C172.843 78.1158 172.903 77.6858 173.033 77.2658C173.943 77.1158 174.853 76.9658 175.773 76.8258C176.303 77.2258 175.853 78.8958 175.723 79.3258C175.513 80.0458 175.173 80.7258 175.043 81.4758C174.953 81.9658 175.213 85.6658 173.603 84.7658C173.233 84.5558 172.843 85.0758 173.213 85.3158C174.423 86.0958 175.383 85.0458 175.623 83.8558C175.813 82.9158 175.573 82.0058 175.843 81.0258H175.833ZM176.353 83.7558C177.013 82.6458 177.613 81.2958 177.583 79.9858C177.583 79.7358 177.193 79.5858 177.113 79.8758C176.743 81.1358 176.513 82.3458 175.933 83.5358C175.813 83.7758 176.213 83.9858 176.353 83.7558ZM188.613 106.676C189.683 105.286 189.383 103.376 188.723 101.756C189.523 102.836 190.093 103.966 189.883 105.426C189.663 107.036 188.553 108.346 187.153 109.106C186.873 109.256 187.073 109.696 187.373 109.566C190.763 108.096 191.963 102.966 188.573 100.716C188.453 100.636 188.323 100.676 188.243 100.746C188.163 100.596 188.083 100.436 188.003 100.296C187.093 98.7358 185.283 96.1958 183.213 96.9858C182.853 97.1258 183.043 97.6958 183.413 97.6158C185.393 97.2158 187.073 100.146 187.693 101.536C188.473 103.296 189.093 106.016 186.843 107.016C182.803 108.806 181.143 103.266 180.713 100.536C180.653 100.156 180.093 100.266 180.123 100.636C180.333 103.226 181.103 106.196 183.583 107.526C185.213 108.396 187.423 108.206 188.603 106.676H188.613ZM181.883 95.6158C181.523 95.7158 181.193 95.8758 181.003 96.2158C180.813 96.5558 180.923 96.7358 181.143 96.9958C181.303 97.1758 181.603 96.9958 181.523 96.7758C181.583 96.6858 181.643 96.5858 181.733 96.5158C181.953 96.3558 182.303 96.3158 182.563 96.3058C183.073 96.2858 183.503 96.5758 183.993 96.5758C184.193 96.5758 184.403 96.3758 184.283 96.1558C183.863 95.4058 182.613 95.3858 181.883 95.6058V95.6158ZM180.943 99.3758C180.943 99.7558 181.453 99.7958 181.523 99.4358C181.633 98.8658 182.023 98.6158 182.443 98.2858C182.613 98.1558 182.523 97.8158 182.293 97.8258C181.493 97.8458 180.953 98.6358 180.933 99.3858L180.943 99.3758ZM197.633 105.736C198.153 108.116 201.073 110.236 203.463 110.146C204.313 110.116 204.963 109.646 205.053 108.756C205.173 107.556 204.133 106.616 203.143 106.166C202.913 106.056 202.653 106.406 202.853 106.586C203.413 107.116 204.593 107.806 204.393 108.696C204.073 110.156 201.843 109.206 201.153 108.846C199.613 108.056 198.883 106.826 198.043 105.386C198.023 105.356 198.003 105.356 197.983 105.336C197.983 105.086 197.983 104.846 197.983 104.596C198.303 104.596 198.573 104.686 198.913 104.706C199.133 104.716 199.333 104.426 199.153 104.246C198.753 103.856 198.123 103.846 197.603 103.956C197.423 103.996 197.313 104.156 197.333 104.336C197.383 104.736 197.433 105.146 197.483 105.546C197.493 105.646 197.573 105.696 197.653 105.726L197.633 105.736ZM194.683 128.676C194.433 128.596 194.193 128.966 194.453 129.106C195.423 129.646 196.513 129.996 197.443 130.596C199.353 131.826 199.493 135.126 197.103 135.566C196.293 135.716 195.403 135.656 194.593 135.546C191.153 135.086 188.143 133.406 185.803 130.876C185.553 130.606 185.133 130.966 185.373 131.246C188.143 134.496 193.893 137.926 198.323 136.046C199.803 135.416 200.603 134.166 200.183 132.536C199.563 130.156 196.723 129.296 194.673 128.686L194.683 128.676ZM185.093 129.536C185.033 129.896 185.563 129.926 185.643 129.586C186.003 127.976 187.593 127.086 189.163 127.166C190.543 127.236 191.663 127.966 192.823 128.606C193.173 128.796 193.503 128.346 193.183 128.096C190.753 126.126 185.783 125.496 185.103 129.536H185.093ZM178.643 113.876C178.423 113.816 178.153 114.086 178.353 114.286C178.773 114.706 179.163 115.026 179.283 115.646C179.403 116.246 179.283 116.946 178.843 117.396C177.863 118.366 176.083 117.736 175.653 116.526C175.573 116.296 175.163 116.416 175.243 116.656C175.723 118.256 177.853 119.056 179.173 117.906C180.263 116.956 180.273 114.316 178.633 113.876H178.643ZM224.953 121.106C223.543 120.386 221.223 121.206 219.873 121.726C219.553 121.846 219.753 122.276 220.043 122.256C221.113 122.176 222.123 121.786 223.183 121.626C225.073 121.346 226.323 123.026 225.663 124.796C224.473 128.006 220.413 126.916 218.073 125.986C217.833 125.886 217.623 126.266 217.863 126.396C220.473 127.906 225.883 128.606 226.563 124.426C226.773 123.156 226.133 121.706 224.963 121.106H224.953ZM216.893 125.046C217.033 125.406 217.543 125.146 217.433 124.786C217.243 124.186 217.463 123.556 217.873 123.106C218.053 122.906 218.283 122.726 218.543 122.636C218.793 122.536 219.063 122.546 219.313 122.436C219.493 122.356 219.543 122.056 219.353 121.956C218.633 121.576 217.733 122.176 217.283 122.726C216.743 123.386 216.593 124.256 216.893 125.046ZM206.093 123.356C204.423 122.896 202.493 123.726 201.753 125.296C201.593 125.626 202.083 125.836 202.293 125.576C203.223 124.426 204.643 123.606 206.153 124.186C207.543 124.726 207.853 125.946 208.283 127.216C208.363 127.446 208.763 127.426 208.813 127.196C209.213 125.506 207.643 123.776 206.083 123.346L206.093 123.356ZM216.183 114.326C216.533 114.906 215.763 114.946 215.403 114.896C214.653 114.786 213.993 114.316 213.613 113.676C213.463 113.416 213.043 113.606 213.183 113.886C213.723 114.946 215.243 115.986 216.463 115.396C217.793 114.756 216.323 113.376 215.433 113.266C215.083 113.226 215.003 113.706 215.303 113.846C215.563 113.966 216.023 114.076 216.183 114.336V114.326ZM198.643 136.736C193.423 136.926 189.373 136.166 185.503 132.356C185.263 132.116 184.873 132.436 185.093 132.706C188.133 136.416 194.003 138.866 198.723 137.226C198.953 137.146 198.883 136.726 198.633 136.736H198.643ZM200.943 131.446C201.423 132.586 201.703 133.776 201.093 134.946C200.913 135.276 201.373 135.626 201.593 135.296C202.383 134.066 202.543 132.236 201.373 131.176C201.163 130.986 200.823 131.176 200.943 131.456V131.446ZM191.783 126.216C193.293 127.246 195.123 127.896 196.843 128.496C197.133 128.596 197.303 128.156 197.013 128.046C195.313 127.366 193.703 126.476 192.003 125.826C191.763 125.736 191.583 126.076 191.793 126.226L191.783 126.216ZM186.683 97.4258C186.873 97.9758 187.193 98.4458 187.553 98.8858C187.793 99.1858 188.293 98.8658 188.113 98.5258C187.853 98.0058 187.563 97.5258 187.143 97.1258C186.913 96.9058 186.573 97.1258 186.683 97.4258ZM194.793 98.0058C191.993 94.1158 189.963 90.0858 187.663 85.9258C187.523 85.6758 187.053 85.7758 187.143 86.0958C188.433 90.5058 191.363 94.9358 194.373 98.3658C194.603 98.6258 194.983 98.2958 194.783 98.0158L194.793 98.0058ZM185.623 84.7358C185.613 85.3358 185.933 85.9658 186.133 86.5158C186.233 86.8058 186.733 86.6458 186.653 86.3458C186.503 85.7658 186.433 85.0758 186.083 84.5858C185.953 84.4058 185.623 84.5158 185.623 84.7258V84.7358ZM186.953 83.8058C186.563 83.1758 186.223 82.3858 185.663 81.8958C185.503 81.7558 185.193 81.9458 185.253 82.1558C185.473 82.8658 186.043 83.5058 186.463 84.1258C186.643 84.3958 187.133 84.0958 186.953 83.8058ZM198.213 108.056C198.023 107.836 197.603 108.076 197.763 108.346C199.163 110.806 202.923 112.566 205.663 111.526C205.873 111.446 205.813 111.086 205.583 111.086C204.203 111.066 202.973 111.166 201.643 110.676C200.203 110.136 199.203 109.196 198.213 108.066V108.056ZM202.813 105.656C203.053 105.676 203.173 105.356 202.973 105.216C202.683 105.006 202.333 104.876 202.033 104.676C201.703 104.456 201.413 104.196 201.143 103.906C200.903 103.636 200.493 103.986 200.713 104.266C201.203 104.886 201.983 105.586 202.803 105.646L202.813 105.656ZM212.873 115.446C213.093 115.706 213.453 115.376 213.273 115.106C212.773 114.366 212.273 113.626 211.823 112.856C212.223 112.286 212.843 112.246 213.513 112.366C213.803 112.416 213.953 111.976 213.713 111.826C212.943 111.346 211.823 111.736 211.343 112.456C211.013 112.956 211.383 113.286 211.663 113.736C212.033 114.326 212.423 114.896 212.873 115.436V115.446ZM213.293 113.066C213.693 113.206 214.113 113.356 214.543 113.306C214.743 113.286 214.813 112.976 214.643 112.876C214.273 112.656 213.833 112.616 213.403 112.586C213.123 112.566 213.023 112.976 213.293 113.066ZM224.123 119.466C221.883 119.116 220.203 120.946 218.023 121.016C217.703 121.026 217.633 121.486 217.973 121.526C219.303 121.706 220.293 121.106 221.493 120.606C223.713 119.686 225.493 120.276 226.873 122.196C227.083 122.486 227.513 122.176 227.373 121.866C226.803 120.566 225.523 119.676 224.123 119.456V119.466ZM222.303 127.906C218.943 128.606 216.333 126.976 215.923 123.476C215.893 123.196 215.453 123.216 215.423 123.496C215.163 127.046 219.173 130.016 222.453 128.386C222.703 128.266 222.583 127.846 222.303 127.906ZM232.443 122.866C232.123 122.736 231.953 123.226 232.253 123.366C233.303 123.846 234.633 122.786 234.283 121.636C234.123 121.126 233.693 120.756 233.183 120.626C232.743 120.506 231.923 120.576 231.783 121.116C231.723 121.326 231.873 121.526 232.103 121.496C232.403 121.466 232.593 121.256 232.923 121.296C233.193 121.326 233.503 121.466 233.653 121.706C234.093 122.416 233.073 123.116 232.443 122.866ZM209.403 134.956C208.993 135.226 209.283 135.926 209.743 135.666C210.383 135.306 213.913 133.496 214.333 134.906C214.833 136.576 210.853 136.706 209.983 136.716C209.613 136.716 209.543 137.296 209.923 137.306C211.383 137.336 215.483 137.246 215.013 134.796C214.583 132.546 210.483 134.276 209.403 134.956ZM164.803 111.306C163.793 111.216 163.753 112.306 163.853 113.026C164.053 114.546 164.753 116.016 165.823 117.106C166.123 117.406 166.583 117.026 166.333 116.676C165.793 115.946 165.303 115.196 164.993 114.336C164.953 114.226 164.543 113.106 164.633 112.886C165.013 111.946 165.593 112.876 165.813 113.146C166.973 114.586 167.483 116.326 167.593 118.156C167.613 118.556 168.293 118.526 168.303 118.126C168.343 116.636 167.993 115.196 167.263 113.886C166.823 113.086 165.863 111.406 164.813 111.306H164.803ZM235.683 124.916C234.503 125.856 233.593 127.116 232.413 128.096C231.133 129.156 229.783 130.106 228.303 130.866C228.013 131.016 228.223 131.476 228.523 131.336C231.283 130.056 234.733 128.076 236.153 125.256C236.293 124.976 235.893 124.746 235.673 124.926L235.683 124.916ZM237.483 122.636C237.143 122.786 236.963 123.066 236.743 123.346C236.403 123.766 237.093 124.246 237.423 123.826C237.653 123.536 237.853 123.316 237.923 122.946C237.973 122.706 237.683 122.556 237.483 122.636ZM240.533 117.506C240.043 118.006 239.753 118.636 239.423 119.246C239.083 119.856 238.773 120.476 238.463 121.106C238.293 121.446 238.863 121.746 239.063 121.416C239.433 120.806 239.793 120.196 240.143 119.576C240.463 119.006 240.833 118.456 240.983 117.816C241.043 117.576 240.763 117.276 240.543 117.506H240.533ZM240.573 113.866C240.243 113.986 240.423 114.526 240.763 114.446C241.293 114.326 241.253 115.016 241.363 115.306C241.423 115.466 241.643 115.526 241.783 115.456C242.273 115.216 242.143 114.566 241.863 114.206C241.533 113.776 241.063 113.696 240.573 113.866ZM234.243 115.936C234.453 115.676 234.123 115.416 233.873 115.496C233.003 115.776 232.273 116.256 231.343 116.386C230.333 116.526 229.373 116.446 228.423 116.086C228.083 115.956 227.913 116.456 228.233 116.606C230.013 117.416 232.863 117.626 234.253 115.946L234.243 115.936ZM234.923 115.796C235.163 115.666 235.323 115.576 235.503 115.366C235.693 115.146 235.443 114.746 235.163 114.826C234.903 114.906 234.743 115.006 234.533 115.176C234.203 115.436 234.553 115.986 234.933 115.796H234.923ZM226.473 114.146C225.823 113.876 224.993 113.956 224.403 114.336C224.153 114.496 224.333 114.926 224.613 114.776C225.143 114.476 225.663 114.526 226.193 114.796C226.683 115.036 226.853 115.486 227.193 115.866C227.363 116.056 227.673 115.956 227.703 115.706C227.793 114.976 227.083 114.406 226.483 114.146H226.473ZM182.193 70.5758C182.353 71.2658 182.613 71.9058 182.683 72.6158C182.773 73.4758 182.613 74.2958 182.383 75.1158C182.273 75.5158 182.823 75.7258 182.993 75.3458C183.633 73.8658 183.683 71.6858 182.643 70.3658C182.483 70.1658 182.133 70.3258 182.193 70.5758ZM164.213 78.9858C164.063 77.2758 164.523 75.8158 165.333 74.3358C165.863 73.3658 166.603 72.5258 167.023 71.5158C167.133 71.2358 166.773 70.9858 166.543 71.1858C164.503 72.9658 163.073 76.4258 163.623 79.0958C163.703 79.4758 164.243 79.3658 164.213 78.9958V78.9858ZM161.813 83.2758C160.513 83.9958 159.973 85.7058 160.123 87.1058C160.163 87.4858 160.733 87.3758 160.703 87.0058C160.613 85.6258 161.243 84.7258 162.133 83.7658C162.343 83.5458 162.133 83.0958 161.813 83.2758Z" fill="#FEC841"/>
<path d="M1318.72 186.975C1314.17 178.507 1306.6 172.313 1297.39 169.549C1288.19 166.772 1278.45 167.752 1269.98 172.299C1261.51 176.846 1255.31 184.415 1252.55 193.618C1249.77 202.821 1250.75 212.555 1255.3 221.023C1257.07 224.331 1259.32 227.271 1261.93 229.817C1261.62 230.362 1262.29 230.906 1262.68 230.525C1265.88 233.452 1269.6 235.793 1273.7 237.413C1273.49 237.876 1274.19 238.244 1274.43 237.822C1274.46 237.781 1274.47 237.754 1274.5 237.727C1275.2 237.985 1275.9 238.23 1276.63 238.448C1280.06 239.483 1283.57 240 1287.06 240C1292.91 240 1298.73 238.557 1304.03 235.698C1312.5 231.151 1318.69 223.582 1321.46 214.379C1324.22 205.176 1323.25 195.442 1318.71 186.975H1318.72ZM1254.73 194.272C1257.33 185.654 1263.13 178.562 1271.06 174.3C1276.03 171.632 1281.47 170.271 1286.96 170.271C1290.23 170.271 1293.51 170.747 1296.73 171.714C1298.28 172.177 1299.76 172.789 1301.21 173.456C1298.31 177.2 1295.5 173.906 1292.12 174.872C1290.57 175.308 1289.15 176.724 1288.2 177.908C1287.06 179.324 1286.8 180.93 1285.85 182.373C1284.4 184.538 1282.74 184.987 1280.33 185.491C1278.6 185.736 1276.87 185.872 1275.13 185.886C1274.05 185.927 1273.22 185.586 1272.66 184.878C1271.11 184.919 1271.46 184.13 1269.27 185.423C1267.07 186.73 1264.89 188.595 1263.29 190.623C1260.5 194.163 1259.39 197.457 1254.27 195.973C1254.4 195.402 1254.57 194.83 1254.73 194.258V194.272ZM1254.06 196.899C1258.38 198.301 1260.22 196.79 1263.09 192.72C1264.98 190.038 1268.84 185.573 1272.01 185.709C1272.89 185.75 1274.56 186.866 1275.74 186.975C1280.41 187.397 1284.81 186.444 1287.06 182.387C1288 180.699 1288.34 178.902 1290.03 177.622C1296.11 172.98 1294.52 177.377 1298.24 176.778C1300.44 176.424 1301.44 175.607 1302.46 174.042C1303.51 174.586 1304.54 175.172 1305.52 175.812C1305.43 175.852 1305.33 175.907 1305.25 176.002C1304.16 177.295 1304.79 179.555 1303.89 180.699C1303.56 181.121 1303.48 181.352 1303.48 181.448C1303.43 181.298 1303.1 180.917 1301.66 180.522C1300.97 180.331 1300.02 180.059 1299.3 180.209C1296.1 180.903 1296.78 183.326 1296.1 185.899C1294.22 193.101 1285.3 187.465 1281.69 193.822C1280.6 195.756 1281.24 197.702 1280.87 199.744C1278.82 211.139 1268.21 203.298 1263.96 198.165C1263.72 197.866 1263.16 197.852 1262.94 198.206C1260.75 201.909 1258.83 207.232 1253.43 207.246C1253.09 203.815 1253.31 200.316 1254.06 196.886V196.899ZM1259.07 222.86C1258.45 221.921 1257.85 220.954 1257.3 219.933C1255.31 216.231 1254.06 212.255 1253.54 208.212C1255.71 208.403 1257.3 207.994 1259.07 206.415C1260.15 205.449 1261.91 200.983 1262.95 200.657C1264.89 200.071 1265.75 202.236 1267.11 203.393C1271.03 206.674 1278.46 209.478 1281.57 203.434C1282.73 201.187 1281.53 198.655 1282.21 196.382C1284.82 187.642 1290.87 194.313 1295.36 190.8C1299.91 187.233 1294.89 178.779 1304.45 183.095C1304.91 183.299 1305.44 182.823 1305.35 182.346C1304.9 180.263 1306.01 178.684 1305.31 176.942C1305.58 177.595 1306.67 177.255 1306.5 176.56C1310.7 179.474 1314.21 183.381 1316.72 188.05C1312.77 190.051 1309.53 193.469 1304.75 192.978C1304.41 192.938 1304.01 193.223 1304.01 193.591C1303.9 201.215 1299.44 211.82 1289.84 206.47C1289.48 206.265 1289.07 206.361 1288.9 206.755C1288.28 208.226 1287 210.581 1285.46 211.194C1284.85 211.439 1282.51 210.908 1281.8 211.33C1281.01 211.806 1280.92 212.977 1280.19 213.481C1278.08 214.964 1276.86 213.276 1274.42 213.93C1267.65 215.74 1268.78 226.332 1259.6 222.67C1259.39 222.588 1259.2 222.697 1259.09 222.86H1259.07ZM1302.96 233.697C1301.12 234.677 1299.22 235.48 1297.28 236.106C1297.34 235.793 1297.39 235.48 1297.49 235.181C1297.83 234.16 1298.4 233.207 1299.11 232.39C1300.78 230.457 1302.99 229.531 1305.44 229.055C1305.66 229.014 1305.8 228.85 1305.84 228.66C1306.86 226.345 1307.73 224.263 1309.89 222.765C1311.76 221.472 1313.94 220.995 1316.15 220.9C1313.04 226.264 1308.55 230.702 1302.95 233.697H1302.96ZM1319.29 213.726C1318.64 215.877 1317.79 217.946 1316.76 219.879C1311.69 219.471 1305.52 222.534 1304.92 228.02C1302.38 228.02 1299.95 229.34 1298.24 231.192C1297.09 232.417 1295.64 234.636 1295.72 236.556C1289.73 238.176 1283.38 238.094 1277.28 236.256C1276.84 236.12 1276.42 235.943 1275.99 235.793C1281.94 229.667 1292.45 233.928 1298.26 226.659C1301.37 222.765 1302.62 217.497 1306.46 214.189C1310.62 210.608 1316.53 210.132 1320.63 206.442C1320.45 208.879 1320 211.302 1319.28 213.698L1319.29 213.726ZM1320.71 205.19C1320.57 205.163 1320.41 205.19 1320.26 205.312C1315.7 208.974 1309.35 209.682 1305.09 213.685C1301.7 216.884 1300.39 221.622 1297.64 225.297C1291.86 233.03 1280.1 228.034 1274.83 235.412C1270.84 233.874 1267.24 231.614 1264.17 228.769C1267.88 225.202 1273.25 225.869 1276.84 221.894C1277.97 220.641 1277.24 220.015 1278.95 219.021C1279.84 218.504 1282.56 218.395 1283.54 218.177C1286.66 217.497 1289.75 216.625 1292.78 215.577C1298.02 213.766 1302.91 211.792 1305.84 206.892C1309.42 200.874 1309.83 194.626 1318.34 193.891C1319.17 193.822 1318.94 192.556 1318.12 192.624C1310.64 193.21 1308.76 197.838 1305.86 203.91C1301.12 213.821 1287.6 216.707 1277.5 217.851C1277.28 217.878 1277.06 218.068 1276.99 218.273C1274.99 224.412 1267.52 223.759 1263.34 227.993C1262.03 226.699 1260.84 225.27 1259.75 223.759C1269.2 228.565 1270.47 211.616 1279.19 216.271C1279.47 216.421 1279.92 216.448 1280.11 216.108C1282.17 212.473 1285.83 212.718 1288.72 210.145C1291.2 207.94 1289.75 208.893 1292.7 209.124C1294.72 209.288 1296.17 209.478 1298.12 208.593C1301.87 206.864 1303.97 202.44 1304.86 198.628C1305.71 194.912 1305.5 195.511 1308.64 194.299C1311.81 193.074 1314.35 190.841 1317.4 189.344C1319.82 194.34 1320.95 199.758 1320.75 205.19H1320.71ZM1301.79 232.703C1301.36 232.703 1301.27 233.397 1301.72 233.397C1302.17 233.397 1302.24 232.703 1301.79 232.703ZM1271.27 211.071C1266.4 208.294 1262.9 211.343 1259.69 214.774C1259.22 214.679 1258.92 215.114 1259.05 215.468C1258.79 215.754 1258.53 216.04 1258.27 216.312C1257.86 216.748 1258.46 217.483 1258.88 217.034C1259.2 216.693 1259.51 216.339 1259.82 215.985C1264 217.565 1268.35 214.216 1271.63 211.942C1272.05 211.643 1271.71 211.057 1271.27 211.057V211.071ZM1260.71 214.992C1261.48 214.134 1262.27 213.29 1263.19 212.568C1265.49 210.744 1267.64 210.663 1270.13 211.561C1266.9 213.222 1264.51 215.591 1260.71 214.992ZM1294.07 201.569C1295.56 200.806 1296.39 198.873 1296.73 197.335C1296.84 196.858 1296.09 196.736 1295.91 197.144C1295.9 197.185 1295.87 197.239 1295.85 197.294C1294.86 196.491 1293.31 196.178 1292.08 196.586C1290.82 197.008 1290.2 198.179 1290.12 199.445C1290.08 200.071 1290.97 200.139 1291.07 199.54C1291.25 198.587 1291.67 197.73 1292.71 197.539C1293.68 197.362 1294.57 197.811 1295.49 198.056C1295.51 198.056 1295.53 198.056 1295.56 198.056C1295.17 199.05 1294.75 200.071 1293.87 200.67C1292.76 201.419 1291.52 200.847 1290.53 200.18C1290.08 199.881 1289.6 200.561 1290.05 200.874C1291.24 201.678 1292.68 202.29 1294.06 201.582L1294.07 201.569ZM1304.38 188.976C1307.09 190.024 1309.55 187.71 1309.95 185.082C1309.98 184.865 1309.87 184.742 1309.72 184.674C1309.7 184.674 1309.69 184.633 1309.68 184.633C1307.48 183.599 1305.01 185.232 1304.41 187.383C1304.24 187.955 1305.06 188.282 1305.29 187.71C1305.62 186.879 1306.16 186.117 1306.98 185.722C1307.59 185.423 1308.21 185.396 1308.85 185.423C1308.42 186.294 1307.99 187.179 1307.16 187.724C1306.38 188.227 1305.47 188.295 1304.58 188.146C1304.11 188.064 1303.96 188.785 1304.39 188.962L1304.38 188.976ZM1291.92 221.676C1289.85 225.91 1286.04 229.327 1281.09 227.448C1281.04 227.421 1280.98 227.421 1280.93 227.421C1282.4 223.242 1286.24 222.289 1290.54 222.302C1291.1 222.302 1291.18 221.513 1290.63 221.431C1285.64 220.669 1280.82 223.092 1279.85 228.224C1279.77 228.673 1280.53 228.85 1280.63 228.401C1280.63 228.36 1280.66 228.333 1280.66 228.292C1280.68 228.306 1280.71 228.333 1280.75 228.347C1286.09 230.43 1290.76 226.904 1292.63 221.935C1292.8 221.472 1292.12 221.24 1291.92 221.676ZM1315.97 199.268C1315.85 199.676 1315.72 200.085 1315.61 200.493C1315.59 200.466 1315.57 200.439 1315.53 200.425C1313.01 199.635 1310.71 201.95 1309.99 204.182C1309.81 204.741 1310.64 205.054 1310.83 204.496C1311.46 202.671 1313.27 200.833 1315.36 201.201C1315.11 202.045 1314.77 202.862 1314.18 203.597C1313.07 205.013 1311.45 205.666 1309.72 205.979C1309.19 206.075 1309.34 206.837 1309.85 206.783C1313.67 206.456 1316.65 203.325 1316.79 199.445C1316.8 198.982 1316.1 198.764 1315.95 199.254L1315.97 199.268ZM1271.67 179.161C1273.51 180.549 1275.77 181.842 1278.14 181.325C1279.83 180.958 1281.01 179.719 1281.71 178.221C1281.96 178.099 1282.07 177.786 1281.99 177.527C1282.07 177.295 1282.14 177.078 1282.2 176.846C1282.32 176.343 1281.62 176.057 1281.42 176.56C1281.34 176.765 1281.24 176.969 1281.16 177.173C1277.99 176.955 1274.68 177.472 1271.61 178.221C1271.06 178.357 1271.17 179.174 1271.67 179.174V179.161ZM1280.62 178.248C1279.94 179.46 1279 180.467 1277.43 180.59C1275.74 180.726 1274.15 179.909 1272.76 178.956C1275.35 178.412 1277.97 178.153 1280.62 178.248ZM1261.99 186.839C1262.41 184.715 1263.63 181.625 1265.77 180.536C1265.21 183.748 1263.96 186.457 1261.54 188.813C1261.13 189.207 1261.69 189.874 1262.11 189.493C1264.62 187.165 1267.13 183.381 1266.7 179.8C1266.67 179.542 1266.45 179.46 1266.26 179.487C1263.12 179.95 1260.98 183.83 1260.86 186.743C1260.83 187.478 1261.84 187.547 1261.99 186.852V186.839Z" fill="#B2C0CB"/>
<path d="M1184.15 66.0411C1183.44 65.3211 1182.71 64.4711 1181.79 64.0111C1181.68 63.9611 1181.6 64.0911 1181.67 64.1711C1181.75 65.3311 1182.1 66.5111 1182.34 67.6411C1182.57 68.7011 1182.76 69.8111 1183.11 70.8411C1181.71 71.7911 1180.28 72.7911 1179.04 73.9411C1178.93 74.0411 1179.07 74.1911 1179.18 74.1511C1179.79 74.4711 1180.69 74.4311 1181.33 74.4511C1182.31 74.4811 1183.35 74.4111 1184.31 74.6611C1184.55 75.3711 1184.97 76.0611 1185.29 76.7211C1185.67 77.5211 1186.04 78.3411 1186.5 79.1011C1186.52 79.1311 1186.55 79.1511 1186.58 79.1611C1186.63 79.2311 1186.74 79.2511 1186.79 79.1611C1187.13 78.4211 1187.28 77.5311 1187.49 76.7411C1187.68 76.0311 1188.04 75.2211 1188.12 74.4711C1188.98 74.3711 1189.84 74.5311 1190.7 74.6011C1191.22 74.6411 1191.99 74.7711 1192.48 74.4811C1192.58 74.5111 1192.71 74.4111 1192.63 74.3011C1191.75 73.0811 1190.41 72.1711 1189.28 71.1911C1189.49 70.4211 1189.76 69.6811 1190.05 68.9311C1190.31 68.2411 1190.63 67.5011 1190.66 66.7611C1190.77 66.6911 1190.69 66.5511 1190.59 66.6011C1189.32 67.1811 1187.69 67.4811 1186.57 68.3611C1185.86 67.5411 1184.92 66.8111 1184.15 66.0411Z" fill="#1A375F"/>
<path d="M372.23 273.186C372.23 273.186 372.2 273.166 372.19 273.156C372.07 273.086 371.93 273.266 372.04 273.356C373.56 274.536 375.17 275.976 376.94 276.776C376.7 277.686 376.71 278.696 376.65 279.626C376.58 280.706 376.53 281.796 376.58 282.876C376.58 283.036 376.77 283.046 376.83 282.946C377.8 282.466 378.6 281.686 379.45 281.026C380.15 280.496 380.83 279.956 381.46 279.336C382.83 280.106 384.23 280.816 385.68 281.436C385.76 281.496 385.87 281.536 385.97 281.556C386.25 281.676 386.53 281.796 386.82 281.906C387.02 281.976 387.11 281.716 386.98 281.586C386.98 281.406 387 281.226 386.98 281.046C387 280.946 386.99 280.846 386.94 280.766C386.75 279.166 385.93 277.576 385.64 276.026C385.64 276.006 385.63 275.986 385.62 275.966C387 274.676 388.19 272.806 389.22 271.246C389.25 271.206 389.25 271.166 389.25 271.126C389.31 271.016 389.25 270.836 389.1 270.846C388.08 270.896 387.08 270.936 386.06 270.926C385.23 270.926 384.33 270.856 383.51 271.046C382.87 270.116 382.4 269.106 381.87 268.116C381.51 267.456 381.08 266.596 380.42 266.176C380.42 266.016 380.18 265.916 380.08 266.096C379.13 267.836 378.61 269.796 378.08 271.666C376.13 272.096 374.06 272.436 372.22 273.206L372.23 273.186Z" fill="#366394"/>
<path d="M983.35 250.661C983.55 251.371 983.98 252.061 984.29 252.721C984.67 253.521 985.04 254.341 985.5 255.101C985.52 255.131 985.55 255.151 985.58 255.161C985.63 255.231 985.74 255.251 985.79 255.161C986.13 254.421 986.28 253.531 986.49 252.741C986.68 252.031 987.04 251.221 987.12 250.471C987.98 250.371 988.84 250.531 989.7 250.601C990.22 250.641 990.99 250.771 991.48 250.481C991.58 250.511 991.71 250.411 991.63 250.301C990.75 249.081 989.41 248.171 988.28 247.191C988.49 246.421 988.76 245.681 989.05 244.931C989.31 244.241 989.63 243.501 989.66 242.761C989.77 242.691 989.69 242.551 989.59 242.601C988.32 243.181 986.69 243.481 985.57 244.361C984.86 243.541 983.92 242.811 983.15 242.041C982.44 241.321 981.71 240.471 980.79 240.011C980.68 239.961 980.6 240.091 980.67 240.171C980.75 241.331 981.1 242.511 981.34 243.641C981.57 244.701 981.76 245.811 982.11 246.841C980.71 247.791 979.28 248.791 978.04 249.941C977.93 250.041 978.07 250.191 978.18 250.151C978.79 250.471 979.69 250.431 980.33 250.451C981.31 250.481 982.35 250.411 983.31 250.661C983.32 250.661 983.33 250.661 983.35 250.661Z" fill="#D57275"/>
<path d="M245.73 320.112C241.97 321.232 238.57 322.782 234.61 321.362C231.48 320.242 229.15 317.612 227.93 314.582C224.75 306.672 229.1 298.852 236.21 295.082C236.73 294.812 236.35 294.002 235.82 294.252C227.93 298.002 223.37 306.622 226.82 315.112C229.89 322.672 239.3 325.902 246.1 320.882C246.44 320.632 246.16 319.992 245.74 320.122L245.73 320.112ZM248.24 315.502C243.35 314.882 239.01 314.182 236.41 309.402C234.13 305.222 234.82 300.482 237.56 296.722C237.86 296.302 237.24 295.892 236.91 296.272C230.16 304.242 236.91 319.552 248.27 316.452C248.77 316.312 248.79 315.582 248.23 315.512L248.24 315.502ZM256.48 301.622C256.78 301.282 256.29 300.722 255.91 300.942C253.07 302.562 250.27 303.642 246.96 302.692C243.68 301.742 241.57 299.192 241.32 295.802C241.28 295.312 240.44 295.342 240.45 295.842C240.54 303.572 251.36 307.542 256.49 301.622H256.48ZM242.99 290.612C242.56 290.292 241.93 290.932 242.34 291.332C247.6 296.402 255.61 297.832 261.54 292.962C266.98 288.502 268.69 279.302 264.09 273.652C263.8 273.302 263.13 273.572 263.25 274.042C264.88 280.352 266.45 286.462 260.87 291.462C255.34 296.422 248.41 294.652 242.99 290.602V290.612ZM241.65 286.312C241.08 286.112 240.79 286.942 241.33 287.182C245.47 288.972 250.17 289.032 253.92 286.242C256.88 284.032 259.05 279.882 257.79 276.212C257.63 275.742 256.93 275.942 256.89 276.372C256.49 280.042 256.13 283.102 252.81 285.402C249.47 287.722 245.37 287.622 241.66 286.322L241.65 286.312ZM229.19 261.492C234.59 262.132 239.36 262.682 241.98 268.252C244.33 273.262 242.74 278.772 239.28 282.812C238.92 283.232 239.6 283.852 240 283.462C244.41 279.122 246.07 272.912 243.18 267.182C240.72 262.302 234.48 258.632 229.03 260.492C228.51 260.672 228.73 261.432 229.2 261.482L229.19 261.492ZM226.84 270.802C229.32 271.252 231.6 272.452 233.16 274.462C234.89 276.702 234.96 279.132 234.84 281.822C234.81 282.432 235.75 282.722 235.94 282.072C237.74 276.052 232.78 270.392 226.93 269.812C226.29 269.752 226.22 270.682 226.84 270.792V270.802ZM219.05 275.682C224.82 276.232 230.16 279.812 232.51 285.152C232.74 285.672 233.66 285.402 233.48 284.842C228.75 269.652 205.51 271.382 202.02 286.572C201.86 287.252 202.72 287.582 203.04 286.952C206.44 280.282 210.82 274.912 219.05 275.692V275.682ZM230.95 288.502C231.56 288.762 231.98 287.882 231.47 287.502C225.24 282.882 212.04 280.322 208.22 289.042C208.03 289.472 208.73 289.852 208.96 289.432C213.69 280.912 224.22 285.612 230.94 288.502H230.95ZM231.71 291.482C232.19 291.562 232.39 290.882 232.02 290.632C226.65 286.882 219.87 291.472 216.57 295.852C212.47 301.282 210.28 308.932 213.16 315.362C213.39 315.872 214.14 315.502 213.94 314.992C211.73 309.232 213.66 302.462 217.06 297.572C220.87 292.092 225.3 290.352 231.7 291.492L231.71 291.482ZM230.58 292.972C226.06 292.932 221.48 296.842 220.93 301.312C220.86 301.842 221.73 302.062 221.86 301.522C222.94 296.912 226.7 295.282 230.74 293.862C231.17 293.712 231.03 292.972 230.58 292.972ZM263.34 297.892C262.79 297.932 262.3 298.332 261.83 298.602C261.35 298.872 260.84 299.062 260.29 299.112C259.81 299.152 259.84 299.942 260.32 299.962C260.97 299.982 261.51 299.892 262.1 299.622C262.67 299.362 263.35 299.042 263.75 298.572C264.01 298.262 263.66 297.882 263.33 297.902L263.34 297.892ZM257.75 313.162C255.52 314.022 253.28 314.752 251.01 315.512C250.45 315.702 250.77 316.572 251.32 316.482C253.63 316.092 256.46 315.532 258.2 313.862C258.55 313.532 258.2 312.992 257.75 313.162ZM221.03 304.872C220.49 305.962 220.09 307.522 220.4 308.732C220.49 309.082 221.06 309.222 221.17 308.802C221.31 308.262 221.27 307.702 221.3 307.142C221.35 306.442 221.49 305.802 221.78 305.152C221.99 304.672 221.25 304.412 221.03 304.872ZM206.47 290.782C205.38 292.132 204.37 294.032 204.42 295.822C204.44 296.512 205.44 296.652 205.52 295.922C205.69 294.332 206.47 292.552 207.17 291.132C207.38 290.712 206.74 290.442 206.48 290.772L206.47 290.782ZM217.44 268.312C219.4 269.482 222.15 270.012 224.4 270.142C224.91 270.172 225.05 269.492 224.59 269.292C222.48 268.332 220.11 268.132 217.93 267.382C217.38 267.192 216.9 268.002 217.44 268.322V268.312ZM256.37 272.332C256.58 272.802 257.21 272.532 257.18 272.072C257.03 269.632 256.17 267.082 254.72 265.112C254.37 264.642 253.57 265.152 253.85 265.672C254.99 267.792 255.38 270.162 256.37 272.332ZM243.37 283.402C242.83 283.682 243.22 284.402 243.76 284.232C248.31 282.762 252.96 277.982 251.14 272.872C250.99 272.462 250.26 272.582 250.28 273.022C250.38 275.702 249.92 278.022 248.02 280.042C246.72 281.422 245.04 282.522 243.36 283.402H243.37Z" fill="#546777"/>
<path d="M524.862 36.023C524.752 36.023 524.632 36.023 524.522 36.033C524.572 35.833 524.512 35.603 524.242 35.543C518.932 34.203 514.182 31.133 508.812 30.053C509.342 25.733 509.122 21.223 509.242 16.873C509.242 16.653 509.142 16.513 508.992 16.443C508.922 16.103 508.472 15.833 508.162 16.123C506.492 17.733 504.942 19.463 503.252 21.063C501.842 22.403 500.162 23.613 498.962 25.133C498.952 25.013 498.882 24.863 498.722 24.753C496.992 23.573 495.062 22.713 493.152 21.883C491.092 20.993 488.992 19.633 486.852 19.063C486.752 19.033 486.662 19.063 486.582 19.103C486.492 18.973 486.422 18.833 486.332 18.713C486.052 18.323 485.532 18.743 485.672 19.143C487.182 23.363 489.062 27.973 491.322 31.843C491.422 32.023 491.592 32.083 491.752 32.073C491.712 32.103 491.682 32.143 491.652 32.193C489.592 35.853 487.312 39.433 485.342 43.143C485.292 43.163 485.242 43.183 485.192 43.203C484.792 43.383 485.082 43.963 485.482 43.813C489.102 42.473 492.712 41.373 496.472 40.553C498.912 45.453 501.342 50.343 503.852 55.213C504.042 55.583 504.562 55.403 504.572 55.063C504.762 55.193 505.062 55.133 505.082 54.833C505.502 49.593 505.172 44.263 504.692 39.043C511.442 38.423 518.152 37.473 524.902 36.823C525.342 36.783 525.322 36.033 524.872 36.033L524.862 36.023ZM503.672 38.433C503.232 38.503 503.352 39.153 503.792 39.113C504.322 44.293 504.322 49.423 504.402 54.603C502.112 49.803 499.772 45.033 497.412 40.263C497.752 39.983 497.562 39.293 497.032 39.413C493.442 40.193 489.862 41.253 486.462 42.663C488.712 39.553 490.592 36.063 492.412 32.713C492.612 32.343 492.292 31.963 491.982 31.973C492.132 31.873 492.222 31.683 492.112 31.453C490.462 27.953 489.352 23.843 487.422 20.423C488.572 21.253 490.002 21.803 491.262 22.353C493.592 23.383 495.862 24.413 498.102 25.633C498.432 25.813 498.752 25.653 498.892 25.403C498.922 25.693 499.242 25.953 499.532 25.783C501.262 24.733 502.762 23.143 504.212 21.753C505.602 20.433 506.992 19.053 508.242 17.583C507.772 21.663 508.072 25.883 508.042 29.973C507.782 30.133 507.742 30.623 508.092 30.713C513.172 32.043 517.782 34.623 522.802 36.083C516.432 36.363 509.912 37.443 503.672 38.433Z" fill="#D9B175"/>
<path d="M1186.08 342.738C1173.32 337.678 1159.45 335.068 1146.3 331.158C1145.76 330.998 1145.46 331.788 1145.99 331.978C1158.92 336.568 1172.55 339.958 1185.83 343.398C1186.26 343.508 1186.5 342.908 1186.07 342.738H1186.08ZM1158.51 328.668C1158.89 328.728 1159.02 328.138 1158.66 328.018C1157.05 327.458 1155.38 327.098 1153.72 326.718C1153.22 326.598 1152.92 327.348 1153.44 327.488C1155.11 327.938 1156.8 328.408 1158.51 328.678V328.668ZM1174.76 333.258C1175.16 333.328 1175.3 332.698 1174.92 332.568C1171.22 331.328 1167.42 330.178 1163.63 329.248C1163.21 329.148 1162.97 329.778 1163.39 329.888C1167.2 330.908 1170.88 332.548 1174.76 333.258ZM1198.72 334.308C1184.05 328.758 1168.69 325.088 1153.59 320.928C1153.14 320.808 1152.89 321.478 1153.34 321.608C1168.43 325.968 1183.54 330.128 1198.49 334.938C1198.9 335.068 1199.12 334.468 1198.72 334.308ZM1152.84 315.128C1156.35 316.498 1160.16 317.138 1163.84 317.848C1164.18 317.918 1164.31 317.348 1163.98 317.248C1160.37 316.198 1156.61 315.858 1153.07 314.508C1152.67 314.358 1152.45 314.968 1152.84 315.128Z" fill="#6B92B3"/>
<path d="M1129.17 302.648C1129.11 302.628 1129.06 302.618 1129.01 302.608C1128.57 300.838 1127.89 299.178 1126.95 297.728C1128.21 296.778 1129.5 295.848 1130.84 294.998C1131.03 294.878 1131.1 294.688 1131.1 294.508C1131.19 294.668 1131.3 294.818 1131.45 294.938C1131.81 295.218 1132.23 295.318 1132.66 295.298C1133.26 295.918 1133.7 295.818 1134.35 295.448C1134.39 295.438 1134.42 295.438 1134.46 295.418C1134.67 295.298 1134.88 295.178 1135.08 295.058C1135.27 294.948 1135.44 294.718 1135.44 294.478C1135.48 294.448 1135.52 294.428 1135.55 294.398C1135.47 294.298 1135.41 294.198 1135.35 294.078C1135.07 293.518 1135.07 292.818 1135.31 292.188C1135.45 291.808 1135.68 291.468 1135.99 291.208C1135.96 291.168 1135.95 291.128 1135.92 291.088C1135.01 289.868 1133 289.338 1131.95 290.508C1131.75 290.498 1131.56 290.568 1131.42 290.778C1131.02 291.408 1129.66 293.128 1130.33 293.868C1130.37 293.908 1130.41 293.948 1130.46 293.978C1130.43 293.988 1130.39 293.988 1130.36 294.018C1128.96 294.858 1127.6 295.808 1126.27 296.808C1124.45 294.468 1121.82 292.868 1118.17 292.648C1117.21 292.588 1116.27 292.648 1115.35 292.798C1114.81 290.268 1114.52 287.788 1114.58 285.158C1114.58 285.078 1114.56 285.008 1114.54 284.938C1114.81 284.938 1115.07 284.938 1115.31 284.918C1115.61 284.898 1115.77 284.588 1115.77 284.318C1115.89 284.228 1116 284.118 1116.1 284.018C1116.5 283.608 1116.77 283.058 1116.64 282.468C1116.42 281.438 1115.2 280.928 1114.24 281.008C1113.66 281.058 1113.14 281.328 1112.82 281.818C1112.8 281.838 1112.8 281.868 1112.78 281.888C1112.66 281.978 1112.59 282.118 1112.61 282.288C1112.55 282.508 1112.55 282.718 1112.58 282.938C1112.58 282.968 1112.57 282.998 1112.56 283.028C1112.51 283.348 1112.49 283.698 1112.62 284.008C1112.78 284.398 1113.07 284.628 1113.43 284.758C1113.39 284.838 1113.35 284.918 1113.35 285.038C1113.22 287.688 1113.42 290.458 1114.14 293.038C1111.37 293.758 1108.91 295.368 1107.08 297.528C1105.25 296.828 1102.65 297.338 1100.85 297.478C1096.69 297.808 1092.45 298.468 1088.45 299.678C1085.79 300.488 1079.54 302.798 1083.03 306.048C1094.82 325.548 1124.52 336.648 1145.09 324.368C1145.17 324.318 1145.23 324.258 1145.28 324.198C1145.49 324.278 1145.73 324.258 1145.95 324.068C1155.47 315.878 1135.08 305.228 1129.13 302.648H1129.17ZM1133.22 291.028C1133.11 291.108 1133 291.208 1132.91 291.318C1132.87 291.268 1132.83 291.218 1132.79 291.158C1132.93 291.098 1133.07 291.048 1133.22 291.028ZM1130.92 294.008C1130.92 294.008 1130.92 294.038 1130.93 294.058C1130.92 294.048 1130.9 294.038 1130.88 294.028C1130.89 294.028 1130.9 294.018 1130.92 294.008ZM1115.25 282.498C1115.25 282.498 1115.3 282.538 1115.39 282.638C1115.42 282.668 1115.42 282.728 1115.43 282.708C1115.43 282.828 1115.47 282.698 1115.43 282.848C1115.43 282.818 1115.43 282.838 1115.41 282.868C1115.35 282.738 1115.29 282.598 1115.22 282.468C1115.23 282.478 1115.25 282.488 1115.26 282.498H1115.25ZM1113.64 283.328C1113.64 283.158 1113.67 282.988 1113.68 282.818C1113.7 282.818 1113.71 282.818 1113.72 282.838C1113.81 282.898 1113.91 282.928 1114.02 282.928C1114.08 282.998 1114.14 283.068 1114.19 283.138C1114.22 283.178 1114.23 283.228 1114.26 283.278C1114.08 283.128 1113.81 283.178 1113.64 283.328ZM1114.93 294.338C1115.03 294.338 1115.13 294.318 1115.23 294.268C1116.01 294.128 1116.83 294.058 1117.69 294.078C1121.06 294.158 1123.47 295.578 1125.13 297.678C1123.52 298.958 1121.99 300.338 1120.58 301.778C1120.24 302.128 1120.68 302.688 1121.08 302.368C1122.66 301.118 1124.21 299.838 1125.79 298.598C1127.72 301.628 1128.36 305.738 1128.18 309.518C1128.05 309.538 1127.93 309.578 1127.8 309.688C1120.52 316.248 1109.89 312.278 1104.69 305.068C1106.22 299.958 1109.73 295.428 1114.94 294.338H1114.93ZM1145.05 322.948C1144.9 323.078 1144.84 323.218 1144.82 323.368C1144.77 323.368 1144.73 323.368 1144.68 323.388C1132.98 327.408 1122.1 329.208 1110.04 325.218C1098.93 321.548 1090.44 314.228 1083.48 305.038C1083.42 304.958 1083.34 304.918 1083.25 304.898C1082.09 301.778 1093.27 299.848 1095.09 299.558C1098.7 298.978 1102.5 299.288 1106.09 298.888C1105.04 300.478 1104.32 302.278 1104 304.198C1103.67 304.098 1103.27 304.498 1103.42 304.878C1107.25 314.398 1121.39 317.498 1128.77 310.798C1128.85 310.728 1128.9 310.648 1128.94 310.568C1129.28 310.568 1129.62 310.378 1129.64 309.938C1129.76 307.918 1129.65 305.818 1129.28 303.808C1134.36 307.568 1153.31 315.908 1145.06 322.938L1145.05 322.948ZM1111.67 319.968C1101.51 316.298 1092.79 311.338 1084.56 304.318C1084.24 304.048 1083.9 304.568 1084.19 304.838C1091.79 311.728 1101.21 318.698 1111.51 320.668C1111.92 320.748 1112.05 320.098 1111.67 319.968ZM1145.34 321.558C1136.15 322.438 1127.34 323.328 1118.25 321.078C1117.8 320.968 1117.54 321.618 1117.99 321.768C1126.31 324.558 1137 324.508 1145.46 322.238C1145.89 322.118 1145.78 321.518 1145.34 321.558ZM1106.91 305.208C1107.6 307.278 1109.91 308.278 1112.01 307.938C1115.12 307.438 1115.89 303.408 1114 301.218C1113.45 300.588 1112.71 300.158 1111.89 299.968C1111 299.758 1109.47 299.698 1108.79 300.408C1108.63 300.568 1108.64 300.768 1108.73 300.918C1107.03 301.368 1106.34 303.458 1106.91 305.198V305.208ZM1109.78 301.458C1109.97 301.438 1110.04 301.278 1110.02 301.128C1110.56 301.058 1111.11 300.938 1111.67 301.068C1112.29 301.218 1112.84 301.568 1113.24 302.068C1113.98 303.008 1114.15 304.428 1113.63 305.508C1112.95 306.928 1111.37 307.098 1109.99 306.698C1108.73 306.328 1107.91 305.598 1107.71 304.238C1107.51 302.808 1108.34 301.618 1109.79 301.458H1109.78Z" fill="#D9AF73"/>
</g>
</g>
<defs>
<linearGradient id="paint0_linear_361_9402" x1="164.5" y1="0" x2="164.5" y2="360" gradientUnits="userSpaceOnUse">
<stop stop-color="#A7E893"/>
<stop offset="0.375" stop-color="#8DD584"/>
<stop offset="1" stop-color="#9BC586" stop-opacity="0"/>
</linearGradient>
<linearGradient id="paint1_linear_361_9402" x1="535.167" y1="0" x2="535.167" y2="360" gradientUnits="userSpaceOnUse">
<stop stop-color="#A7E893"/>
<stop offset="0.375" stop-color="#8DD584"/>
<stop offset="1" stop-color="#9BC586" stop-opacity="0"/>
</linearGradient>
<linearGradient id="paint2_linear_361_9402" x1="905.833" y1="0" x2="905.833" y2="360" gradientUnits="userSpaceOnUse">
<stop stop-color="#A7E893"/>
<stop offset="0.375" stop-color="#8DD584"/>
<stop offset="1" stop-color="#9BC586" stop-opacity="0"/>
</linearGradient>
<linearGradient id="paint3_linear_361_9402" x1="1276.5" y1="0" x2="1276.5" y2="360" gradientUnits="userSpaceOnUse">
<stop stop-color="#A7E893"/>
<stop offset="0.375" stop-color="#8DD584"/>
<stop offset="1" stop-color="#9BC586" stop-opacity="0"/>
</linearGradient>
<clipPath id="clip0_361_9402">
<rect width="1440" height="360" fill="white"/>
</clipPath>
</defs>
</svg>
