<svg width="1440" height="750" viewBox="0 0 1440 750" fill="none" xmlns="http://www.w3.org/2000/svg">
<path d="M0 0H1440V606L0 750V0Z" fill="#E9F7E0"/>
<path d="M0 0H1440V606L0 750V0Z" fill="url(#paint0_linear_367_9596)"/>
<mask id="mask0_367_9596" style="mask-type:alpha" maskUnits="userSpaceOnUse" x="0" y="0" width="1440" height="750">
<path d="M0 0H1440V619L0 750V0Z" fill="url(#paint1_linear_367_9596)"/>
</mask>
<g mask="url(#mask0_367_9596)">
<path d="M164 0L164 750" stroke="url(#paint2_linear_367_9596)"/>
<path d="M534.667 0L534.667 750" stroke="url(#paint3_linear_367_9596)"/>
<path d="M905.333 0L905.333 750" stroke="url(#paint4_linear_367_9596)"/>
<path d="M1276 0L1276 750" stroke="url(#paint5_linear_367_9596)"/>
</g>
<defs>
<linearGradient id="paint0_linear_367_9596" x1="0" y1="0" x2="1440" y2="586.5" gradientUnits="userSpaceOnUse">
<stop stop-color="#FFFAE3"/>
<stop offset="0.575" stop-color="#FFF1BE"/>
<stop offset="1" stop-color="#FFE592"/>
</linearGradient>
<linearGradient id="paint1_linear_367_9596" x1="0" y1="0" x2="1440" y2="586.5" gradientUnits="userSpaceOnUse">
<stop stop-color="#F4E8D7"/>
<stop offset="1" stop-color="#ED9F39"/>
</linearGradient>
<linearGradient id="paint2_linear_367_9596" x1="164.5" y1="0" x2="164.5" y2="750" gradientUnits="userSpaceOnUse">
<stop stop-color="#EDA92C"/>
<stop offset="0.375" stop-color="#FFD56A"/>
<stop offset="1" stop-color="#FFE6B4" stop-opacity="0"/>
</linearGradient>
<linearGradient id="paint3_linear_367_9596" x1="535.167" y1="0" x2="535.167" y2="750" gradientUnits="userSpaceOnUse">
<stop stop-color="#EDA92C"/>
<stop offset="0.375" stop-color="#FFD56A"/>
<stop offset="1" stop-color="#FFE6B4" stop-opacity="0"/>
</linearGradient>
<linearGradient id="paint4_linear_367_9596" x1="905.833" y1="0" x2="905.833" y2="750" gradientUnits="userSpaceOnUse">
<stop stop-color="#EDA92C"/>
<stop offset="0.375" stop-color="#FFD56A"/>
<stop offset="1" stop-color="#FFE6B4" stop-opacity="0"/>
</linearGradient>
<linearGradient id="paint5_linear_367_9596" x1="1276.5" y1="0" x2="1276.5" y2="750" gradientUnits="userSpaceOnUse">
<stop stop-color="#EDA92C"/>
<stop offset="0.375" stop-color="#FFD56A"/>
<stop offset="1" stop-color="#FFE6B4" stop-opacity="0"/>
</linearGradient>
</defs>
</svg>
