<svg width="375" height="2426" viewBox="0 0 375 2426" fill="none" xmlns="http://www.w3.org/2000/svg">
<g clip-path="url(#clip0_481_5766)">
<g clip-path="url(#clip1_481_5766)">
<path d="M375 -1H0V2425H375V-1Z" fill="url(#paint0_linear_481_5766)"/>
<g opacity="0.2">
<g style="mix-blend-mode:screen" opacity="0.5">
<path d="M-438.114 2098.41C-336.501 1947.04 -222.463 1807.98 -90.7201 1703.99C-66.2291 1684.66 -41.0001 1666.47 -13.9262 1654.47C5.56049 1645.83 30.3513 1642.26 43.7325 1662.75C48.5466 1670.11 51.0545 1679.68 52.1268 1689.27C56.5949 1729.36 37.9153 1766.91 20.36 1800.23C-3.20856 1844.96 -26.362 1890.16 -52.5134 1932.35C-79.1953 1975.38 -108.967 2015.22 -133.072 2060.8C-157.177 2106.37 -175.683 2159.27 -175.914 2214.74C-175.96 2226.22 -174.363 2239.58 -166.736 2245.19C-158.733 2251.06 -148.869 2245.07 -140.953 2239C-53.6953 2172.06 26.0331 2086 120.601 2039.19C126.943 2036.05 133.827 2033.07 140.376 2035.35C153.752 2040.02 157.522 2062.8 155.868 2080.83C153.083 2111.13 142.342 2139.15 130.327 2165.29C100.896 2229.33 63.0751 2285.9 25.4623 2342.08C19.4722 2324.41 0.00845337 2326.51 -14.0935 2332.17C-51.4526 2347.15 -87.8086 2366.46 -122.585 2389.81C-130.339 2377.26 -122.043 2359.1 -113.972 2346.9C-84.7761 2302.78 -55.5806 2258.66 -26.3851 2214.54C-89.0827 2234.31 -139.812 2293.79 -199.085 2327.11C-211.832 2334.27 -225.282 2340.29 -239.154 2340.4C-253.025 2340.5 -267.484 2333.88 -276.092 2319.62C-284.613 2305.49 -286.25 2285.86 -283.621 2268.17C-280.987 2250.49 -274.564 2234.23 -268.222 2218.25C-241.391 2150.69 -209.053 2083.4 -186.753 2013.25C-183.184 2002.02 -180.964 1989.47 -183.265 1977.68C-184.153 1973.13 -185.801 1968.65 -188.667 1965.84C-194.893 1959.72 -203.864 1963.78 -210.327 1969.46C-232.206 1988.7 -253.279 2017.44 -269.306 2044.57C-290.926 2081.17 -316.755 2114.71 -342.076 2146.85C-353.139 2160.91 -364.757 2174.92 -378.933 2182.8C-393.11 2190.68 -410.527 2191.41 -423.084 2179.71C-439.365 2164.55 -442.49 2134.42 -440.443 2108.36C-438.051 2077.89 -430.556 2048.13 -418.633 2021.79" fill="white"/>
</g>
<g style="mix-blend-mode:screen" opacity="0.5">
<path d="M837.038 1500.65C782.717 1563.42 734.911 1635.58 679.311 1696.39C623.705 1757.21 557.778 1807.37 485.608 1814.82C484.15 1814.97 482.645 1815.1 481.25 1814.52C473.853 1811.48 477.612 1796.79 482.564 1788.96C517.686 1733.42 548.917 1673.63 575.72 1610.61C588.784 1579.9 600.805 1548.3 610.116 1515.28C614.215 1500.74 634.082 1428.02 606.265 1428.71C593.16 1429.04 576.383 1441.92 566.911 1453.09C550.699 1472.21 539.352 1497.22 527.585 1521.3C502.697 1572.22 474.856 1620.65 444.375 1666.04C434.101 1681.35 423.383 1696.47 410.365 1707.61C407.563 1710.01 404.415 1712.29 401.083 1711.88C390.919 1710.61 392.003 1690.42 396.765 1678.57C409.927 1645.79 427.471 1616.39 441.821 1584.48C456.176 1552.57 417.768 1586.46 416.58 1549.44C415.935 1529.39 460.016 1437.7 446.347 1428.7C430.348 1418.16 411.219 1429.66 396.309 1442.65C353.992 1479.55 319.481 1529.52 282.664 1575.46C245.847 1621.39 204.878 1664.72 156.092 1683.35C152.437 1684.74 148.517 1686 144.879 1684.52C134.686 1680.39 135.504 1661.09 139.217 1647.97C151.895 1603.17 173.204 1563.6 194.27 1524.62C227.057 1463.95 259.845 1403.27 292.632 1342.59C308.048 1314.06 323.661 1285.25 343.672 1262.15C363.689 1239.05 388.82 1221.84 415.473 1221C387.31 1276.69 359.141 1332.4 330.977 1388.09C324.111 1401.67 317.025 1418.78 322.669 1433.29C348.186 1430.63 368.942 1406.68 389.057 1385.91C417.543 1356.51 448.578 1331.35 481.365 1311.07C489.488 1306.05 500.454 1302 506.352 1310.88C510.497 1317.13 509.65 1326.6 507.983 1334.59C494.717 1398.19 446.491 1443.76 439.572 1509.07C438.99 1514.57 438.817 1520.62 441.233 1525.19C446.929 1535.94 459.762 1529.13 467.672 1521.14C511.546 1476.87 548.196 1421.69 588.571 1372.02C628.945 1322.34 674.802 1276.98 728.431 1259.01C749.734 1251.87 776.047 1251.35 789.572 1274.1C804.089 1298.52 795.165 1334.02 784.36 1361.55C764.095 1413.19 738.953 1461.53 709.688 1505.12C689.516 1535.17 667.031 1563.66 653.915 1599.81C649.101 1613.07 645.601 1627.77 647.1 1642.32C648.599 1656.88 656.14 1671.08 667.031 1674.47C672.923 1676.3 679.103 1674.9 684.978 1673C734.906 1656.76 774.998 1605.15 825.121 1589.99C833.492 1587.45 843.144 1586.34 849.872 1593.35C856.928 1600.71 857.995 1614.84 854.703 1625.85C851.411 1636.85 844.712 1645.42 838.064 1653.4C797.696 1701.88 752.04 1742.78 702.92 1774.44" fill="white"/>
</g>
<g style="mix-blend-mode:screen" opacity="0.5">
<path d="M361.718 1577.28C290.188 1672.29 208.061 1753.25 140.151 1852.73C115.124 1889.39 90.8061 1933.94 94.5478 1982.91C94.7899 1986.12 95.205 1989.47 96.6925 1992.04C99.9038 1997.57 106.309 1997.02 111.475 1995.46C176.283 1975.9 219.344 1888.66 283.973 1868.11C285.195 1880.44 278.3 1891.31 271.946 1900.52C243.546 1941.68 215.758 1987.78 209.525 2042.7C209.208 2045.5 209.041 2048.72 210.517 2050.8C212.183 2053.13 215.031 2052.78 217.418 2052.15C252.171 2043.06 282.191 2014.25 307.034 1981.09C331.871 1947.94 352.655 1909.92 376.915 1876.03C404.381 1837.65 436.638 1803.97 456.632 1758.33C450.255 1753.54 441.971 1755.33 435.669 1760.28C429.362 1765.23 424.6 1772.86 419.901 1780.27C394.914 1819.71 368.198 1857.27 339.919 1892.67C329.034 1906.29 317.342 1920.03 302.854 1925.34C328.654 1871.38 370.25 1830.16 386.941 1770.35C388.238 1765.7 389.351 1760.41 387.719 1755.94C386.238 1751.88 382.848 1749.64 379.544 1748.43C366.739 1743.74 353.139 1750.21 341.366 1758.33C305.027 1783.38 274.587 1825.29 234.472 1836.71C228.666 1838.36 220.866 1837.93 218.94 1830.57C217.96 1826.81 219.061 1822.7 220.289 1819.06C232.264 1783.64 256.484 1758.51 279.003 1733.44C310.775 1698.06 341.701 1658.32 357.059 1607.5C359.221 1600.34 361.02 1592.05 358.38 1585.18C355.739 1578.3 346.641 1576.38 344.456 1583.52" fill="white"/>
</g>
<g style="mix-blend-mode:screen" opacity="0.5">
<path d="M648.605 1960.06C612.935 2020.55 596.873 2112.5 552.134 2161.54C545.989 2168.28 539.491 2174.92 531.823 2177.97C524.161 2181.03 515.012 2179.79 509.373 2172.33C503.752 2164.89 502.858 2153.3 503.746 2142.89C507.805 2095.32 540.661 2059.96 549.309 2013.46C551.097 2003.85 551.241 1992 545.279 1985.94C540.61 1981.2 533.951 1981.97 528.301 1984.21C509.863 1991.52 496.015 2010.99 482.397 2028.86C467.35 2048.62 451.495 2067.32 434.937 2084.87C428.232 2091.97 419.452 2099.25 411.611 2094.58C416.586 2073.98 427.062 2056.59 437.313 2039.68C456.321 2008.31 475.404 1976.56 488.976 1940.66C492.723 1930.75 496.009 1918.76 491.991 1909.04C480.449 1909.53 470.527 1919.5 461.844 1929.49C416.54 1981.66 380.945 2046.48 345.765 2110.7C336.818 2127.03 327.743 2143.68 322.883 2162.77C321.015 2170.11 319.793 2177.99 321.009 2185.57C322.226 2193.14 326.336 2200.29 332.073 2202.09C335.561 2203.18 339.233 2202.25 342.646 2200.8C360.484 2193.26 373.133 2173.07 385.823 2154.98C398.576 2136.79 412.36 2119.85 427.016 2104.33C436.742 2094.03 448.572 2083.81 460.795 2087.22C456.327 2099.88 447.488 2108.71 440.063 2118.7C432.637 2128.68 426.088 2142.04 428.163 2155.73C428.578 2158.45 429.414 2161.24 431.121 2162.88C434.476 2166.12 439.198 2163.52 442.686 2160.54C465.557 2141.1 479.999 2109.06 497.566 2081.73C501.792 2075.15 507.13 2068.28 513.68 2068.6C507.015 2101.8 490.774 2130.17 473.623 2156.11C438.033 2209.93 396.8 2257.73 366.463 2316.82C357.279 2334.7 348.925 2354.53 348.458 2376.09C348.256 2385.43 349.743 2395.3 354.454 2402.3C364.543 2417.31 383.113 2412.39 397.065 2404.32C438.829 2380.15 473.697 2339.33 504.951 2295.69C569.39 2205.68 621.635 2100.7 658.533 1987.1C662.021 1976.35 665.653 1965.03 672.647 1957.81L648.605 1960.07V1960.06Z" fill="white"/>
</g>
</g>
<g opacity="0.7">
<path d="M82.7696 2336.66C83.0095 2334.23 83.1368 2331.76 83.1368 2329.26C83.1368 2311.28 76.8101 2294.79 66.2672 2281.86C68.3043 2279.2 66.5219 2273.72 62.0805 2269.29C57.4334 2264.66 51.6404 2262.93 49.1479 2265.43C48.9423 2265.63 48.7807 2265.86 48.6338 2266.11C36.9352 2258.58 23.0233 2254.2 8.07819 2254.2C7.48077 2254.2 6.88827 2254.23 6.29575 2254.24C4.812 2250.7 -2.86133 2249.06 -11.6022 2250.56C-20.911 2252.16 -27.8939 2256.73 -27.1986 2260.76C-27.0859 2261.41 -26.7628 2262 -26.2927 2262.54C-50.4585 2275.01 -66.9902 2300.2 -66.9902 2329.26C-66.9902 2343.56 -62.9895 2356.92 -56.0507 2368.3C-56.2613 2368.45 -56.4669 2368.61 -56.653 2368.8C-60.2424 2372.4 -57.7303 2380.72 -51.0462 2387.39C-44.3571 2394.06 -36.0276 2396.55 -32.4382 2392.94C-32.3354 2392.84 -32.257 2392.72 -32.164 2392.61C-20.5291 2400.02 -6.73473 2404.33 8.07819 2404.33C13.7242 2404.33 19.2185 2403.69 24.5071 2402.5C26.0006 2405.67 31.8915 2406.97 38.2672 2405.39C45.0933 2403.7 49.8873 2399.34 48.9716 2395.67C48.7366 2394.73 48.149 2393.93 47.292 2393.28C62.2274 2384.11 73.6908 2369.86 79.3124 2352.94C79.4691 2353 79.616 2353.08 79.7825 2353.11C82.2309 2353.56 84.8801 2350.23 85.7077 2345.69C86.5303 2341.15 85.2229 2337.11 82.7794 2336.66L82.7696 2336.66Z" fill="url(#paint1_radial_481_5766)"/>
<g style="mix-blend-mode:screen" opacity="0.48">
<path d="M70.0479 2287.36C70.6502 2288.1 71.2378 2288.85 71.8107 2289.61C71.2819 2288.76 70.7383 2287.93 70.1752 2287.11C70.1262 2287.19 70.1017 2287.28 70.0479 2287.35V2287.36Z" fill="#732FA4"/>
<path d="M-52.5446 2385.78C-54.944 2381.12 -55.2476 2376.68 -52.8775 2374.3C-52.6915 2374.11 -52.4858 2373.95 -52.2752 2373.79C-59.214 2362.42 -63.2148 2349.06 -63.2148 2334.76C-63.2148 2305.69 -46.683 2280.5 -22.5172 2268.03C-22.9873 2267.49 -23.3105 2266.9 -23.4231 2266.25C-24.1185 2262.22 -17.1356 2257.66 -7.82669 2256.06C0.909256 2254.55 8.58748 2256.19 10.0712 2259.73C10.6686 2259.72 11.2563 2259.69 11.8537 2259.69C26.7988 2259.69 40.7107 2264.08 52.4092 2271.6C52.5561 2271.36 52.7226 2271.12 52.9234 2270.92C55.4208 2268.42 61.2088 2270.15 65.8559 2274.78C65.9539 2274.88 66.0322 2274.98 66.1252 2275.08C65.283 2273.15 63.9266 2271.13 62.0707 2269.28C57.4236 2264.65 51.6306 2262.92 49.1381 2265.42C48.9325 2265.63 48.7709 2265.86 48.624 2266.1C36.9254 2258.58 23.0135 2254.19 8.06841 2254.19C7.471 2254.19 6.87849 2254.22 6.28598 2254.24C4.80224 2250.69 -2.8711 2249.05 -11.6119 2250.56C-20.9208 2252.16 -27.9037 2256.72 -27.2083 2260.75C-27.0957 2261.4 -26.7725 2261.99 -26.3024 2262.53C-50.4683 2275 -67 2300.19 -67 2329.26C-67 2343.56 -62.9993 2356.92 -56.0605 2368.29C-56.271 2368.45 -56.4767 2368.61 -56.6628 2368.79C-59.9682 2372.11 -58.0927 2379.43 -52.5494 2385.78H-52.5446Z" fill="#732FA4"/>
</g>
<g style="mix-blend-mode:screen">
<path d="M64.6804 2317.68C62.3642 2318.34 59.3086 2314.75 57.8493 2309.66C56.3901 2304.56 57.0854 2299.9 59.4016 2299.24C61.7178 2298.58 64.7734 2302.17 66.2327 2307.26C67.692 2312.35 66.9966 2317.02 64.6804 2317.68Z" fill="#732FA4"/>
</g>
<g style="mix-blend-mode:screen">
<path d="M63.3783 2308.41C64.4654 2312.2 64.3528 2315.76 63.2706 2317.6C63.7554 2317.77 64.2304 2317.81 64.6809 2317.68C66.9971 2317.02 67.6924 2312.35 66.2332 2307.26C64.7739 2302.17 61.7183 2298.57 59.4021 2299.24C58.8096 2299.4 58.3297 2299.84 57.9575 2300.47C59.9848 2301.18 62.2031 2304.31 63.3783 2308.41V2308.41Z" fill="#732FA4"/>
</g>
<g style="mix-blend-mode:screen">
<path d="M3.08323 2390.49C2.73555 2388.11 6.70199 2385.56 11.9465 2384.79C17.191 2384.03 21.7206 2385.34 22.0682 2387.72C22.4159 2390.11 18.4495 2392.66 13.205 2393.42C7.96046 2394.19 3.4309 2392.87 3.08323 2390.49Z" fill="#732FA4"/>
</g>
<g style="mix-blend-mode:screen">
<path d="M12.4413 2390.44C8.53361 2391.01 5.02749 2390.43 3.34787 2389.11C3.11283 2389.57 3.01489 2390.03 3.08345 2390.49C3.43112 2392.88 7.96068 2394.19 13.2052 2393.42C18.4497 2392.66 22.4161 2390.11 22.0685 2387.72C21.9803 2387.12 21.6179 2386.58 21.0401 2386.13C20.0657 2388.04 16.6721 2389.82 12.4413 2390.44Z" fill="#732FA4"/>
</g>
<g style="mix-blend-mode:screen">
<path d="M63.9555 2279.12C62.6089 2280.57 58.9167 2279.35 55.7142 2276.39C52.5116 2273.42 51.0083 2269.84 52.3549 2268.38C53.7016 2266.93 57.3938 2268.15 60.5963 2271.11C63.7988 2274.08 65.3021 2277.67 63.9555 2279.12Z" fill="#732FA4"/>
</g>
<g style="mix-blend-mode:screen">
<path d="M59.0782 2273.15C61.463 2275.35 62.9075 2277.91 62.9271 2279.67C63.3434 2279.58 63.691 2279.4 63.9506 2279.12C65.2972 2277.67 63.7939 2274.08 60.5914 2271.11C57.3888 2268.15 53.7015 2266.92 52.35 2268.38C52.0072 2268.75 51.8505 2269.26 51.8603 2269.87C53.5938 2269.5 56.4927 2270.76 59.0733 2273.15H59.0782Z" fill="#732FA4"/>
</g>
<g style="mix-blend-mode:screen">
<path d="M29.7515 2402.09C29.0023 2400.25 31.6711 2397.42 35.7109 2395.77C39.7508 2394.12 43.634 2394.27 44.3881 2396.11C45.1373 2397.95 42.4686 2400.77 38.4287 2402.42C34.3888 2404.07 30.5056 2403.92 29.7515 2402.09Z" fill="#732FA4"/>
</g>
<g style="mix-blend-mode:screen">
<path d="M37.2241 2400.19C34.2125 2401.42 31.294 2401.64 29.6878 2400.92C29.5899 2401.34 29.6046 2401.73 29.7515 2402.08C30.5007 2403.92 34.3839 2404.07 38.4287 2402.42C42.4686 2400.77 45.1373 2397.95 44.3881 2396.11C44.1972 2395.64 43.8005 2395.28 43.2521 2395.04C42.8505 2396.76 40.4903 2398.86 37.229 2400.19H37.2241Z" fill="#732FA4"/>
</g>
<g style="mix-blend-mode:screen">
<path d="M80.4146 2350.38C78.9847 2350.28 78.0004 2347.64 78.2208 2344.49C78.4411 2341.34 79.7829 2338.87 81.2127 2338.97C82.6426 2339.07 83.6269 2341.71 83.4065 2344.86C83.1862 2348 81.8444 2350.48 80.4146 2350.38Z" fill="#732FA4"/>
</g>
<g style="mix-blend-mode:screen">
<path d="M81.57 2344.92C81.4035 2347.27 80.62 2349.24 79.6357 2350.05C79.8757 2350.25 80.1352 2350.36 80.4094 2350.38C81.8393 2350.48 83.181 2348.01 83.4014 2344.86C83.6218 2341.71 82.6424 2339.07 81.2076 2338.97C80.8404 2338.95 80.4829 2339.09 80.145 2339.37C81.1391 2340.18 81.7414 2342.38 81.5651 2344.92H81.57Z" fill="#732FA4"/>
</g>
<g style="mix-blend-mode:screen">
<path d="M-0.2854 2254.95C0.31691 2257.55 -3.8405 2260.75 -9.57469 2262.07C-15.3089 2263.4 -20.4457 2262.36 -21.048 2259.76C-21.6503 2257.15 -17.4929 2253.96 -11.7587 2252.63C-6.02448 2251.31 -0.887711 2252.34 -0.2854 2254.95Z" fill="#732FA4"/>
</g>
<g style="mix-blend-mode:screen">
<path d="M9.64512 2300.18C17.1067 2300.18 23.1555 2295.03 23.1555 2288.68C23.1555 2282.34 17.1067 2277.19 9.64512 2277.19C2.18356 2277.19 -3.86523 2282.34 -3.86523 2288.68C-3.86523 2295.03 2.18356 2300.18 9.64512 2300.18Z" fill="#732FA4"/>
</g>
<g style="mix-blend-mode:screen">
<path d="M10.0516 2282.84C16.0747 2282.84 21.1723 2286.19 22.9155 2290.82C23.0673 2290.13 23.1604 2289.42 23.1604 2288.68C23.1604 2282.34 17.1128 2277.19 9.65001 2277.19C2.18724 2277.19 -3.86035 2282.34 -3.86035 2288.68C-3.86035 2289.91 -3.6302 2291.08 -3.21397 2292.19C-2.03383 2286.87 3.45063 2282.84 10.0516 2282.84Z" fill="#732FA4"/>
</g>
<g style="mix-blend-mode:screen">
<path d="M11.183 2354.76C8.00499 2351.05 8.95986 2345.02 13.3131 2341.29C17.6664 2337.55 23.7728 2337.53 26.9508 2341.23C30.1289 2344.94 29.174 2350.97 24.8207 2354.7C20.4674 2358.44 14.3611 2358.46 11.183 2354.76Z" fill="#732FA4"/>
</g>
<g style="mix-blend-mode:screen">
<path d="M21.7595 2351.61C18.2436 2354.63 13.5916 2355.22 10.252 2353.39C10.5115 2353.87 10.8151 2354.33 11.1824 2354.76C14.3604 2358.46 20.4667 2358.44 24.82 2354.7C29.1733 2350.97 30.1282 2344.94 26.9502 2341.23C26.338 2340.52 25.6133 2339.94 24.82 2339.51C26.7983 2343.21 25.6133 2348.3 21.7595 2351.61Z" fill="#732FA4"/>
</g>
<g style="mix-blend-mode:screen">
<path d="M37.3412 2352.14C35.7497 2350.28 36.2296 2347.26 38.4087 2345.39C40.5927 2343.52 43.6483 2343.5 45.2447 2345.36C46.8362 2347.22 46.3563 2350.24 44.1772 2352.11C41.9932 2353.98 38.9376 2353.99 37.3412 2352.14Z" fill="#732FA4"/>
</g>
<g style="mix-blend-mode:screen">
<path d="M42.64 2350.56C40.8772 2352.07 38.5463 2352.37 36.8765 2351.45C37.0038 2351.69 37.1605 2351.92 37.3417 2352.14C38.9331 2353.99 41.9936 2353.98 44.1776 2352.11C46.3616 2350.24 46.8366 2347.22 45.2451 2345.36C44.9366 2345 44.5743 2344.71 44.1776 2344.5C45.1668 2346.35 44.5743 2348.91 42.6449 2350.56H42.64Z" fill="#732FA4"/>
</g>
<g style="mix-blend-mode:multiply" opacity="0.5">
<path d="M-0.0552544 2263.6C-0.0846354 2263.34 1.47256 2262.84 2.66249 2261.84C3.8769 2260.86 4.67509 2259.57 4.67509 2259.57C4.67509 2259.57 5.68384 2258.44 6.27146 2256.99C6.89336 2255.57 6.92273 2253.93 7.18226 2253.88C7.4369 2253.82 7.94127 2255.56 7.5789 2257.37C7.26061 2259.17 6.21759 2260.72 6.21759 2260.72C6.21759 2260.72 5.02766 2262.16 3.39701 2262.98C1.77127 2263.84 -0.0405639 2263.86 -0.0552544 2263.6Z" fill="#6A1C92"/>
<path d="M1.34034 2303.85C1.35503 2304.13 -1.6859 2304.12 -4.35468 2302.65C-5.68172 2301.95 -6.87654 2301.01 -7.66493 2300.18C-8.46312 2299.36 -8.89894 2298.73 -8.89894 2298.73C-8.89894 2298.73 -9.32006 2298.08 -9.77057 2297.03C-10.2309 2295.99 -10.6471 2294.52 -10.7744 2293.02C-11.1074 2289.99 -9.94686 2287.18 -9.69712 2287.3C-9.45228 2287.37 -10.0693 2290.16 -9.42779 2292.83C-9.14378 2294.15 -8.6492 2295.4 -8.16931 2296.27C-7.69432 2297.14 -7.29767 2297.66 -7.29767 2297.66C-7.29767 2297.66 -6.96959 2298.23 -6.34769 2299C-5.73069 2299.78 -4.77091 2300.72 -3.65933 2301.49C-1.45086 2303.11 1.35992 2303.61 1.33544 2303.86L1.34034 2303.85Z" fill="#6A1C92"/>
<path d="M29.6731 2289.98C29.4135 2289.93 29.3646 2288.86 29.1589 2287.86C28.9679 2286.85 28.6447 2285.92 28.6447 2285.92C28.6447 2285.92 28.5468 2284.93 28.302 2283.94C28.0669 2282.95 27.6654 2281.95 27.8808 2281.79C28.0914 2281.64 28.9386 2282.41 29.5507 2283.4C30.1726 2284.38 30.5251 2285.5 30.5251 2285.5C30.5251 2285.5 30.6769 2286.68 30.5251 2287.82C30.3831 2288.98 29.9375 2290.04 29.678 2289.98L29.6731 2289.98Z" fill="#6A1C92"/>
<path d="M6.81499 2357.95C6.76602 2358.05 6.1735 2357.95 5.42429 2357.42C4.67018 2356.92 3.88668 2355.94 3.38721 2354.84C2.88773 2353.74 2.61351 2352.57 2.49599 2351.69C2.36867 2350.81 2.36377 2350.22 2.36377 2350.22C2.36377 2350.22 2.48619 2347.88 3.13747 2345.66C3.74957 2343.44 4.85625 2341.43 5.09619 2341.54C5.34104 2341.64 4.70935 2343.77 4.46941 2345.94C4.18539 2348.09 4.28822 2350.23 4.28822 2350.23C4.28822 2350.23 4.08746 2352.36 4.66038 2354.36C4.9395 2355.35 5.42429 2356.27 5.92866 2356.87C6.42324 2357.48 6.87864 2357.82 6.81009 2357.95L6.81499 2357.95Z" fill="#6A1C92"/>
<path d="M27.8909 2332.67C27.8566 2332.94 26.5002 2333.03 25.2025 2333.26C23.895 2333.47 22.6463 2333.81 22.6463 2333.81C22.6463 2333.81 21.3536 2333.92 20.0559 2334.17C18.7534 2334.4 17.4508 2334.78 17.3284 2334.54C17.206 2334.3 18.342 2333.47 19.6348 2332.87C20.9178 2332.27 22.3134 2331.92 22.3134 2331.92C22.3134 2331.92 23.7432 2331.77 25.1584 2331.9C26.5785 2332.02 27.93 2332.42 27.8958 2332.68L27.8909 2332.67Z" fill="#6A1C92"/>
<path d="M55.7978 2313.42C55.5824 2313.58 54.0693 2311.7 53.1242 2309.47C52.1203 2307.26 51.7482 2304.83 51.7482 2304.83C51.7482 2304.83 51.5376 2302.38 52.0126 2299.98C52.2378 2298.77 52.7324 2297.56 53.3984 2296.84C54.0595 2296.11 54.7205 2295.97 54.7597 2296.07C54.8332 2296.2 54.368 2296.56 54.0056 2297.27C53.6285 2297.98 53.3984 2299.05 53.3592 2300.15C53.2564 2302.4 53.6579 2304.6 53.6579 2304.6C53.6579 2304.6 53.7852 2306.83 54.4022 2309.01C54.9605 2311.21 56.0182 2313.27 55.7929 2313.42L55.7978 2313.42Z" fill="#6A1C92"/>
<path d="M66.3216 2323.73C66.3167 2324 65.2982 2324.19 64.2502 2324.13C63.2072 2324.08 62.1838 2323.77 62.1838 2323.77C62.1838 2323.77 61.2387 2323.28 60.4601 2322.58C59.6668 2321.89 59.0743 2321.04 59.2555 2320.85C59.4366 2320.65 60.3034 2321.1 61.175 2321.42C62.0467 2321.76 62.9134 2321.99 62.9134 2321.99C62.9134 2321.99 63.6969 2322.43 64.5538 2322.8C65.401 2323.18 66.3363 2323.46 66.3265 2323.73H66.3216Z" fill="#6A1C92"/>
<path d="M51.7237 2280.02C51.6454 2280.27 50 2279.94 48.5359 2279.06C47.0619 2278.21 45.8965 2276.93 45.8965 2276.93C45.8965 2276.93 44.878 2275.52 44.3589 2273.91C43.8055 2272.29 43.8202 2270.61 44.0798 2270.59C44.3442 2270.55 44.8094 2272.06 45.5978 2273.35C46.3715 2274.65 47.39 2275.72 47.39 2275.72C47.39 2275.72 48.2225 2276.94 49.339 2277.96C50.4358 2279 51.8119 2279.77 51.7237 2280.02V2280.02Z" fill="#6A1C92"/>
<path d="M66.737 2284.66C66.8643 2284.89 66.2473 2285.47 65.4442 2285.8C64.6558 2286.14 63.7695 2286.2 63.7695 2286.2C63.7695 2286.2 62.893 2286.05 62.1438 2285.63C61.3798 2285.22 60.8265 2284.58 60.9734 2284.37C61.1203 2284.15 61.8499 2284.31 62.5404 2284.33C63.2309 2284.36 63.8674 2284.27 63.8674 2284.27C63.8674 2284.27 64.4942 2284.42 65.1847 2284.46C65.8703 2284.52 66.6146 2284.42 66.737 2284.66Z" fill="#6A1C92"/>
<path d="M7.09857 2380.95C7.17202 2381.21 5.28675 2381.9 3.61204 2382.84C2.77468 2383.31 1.99608 2383.83 1.47212 2384.28C0.93836 2384.72 0.629859 2385.05 0.629859 2385.05C0.629859 2385.05 0.277291 2385.32 -0.192805 2385.8C-0.667797 2386.28 -1.22603 2387 -1.63737 2387.82C-2.0487 2388.63 -2.29845 2389.52 -2.37679 2390.23C-2.46983 2390.93 -2.44535 2391.43 -2.58246 2391.47C-2.69998 2391.51 -2.9791 2391.05 -3.12601 2390.25C-3.28271 2389.47 -3.22395 2388.36 -2.90565 2387.32C-2.59226 2386.28 -2.0487 2385.32 -1.55412 2384.66C-1.06444 2384 -0.658002 2383.62 -0.658002 2383.62C-0.658002 2383.62 -0.241771 2383.27 0.443785 2382.84C1.12444 2382.4 2.07932 2381.93 3.05869 2381.6C5.02722 2380.91 7.03981 2380.7 7.09857 2380.95Z" fill="#6A1C92"/>
<path d="M27.6266 2383.5C27.3768 2383.59 26.8235 2382.93 26.1526 2382.52C25.4867 2382.08 24.7766 2381.86 24.7766 2381.86C24.7766 2381.86 24.1792 2381.43 23.43 2381.15C22.7004 2380.85 21.8336 2380.8 21.7602 2380.54C21.6818 2380.29 22.5731 2379.82 23.6161 2379.8C24.6444 2379.75 25.6385 2380.14 25.6385 2380.14C25.6385 2380.14 26.5444 2380.71 27.1173 2381.56C27.7196 2382.41 27.8665 2383.41 27.6168 2383.5H27.6266Z" fill="#6A1C92"/>
<path d="M31.397 2394.93C31.539 2395.16 30.54 2396.03 29.6194 2396.92C28.6792 2397.8 27.9055 2398.73 27.9055 2398.73C27.9055 2398.73 26.9555 2399.49 26.2553 2400.45C25.5159 2401.39 25.2221 2402.63 24.9527 2402.63C24.6932 2402.65 24.4875 2401.19 25.0507 2399.81C25.5697 2398.44 26.5393 2397.37 26.5393 2397.37C26.5393 2397.37 27.6215 2396.45 28.8212 2395.82C30.0161 2395.17 31.2647 2394.71 31.4018 2394.93H31.397Z" fill="#6A1C92"/>
<path d="M46.9837 2391.66C46.7682 2391.82 45.8819 2391.13 44.8683 2390.92C43.8546 2390.68 42.8753 2390.81 42.8753 2390.81C42.8753 2390.81 41.891 2390.69 40.8823 2390.94C39.8735 2391.17 38.997 2391.87 38.7766 2391.72C38.5514 2391.58 39.1537 2390.39 40.3338 2389.7C41.4748 2388.99 42.8606 2388.89 42.8606 2388.89C42.8606 2388.89 44.2464 2388.97 45.3971 2389.67C46.5822 2390.34 47.2041 2391.53 46.9788 2391.66H46.9837Z" fill="#6A1C92"/>
<path d="M76.7071 2343.08C76.4475 2343.04 76.3937 2341.88 76.6532 2340.72C76.898 2339.57 77.4269 2338.49 77.4269 2338.49C77.4269 2338.49 78.1369 2337.52 79.0428 2336.77C79.9488 2336.01 81.0065 2335.51 81.1583 2335.73C81.315 2335.94 80.6098 2336.79 80.0614 2337.68C79.4982 2338.57 79.0722 2339.49 79.0722 2339.49C79.0722 2339.49 78.4503 2340.29 77.9215 2341.2C77.3877 2342.1 76.9666 2343.12 76.7022 2343.08H76.7071Z" fill="#6A1C92"/>
<path d="M78.8962 2353.63C78.764 2353.86 78.0784 2353.72 77.4565 2353.4C76.8346 2353.09 76.3107 2352.6 76.3107 2352.6C76.3107 2352.6 75.9532 2351.99 75.7769 2351.31C75.5957 2350.63 75.6104 2349.93 75.8651 2349.86C76.1197 2349.77 76.5408 2350.25 76.9669 2350.65C77.3929 2351.06 77.814 2351.4 77.814 2351.4C77.814 2351.4 78.0588 2351.89 78.3673 2352.39C78.666 2352.9 79.0382 2353.41 78.9011 2353.64L78.8962 2353.63Z" fill="#6A1C92"/>
<path d="M47.5611 2342.76C47.3163 2342.8 46.7238 2341.68 45.6955 2341.11C44.7063 2340.47 43.5996 2340.39 43.5996 2340.39C43.5996 2340.39 42.5419 2340.04 41.3128 2340.14C40.0984 2340.19 38.8546 2340.63 38.7224 2340.4C38.5853 2340.18 39.6479 2339.26 41.0386 2338.8C41.7241 2338.57 42.4635 2338.46 43.0316 2338.46C43.5996 2338.45 43.9865 2338.5 43.9865 2338.5C43.9865 2338.5 44.3733 2338.6 44.8924 2338.85C45.4163 2339.09 46.0627 2339.52 46.5769 2340.07C47.6787 2341.17 47.8403 2342.73 47.5611 2342.76Z" fill="#6A1C92"/>
<path d="M45.4462 2357.84C45.6274 2358.04 44.3836 2359.22 42.6795 2359.58C41.8519 2359.77 40.9754 2359.78 40.3241 2359.69C39.6728 2359.61 39.2419 2359.47 39.2419 2359.47C39.2419 2359.47 38.8257 2359.31 38.2723 2358.94C37.719 2358.59 37.0579 2358.01 36.5437 2357.33C35.4664 2355.97 35.2755 2354.26 35.5448 2354.22C35.7945 2354.16 36.436 2355.54 37.5427 2356.41C38.6102 2357.34 39.903 2357.66 39.903 2357.66C39.903 2357.66 41.0978 2358.25 42.513 2358.22C43.9233 2358.26 45.2993 2357.63 45.4511 2357.84L45.4462 2357.84Z" fill="#6A1C92"/>
</g>
<path style="mix-blend-mode:multiply" opacity="0.5" d="M82.7694 2336.66C83.0093 2334.23 83.1366 2331.76 83.1366 2329.26C83.1366 2311.28 76.8099 2294.79 66.267 2281.86C68.3041 2279.2 66.5217 2273.72 62.0803 2269.29C58.9659 2266.18 55.3422 2264.39 52.5363 2264.29C59.103 2274.65 62.9078 2286.85 62.9078 2299.93C62.9078 2337.29 31.9745 2367.57 -6.18647 2367.57C-32.409 2367.57 -55.2233 2353.27 -66.9268 2332.2C-66.4175 2345.38 -62.5098 2357.71 -56.0509 2368.3C-56.2615 2368.45 -56.4671 2368.61 -56.6532 2368.8C-60.2426 2372.4 -57.7305 2380.72 -51.0463 2387.39C-44.3573 2394.06 -36.0278 2396.55 -32.4384 2392.94C-32.3355 2392.84 -32.2572 2392.72 -32.1642 2392.61C-20.5293 2400.02 -6.73492 2404.33 8.078 2404.33C13.724 2404.33 19.2183 2403.69 24.5069 2402.5C26.0004 2405.67 31.8913 2406.97 38.267 2405.39C45.0931 2403.7 49.8871 2399.34 48.9714 2395.67C48.7364 2394.73 48.1488 2393.93 47.2918 2393.28C62.2272 2384.11 73.6906 2369.86 79.3122 2352.94C79.4689 2353 79.6158 2353.08 79.7823 2353.11C82.2307 2353.56 84.8799 2350.23 85.7075 2345.69C86.5301 2341.15 85.2227 2337.11 82.7792 2336.66L82.7694 2336.66Z" fill="url(#paint2_radial_481_5766)"/>
<g style="mix-blend-mode:screen" opacity="0.2">
<path d="M-1.49034 2353.3C23.5447 2353.3 43.8396 2333.09 43.8396 2308.16C43.8396 2283.23 23.5447 2263.02 -1.49034 2263.02C-26.5254 2263.02 -46.8203 2283.23 -46.8203 2308.16C-46.8203 2333.09 -26.5254 2353.3 -1.49034 2353.3Z" fill="#732FA4"/>
</g>
<path d="M2.84801 2323.86C2.84801 2325.23 1.74133 2326.34 0.375111 2326.34C-0.991104 2326.34 -2.09779 2325.23 -2.09779 2323.86C-2.09779 2322.5 -0.991104 2321.39 0.375111 2321.39C1.74133 2321.39 2.84801 2322.5 2.84801 2323.86ZM13.3909 2325.01C11.7553 2325.01 10.4234 2326.34 10.4234 2327.98C10.4234 2329.62 11.7504 2330.95 13.3909 2330.95C15.0313 2330.95 16.3584 2329.62 16.3584 2327.98C16.3584 2326.34 15.0313 2325.01 13.3909 2325.01ZM43.7072 2294.7C41.5232 2294.7 39.7554 2296.47 39.7554 2298.65C39.7554 2300.83 41.5281 2302.6 43.7072 2302.6C45.8863 2302.6 47.6589 2300.83 47.6589 2298.65C47.6589 2296.47 45.8863 2294.7 43.7072 2294.7ZM42.0569 2313.81C40.9649 2313.81 40.0786 2314.7 40.0786 2315.79C40.0786 2316.88 40.9649 2317.77 42.0569 2317.77C43.1489 2317.77 44.0353 2316.88 44.0353 2315.79C44.0353 2314.7 43.1489 2313.81 42.0569 2313.81ZM53.2609 2324.69C52.3501 2324.69 51.6155 2325.42 51.6155 2326.33C51.6155 2327.24 52.355 2327.98 53.2609 2327.98C54.1668 2327.98 54.9062 2327.24 54.9062 2326.33C54.9062 2325.42 54.1668 2324.69 53.2609 2324.69ZM-2.42588 2370.16C-4.79105 2370.16 -6.7106 2372.08 -6.7106 2374.44C-6.7106 2376.81 -4.79105 2378.73 -2.42588 2378.73C-0.0607071 2378.73 1.85885 2376.81 1.85885 2374.44C1.85885 2372.08 -0.0607071 2370.16 -2.42588 2370.16ZM10.5899 2373.12C9.77213 2373.12 9.10616 2373.79 9.10616 2374.61C9.10616 2375.43 9.77213 2376.09 10.5899 2376.09C11.4077 2376.09 12.0736 2375.43 12.0736 2374.61C12.0736 2373.79 11.4077 2373.12 10.5899 2373.12ZM35.4658 2376.09C34.1926 2376.09 33.1594 2377.12 33.1594 2378.39C33.1594 2379.67 34.1926 2380.7 35.4658 2380.7C36.739 2380.7 37.7722 2379.67 37.7722 2378.39C37.7722 2377.12 36.739 2376.09 35.4658 2376.09ZM54.4117 2367.19C51.9534 2367.19 49.9653 2369.18 49.9653 2371.64C49.9653 2374.09 51.9583 2376.08 54.4117 2376.08C56.865 2376.08 58.858 2374.09 58.858 2371.64C58.858 2369.18 56.865 2367.19 54.4117 2367.19ZM47.8254 2382.35C47.0076 2382.35 46.3417 2383.02 46.3417 2383.83C46.3417 2384.65 47.0076 2385.32 47.8254 2385.32C48.6432 2385.32 49.3091 2384.65 49.3091 2383.83C49.3091 2383.02 48.6432 2382.35 47.8254 2382.35ZM70.2284 2353.68C69.0434 2353.68 68.0885 2354.64 68.0885 2355.82C68.0885 2357 69.0483 2357.96 70.2284 2357.96C71.4085 2357.96 72.3683 2357 72.3683 2355.82C72.3683 2354.64 71.4085 2353.68 70.2284 2353.68ZM-9.83968 2391.9C-11.0247 2391.9 -11.9796 2392.86 -11.9796 2394.04C-11.9796 2395.22 -11.0198 2396.18 -9.83968 2396.18C-8.65954 2396.18 -7.69976 2395.22 -7.69976 2394.04C-7.69976 2392.86 -8.65954 2391.9 -9.83968 2391.9ZM-44.2742 2346.43C-45.7286 2346.43 -46.9087 2347.61 -46.9087 2349.07C-46.9087 2350.52 -45.7286 2351.7 -44.2742 2351.7C-42.8198 2351.7 -41.6397 2350.52 -41.6397 2349.07C-41.6397 2347.61 -42.8198 2346.43 -44.2742 2346.43ZM-24.3392 2371.8C-25.157 2371.8 -25.8229 2372.47 -25.8229 2373.29C-25.8229 2374.1 -25.157 2374.77 -24.3392 2374.77C-23.5214 2374.77 -22.8555 2374.1 -22.8555 2373.29C-22.8555 2372.47 -23.5214 2371.8 -24.3392 2371.8ZM-18.9037 2309.53C-20.9065 2309.53 -22.5274 2311.15 -22.5274 2313.15C-22.5274 2315.16 -20.9065 2316.78 -18.9037 2316.78C-16.9009 2316.78 -15.2801 2315.16 -15.2801 2313.15C-15.2801 2311.15 -16.9009 2309.53 -18.9037 2309.53ZM-11.9845 2335.23C-12.5329 2335.23 -12.9737 2335.67 -12.9737 2336.22C-12.9737 2336.77 -12.5329 2337.21 -11.9845 2337.21C-11.436 2337.21 -10.9953 2336.77 -10.9953 2336.22C-10.9953 2335.67 -11.436 2335.23 -11.9845 2335.23ZM-8.52243 2281.52C-9.52138 2281.52 -10.3343 2282.33 -10.3343 2283.33C-10.3343 2284.33 -9.52138 2285.14 -8.52243 2285.14C-7.52348 2285.14 -6.7106 2284.33 -6.7106 2283.33C-6.7106 2282.33 -7.52348 2281.52 -8.52243 2281.52ZM-0.285961 2277.56C-1.28492 2277.56 -2.09779 2278.38 -2.09779 2279.38C-2.09779 2280.37 -1.28492 2281.19 -0.285961 2281.19C0.71299 2281.19 1.52586 2280.37 1.52586 2279.38C1.52586 2278.38 0.71299 2277.56 -0.285961 2277.56ZM28.7131 2268.01C25.7113 2268.01 23.2776 2270.44 23.2776 2273.44C23.2776 2276.45 25.7113 2278.88 28.7131 2278.88C31.7148 2278.88 34.1486 2276.45 34.1486 2273.44C34.1486 2270.44 31.7148 2268.01 28.7131 2268.01ZM29.0412 2285.14C28.4046 2285.14 27.8855 2285.66 27.8855 2286.3C27.8855 2286.94 28.3997 2287.45 29.0412 2287.45C29.6827 2287.45 30.1968 2286.94 30.1968 2286.3C30.1968 2285.66 29.6827 2285.14 29.0412 2285.14Z" fill="url(#paint3_radial_481_5766)"/>
</g>
<g opacity="0.6">
<path d="M393.985 589.742C419.171 570.499 423.99 534.483 404.747 509.297C385.505 484.111 349.488 479.292 324.302 498.534C299.116 517.777 294.298 553.793 313.54 578.979C332.782 604.166 368.799 608.984 393.985 589.742Z" fill="url(#paint4_radial_481_5766)"/>
<path style="mix-blend-mode:screen" d="M407.229 592.229C433.78 565.677 433.78 522.628 407.229 496.076C380.677 469.524 337.628 469.524 311.076 496.076C284.524 522.628 284.524 565.677 311.076 592.229C337.628 618.78 380.677 618.78 407.229 592.229Z" fill="url(#paint5_radial_481_5766)"/>
<path style="mix-blend-mode:multiply" d="M412.918 524.088C411.618 530.468 409.148 536.718 405.418 542.518C389.298 567.518 355.968 574.728 330.968 558.608C317.218 549.748 308.868 535.678 306.798 520.648C295.338 546.108 303.888 576.798 328.068 592.388C354.708 609.558 390.228 601.878 407.398 575.238C417.598 559.418 419.028 540.458 412.928 524.078L412.918 524.088Z" fill="url(#paint6_radial_481_5766)"/>
<path style="mix-blend-mode:multiply" d="M411.328 568.058C405.898 571.648 399.738 574.328 392.988 575.788C363.908 582.068 335.248 563.598 328.958 534.518C325.498 518.528 329.548 502.678 338.708 490.588C312.598 500.478 296.948 528.238 303.018 556.358C309.718 587.338 340.258 607.018 371.238 600.328C389.638 596.348 404.058 583.958 411.328 568.068V568.058Z" fill="url(#paint7_radial_481_5766)"/>
<g style="mix-blend-mode:screen">
<path d="M371.428 520.928C369.078 524.568 364.228 525.618 360.578 523.268C356.938 520.918 355.888 516.068 358.238 512.418C360.588 508.778 365.438 507.728 369.088 510.078C372.728 512.428 373.778 517.278 371.428 520.928Z" fill="#E3AD27"/>
</g>
<g style="mix-blend-mode:multiply">
<path d="M357.388 537.788C357.418 537.878 357.448 537.978 357.478 538.068C357.938 539.598 359.218 540.988 360.938 540.988C362.648 540.988 364.038 539.988 364.638 538.388C364.748 538.098 364.768 537.748 364.808 537.438C364.958 535.978 363.918 534.538 362.658 533.948C361.428 533.368 359.628 533.458 358.628 534.508C358.538 534.608 358.448 534.698 358.358 534.798C357.628 535.568 357.058 536.678 357.388 537.778V537.788Z" fill="#E3AD27"/>
</g>
<g style="mix-blend-mode:multiply">
<path d="M376.538 534.118C376.428 534.088 376.328 534.068 376.218 534.038C375.158 533.778 373.898 534.088 373.308 535.088C372.718 536.108 372.828 537.258 373.548 538.168C373.618 538.258 373.678 538.338 373.748 538.428C374.838 539.798 377.078 539.478 377.968 538.098C378.858 536.718 378.228 534.538 376.528 534.118H376.538Z" fill="#E3AD27"/>
</g>
<g style="mix-blend-mode:multiply">
<path d="M343.408 530.768C345.148 531.888 347.808 531.438 348.888 529.588C349.968 527.728 349.568 525.318 347.708 524.108C345.968 522.988 343.308 523.438 342.228 525.288C341.148 527.148 341.548 529.558 343.408 530.768Z" fill="#E3AD27"/>
</g>
<g style="mix-blend-mode:multiply">
<path d="M345.938 504.418C348.878 506.308 351.828 501.748 348.878 499.848C345.938 497.958 342.988 502.518 345.938 504.418Z" fill="#E3AD27"/>
</g>
<g style="mix-blend-mode:multiply">
<path d="M334.958 512.398C334.808 512.378 334.668 512.368 334.518 512.348C332.708 512.148 331.258 514.398 332.188 515.968C332.258 516.098 332.338 516.218 332.408 516.348C333.438 518.088 335.948 518.408 337.118 516.588C338.288 514.768 336.958 512.618 334.948 512.398H334.958Z" fill="#E3AD27"/>
</g>
<g style="mix-blend-mode:multiply">
<path d="M369.538 502.388C370.598 503.068 372.008 503.328 373.248 503.058C374.428 502.798 375.728 501.978 376.348 500.908C377.698 498.598 377.198 495.598 374.878 494.098C373.818 493.418 372.408 493.158 371.168 493.428C369.988 493.688 368.688 494.508 368.068 495.578C366.718 497.888 367.218 500.888 369.538 502.388Z" fill="#E3AD27"/>
</g>
<g style="mix-blend-mode:screen">
<path d="M369.418 556.758C371.688 558.218 373.958 554.698 371.688 553.238C369.418 551.778 367.148 555.298 369.418 556.758Z" fill="#E3AD27"/>
</g>
<g style="mix-blend-mode:multiply">
<path d="M373.978 512.318C375.878 513.538 377.778 510.598 375.878 509.368C373.978 508.148 372.078 511.088 373.978 512.318Z" fill="#E3AD27"/>
</g>
<g style="mix-blend-mode:screen">
<path d="M315.378 547.168C317.168 548.328 319.908 547.858 321.018 545.948C322.128 544.038 321.718 541.548 319.798 540.308C318.008 539.148 315.268 539.618 314.158 541.528C313.048 543.438 313.458 545.928 315.378 547.168Z" fill="#E3AD27"/>
</g>
<g style="mix-blend-mode:multiply">
<path d="M328.688 573.238C329.298 573.628 329.918 572.678 329.298 572.288C328.688 571.898 328.068 572.848 328.688 573.238Z" fill="#E3AD27"/>
</g>
<g style="mix-blend-mode:multiply">
<path d="M339.898 572.658C342.168 574.118 344.438 570.598 342.168 569.138C339.898 567.678 337.628 571.198 339.898 572.658Z" fill="#E3AD27"/>
</g>
<g style="mix-blend-mode:screen">
<path d="M340.848 587.998C345.008 590.678 349.188 584.218 345.018 581.528C340.858 578.848 336.678 585.308 340.848 587.998Z" fill="#E3AD27"/>
</g>
<g style="mix-blend-mode:multiply">
<path d="M323.558 570.878C323.568 570.778 323.588 570.688 323.598 570.588C323.838 569.038 321.738 567.688 320.428 568.548L320.178 568.708C319.458 569.178 318.948 569.778 318.908 570.678C318.868 571.498 319.278 572.288 319.968 572.728C320.658 573.168 321.548 573.218 322.278 572.848C323.078 572.438 323.418 571.728 323.548 570.878H323.558Z" fill="#E3AD27"/>
</g>
<g style="mix-blend-mode:screen">
<g style="mix-blend-mode:multiply">
<path d="M380.708 550.888C373.548 561.988 376.748 576.798 387.858 583.958C390.668 585.768 393.728 586.918 396.828 587.438C400.808 583.968 404.378 579.908 407.378 575.248C413.258 566.118 416.228 555.948 416.508 545.838C415.648 545.088 414.758 544.378 413.768 543.748C402.668 536.588 387.858 539.788 380.698 550.898L380.708 550.888Z" fill="#E3AD27"/>
</g>
<g style="mix-blend-mode:multiply">
<path d="M328.057 592.398C330.397 593.908 332.807 595.208 335.267 596.338C337.527 594.748 339.537 592.708 341.127 590.248C347.757 579.958 344.797 566.248 334.507 559.618C324.937 553.448 312.417 555.598 305.377 564.198C309.547 575.418 317.237 585.428 328.067 592.408L328.057 592.398Z" fill="#E3AD27"/>
</g>
<g style="mix-blend-mode:multiply">
<path d="M306.718 520.818C304.438 525.918 302.978 531.218 302.268 536.578C304.848 536.328 307.298 534.948 308.818 532.598C311.328 528.698 310.368 523.578 306.728 520.828L306.718 520.818Z" fill="#E3AD27"/>
</g>
<g style="mix-blend-mode:multiply">
<path d="M366.458 594.438C361.398 591.178 354.648 592.638 351.388 597.698C350.748 598.688 350.298 599.738 350.018 600.818C357.018 601.938 364.118 601.758 370.958 600.318C370.218 597.978 368.688 595.878 366.468 594.438H366.458Z" fill="#E3AD27"/>
</g>
<g style="mix-blend-mode:multiply">
<path d="M361.818 584.748C365.898 587.378 371.348 586.198 373.978 582.118C376.608 578.038 375.428 572.598 371.348 569.958C367.268 567.328 361.828 568.508 359.188 572.588C356.558 576.668 357.738 582.118 361.818 584.748Z" fill="#E3AD27"/>
</g>
</g>
<path d="M455.278 553.888C456.228 546.068 447.088 538.998 427.318 532.278C422.888 530.768 418.038 529.338 412.878 527.978C413.438 529.448 413.838 530.958 414.148 532.498C414.738 534.418 415.148 536.418 415.468 538.428C417.808 539.098 420.078 539.778 422.238 540.478C442.248 546.988 445.468 551.848 445.898 552.738C445.258 553.498 440.968 557.438 419.988 558.958C403.098 560.178 381.298 559.338 358.598 556.568C335.898 553.798 314.528 549.398 298.428 544.148C278.428 537.638 275.198 532.778 274.768 531.888C275.408 531.128 279.698 527.188 300.678 525.668C302.968 525.498 305.378 525.388 307.848 525.298C308.748 521.908 310.108 518.698 312.078 515.788C306.998 515.878 302.178 516.108 297.718 516.488C276.918 518.268 266.338 522.928 265.388 530.748C264.838 535.298 267.698 539.598 274.098 543.718C278.688 546.678 285.088 549.548 293.348 552.348C310.268 558.098 333.028 562.908 357.458 565.878C381.888 568.858 405.138 569.658 422.938 568.128C443.738 566.348 454.318 561.678 455.268 553.868L455.278 553.888Z" fill="url(#paint8_radial_481_5766)"/>
<g style="mix-blend-mode:multiply">
<path d="M455.278 553.888C456.228 546.068 447.088 538.998 427.318 532.278C422.888 530.768 418.038 529.338 412.878 527.978C413.438 529.448 413.838 530.958 414.148 532.498C414.738 534.418 415.148 536.418 415.468 538.428C417.808 539.098 420.078 539.778 422.238 540.478C442.248 546.988 445.468 551.848 445.898 552.738C445.258 553.498 440.968 557.438 419.988 558.958C403.098 560.178 381.298 559.338 358.598 556.568C335.898 553.798 314.528 549.398 298.428 544.148C278.428 537.638 275.198 532.778 274.768 531.888C275.408 531.128 279.698 527.188 300.678 525.668C302.968 525.498 305.378 525.388 307.848 525.298C308.748 521.908 310.108 518.698 312.078 515.788C306.998 515.878 302.178 516.108 297.718 516.488C276.918 518.268 266.338 522.928 265.388 530.748C264.838 535.298 267.698 539.598 274.098 543.718C278.688 546.678 285.088 549.548 293.348 552.348C310.268 558.098 333.028 562.908 357.458 565.878C381.888 568.858 405.138 569.658 422.938 568.128C443.738 566.348 454.318 561.678 455.268 553.868L455.278 553.888Z" fill="url(#paint9_radial_481_5766)"/>
</g>
<path d="M455.278 553.888C455.398 552.938 455.358 552.008 455.168 551.078C453.138 558.038 442.628 562.238 423.128 563.908C405.328 565.428 382.068 564.628 357.648 561.658C333.218 558.678 310.448 553.878 293.538 548.128C285.278 545.318 278.878 542.448 274.288 539.498C269.218 536.228 266.378 532.858 265.678 529.328C265.538 529.798 265.438 530.278 265.378 530.768C264.828 535.318 267.688 539.618 274.088 543.738C278.678 546.698 285.078 549.568 293.338 552.368C310.258 558.118 333.018 562.928 357.448 565.898C381.878 568.878 405.128 569.678 422.928 568.148C443.728 566.368 454.308 561.698 455.258 553.888H455.278Z" fill="url(#paint10_radial_481_5766)"/>
<path d="M308.028 521.058C305.558 521.148 303.158 521.268 300.858 521.428C279.878 522.948 275.578 526.888 274.948 527.648C275.108 527.978 275.658 528.858 277.318 530.178C280.428 528.678 287.008 526.668 300.668 525.678C302.958 525.508 305.368 525.398 307.838 525.308C308.738 521.918 310.098 518.708 312.068 515.798C311.328 515.808 310.598 515.838 309.868 515.848C309.108 517.528 308.498 519.258 308.018 521.058H308.028Z" fill="url(#paint11_radial_481_5766)"/>
<path d="M419.288 617.638C425.488 612.778 424.018 601.318 414.798 582.588C412.728 578.398 410.318 573.948 407.628 569.338C406.978 570.768 406.198 572.128 405.338 573.428C404.398 575.208 403.268 576.908 402.078 578.558C403.258 580.688 404.388 582.778 405.408 584.798C414.948 603.548 413.788 609.268 413.468 610.198C412.478 610.288 406.658 610.038 390.748 596.278C377.938 585.208 363.128 569.188 349.028 551.178C334.928 533.168 322.938 514.948 315.258 499.848C305.718 481.098 306.878 475.378 307.198 474.448C308.188 474.358 314.008 474.608 329.918 488.368C331.658 489.868 333.438 491.488 335.248 493.168C338.278 491.408 341.518 490.098 344.968 489.438C341.308 485.908 337.748 482.658 334.318 479.778C318.348 466.328 307.568 462.148 301.368 466.998C297.758 469.828 296.748 474.888 298.358 482.338C299.508 487.678 302.008 494.228 305.868 502.058C313.758 518.088 326.468 537.588 341.638 556.958C356.808 576.338 372.688 593.348 386.348 604.858C402.318 618.308 413.098 622.488 419.298 617.638H419.288Z" fill="url(#paint12_radial_481_5766)"/>
<g style="mix-blend-mode:screen">
<path d="M332.408 485.238C316.498 471.478 310.668 471.228 309.688 471.318C309.568 471.668 309.328 472.698 309.588 474.828C312.658 475.758 318.838 478.778 329.928 488.368C331.668 489.868 333.448 491.488 335.258 493.168C338.288 491.408 341.528 490.098 344.978 489.438C344.318 488.798 343.668 488.188 343.018 487.568C341.198 488.238 339.448 489.058 337.758 490.038C335.948 488.358 334.168 486.738 332.428 485.238H332.408Z" fill="url(#paint13_radial_481_5766)"/>
<path d="M421.778 614.508C415.578 619.358 404.798 615.188 388.828 601.728C375.168 590.218 359.288 573.208 344.118 553.828C328.948 534.448 316.248 514.958 308.348 498.928C304.498 491.108 301.998 484.548 300.838 479.208C299.718 474.018 299.868 469.988 301.288 467.058C297.738 469.898 296.748 474.948 298.338 482.338C299.488 487.678 301.988 494.228 305.848 502.058C313.738 518.088 326.448 537.588 341.618 556.958C356.788 576.338 372.668 593.348 386.328 604.858C402.298 618.308 413.078 622.488 419.278 617.638C420.358 616.788 421.198 615.728 421.818 614.468C421.798 614.478 421.788 614.498 421.778 614.508Z" fill="url(#paint14_radial_481_5766)"/>
</g>
</g>
<path d="M-44.8152 564.478C-45.4439 563.849 -46.4633 563.849 -47.092 564.478C-47.7208 565.107 -47.7208 566.126 -47.092 566.755L5.70761 619.554C6.33636 620.183 7.35573 620.183 7.98448 619.554C8.61322 618.926 8.61322 617.906 7.98448 617.278L-44.8152 564.478Z" fill="url(#paint15_linear_481_5766)"/>
<path d="M6.8324 622.25C8.94765 622.25 10.6624 620.535 10.6624 618.42C10.6624 616.305 8.94765 614.59 6.8324 614.59C4.71715 614.59 3.00244 616.305 3.00244 618.42C3.00244 620.535 4.71715 622.25 6.8324 622.25Z" fill="url(#paint16_linear_481_5766)"/>
<path d="M6.8324 620.54C8.00324 620.54 8.95239 619.591 8.95239 618.42C8.95239 617.249 8.00324 616.3 6.8324 616.3C5.66155 616.3 4.7124 617.249 4.7124 618.42C4.7124 619.591 5.66155 620.54 6.8324 620.54Z" fill="url(#paint17_linear_481_5766)"/>
<g opacity="0.7">
<g filter="url(#filter0_d_481_5766)">
<path d="M12.6566 1427.06C88.5992 1427.06 150.163 1365.49 150.163 1289.55C150.163 1213.61 88.5992 1152.04 12.6566 1152.04C-63.2859 1152.04 -124.85 1213.61 -124.85 1289.55C-124.85 1365.49 -63.2859 1427.06 12.6566 1427.06Z" fill="url(#paint18_radial_481_5766)"/>
</g>
<mask id="mask0_481_5766" style="mask-type:luminance" maskUnits="userSpaceOnUse" x="-125" y="1152" width="276" height="276">
<path d="M12.6566 1427.06C88.5992 1427.06 150.163 1365.49 150.163 1289.55C150.163 1213.61 88.5992 1152.04 12.6566 1152.04C-63.2859 1152.04 -124.85 1213.61 -124.85 1289.55C-124.85 1365.49 -63.2859 1427.06 12.6566 1427.06Z" fill="white"/>
</mask>
<g mask="url(#mask0_481_5766)">
<path d="M-60.9291 1218.66C-58.6533 1230.78 -50.2676 1241.58 -39.0922 1246.82C-22.8186 1254.45 -1.72404 1250.8 11.8904 1262.53C20.7328 1270.16 24.0528 1282.52 32.1366 1290.97C41.6071 1300.84 70.7854 1307.16 107.721 1294.97C117.918 1291.58 128.783 1287.35 138.654 1291.63C146.909 1295.19 152.684 1302.72 160.009 1307.94C168.158 1313.73 178.363 1316.58 188.347 1315.84L177.343 1259.07C170.475 1246.79 154.12 1243.79 140.081 1244.64C126.051 1245.5 111.465 1248.77 98.2753 1243.89C89.7918 1240.75 82.7765 1234.46 77.2296 1227.32C74.758 1224.15 72.5067 1220.73 69.4232 1218.12C60.3605 1210.48 47.0969 1211.8 35.2445 1212.15C23.4573 1212.5 11.6457 1211.44 0.0950546 1209.04C-12.1489 1206.48 -25.3228 1201.33 -30.6984 1190.02C-36.8245 1177.12 -30.4048 1162.18 -28.0555 1148.09C-27.1011 1142.33 -26.9624 1135.99 -30.1519 1131.09C-35.4785 1122.94 -47.3963 1122.44 -56.72 1125.28C-66.0273 1128.1 -74.8208 1133.36 -84.5605 1133.66C-73.8828 1145.42 -62.7563 1158.1 -60.252 1173.77C-57.8783 1188.6 -63.7026 1203.9 -60.9128 1218.67L-60.9291 1218.66ZM22.2664 1246.76C22.4622 1244 24.5585 1241.79 26.7691 1240.14C29.0123 1238.48 31.5412 1237.11 34.2983 1236.71C40.302 1235.83 45.9794 1239.61 50.4088 1243.77C57.3098 1250.26 63.3134 1258.41 72.2619 1261.48C82.0995 1264.88 92.81 1261.24 103.186 1260.57C106.09 1260.4 109.075 1260.46 111.8 1261.5C114.508 1262.55 116.915 1264.75 117.575 1267.57C118.35 1270.86 116.637 1274.3 114.108 1276.55C104.932 1284.67 91.4641 1288.24 79.9787 1291.56C75.2557 1292.93 70.4592 1294.17 65.5404 1294.25C60.6379 1294.35 55.5723 1293.23 51.6731 1290.25C41.705 1282.67 42.3984 1266.35 32.7076 1258.45C30.5786 1256.72 28.0743 1255.49 25.9616 1253.74C23.8488 1252.01 22.0706 1249.48 22.2664 1246.76Z" fill="url(#paint19_linear_481_5766)"/>
<path d="M-100.206 1186.89C-92.0655 1192.09 -88.9903 1202.56 -88.5742 1212.21C-88.1582 1221.86 -89.7326 1231.63 -88.0603 1241.15C-85.605 1255.12 -75.7593 1267.57 -62.7322 1273.17C-57.6666 1275.35 -52.2094 1276.54 -47.209 1278.87C-40.4222 1282.04 -36.8738 1293.01 -32.2324 1298.89C-21.2773 1312.8 6.47359 1302.05 26.1896 1306.79C49.3316 1312.36 45.5059 1335.87 26.9156 1337.99C17.6979 1339.05 8.63525 1336.22 -0.631348 1336.56C-6.9124 1336.79 -12.8427 1339.35 -18.6996 1341.62C-28.8798 1345.58 -39.6066 1348.83 -50.5209 1348.31C-61.4353 1347.8 -72.6188 1342.98 -78.4675 1333.76C-84.0063 1325.03 -84.0388 1313.91 -88.1827 1304.44C-94.0804 1290.96 -107.377 1282.5 -120.037 1275.02C-125.885 1271.57 -131.971 1267.95 -135.658 1262.25C-142.795 1251.23 -138.749 1236.72 -140.373 1223.7" fill="url(#paint20_linear_481_5766)"/>
<path d="M138.93 1368.31C133.228 1364.54 127.339 1360.7 120.634 1359.41C106.669 1356.72 93.1847 1365.58 79.0483 1367.14C72.5143 1367.86 65.8172 1366.98 59.6993 1364.6C54.136 1362.43 49.1194 1359.07 43.6623 1356.65C33.2536 1352.02 21.3115 1350.91 10.2258 1353.56C3.92031 1355.07 -2.05901 1357.73 -8.3156 1359.43C-14.5722 1361.14 -21.416 1361.82 -27.4279 1359.38C-31.3352 1357.8 -35.9848 1355.02 -39.2804 1357.65C-41.5236 1359.45 -41.5562 1363.06 -40.0064 1365.48C-38.4565 1367.91 -35.7646 1369.34 -33.0891 1370.36C-17.0357 1376.5 1.36703 1371.48 17.9099 1376.15C26.8012 1378.65 34.7382 1383.87 41.5821 1390.08C45.5628 1393.69 49.2663 1397.67 53.7527 1400.63C59.3812 1404.34 65.9967 1406.24 72.604 1407.54C88.7227 1410.72 105.486 1410.61 121.556 1407.22" fill="url(#paint21_linear_481_5766)"/>
<path d="M-72.8551 1363.41C-65.3505 1371.67 -62.4791 1383.2 -55.5781 1391.97C-48.93 1400.41 -38.5785 1405.81 -27.8517 1406.44C-22.5903 1406.75 -17.28 1405.96 -12.0512 1406.61C9.50017 1409.3 22.1031 1434.5 43.2711 1439.38C4.11646 1441.54 -35.5195 1440 -73.6382 1430.77C-78.924 1429.49 -84.2589 1428.03 -88.933 1425.25C-94.5941 1421.88 -98.9908 1416.75 -102.906 1411.46C-114.547 1395.69 -122.867 1377.12 -125.534 1357.62C-126.203 1352.71 -129.23 1333.67 -119.669 1334.57C-116.39 1334.88 -112.14 1340.35 -109.285 1342.18C-105.623 1344.53 -101.683 1346.4 -97.7428 1348.22C-88.9412 1352.32 -79.544 1356.07 -72.8633 1363.42L-72.8551 1363.41Z" fill="url(#paint22_linear_481_5766)"/>
<path d="M6.40018 1271.69C9.34493 1274.49 10.4217 1279.15 8.79845 1282.87C7.17516 1286.59 2.84364 1288.99 -1.13708 1288.16C-2.86641 1287.8 -4.44078 1286.91 -5.94986 1285.99C-7.27949 1285.18 -8.61726 1284.3 -9.61244 1283.1C-12.3859 1279.74 -11.6599 1274.26 -8.47858 1271.28C-4.1471 1267.22 2.3134 1267.81 6.38385 1271.68L6.40018 1271.69Z" fill="url(#paint23_linear_481_5766)"/>
</g>
<path style="mix-blend-mode:screen" d="M-118.813 1329.81C-96.5768 1402.43 -19.6786 1443.27 52.9369 1421.03C125.528 1398.8 166.363 1321.9 144.126 1249.28C121.89 1176.67 44.9918 1135.83 -27.5993 1158.06C-100.215 1180.3 -141.058 1257.2 -118.813 1329.81ZM-114.09 1330.94C-135.25 1261.84 -96.3729 1188.68 -27.2731 1167.52C41.8022 1146.37 114.981 1185.2 136.14 1254.31C157.3 1323.41 118.423 1396.57 49.3477 1417.72C-19.7521 1438.88 -92.9386 1400.05 -114.098 1330.94H-114.09Z" fill="url(#paint24_linear_481_5766)"/>
<path style="mix-blend-mode:screen" opacity="0.5" d="M20.08 1360.54C75.5333 1360.54 120.487 1315.59 120.487 1260.13C120.487 1204.68 75.5333 1159.73 20.08 1159.73C-35.3734 1159.73 -80.3271 1204.68 -80.3271 1260.13C-80.3271 1315.59 -35.3734 1360.54 20.08 1360.54Z" fill="url(#paint25_linear_481_5766)"/>
<path style="mix-blend-mode:multiply" d="M-118.814 1329.81C-96.577 1402.43 -19.6789 1443.26 52.9366 1421.03C97.5729 1407.36 130.21 1373.02 143.547 1331.72C126.89 1359.23 100.452 1380.94 67.2933 1391.1C-4.32703 1413.03 -80.1484 1372.76 -102.075 1301.16C-112.223 1268.02 -109.049 1233.98 -95.6226 1204.8C-122.329 1238.96 -132.477 1285.18 -118.814 1329.8V1329.81Z" fill="url(#paint26_radial_481_5766)"/>
<path style="mix-blend-mode:screen" d="M9.64638 1166.11C23.7991 1167.08 62.5541 1175.32 59.9846 1192.3C57.4233 1209.27 -3.29909 1202.41 -18.0555 1188.99C-30.4953 1177.69 -20.3559 1164.03 9.64638 1166.11Z" fill="url(#paint27_linear_481_5766)"/>
<path style="mix-blend-mode:screen" d="M87.825 1195.6C93.3474 1198.69 107.419 1209.36 103.16 1215.73C98.9024 1222.09 75.7115 1207.79 72.3017 1199.57C69.4304 1192.65 76.1112 1189.07 87.825 1195.6Z" fill="url(#paint28_linear_481_5766)"/>
<path d="M-0.5587 1356.59C4.95558 1365.07 16.4573 1366.72 25.2671 1371.7C45.2686 1385.14 56.0769 1413.51 83.4933 1415.25C95.7373 1416.95 108.813 1414.44 120.095 1419.48C140.064 1432.58 168.051 1450.16 191.307 1434.85C204.294 1424.67 196.471 1409.51 191.552 1397.44C188.681 1384.31 199.685 1369.65 192.474 1357.16C188.599 1350.69 180.719 1348.09 174.536 1343.79C163.972 1336.44 157.553 1322.8 148.017 1313.87C146.165 1324.08 143.18 1334.01 139.117 1343.49C140.651 1344.06 142.136 1344.59 143.473 1345.09C151.94 1348.38 156.647 1356.03 154.926 1364.77C155.056 1373.41 161.762 1382.16 158.124 1390C151.622 1401.45 135.708 1402.18 124.222 1397.92C104.914 1390.84 90.8348 1371.59 69.7811 1368.87C58.5567 1367.47 46.5737 1371.31 36.1651 1366.92C24.5982 1362.56 19.6141 1348.17 8.06353 1343.85C-0.0202675 1341.34 -5.56724 1350.04 -0.566865 1356.58L-0.5587 1356.59Z" fill="url(#paint29_linear_481_5766)"/>
</g>
<path d="M330.853 2359.41C330.853 2359.41 335.359 2333.23 372.75 2327.48C410.141 2321.73 424.555 2350.8 424.555 2350.8C424.555 2350.8 431.762 2332.78 451.136 2331.63C470.51 2330.47 479.97 2348.55 479.97 2348.55C479.97 2348.55 485.826 2321.97 532.229 2320.62C578.632 2319.26 589.442 2354.89 589.442 2354.89C589.442 2354.89 589.442 2345.84 599.805 2344.49C610.167 2343.14 612.42 2350.79 612.42 2350.79C612.42 2350.79 615.575 2333.67 639.449 2330.97C663.323 2328.27 673.237 2344.49 673.237 2344.49C673.237 2344.49 678.191 2323.32 720.99 2317.01C763.789 2310.71 781.813 2336.65 781.813 2336.65C788.762 2323.19 805.709 2331.87 805.709 2331.87C836.56 2317.97 840.035 2352.73 840.035 2352.73C865.237 2326.23 887.396 2349.25 887.396 2349.25C896.957 2343.6 906.512 2352.73 906.512 2352.73C940.838 2339.26 965.02 2360.55 965.02 2360.55V2425.82H-111V2374.36C-97.9142 2356.77 -69.994 2369.9 -69.994 2369.9C-67.629 2357.3 -53.9771 2361.23 -53.9771 2361.23C-28.7694 2342.85 -6.45341 2365.17 -6.45341 2365.17C2.47409 2358.35 10.8748 2365.96 10.8748 2365.96C31.8794 2340.49 63.6497 2358.09 63.6497 2358.09C69.4276 2336.55 97.7849 2343.48 97.7849 2343.48C100.15 2329.91 112.132 2323.31 112.132 2323.31C113.286 2322.89 114.469 2322.52 115.685 2322.21C130.194 2318.54 144.877 2324.15 153.463 2335.3C155.548 2333.42 158.058 2331.66 161.09 2330.14C172.64 2324.34 187.01 2323.74 197.955 2330.62C199.899 2321.76 212.38 2317.4 219.413 2323.13C223.56 2313.87 234.673 2308.34 244.554 2310.63C245.372 2310.83 246.173 2311.07 246.958 2311.36L266.595 2283.96L272.104 2285.54L276.122 2289.63L259.702 2323.42C261.047 2326.38 261.77 2329.63 261.652 2332.9C269.543 2334.22 276.761 2339.13 280.886 2345.98C285.01 2352.83 285.969 2361.51 283.441 2369.1C283.441 2369.1 287.308 2355.92 304.782 2352.55C322.256 2349.19 330.853 2359.42 330.853 2359.42V2359.41Z" fill="#FCFCFD"/>
<path d="M153.933 2326.66C158.49 2326.66 162.183 2322.97 162.183 2318.41C162.183 2313.86 158.49 2310.16 153.933 2310.16C149.377 2310.16 145.684 2313.86 145.684 2318.41C145.684 2322.97 149.377 2326.66 153.933 2326.66Z" fill="white"/>
<path d="M271.42 2331.62C273.71 2331.62 275.567 2329.77 275.567 2327.47C275.567 2325.18 273.71 2323.33 271.42 2323.33C269.13 2323.33 267.273 2325.18 267.273 2327.47C267.273 2329.77 269.13 2331.62 271.42 2331.62Z" fill="white"/>
<path d="M215.316 2317.96C217.87 2317.96 219.94 2315.89 219.94 2313.34C219.94 2310.78 217.87 2308.71 215.316 2308.71C212.763 2308.71 210.693 2310.78 210.693 2313.34C210.693 2315.89 212.763 2317.96 215.316 2317.96Z" fill="white"/>
<path d="M243.904 2306.02C245.256 2306.02 246.353 2304.92 246.353 2303.57C246.353 2302.21 245.256 2301.12 243.904 2301.12C242.551 2301.12 241.455 2302.21 241.455 2303.57C241.455 2304.92 242.551 2306.02 243.904 2306.02Z" fill="white"/>
<path d="M271.062 2319.69C272.207 2319.69 273.135 2318.76 273.135 2317.62C273.135 2316.47 272.207 2315.54 271.062 2315.54C269.917 2315.54 268.988 2316.47 268.988 2317.62C268.988 2318.76 269.917 2319.69 271.062 2319.69Z" fill="white"/>
<path d="M296.538 2364.45C299.321 2364.45 301.576 2362.2 301.576 2359.41C301.576 2356.63 299.321 2354.38 296.538 2354.38C293.756 2354.38 291.5 2356.63 291.5 2359.41C291.5 2362.2 293.756 2364.45 296.538 2364.45Z" fill="white"/>
<path d="M272.922 2284.1L264.931 2280.55C264.931 2280.55 263.967 2283.33 264.18 2283.78C264.393 2284.24 266.225 2286.63 270.395 2288.85C274.564 2291.07 277.574 2291.25 278.072 2291.17C278.566 2291.09 280.331 2288.74 280.331 2288.74L272.922 2284.1Z" fill="#EAAD00"/>
<path d="M305.628 2260.09C309.657 2247.7 304.776 2232.61 303.375 2228.75C303.179 2228.2 302.602 2227.89 302.041 2228.04C298.045 2229.04 282.813 2233.44 274.799 2243.71C265.53 2255.6 263.557 2280.68 263.557 2280.68C263.557 2280.68 265.541 2284 271.476 2287.16C277.411 2290.31 281.278 2290.1 281.278 2290.1C281.278 2290.1 300.965 2274.43 305.628 2260.1V2260.09Z" fill="url(#paint30_linear_481_5766)"/>
<path style="mix-blend-mode:multiply" d="M281.278 2290.1C281.278 2290.1 277.416 2290.31 271.482 2287.16C265.732 2284.1 263.692 2280.89 263.568 2280.69C263.658 2280.77 263.742 2280.85 263.832 2280.93C269.414 2285.94 278.162 2284.74 282.214 2278.43C290.67 2265.27 294.078 2258.21 294.078 2258.21L300.691 2245.83L295.165 2234.31L289.017 2232.84C294.683 2230.05 299.934 2228.57 302.041 2228.05C302.607 2227.91 303.179 2228.21 303.375 2228.75C304.776 2232.62 309.663 2247.71 305.628 2260.1C300.965 2274.43 281.278 2290.1 281.278 2290.1V2290.1Z" fill="url(#paint31_linear_481_5766)"/>
<path d="M305.628 2260.09C305.628 2260.09 297.693 2260.7 288.21 2255.66C278.734 2250.62 274.799 2243.71 274.799 2243.71C282.808 2233.44 298.046 2229.04 302.041 2228.03C302.607 2227.89 303.179 2228.2 303.375 2228.74C304.776 2232.61 309.663 2247.7 305.628 2260.09Z" fill="#F9D319"/>
<path style="mix-blend-mode:multiply" opacity="0.6" d="M305.628 2260.09C305.628 2260.09 300.747 2260.47 294.072 2258.2C303.555 2239.85 302.697 2228.07 302.697 2228.07C303.005 2228.18 303.252 2228.42 303.37 2228.74C304.771 2232.61 309.658 2247.7 305.623 2260.09H305.628Z" fill="url(#paint32_linear_481_5766)"/>
<path d="M266.471 2270.82C266.471 2270.82 256.647 2271.9 255.588 2272.7C254.899 2273.22 245.618 2287.08 245.618 2287.08C245.618 2287.08 246.229 2287.32 246.773 2287.04C247.316 2286.76 256.619 2278.13 257.516 2278.15C258.413 2278.18 264.852 2279.21 264.852 2279.21L266.471 2270.82Z" fill="#F9D021"/>
<path style="mix-blend-mode:screen" d="M266.214 2272.15C263.888 2272.34 257.471 2272.94 256.468 2273.61C255.319 2274.38 247.266 2285.7 246.218 2287.18C245.882 2287.19 245.618 2287.09 245.618 2287.09C245.618 2287.09 254.904 2273.22 255.588 2272.7C256.653 2271.9 266.471 2270.82 266.471 2270.82L266.214 2272.15Z" fill="url(#paint33_linear_481_5766)"/>
<path d="M287.818 2282.17C287.818 2282.17 292.414 2290.91 292.346 2292.24C292.302 2293.1 286.008 2308.56 286.008 2308.56C286.008 2308.56 285.47 2308.19 285.392 2307.57C285.313 2306.96 287.269 2294.43 286.748 2293.7C286.227 2292.97 281.766 2288.21 281.766 2288.21L287.818 2282.17V2282.17Z" fill="#F9D021"/>
<path d="M283.15 2273.75C287.873 2273.75 291.702 2269.92 291.702 2265.2C291.702 2260.47 287.873 2256.64 283.15 2256.64C278.427 2256.64 274.598 2260.47 274.598 2265.2C274.598 2269.92 278.427 2273.75 283.15 2273.75Z" fill="url(#paint34_linear_481_5766)"/>
<path d="M283.15 2272.67C287.279 2272.67 290.626 2269.32 290.626 2265.2C290.626 2261.07 287.279 2257.72 283.15 2257.72C279.021 2257.72 275.674 2261.07 275.674 2265.2C275.674 2269.32 279.021 2272.67 283.15 2272.67Z" fill="url(#paint35_linear_481_5766)"/>
<path d="M283.15 2272.32C287.084 2272.32 290.273 2269.13 290.273 2265.2C290.273 2261.26 287.084 2258.07 283.15 2258.07C279.216 2258.07 276.027 2261.26 276.027 2265.2C276.027 2269.13 279.216 2272.32 283.15 2272.32Z" fill="#70C470"/>
<g style="mix-blend-mode:multiply">
<path d="M289.175 2268.4C287.404 2271.72 283.279 2272.99 279.95 2271.22C276.75 2269.52 275.461 2265.63 276.941 2262.38C276.991 2262.31 277.641 2261.07 279.003 2262.12C280.365 2263.17 278.527 2266.54 282.662 2268.14C286.798 2269.74 290.923 2263.13 287.454 2259.91C289.931 2261.93 290.721 2265.48 289.169 2268.4L289.175 2268.4Z" fill="#79E086"/>
</g>
<g style="mix-blend-mode:screen">
<path d="M281.626 2258.96C280.886 2259.13 279.277 2259.88 279.289 2260.87C279.3 2261.97 281.233 2261.08 282.59 2260.54C284.377 2259.84 283.228 2258.62 281.626 2258.96Z" fill="#352C6F"/>
</g>
<g style="mix-blend-mode:screen">
<path d="M285.145 2258.91C284.848 2258.84 284.052 2258.86 284.03 2259.59C284.002 2260.45 285.644 2260.56 285.817 2259.8C285.963 2259.18 285.419 2258.98 285.145 2258.91V2258.91Z" fill="#352C6F"/>
</g>
<path style="mix-blend-mode:screen" d="M284.887 2236.91C284.887 2236.91 277.394 2241.34 273.841 2248.02C270.288 2254.71 267.419 2262.73 268.338 2263.67C269.257 2264.61 272.468 2255.46 277.439 2248.63C284.058 2239.54 287.168 2238.12 288.401 2236.39C289.634 2234.66 286.725 2235.57 284.887 2236.91Z" fill="url(#paint36_linear_481_5766)"/>
<path style="mix-blend-mode:screen" d="M295.07 2231.37C295.07 2231.37 290.418 2233.05 290.564 2234.32C290.71 2235.59 293.629 2234.11 295.529 2232.79C297.429 2231.46 296.353 2230.86 295.07 2231.38V2231.37Z" fill="url(#paint37_linear_481_5766)"/>
<g style="mix-blend-mode:multiply">
<path d="M286.865 2283.12C288.003 2285.16 291.102 2290.81 291.102 2292.02C291.108 2293.4 286.232 2306.41 285.587 2308.11C285.772 2308.39 286.008 2308.55 286.008 2308.55C286.008 2308.55 292.307 2293.09 292.352 2292.24C292.419 2290.91 287.824 2282.17 287.824 2282.17L286.865 2283.12V2283.12Z" fill="#F4B61C"/>
</g>
</g>
</g>
<defs>
<filter id="filter0_d_481_5766" x="-201.31" y="1075.58" width="427.932" height="427.932" filterUnits="userSpaceOnUse" color-interpolation-filters="sRGB">
<feFlood flood-opacity="0" result="BackgroundImageFix"/>
<feColorMatrix in="SourceAlpha" type="matrix" values="0 0 0 0 0 0 0 0 0 0 0 0 0 0 0 0 0 0 127 0" result="hardAlpha"/>
<feOffset/>
<feGaussianBlur stdDeviation="38.23"/>
<feColorMatrix type="matrix" values="0 0 0 0 0.952941 0 0 0 0 1 0 0 0 0 0 0 0 0 0.75 0"/>
<feBlend mode="normal" in2="BackgroundImageFix" result="effect1_dropShadow_481_5766"/>
<feBlend mode="normal" in="SourceGraphic" in2="effect1_dropShadow_481_5766" result="shape"/>
</filter>
<linearGradient id="paint0_linear_481_5766" x1="187.5" y1="-1" x2="187.5" y2="2425" gradientUnits="userSpaceOnUse">
<stop stop-color="#A7F3AA" stop-opacity="0"/>
<stop offset="0.445" stop-color="#A5E59B" stop-opacity="0.815"/>
<stop offset="1" stop-color="#81E168"/>
</linearGradient>
<radialGradient id="paint1_radial_481_5766" cx="0" cy="0" r="1" gradientUnits="userSpaceOnUse" gradientTransform="translate(-30.1318 2264.31) scale(177.75 177.75)">
<stop offset="0.02" stop-color="#732FA4"/>
<stop offset="0.35" stop-color="#702DA0"/>
<stop offset="0.62" stop-color="#672696"/>
<stop offset="0.86" stop-color="#591C85"/>
<stop offset="1" stop-color="#51167B"/>
</radialGradient>
<radialGradient id="paint2_radial_481_5766" cx="0" cy="0" r="1" gradientUnits="userSpaceOnUse" gradientTransform="translate(31.5191 2334.05) scale(169.337 169.337)">
<stop offset="0.02" stop-color="#732FA4"/>
<stop offset="0.35" stop-color="#702DA0"/>
<stop offset="0.62" stop-color="#672696"/>
<stop offset="0.86" stop-color="#591C85"/>
<stop offset="1" stop-color="#51167B"/>
</radialGradient>
<radialGradient id="paint3_radial_481_5766" cx="0" cy="0" r="1" gradientUnits="userSpaceOnUse" gradientTransform="translate(12.7298 2332.1) scale(61.9057)">
<stop offset="0.02" stop-color="#732FA4"/>
<stop offset="0.35" stop-color="#702DA0"/>
<stop offset="0.62" stop-color="#672696"/>
<stop offset="0.86" stop-color="#591C85"/>
<stop offset="1" stop-color="#51167B"/>
</radialGradient>
<radialGradient id="paint4_radial_481_5766" cx="0" cy="0" r="1" gradientUnits="userSpaceOnUse" gradientTransform="translate(377.032 504.007) rotate(32.81) scale(111.04)">
<stop offset="0.08" stop-color="#FFE245"/>
<stop offset="1" stop-color="#E38427"/>
</radialGradient>
<radialGradient id="paint5_radial_481_5766" cx="0" cy="0" r="1" gradientUnits="userSpaceOnUse" gradientTransform="translate(357.246 541.878) rotate(32.81) scale(97.41 97.41)">
<stop offset="0.08" stop-color="#DFAB45"/>
<stop offset="0.85" stop-color="#DFAB45" stop-opacity="0"/>
</radialGradient>
<radialGradient id="paint6_radial_481_5766" cx="0" cy="0" r="1" gradientUnits="userSpaceOnUse" gradientTransform="translate(371.942 512.634) rotate(32.81) scale(103.12 103.12)">
<stop stop-color="#E38427"/>
<stop offset="0.92" stop-color="#FFE245"/>
</radialGradient>
<radialGradient id="paint7_radial_481_5766" cx="0" cy="0" r="1" gradientUnits="userSpaceOnUse" gradientTransform="translate(390.498 531.04) rotate(77.8) scale(103.12 103.12)">
<stop stop-color="#E38427"/>
<stop offset="0.92" stop-color="#FFE245"/>
</radialGradient>
<radialGradient id="paint8_radial_481_5766" cx="0" cy="0" r="1" gradientUnits="userSpaceOnUse" gradientTransform="translate(360.266 542.336) rotate(32.81) scale(70.21 70.21)">
<stop offset="0.08" stop-color="#FFE245"/>
<stop offset="1" stop-color="#E38427"/>
</radialGradient>
<radialGradient id="paint9_radial_481_5766" cx="0" cy="0" r="1" gradientUnits="userSpaceOnUse" gradientTransform="translate(360.266 542.336) rotate(32.81) scale(70.21 70.21)">
<stop offset="0.08" stop-color="#DFAB45"/>
<stop offset="1" stop-color="#E64A24"/>
</radialGradient>
<radialGradient id="paint10_radial_481_5766" cx="0" cy="0" r="1" gradientUnits="userSpaceOnUse" gradientTransform="translate(359.374 544.069) rotate(32.81) scale(69.44 69.44)">
<stop offset="0.08" stop-color="#DFAB45"/>
<stop offset="1" stop-color="#E64A24"/>
</radialGradient>
<radialGradient id="paint11_radial_481_5766" cx="0" cy="0" r="1" gradientUnits="userSpaceOnUse" gradientTransform="translate(293.895 522.521) rotate(32.81) scale(14.37 14.37)">
<stop offset="0.08" stop-color="#DFAB45"/>
<stop offset="1" stop-color="#E64A24"/>
</radialGradient>
<radialGradient id="paint12_radial_481_5766" cx="0" cy="0" r="1" gradientUnits="userSpaceOnUse" gradientTransform="translate(360.266 542.335) rotate(32.81) scale(70.06 70.06)">
<stop offset="0.08" stop-color="#FFE245"/>
<stop offset="1" stop-color="#E38427"/>
</radialGradient>
<radialGradient id="paint13_radial_481_5766" cx="0" cy="0" r="1" gradientUnits="userSpaceOnUse" gradientTransform="translate(326.182 482.073) rotate(32.81) scale(14.31 14.31)">
<stop offset="0.08" stop-color="#DFAB45"/>
<stop offset="1" stop-color="#E64A24"/>
</radialGradient>
<radialGradient id="paint14_radial_481_5766" cx="0" cy="0" r="1" gradientUnits="userSpaceOnUse" gradientTransform="translate(358.034 545.798) rotate(32.81) scale(68.95 68.95)">
<stop offset="0.08" stop-color="#DFAB45"/>
<stop offset="1" stop-color="#E64A24"/>
</radialGradient>
<linearGradient id="paint15_linear_481_5766" x1="4.52672" y1="616.111" x2="-40.1695" y2="571.415" gradientUnits="userSpaceOnUse">
<stop stop-color="#00FFFF"/>
<stop offset="0.98" stop-color="white" stop-opacity="0"/>
</linearGradient>
<linearGradient id="paint16_linear_481_5766" x1="9.49817" y1="621.081" x2="4.27267" y2="615.856" gradientUnits="userSpaceOnUse">
<stop stop-color="#00FFFF"/>
<stop offset="0.98" stop-color="white" stop-opacity="0"/>
</linearGradient>
<linearGradient id="paint17_linear_481_5766" x1="8.14762" y1="619.731" x2="5.70811" y2="617.291" gradientUnits="userSpaceOnUse">
<stop stop-color="#A6FFFF"/>
<stop offset="0.98" stop-color="white"/>
</linearGradient>
<radialGradient id="paint18_radial_481_5766" cx="0" cy="0" r="1" gradientUnits="userSpaceOnUse" gradientTransform="translate(30.9547 1237.08) rotate(162.97) scale(191.531)">
<stop stop-color="#FFFF90"/>
<stop offset="0.46" stop-color="#F5D85F"/>
<stop offset="0.93" stop-color="#ECAE2A"/>
</radialGradient>
<linearGradient id="paint19_linear_481_5766" x1="73.2571" y1="1181.81" x2="-70.8483" y2="1471.28" gradientUnits="userSpaceOnUse">
<stop stop-color="#A8C94B"/>
<stop offset="1" stop-color="#92C04F"/>
</linearGradient>
<linearGradient id="paint20_linear_481_5766" x1="12.3549" y1="1151.49" x2="-131.759" y2="1440.96" gradientUnits="userSpaceOnUse">
<stop stop-color="#A8C94B"/>
<stop offset="1" stop-color="#92C04F"/>
</linearGradient>
<linearGradient id="paint21_linear_481_5766" x1="127.363" y1="1208.74" x2="-16.7419" y2="1498.22" gradientUnits="userSpaceOnUse">
<stop stop-color="#A8C94B"/>
<stop offset="1" stop-color="#92C04F"/>
</linearGradient>
<linearGradient id="paint22_linear_481_5766" x1="64.2678" y1="1177.33" x2="-79.8458" y2="1466.81" gradientUnits="userSpaceOnUse">
<stop stop-color="#A8C94B"/>
<stop offset="1" stop-color="#92C04F"/>
</linearGradient>
<linearGradient id="paint23_linear_481_5766" x1="52.4559" y1="1171.45" x2="-91.6494" y2="1460.93" gradientUnits="userSpaceOnUse">
<stop stop-color="#A8C94B"/>
<stop offset="1" stop-color="#92C04F"/>
</linearGradient>
<linearGradient id="paint24_linear_481_5766" x1="64.2852" y1="1163.41" x2="-47.7047" y2="1437.64" gradientUnits="userSpaceOnUse">
<stop stop-color="white"/>
<stop offset="1" stop-color="#9A1088"/>
</linearGradient>
<linearGradient id="paint25_linear_481_5766" x1="70.8341" y1="1164.79" x2="-23.2222" y2="1341.91" gradientUnits="userSpaceOnUse">
<stop stop-color="#FFFF8D"/>
<stop offset="1" stop-color="#9F2E92"/>
</linearGradient>
<radialGradient id="paint26_radial_481_5766" cx="0" cy="0" r="1" gradientUnits="userSpaceOnUse" gradientTransform="translate(4.52115 1305.17) rotate(162.97) scale(125.14 125.14)">
<stop stop-color="#FFFF90"/>
<stop offset="0.46" stop-color="#F5D85F"/>
<stop offset="0.93" stop-color="#ECAE2A"/>
</radialGradient>
<linearGradient id="paint27_linear_481_5766" x1="25.8668" y1="1161.2" x2="11.2094" y2="1208.91" gradientUnits="userSpaceOnUse">
<stop stop-color="white"/>
<stop offset="1" stop-color="#FFD300"/>
</linearGradient>
<linearGradient id="paint28_linear_481_5766" x1="94.7913" y1="1182.37" x2="80.1417" y2="1230.08" gradientUnits="userSpaceOnUse">
<stop stop-color="#E5FFFF"/>
<stop offset="1" stop-color="#FFD300"/>
</linearGradient>
<linearGradient id="paint29_linear_481_5766" x1="-133.962" y1="1185.07" x2="156.15" y2="1398.07" gradientUnits="userSpaceOnUse">
<stop stop-color="white"/>
<stop offset="1" stop-color="#FFEB93"/>
</linearGradient>
<linearGradient id="paint30_linear_481_5766" x1="272.392" y1="2249.89" x2="304.783" y2="2266.77" gradientUnits="userSpaceOnUse">
<stop stop-color="white"/>
<stop offset="1" stop-color="#F4CE30"/>
</linearGradient>
<linearGradient id="paint31_linear_481_5766" x1="287.25" y1="2257.63" x2="315.503" y2="2272.09" gradientUnits="userSpaceOnUse">
<stop stop-color="white"/>
<stop offset="1" stop-color="#FEF482"/>
</linearGradient>
<linearGradient id="paint32_linear_481_5766" x1="310.177" y1="2249.47" x2="295.603" y2="2241.73" gradientUnits="userSpaceOnUse">
<stop stop-color="#C61C31"/>
<stop offset="1" stop-color="#CD3C73"/>
</linearGradient>
<linearGradient id="paint33_linear_481_5766" x1="260.577" y1="2281.44" x2="251.328" y2="2276.53" gradientUnits="userSpaceOnUse">
<stop stop-color="#C61C31"/>
<stop offset="1" stop-color="#CD3C73"/>
</linearGradient>
<linearGradient id="paint34_linear_481_5766" x1="286.884" y1="2258.16" x2="279.524" y2="2272" gradientUnits="userSpaceOnUse">
<stop stop-color="white"/>
<stop offset="1" stop-color="#E7E33A"/>
</linearGradient>
<linearGradient id="paint35_linear_481_5766" x1="279.167" y1="2272.68" x2="286.171" y2="2259.5" gradientUnits="userSpaceOnUse">
<stop stop-color="white"/>
<stop offset="1" stop-color="#F0E936"/>
</linearGradient>
<linearGradient id="paint36_linear_481_5766" x1="288.111" y1="2229.08" x2="271.444" y2="2260.44" gradientUnits="userSpaceOnUse">
<stop stop-color="white"/>
<stop offset="1" stop-color="#2D1073"/>
</linearGradient>
<linearGradient id="paint37_linear_481_5766" x1="293.817" y1="2232.41" x2="277.149" y2="2263.77" gradientUnits="userSpaceOnUse">
<stop stop-color="white"/>
<stop offset="1" stop-color="#2D1073"/>
</linearGradient>
<clipPath id="clip0_481_5766">
<rect width="375" height="2426" fill="white"/>
</clipPath>
<clipPath id="clip1_481_5766">
<rect width="1994.38" height="2426" fill="white" transform="translate(-810)"/>
</clipPath>
</defs>
</svg>
