<svg width="225" height="155" viewBox="0 0 225 155" fill="none" xmlns="http://www.w3.org/2000/svg">
<g filter="url(#filter0_dddd_367_10507)">
<ellipse cx="51.3992" cy="94.3638" rx="4.76966" ry="3.17977" transform="rotate(-4.23115 51.3992 94.3638)" fill="white"/>
<ellipse cx="157.631" cy="86.5045" rx="4.76966" ry="3.17977" transform="rotate(-4.23115 157.631 86.5045)" fill="white"/>
<path d="M44.6481 67.7613C46.7158 61.2314 47.2138 52.1606 47.2044 48.4414L47.9971 48.3827L66.6719 42.2185L119.23 41.5186C133.959 43.0859 166.15 46.4968 177.072 47.6018C187.995 48.7068 187.651 57.713 186.114 62.078C185.987 63.9474 185.133 68.2087 182.737 70.2991C180.341 72.3894 132.253 77.4881 108.509 79.7762C101.081 76.3401 81.6732 70.4425 63.4685 74.3401C45.2638 78.2377 43.3363 71.5782 44.6481 67.7613Z" fill="white"/>
<mask id="path-4-outside-1_367_10507" maskUnits="userSpaceOnUse" x="13.5073" y="-6.49193" width="195.899" height="127.56" fill="black">
<rect fill="white" x="13.5073" y="-6.49193" width="195.899" height="127.56"/>
<path fill-rule="evenodd" clip-rule="evenodd" d="M49.4779 42.4692C49.7015 45.4916 51.4878 47.0783 54.3616 46.8656C57.2354 46.653 58.7688 44.8208 58.5452 41.7983L56.7527 17.5691L63.0454 17.1036C65.4485 16.9258 66.9846 15.467 66.8123 13.1382C66.64 10.8094 64.9555 9.58893 62.5029 9.77038L40.8749 11.3705C38.3975 11.5537 36.9109 13.0089 37.0832 15.3376C37.2555 17.6664 38.9896 18.8833 41.4174 18.7036L47.6853 18.2399L49.4779 42.4692ZM87.2878 30.3058C87.9531 39.2989 93.6361 44.0597 102.134 43.431C110.631 42.8024 115.554 37.2819 114.886 28.264C114.232 19.4196 108.466 14.5404 100.042 15.1636C91.6687 15.7831 86.6353 21.4862 87.2878 30.3058ZM105.994 28.9468C106.359 33.8769 104.655 36.7679 101.657 36.9897C98.6346 37.2133 96.5731 34.6008 96.2084 29.6708C95.8492 24.815 97.546 21.8248 100.519 21.6049C103.517 21.3831 105.635 24.091 105.994 28.9468ZM123.731 41.7584C121.155 41.949 119.212 40.5982 118.984 37.5262L117.567 18.3757C117.362 15.601 118.802 13.8504 121.502 13.6506C124.203 13.4508 126.083 14.9558 126.29 17.7553L126.365 18.771L126.538 18.7582C127.687 15.0862 130.177 13.0587 134.314 12.7526C140.335 12.3072 143.958 15.8254 144.432 22.242L145.418 35.5705C145.646 38.6426 143.947 40.2628 141.371 40.4534C138.794 40.644 136.876 39.2914 136.648 36.2194L135.802 24.7737C135.574 21.7016 133.977 19.9765 131.103 20.1891C128.304 20.3962 126.725 22.6303 126.945 25.6032L127.779 36.8755C128.006 39.9475 126.283 41.5696 123.731 41.7584ZM150.922 44.3053C152.789 46.982 157.215 48.8964 163.237 48.4758C172.453 47.794 177.348 43.247 176.807 35.9386L175.192 14.1125C174.969 11.09 173.058 9.83647 170.531 10.0234C168.004 10.2104 166.199 11.7389 166.422 14.7613L166.49 15.678L166.317 15.6908C164.879 12.7582 161.773 10.8457 157.859 11.1353C150.972 11.6448 147.364 16.7443 147.989 25.1923C148.593 33.3678 153.05 38.045 159.689 37.5538C163.653 37.2605 166.63 35.0724 167.484 32.1446L167.658 32.1318L167.977 36.4425C168.202 39.4897 166.239 41.5779 162.622 41.8455C160.316 41.9912 158.356 41.09 156.383 39.6666C155.461 38.9876 154.496 38.7351 153.43 38.814C151.3 38.9716 150.061 40.4084 150.189 42.1426C150.242 42.861 150.446 43.5933 150.922 44.3053ZM167.125 23.926C167.448 28.2862 165.695 30.8571 162.549 31.0899C159.378 31.3245 157.315 29.0359 156.993 24.6756C156.672 20.3401 158.382 17.5234 161.528 17.2906C164.649 17.0596 166.806 19.6152 167.125 23.926ZM48.5508 68.0821C48.6534 69.4695 49.9425 70.3954 51.5776 70.2744C52.742 70.1883 53.2155 69.8543 54.0992 68.668L56.6229 65.0687C57.1625 64.2814 57.4084 63.5658 57.3553 62.8473C57.2343 61.2122 55.9379 60.1872 54.1294 60.321C52.8659 60.4144 52.2052 60.9117 51.2746 62.4751L49.0116 66.2296C48.6363 66.8801 48.4958 67.3389 48.5508 68.0821ZM55.2787 72.8483C54.0756 72.6293 52.7182 72.3821 50.6489 72.5352C42.1761 73.162 37.2491 78.9569 37.8943 87.6774C38.5523 96.5714 44.1435 101.439 52.9383 100.788C61.0395 100.189 66.1417 94.4057 65.546 86.3541C65.2839 82.8114 64.0271 79.965 62.1022 78.1893L62.0894 78.0159L62.9317 77.9536C66.1772 77.7135 67.7124 75.906 67.4686 72.6111L67.245 69.5886C67.0892 67.4828 65.7075 66.3146 63.7503 66.4594C61.595 66.6189 60.4479 67.9492 60.6055 70.0798L60.6697 70.9469C60.7723 72.3343 60.0712 72.9591 58.1388 73.102C57.0959 73.1792 56.2362 73.0227 55.2787 72.8483ZM56.6007 86.3184C56.96 91.1742 55.3108 94.1359 52.2636 94.3613C49.1916 94.5886 47.1741 91.8981 46.8149 87.0424C46.4593 82.2362 48.1277 79.1983 51.1254 78.9765C54.1231 78.7547 56.2452 81.5122 56.6007 86.3184ZM114.63 91.5658C114.858 94.6378 116.801 95.9886 119.377 95.798C121.929 95.6092 123.653 93.9872 123.425 90.9152L122.595 79.6924C122.371 76.6699 123.875 74.4413 126.824 74.2232C129.722 74.0088 131.373 75.7798 131.598 78.8271L132.443 90.248C132.67 93.32 134.589 94.6727 137.165 94.482C139.742 94.2914 141.44 92.6712 141.213 89.5992L140.227 76.2706C139.756 69.9036 136.129 66.3358 130.109 66.7812C125.997 67.0854 123.195 69.2855 122.075 73.0052L121.902 73.018L121.167 63.0835C120.956 60.2345 119.274 58.7149 116.549 58.9165C113.824 59.1181 112.359 60.8705 112.568 63.6948L114.63 91.5658ZM158.675 92.9654C150.177 93.5941 144.495 88.8333 143.829 79.8402C143.177 71.0206 148.21 65.3175 156.584 64.698C165.007 64.0748 170.773 68.954 171.428 77.7984C172.095 86.8163 167.173 92.3368 158.675 92.9654ZM158.198 86.5241C161.196 86.3023 162.9 83.4113 162.536 78.4812C162.176 73.6254 160.058 70.9175 157.06 71.1393C154.087 71.3592 152.391 74.3494 152.75 79.2052C153.115 84.1352 155.176 86.7477 158.198 86.5241ZM159.529 104.51C157.25 104.679 155.331 102.978 155.166 100.748C155.001 98.5182 156.651 96.5777 158.93 96.409C161.209 96.2404 163.127 97.917 163.292 100.147C163.456 102.376 161.808 104.342 159.529 104.51ZM188.751 90.7404C180.303 91.3654 174.657 86.4275 174.004 77.6078C173.359 68.8873 178.212 63.0979 186.61 62.4766C192.184 62.0642 196.928 64.2291 198.876 67.9959C199.277 68.7135 199.536 69.5164 199.586 70.1853C199.741 72.2911 198.072 73.6352 196.065 73.7836C194.381 73.9082 193.266 73.3182 192.319 71.9683C190.893 69.8569 189.409 68.9952 187.427 69.1418C184.206 69.3801 182.544 72.1684 182.898 76.9498C183.256 81.7808 185.26 84.2979 188.481 84.0596C190.711 83.8946 191.985 82.6047 192.884 80.944C193.9 79.1998 194.81 78.3603 196.668 78.2228C198.625 78.078 200.428 79.215 200.589 81.3952C200.639 82.0641 200.52 82.8201 200.139 83.7202C198.624 87.494 194.053 90.3481 188.751 90.7404ZM78.7285 107.972C76.152 108.163 74.2087 106.812 73.9814 103.74L71.8975 75.5715C71.672 72.5243 73.3724 70.9288 75.9489 70.7382C78.5007 70.5494 80.4173 71.8773 80.6446 74.9493L80.7069 75.7916L80.8804 75.7788C82.0028 72.4326 84.7814 70.2591 88.671 69.9714C95.4839 69.4673 99.8235 74.2528 100.476 83.0725C101.127 91.8673 97.5633 97.2375 90.8495 97.7342C86.8856 98.0274 83.7734 96.3645 82.2294 93.3401L82.056 93.3529L82.7763 103.089C83.0036 106.161 81.2802 107.783 78.7285 107.972ZM86.9477 91.1228C90.0693 90.8919 91.8248 88.0219 91.5077 83.7359C91.1906 79.45 89.0053 76.8467 85.9085 77.0758C82.8365 77.3031 81.0598 80.2244 81.3503 84.4874C81.6921 88.7715 83.8509 91.3519 86.9477 91.1228ZM30.9829 102.338C28.4063 102.528 26.4631 101.177 26.2358 98.1054L24.1812 70.3334C23.9539 67.2614 25.6772 65.6393 28.2537 65.4487C30.8055 65.2599 32.7488 66.6107 32.976 69.6828L35.0307 97.4547C35.2579 100.527 33.5346 102.149 30.9829 102.338ZM74.2817 45.4168C71.5813 45.6166 69.7546 44.1575 69.5347 41.1846L68.116 22.0093C67.9071 19.185 69.5258 17.496 72.0776 17.3072C74.5302 17.1257 76.3304 18.5619 76.5411 21.4109L76.6401 22.7487L76.8135 22.7359C77.213 19.0446 79.052 16.9656 81.7524 16.7658C82.7433 16.6925 83.5526 16.8568 84.1573 17.2854C85.072 17.8653 85.6004 18.9472 85.7177 20.5327C85.8204 21.9201 85.4762 22.9918 84.7118 23.7707C83.9492 24.5744 82.738 25.0377 81.1084 25.233C78.0914 25.5309 77.3233 26.9329 77.5506 30.0049L78.3295 40.5339C78.5495 43.5069 76.9574 45.2189 74.2817 45.4168Z"/>
</mask>
<path fill-rule="evenodd" clip-rule="evenodd" d="M49.4779 42.4692C49.7015 45.4916 51.4878 47.0783 54.3616 46.8656C57.2354 46.653 58.7688 44.8208 58.5452 41.7983L56.7527 17.5691L63.0454 17.1036C65.4485 16.9258 66.9846 15.467 66.8123 13.1382C66.64 10.8094 64.9555 9.58893 62.5029 9.77038L40.8749 11.3705C38.3975 11.5537 36.9109 13.0089 37.0832 15.3376C37.2555 17.6664 38.9896 18.8833 41.4174 18.7036L47.6853 18.2399L49.4779 42.4692ZM87.2878 30.3058C87.9531 39.2989 93.6361 44.0597 102.134 43.431C110.631 42.8024 115.554 37.2819 114.886 28.264C114.232 19.4196 108.466 14.5404 100.042 15.1636C91.6687 15.7831 86.6353 21.4862 87.2878 30.3058ZM105.994 28.9468C106.359 33.8769 104.655 36.7679 101.657 36.9897C98.6346 37.2133 96.5731 34.6008 96.2084 29.6708C95.8492 24.815 97.546 21.8248 100.519 21.6049C103.517 21.3831 105.635 24.091 105.994 28.9468ZM123.731 41.7584C121.155 41.949 119.212 40.5982 118.984 37.5262L117.567 18.3757C117.362 15.601 118.802 13.8504 121.502 13.6506C124.203 13.4508 126.083 14.9558 126.29 17.7553L126.365 18.771L126.538 18.7582C127.687 15.0862 130.177 13.0587 134.314 12.7526C140.335 12.3072 143.958 15.8254 144.432 22.242L145.418 35.5705C145.646 38.6426 143.947 40.2628 141.371 40.4534C138.794 40.644 136.876 39.2914 136.648 36.2194L135.802 24.7737C135.574 21.7016 133.977 19.9765 131.103 20.1891C128.304 20.3962 126.725 22.6303 126.945 25.6032L127.779 36.8755C128.006 39.9475 126.283 41.5696 123.731 41.7584ZM150.922 44.3053C152.789 46.982 157.215 48.8964 163.237 48.4758C172.453 47.794 177.348 43.247 176.807 35.9386L175.192 14.1125C174.969 11.09 173.058 9.83647 170.531 10.0234C168.004 10.2104 166.199 11.7389 166.422 14.7613L166.49 15.678L166.317 15.6908C164.879 12.7582 161.773 10.8457 157.859 11.1353C150.972 11.6448 147.364 16.7443 147.989 25.1923C148.593 33.3678 153.05 38.045 159.689 37.5538C163.653 37.2605 166.63 35.0724 167.484 32.1446L167.658 32.1318L167.977 36.4425C168.202 39.4897 166.239 41.5779 162.622 41.8455C160.316 41.9912 158.356 41.09 156.383 39.6666C155.461 38.9876 154.496 38.7351 153.43 38.814C151.3 38.9716 150.061 40.4084 150.189 42.1426C150.242 42.861 150.446 43.5933 150.922 44.3053ZM167.125 23.926C167.448 28.2862 165.695 30.8571 162.549 31.0899C159.378 31.3245 157.315 29.0359 156.993 24.6756C156.672 20.3401 158.382 17.5234 161.528 17.2906C164.649 17.0596 166.806 19.6152 167.125 23.926ZM48.5508 68.0821C48.6534 69.4695 49.9425 70.3954 51.5776 70.2744C52.742 70.1883 53.2155 69.8543 54.0992 68.668L56.6229 65.0687C57.1625 64.2814 57.4084 63.5658 57.3553 62.8473C57.2343 61.2122 55.9379 60.1872 54.1294 60.321C52.8659 60.4144 52.2052 60.9117 51.2746 62.4751L49.0116 66.2296C48.6363 66.8801 48.4958 67.3389 48.5508 68.0821ZM55.2787 72.8483C54.0756 72.6293 52.7182 72.3821 50.6489 72.5352C42.1761 73.162 37.2491 78.9569 37.8943 87.6774C38.5523 96.5714 44.1435 101.439 52.9383 100.788C61.0395 100.189 66.1417 94.4057 65.546 86.3541C65.2839 82.8114 64.0271 79.965 62.1022 78.1893L62.0894 78.0159L62.9317 77.9536C66.1772 77.7135 67.7124 75.906 67.4686 72.6111L67.245 69.5886C67.0892 67.4828 65.7075 66.3146 63.7503 66.4594C61.595 66.6189 60.4479 67.9492 60.6055 70.0798L60.6697 70.9469C60.7723 72.3343 60.0712 72.9591 58.1388 73.102C57.0959 73.1792 56.2362 73.0227 55.2787 72.8483ZM56.6007 86.3184C56.96 91.1742 55.3108 94.1359 52.2636 94.3613C49.1916 94.5886 47.1741 91.8981 46.8149 87.0424C46.4593 82.2362 48.1277 79.1983 51.1254 78.9765C54.1231 78.7547 56.2452 81.5122 56.6007 86.3184ZM114.63 91.5658C114.858 94.6378 116.801 95.9886 119.377 95.798C121.929 95.6092 123.653 93.9872 123.425 90.9152L122.595 79.6924C122.371 76.6699 123.875 74.4413 126.824 74.2232C129.722 74.0088 131.373 75.7798 131.598 78.8271L132.443 90.248C132.67 93.32 134.589 94.6727 137.165 94.482C139.742 94.2914 141.44 92.6712 141.213 89.5992L140.227 76.2706C139.756 69.9036 136.129 66.3358 130.109 66.7812C125.997 67.0854 123.195 69.2855 122.075 73.0052L121.902 73.018L121.167 63.0835C120.956 60.2345 119.274 58.7149 116.549 58.9165C113.824 59.1181 112.359 60.8705 112.568 63.6948L114.63 91.5658ZM158.675 92.9654C150.177 93.5941 144.495 88.8333 143.829 79.8402C143.177 71.0206 148.21 65.3175 156.584 64.698C165.007 64.0748 170.773 68.954 171.428 77.7984C172.095 86.8163 167.173 92.3368 158.675 92.9654ZM158.198 86.5241C161.196 86.3023 162.9 83.4113 162.536 78.4812C162.176 73.6254 160.058 70.9175 157.06 71.1393C154.087 71.3592 152.391 74.3494 152.75 79.2052C153.115 84.1352 155.176 86.7477 158.198 86.5241ZM159.529 104.51C157.25 104.679 155.331 102.978 155.166 100.748C155.001 98.5182 156.651 96.5777 158.93 96.409C161.209 96.2404 163.127 97.917 163.292 100.147C163.456 102.376 161.808 104.342 159.529 104.51ZM188.751 90.7404C180.303 91.3654 174.657 86.4275 174.004 77.6078C173.359 68.8873 178.212 63.0979 186.61 62.4766C192.184 62.0642 196.928 64.2291 198.876 67.9959C199.277 68.7135 199.536 69.5164 199.586 70.1853C199.741 72.2911 198.072 73.6352 196.065 73.7836C194.381 73.9082 193.266 73.3182 192.319 71.9683C190.893 69.8569 189.409 68.9952 187.427 69.1418C184.206 69.3801 182.544 72.1684 182.898 76.9498C183.256 81.7808 185.26 84.2979 188.481 84.0596C190.711 83.8946 191.985 82.6047 192.884 80.944C193.9 79.1998 194.81 78.3603 196.668 78.2228C198.625 78.078 200.428 79.215 200.589 81.3952C200.639 82.0641 200.52 82.8201 200.139 83.7202C198.624 87.494 194.053 90.3481 188.751 90.7404ZM78.7285 107.972C76.152 108.163 74.2087 106.812 73.9814 103.74L71.8975 75.5715C71.672 72.5243 73.3724 70.9288 75.9489 70.7382C78.5007 70.5494 80.4173 71.8773 80.6446 74.9493L80.7069 75.7916L80.8804 75.7788C82.0028 72.4326 84.7814 70.2591 88.671 69.9714C95.4839 69.4673 99.8235 74.2528 100.476 83.0725C101.127 91.8673 97.5633 97.2375 90.8495 97.7342C86.8856 98.0274 83.7734 96.3645 82.2294 93.3401L82.056 93.3529L82.7763 103.089C83.0036 106.161 81.2802 107.783 78.7285 107.972ZM86.9477 91.1228C90.0693 90.8919 91.8248 88.0219 91.5077 83.7359C91.1906 79.45 89.0053 76.8467 85.9085 77.0758C82.8365 77.3031 81.0598 80.2244 81.3503 84.4874C81.6921 88.7715 83.8509 91.3519 86.9477 91.1228ZM30.9829 102.338C28.4063 102.528 26.4631 101.177 26.2358 98.1054L24.1812 70.3334C23.9539 67.2614 25.6772 65.6393 28.2537 65.4487C30.8055 65.2599 32.7488 66.6107 32.976 69.6828L35.0307 97.4547C35.2579 100.527 33.5346 102.149 30.9829 102.338ZM74.2817 45.4168C71.5813 45.6166 69.7546 44.1575 69.5347 41.1846L68.116 22.0093C67.9071 19.185 69.5258 17.496 72.0776 17.3072C74.5302 17.1257 76.3304 18.5619 76.5411 21.4109L76.6401 22.7487L76.8135 22.7359C77.213 19.0446 79.052 16.9656 81.7524 16.7658C82.7433 16.6925 83.5526 16.8568 84.1573 17.2854C85.072 17.8653 85.6004 18.9472 85.7177 20.5327C85.8204 21.9201 85.4762 22.9918 84.7118 23.7707C83.9492 24.5744 82.738 25.0377 81.1084 25.233C78.0914 25.5309 77.3233 26.9329 77.5506 30.0049L78.3295 40.5339C78.5495 43.5069 76.9574 45.2189 74.2817 45.4168Z" fill="#4AB749"/>
<path d="M49.4779 42.4692L55.4615 42.0265L49.4779 42.4692ZM58.5452 41.7983L52.5616 42.241L58.5452 41.7983ZM56.7527 17.5691L56.31 11.5855L50.3264 12.0281L50.7691 18.0118L56.7527 17.5691ZM62.5029 9.77038L62.9455 15.754L62.5029 9.77038ZM40.8749 11.3705L40.4322 5.38681L40.8749 11.3705ZM41.4174 18.7036L41.8601 24.6873L41.4174 18.7036ZM47.6853 18.2399L53.669 17.7973L53.2263 11.8136L47.2426 12.2563L47.6853 18.2399ZM126.29 17.7553L120.306 18.198L126.29 17.7553ZM126.365 18.771L120.381 19.2137L120.824 25.1974L126.808 24.7547L126.365 18.771ZM126.538 18.7582L126.981 24.7418L131.048 24.441L132.265 20.5489L126.538 18.7582ZM144.432 22.242L150.416 21.7993L144.432 22.242ZM145.418 35.5705L139.435 36.0132L145.418 35.5705ZM126.945 25.6032L132.929 25.1606L126.945 25.6032ZM127.779 36.8755L121.795 37.3182L127.779 36.8755ZM163.237 48.4758L163.655 54.4613L163.668 54.4604L163.68 54.4595L163.237 48.4758ZM150.922 44.3053L145.934 47.6405L145.967 47.6895L146.001 47.7378L150.922 44.3053ZM166.49 15.678L166.933 21.6616L172.917 21.2189L172.474 15.2353L166.49 15.678ZM166.317 15.6908L160.929 18.3317L162.715 21.9737L166.759 21.6745L166.317 15.6908ZM167.484 32.1446L167.042 26.1609L162.891 26.468L161.725 30.4636L167.484 32.1446ZM167.658 32.1318L173.641 31.6891L173.199 25.7054L167.215 26.1481L167.658 32.1318ZM167.977 36.4425L173.96 35.9998L167.977 36.4425ZM162.622 41.8455L163 47.8336L163.033 47.8315L163.065 47.8291L162.622 41.8455ZM156.383 39.6666L152.825 44.4978L152.849 44.5156L152.873 44.5331L156.383 39.6666ZM54.0992 68.668L58.9109 72.2524L58.9625 72.1832L59.012 72.1125L54.0992 68.668ZM56.6229 65.0687L61.5356 68.5132L61.5539 68.4871L61.5718 68.4609L56.6229 65.0687ZM51.2746 62.4751L56.4133 65.5726L56.4219 65.5582L56.4305 65.5439L51.2746 62.4751ZM49.0116 66.2296L43.8729 63.1322L43.8433 63.1813L43.8146 63.231L49.0116 66.2296ZM55.2787 72.8483L54.2039 78.7513L54.2039 78.7513L55.2787 72.8483ZM62.1022 78.1893L56.1186 78.632L56.2933 80.9938L58.034 82.5995L62.1022 78.1893ZM62.0894 78.0159L61.6467 72.0323L55.6631 72.475L56.1058 78.4586L62.0894 78.0159ZM62.9317 77.9536L62.489 71.97L62.9317 77.9536ZM122.075 73.0052L122.518 78.9888L126.632 78.6845L127.821 74.7347L122.075 73.0052ZM121.902 73.018L115.918 73.4607L116.361 79.4443L122.345 79.0017L121.902 73.018ZM198.876 67.9959L193.546 70.7517L193.592 70.8404L193.64 70.9275L198.876 67.9959ZM192.319 71.9683L187.348 75.3274L187.377 75.3709L187.407 75.4138L192.319 71.9683ZM192.884 80.944L187.7 77.9221L187.652 78.0048L187.606 78.089L192.884 80.944ZM200.139 83.7202L194.615 81.3774L194.592 81.4313L194.57 81.4858L200.139 83.7202ZM73.9814 103.74L79.9651 103.297L73.9814 103.74ZM71.8975 75.5715L65.9138 76.0142L71.8975 75.5715ZM80.6446 74.9493L74.661 75.392L80.6446 74.9493ZM80.7069 75.7916L74.7233 76.2343L75.166 82.218L81.1496 81.7753L80.7069 75.7916ZM80.8804 75.7788L81.323 81.7625L85.3005 81.4682L86.5688 77.687L80.8804 75.7788ZM82.2294 93.3401L87.5733 90.612L85.7612 87.0624L81.7867 87.3565L82.2294 93.3401ZM82.056 93.3529L81.6133 87.3693L75.6297 87.812L76.0723 93.7956L82.056 93.3529ZM81.3503 84.4874L75.3642 84.8953L75.3665 84.93L75.3693 84.9647L81.3503 84.4874ZM26.2358 98.1054L32.2194 97.6627L26.2358 98.1054ZM24.1812 70.3334L18.1975 70.7761L24.1812 70.3334ZM69.5347 41.1846L63.551 41.6273L69.5347 41.1846ZM68.116 22.0093L74.0997 21.5666L68.116 22.0093ZM76.5411 21.4109L82.5248 20.9682L76.5411 21.4109ZM76.6401 22.7487L70.6565 23.1914L71.0991 29.1751L77.0828 28.7324L76.6401 22.7487ZM76.8135 22.7359L77.2562 28.7196L82.2409 28.3508L82.7787 23.3815L76.8135 22.7359ZM84.1573 17.2854L80.6877 22.1805L80.8138 22.2699L80.9444 22.3527L84.1573 17.2854ZM84.7118 23.7707L80.4294 19.5682L80.394 19.6043L80.3592 19.641L84.7118 23.7707ZM81.1084 25.233L81.698 31.2039L81.7602 31.1978L81.8223 31.1904L81.1084 25.233ZM53.9189 40.882C53.7868 40.8918 53.8638 40.8659 54.0822 40.929C54.3196 40.9975 54.6343 41.1468 54.9323 41.4141C55.5696 41.9858 55.4947 42.4754 55.4615 42.0265L43.4942 42.9119C43.6846 45.4854 44.6147 48.2795 46.9195 50.347C49.2586 52.4451 52.1747 53.0438 54.8043 52.8493L53.9189 40.882ZM52.5616 42.241C52.5948 42.6899 52.4487 42.2167 52.9949 41.5575C53.2503 41.2492 53.5396 41.0552 53.7643 40.9525C53.9711 40.8579 54.051 40.8722 53.9189 40.882L54.8043 52.8493C57.4339 52.6548 60.2302 51.6334 62.235 49.2139C64.2105 46.8298 64.7193 43.9292 64.5289 41.3557L52.5616 42.241ZM50.7691 18.0118L52.5616 42.241L64.5289 41.3557L62.7364 17.1264L50.7691 18.0118ZM62.6027 11.1199L56.31 11.5855L57.1954 23.5528L63.4881 23.0872L62.6027 11.1199ZM60.8287 13.5809C60.8197 13.459 60.8217 13.1755 60.9483 12.7997C61.0784 12.4138 61.3037 12.0405 61.6044 11.733C62.2068 11.1168 62.7362 11.11 62.6027 11.1199L63.4881 23.0872C65.7577 22.9193 68.2566 22.0942 70.1849 20.122C72.2017 18.0592 72.9924 15.3504 72.796 12.6955L60.8287 13.5809ZM62.9455 15.754C63.1291 15.7404 62.5825 15.8261 61.8657 15.2773C61.5099 15.0049 61.2309 14.6583 61.0492 14.2965C60.8737 13.9468 60.8359 13.6792 60.8287 13.5809L72.796 12.6955C72.6037 10.0969 71.4728 7.51919 69.1598 5.74862C66.9444 4.05277 64.3293 3.61886 62.0602 3.78673L62.9455 15.754ZM41.3176 17.3541L62.9455 15.754L62.0602 3.78673L40.4322 5.38681L41.3176 17.3541ZM43.0668 14.895C43.0741 14.9931 43.0764 15.2651 42.953 15.6393C42.8253 16.0269 42.5983 16.4126 42.2848 16.7347C41.6548 17.3818 41.1078 17.3696 41.3176 17.3541L40.4322 5.38681C38.1646 5.55457 35.6356 6.36162 33.6861 8.36432C31.6473 10.4587 30.9072 13.1807 31.0995 15.7803L43.0668 14.895ZM40.9748 12.72C40.8149 12.7318 41.3322 12.6535 42.0204 13.1733C42.3647 13.4333 42.6448 13.7707 42.8319 14.136C43.014 14.4914 43.0578 14.7732 43.0668 14.895L31.0995 15.7803C31.296 18.4363 32.4784 21.0047 34.7885 22.7493C36.9938 24.4147 39.5921 24.8551 41.8601 24.6873L40.9748 12.72ZM47.2426 12.2563L40.9748 12.72L41.8601 24.6873L48.128 24.2236L47.2426 12.2563ZM55.4615 42.0265L53.669 17.7973L41.7017 18.6826L43.4942 42.9119L55.4615 42.0265ZM101.691 37.4474C98.6571 37.6718 96.8117 36.9082 95.7151 35.9527C94.6137 34.9931 93.5173 33.1855 93.2715 29.8631L81.3042 30.7485C81.7237 36.4192 83.8014 41.4885 87.8322 45.0004C91.8677 48.5164 97.1127 49.8189 102.576 49.4147L101.691 37.4474ZM108.903 28.7067C109.15 32.0453 108.329 33.9912 107.385 35.096C106.444 36.1972 104.733 37.2223 101.691 37.4474L102.576 49.4147C108.032 49.011 113.031 46.9616 116.509 42.8909C119.983 38.8239 121.29 33.5006 120.87 27.8213L108.903 28.7067ZM100.485 21.1472C103.431 20.9292 105.296 21.6927 106.433 22.6848C107.576 23.6815 108.666 25.5045 108.903 28.7067L120.87 27.8213C120.453 22.1791 118.332 17.1403 114.322 13.6421C110.307 10.1393 105.077 8.77474 99.5997 9.17993L100.485 21.1472ZM93.2715 29.8631C93.0369 26.6921 93.8475 24.7226 94.8444 23.5543C95.8384 22.3894 97.5789 21.3622 100.485 21.1472L99.5997 9.17993C94.1322 9.58442 89.1691 11.7185 85.7161 15.7649C82.2661 19.808 80.8863 25.0999 81.3042 30.7485L93.2715 29.8631ZM102.1 42.9734C105.733 42.7046 108.66 40.6737 110.338 37.6355C111.863 34.8763 112.208 31.6182 111.978 28.5041L100.011 29.3895C100.074 30.2477 100.036 30.8763 99.9678 31.3015C99.8989 31.7308 99.8126 31.8724 99.8349 31.8322C99.8678 31.7726 100.017 31.5415 100.35 31.3225C100.691 31.0977 101.021 31.0204 101.214 31.0061L102.1 42.9734ZM90.2247 30.1134C90.4531 33.2001 91.2516 36.3709 93.1504 38.8819C95.2568 41.6673 98.4587 43.2427 102.1 42.9734L101.214 31.0061C101.394 30.9928 101.733 31.017 102.114 31.1943C102.486 31.3676 102.676 31.5834 102.722 31.6439C102.753 31.6851 102.647 31.5589 102.516 31.1378C102.386 30.7212 102.256 30.097 102.192 29.2281L90.2247 30.1134ZM100.076 15.6212C96.3592 15.8962 93.4702 18.0383 91.8421 21.0348C90.35 23.7808 89.9957 27.0172 90.2247 30.1134L102.192 29.2281C102.13 28.3953 102.168 27.773 102.237 27.3429C102.306 26.9077 102.396 26.7459 102.386 26.764C102.368 26.7976 102.234 27.0205 101.906 27.2428C101.563 27.4751 101.208 27.5703 100.962 27.5885L100.076 15.6212ZM111.978 28.5041C111.749 25.4089 110.922 22.2547 109.033 19.7546C106.969 17.0224 103.787 15.3467 100.076 15.6212L100.962 27.5885C100.731 27.6056 100.375 27.5673 100.005 27.3909C99.6502 27.2217 99.4839 27.022 99.4589 26.9889C99.445 26.9706 99.5566 27.115 99.6894 27.5336C99.8206 27.9474 99.949 28.5566 100.011 29.3895L111.978 28.5041ZM113.001 37.9689C113.204 40.7123 114.263 43.4951 116.633 45.4725C118.96 47.4147 121.763 47.9204 124.174 47.7421L123.289 35.7748C123.123 35.787 123.666 35.7126 124.321 36.2591C124.63 36.5168 124.818 36.8015 124.915 37.0126C125.004 37.2072 124.981 37.2618 124.968 37.0835L113.001 37.9689ZM111.584 18.8184L113.001 37.9689L124.968 37.0835L123.551 17.933L111.584 18.8184ZM121.06 7.66696C118.488 7.8572 115.775 8.87029 113.828 11.2155C111.91 13.5273 111.4 16.334 111.584 18.8184L123.551 17.933C123.53 17.6426 123.637 18.1867 123.062 18.8795C122.459 19.6059 121.816 19.6438 121.945 19.6343L121.06 7.66696ZM132.273 17.3126C132.075 14.6332 130.998 11.9256 128.694 9.98706C126.413 8.06843 123.615 7.47793 121.06 7.66696L121.945 19.6343C122.09 19.6235 121.582 19.6856 120.968 19.1694C120.331 18.6333 120.297 18.0778 120.306 18.198L132.273 17.3126ZM132.349 18.3284L132.273 17.3126L120.306 18.198L120.381 19.2137L132.349 18.3284ZM126.096 12.7746L125.922 12.7874L126.808 24.7547L126.981 24.7418L126.096 12.7746ZM133.872 6.76892C130.911 6.98792 128.036 7.86829 125.608 9.76785C123.171 11.6751 121.667 14.2327 120.812 16.9675L132.265 20.5489C132.558 19.6117 132.874 19.3195 133.003 19.2185C133.142 19.1098 133.58 18.8233 134.757 18.7362L133.872 6.76892ZM150.416 21.7993C150.106 17.6089 148.702 13.5242 145.578 10.5667C142.372 7.53208 138.168 6.45108 133.872 6.76892L134.757 18.7362C136.481 18.6087 137.099 19.0641 137.328 19.2814C137.639 19.5758 138.284 20.4585 138.449 22.6847L150.416 21.7993ZM151.402 35.1279L150.416 21.7993L138.449 22.6847L139.435 36.0132L151.402 35.1279ZM141.813 46.4371C144.226 46.2586 146.929 45.3438 148.942 43.0655C150.985 40.7534 151.603 37.848 151.402 35.1279L139.435 36.0132C139.449 36.2003 139.417 36.1565 139.475 35.9557C139.537 35.737 139.68 35.4253 139.95 35.1196C140.526 34.467 141.092 34.4577 140.928 34.4698L141.813 46.4371ZM130.665 36.6621C130.866 39.3822 131.905 42.165 134.266 44.1512C136.593 46.1085 139.4 46.6156 141.813 46.4371L140.928 34.4698C140.764 34.4819 141.325 34.4079 141.991 34.9685C142.303 35.2312 142.49 35.5185 142.584 35.7256C142.67 35.9158 142.646 35.9638 142.632 35.7767L130.665 36.6621ZM129.818 25.2163L130.665 36.6621L142.632 35.7767L141.785 24.331L129.818 25.2163ZM131.546 26.1727C131.633 26.1663 131.478 26.1916 131.175 26.0939C130.848 25.9883 130.494 25.7846 130.197 25.4876C129.625 24.9138 129.768 24.5353 129.818 25.2163L141.785 24.331C141.608 21.94 140.839 19.1629 138.692 17.0117C136.409 14.7234 133.433 14.0003 130.66 14.2054L131.546 26.1727ZM132.929 25.1606C132.903 24.8062 133.017 25.0254 132.692 25.4591C132.529 25.6761 132.306 25.8709 132.049 26.0067C131.797 26.1407 131.605 26.1684 131.546 26.1727L130.66 14.2054C127.653 14.428 124.919 15.8225 123.092 18.2589C121.333 20.6046 120.768 23.4274 120.962 26.0459L132.929 25.1606ZM133.763 36.4328L132.929 25.1606L120.962 26.0459L121.795 37.3182L133.763 36.4328ZM124.174 47.7421C126.587 47.5636 129.278 46.6432 131.286 44.3801C133.327 42.0787 133.966 39.1761 133.763 36.4328L121.795 37.3182C121.809 37.4964 121.778 37.4471 121.837 37.2437C121.9 37.0233 122.043 36.7159 122.309 36.4163C122.874 35.7794 123.428 35.7645 123.289 35.7748L124.174 47.7421ZM162.819 42.4904C157.933 42.8317 156.036 41.1486 155.843 40.8728L146.001 47.7378C149.543 52.8154 156.497 54.9612 163.655 54.4613L162.819 42.4904ZM170.824 36.3813C170.979 38.4865 170.384 39.568 169.606 40.2881C168.64 41.1819 166.606 42.2102 162.795 42.4922L163.68 54.4595C169.084 54.0597 174.106 52.4736 177.756 49.0963C181.594 45.5454 183.176 40.6992 182.791 35.496L170.824 36.3813ZM169.209 14.5552L170.824 36.3813L182.791 35.496L181.176 13.6698L169.209 14.5552ZM170.973 16.0071C171.19 15.9911 170.634 16.0841 169.941 15.5204C169.606 15.2483 169.394 14.9385 169.281 14.6952C169.177 14.471 169.197 14.3901 169.209 14.5552L181.176 13.6698C180.974 10.9425 179.914 8.16263 177.51 6.20849C175.173 4.30911 172.399 3.86884 170.088 4.03978L170.973 16.0071ZM172.406 14.3186C172.396 14.1895 172.424 14.2946 172.345 14.5504C172.26 14.8243 172.088 15.1515 171.809 15.447C171.245 16.0442 170.751 16.0236 170.973 16.0071L170.088 4.03978C167.784 4.21024 165.123 5.04732 163.081 7.21113C160.955 9.46488 160.23 12.3809 160.439 15.204L172.406 14.3186ZM172.474 15.2353L172.406 14.3186L160.439 15.204L160.507 16.1207L172.474 15.2353ZM166.759 21.6745L166.933 21.6616L166.048 9.69433L165.874 9.70716L166.759 21.6745ZM158.302 17.1189C159.152 17.056 159.725 17.2383 160.088 17.4412C160.458 17.6482 160.742 17.9489 160.929 18.3317L171.704 13.0499C169.144 7.82588 163.672 4.68885 157.416 5.15162L158.302 17.1189ZM153.972 24.7496C153.722 21.3689 154.392 19.5234 155.014 18.6395C155.508 17.9371 156.36 17.2626 158.302 17.1189L157.416 5.15162C152.471 5.51748 148.075 7.64743 145.2 11.7342C142.452 15.6394 141.63 20.5676 142.005 25.635L153.972 24.7496ZM159.246 31.5702C157.554 31.6954 156.598 31.199 155.93 30.4946C155.133 29.6546 154.206 27.9096 153.972 24.7496L142.005 25.635C142.376 30.6505 143.979 35.3319 147.222 38.7515C150.593 42.3068 155.185 43.9034 160.132 43.5375L159.246 31.5702ZM161.725 30.4636C161.72 30.4799 161.66 30.6759 161.295 30.934C160.923 31.1963 160.254 31.4956 159.246 31.5702L160.132 43.5375C165.92 43.1092 171.517 39.744 173.244 33.8256L161.725 30.4636ZM167.215 26.1481L167.042 26.1609L167.927 38.1282L168.1 38.1154L167.215 26.1481ZM173.96 35.9998L173.641 31.6891L161.674 32.5744L161.993 36.8852L173.96 35.9998ZM163.065 47.8291C165.894 47.6199 168.826 46.6381 171.032 44.3789C173.322 42.0347 174.18 38.9767 173.96 35.9998L161.993 36.8852C161.998 36.9563 161.979 36.8544 162.05 36.6426C162.124 36.4181 162.262 36.1839 162.448 35.9938C162.826 35.6074 162.968 35.8035 162.179 35.8619L163.065 47.8291ZM152.873 44.5331C155.374 46.3367 158.716 48.1043 163 47.8336L162.244 35.8574C162.022 35.8715 161.802 35.8457 161.488 35.7277C161.128 35.5924 160.622 35.3262 159.893 34.8002L152.873 44.5331ZM153.873 44.7976C153.789 44.8038 153.589 44.8034 153.331 44.7308C153.071 44.6574 152.897 44.5509 152.825 44.4978L159.941 34.8354C157.828 33.2792 155.434 32.6493 152.988 32.8303L153.873 44.7976ZM156.173 41.6999C156.227 42.4362 155.975 43.3155 155.334 43.9968C154.714 44.6567 154.069 44.7831 153.873 44.7976L152.988 32.8303C150.661 33.0025 148.331 33.9261 146.591 35.7773C144.831 37.6499 144.023 40.1148 144.206 42.5853L156.173 41.6999ZM155.91 40.9702C155.986 41.0844 156.056 41.2258 156.106 41.3795C156.154 41.5285 156.169 41.6436 156.173 41.6999L144.206 42.5853C144.323 44.1777 144.799 45.9422 145.934 47.6405L155.91 40.9702ZM162.991 37.0735C166.276 36.8305 169.272 35.2423 171.168 32.3263C172.918 29.6355 173.328 26.4441 173.109 23.4833L161.142 24.3687C161.19 25.0285 161.148 25.4591 161.101 25.6981C161.055 25.9335 161.017 25.9244 161.108 25.7852C161.211 25.6263 161.402 25.4225 161.673 25.2687C161.933 25.1206 162.114 25.1056 162.106 25.1062L162.991 37.0735ZM151.009 25.1183C151.226 28.0475 152.075 31.1445 154.188 33.5579C156.493 36.1909 159.701 37.3169 162.991 37.0735L162.106 25.1062C162.085 25.1078 162.268 25.0933 162.556 25.2052C162.857 25.3219 163.086 25.5036 163.217 25.6537C163.331 25.7845 163.296 25.8017 163.214 25.5691C163.132 25.3334 163.026 24.905 162.976 24.2329L151.009 25.1183ZM161.085 11.3069C157.586 11.5658 154.632 13.3893 152.843 16.312C151.194 19.0048 150.791 22.1738 151.009 25.1183L162.976 24.2329C162.928 23.5776 162.967 23.1169 163.021 22.83C163.075 22.5425 163.131 22.4898 163.077 22.5771C163.013 22.682 162.853 22.8835 162.571 23.0555C162.288 23.2279 162.051 23.2683 161.971 23.2742L161.085 11.3069ZM173.109 23.4833C172.889 20.5139 171.996 17.4452 169.963 15.0361C167.775 12.4419 164.596 11.0472 161.085 11.3069L161.971 23.2742C161.868 23.2818 161.624 23.2717 161.329 23.1462C161.036 23.022 160.861 22.8562 160.792 22.7742C160.734 22.7059 160.799 22.756 160.894 23.0267C160.989 23.2966 161.095 23.7345 161.142 24.3687L173.109 23.4833ZM51.135 64.2908C51.5351 64.2612 52.2503 64.3363 53.0034 64.8805C53.8131 65.4655 54.4475 66.4641 54.5345 67.6394L42.5672 68.5248C42.9828 74.143 48.0899 76.5488 52.0203 76.2581L51.135 64.2908ZM49.2875 65.0837C49.1245 65.3026 49.0822 65.3429 49.1172 65.3056C49.166 65.2535 49.3555 65.0593 49.6814 64.8482C50.0319 64.6211 50.3971 64.4665 50.7253 64.3749C51.0135 64.2944 51.1887 64.2868 51.135 64.2908L52.0203 76.2581C53.1343 76.1757 54.6619 75.9197 56.206 74.9194C57.5435 74.0529 58.4178 72.9144 58.9109 72.2524L49.2875 65.0837ZM51.7101 61.6242L49.1865 65.2235L59.012 72.1125L61.5356 68.5132L51.7101 61.6242ZM51.3716 63.29C51.3347 62.7905 51.4127 62.3545 51.5189 62.0359C51.6154 61.7461 51.7124 61.6202 51.6739 61.6764L61.5718 68.4609C62.5807 66.9891 63.5259 64.9316 63.3389 62.4046L51.3716 63.29ZM54.572 66.3046C54.2522 66.3283 53.4764 66.2734 52.6694 65.6397C51.8137 64.9677 51.4265 64.0311 51.3716 63.29L63.3389 62.4046C63.1631 60.0284 62.0672 57.7618 60.0809 56.2019C58.1433 54.6804 55.815 54.1799 53.6867 54.3373L54.572 66.3046ZM56.4305 65.5439C56.5847 65.2848 56.6484 65.2056 56.6362 65.2209C56.6166 65.2457 56.4717 65.4247 56.1901 65.6371C55.8851 65.8671 55.5316 66.0523 55.1679 66.1728C54.8329 66.2837 54.6011 66.3025 54.572 66.3046L53.6867 54.3373C52.262 54.4427 50.5728 54.8433 48.9642 56.0566C47.5725 57.1062 46.693 58.4417 46.1188 59.4064L56.4305 65.5439ZM54.1503 69.327L56.4133 65.5726L46.136 59.3777L43.8729 63.1322L54.1503 69.327ZM54.5345 67.6394C54.5436 67.7635 54.5533 68.1444 54.4266 68.6315C54.3117 69.0734 54.1546 69.3217 54.2086 69.2282L43.8146 63.231C43.4933 63.788 43.0783 64.591 42.8131 65.6106C42.536 66.6756 42.503 67.6574 42.5672 68.5248L54.5345 67.6394ZM51.0915 78.5189C51.7779 78.4681 52.2992 78.4858 52.7296 78.5261C53.1872 78.5689 53.5917 78.6398 54.2039 78.7513L56.3535 66.9454C55.0189 66.7024 53.0549 66.3408 50.2062 66.5516L51.0915 78.5189ZM43.878 87.2348C43.6459 84.0981 44.4408 82.1213 45.4364 80.9424C46.4201 79.7775 48.1512 78.7364 51.0915 78.5189L50.2062 66.5516C44.6737 66.9609 39.7049 69.1305 36.2683 73.1999C32.8435 77.2553 31.4976 82.5362 31.9107 88.1201L43.878 87.2348ZM52.4957 94.8043C49.2925 95.0413 47.4037 94.2441 46.3063 93.288C45.2005 92.3246 44.1212 90.5221 43.878 87.2348L31.9107 88.1201C32.3255 93.7267 34.3707 98.8048 38.4237 102.336C42.4851 105.874 47.7893 107.185 53.381 106.772L52.4957 94.8043ZM59.5624 86.7968C59.7564 89.4203 59.0189 91.2378 57.9903 92.4121C56.953 93.5961 55.1987 94.6044 52.4957 94.8043L53.381 106.772C58.7791 106.372 63.6265 104.189 67.0167 100.319C70.4155 96.4393 71.9312 91.3396 71.5297 85.9114L59.5624 86.7968ZM58.034 82.5995C58.565 83.0893 59.3814 84.3513 59.5624 86.7968L71.5297 85.9114C71.1864 81.2715 69.4893 76.8407 66.1705 73.7792L58.034 82.5995ZM56.1058 78.4586L56.1186 78.632L68.0859 77.7467L68.0731 77.5732L56.1058 78.4586ZM62.489 71.97L61.6467 72.0323L62.5321 83.9996L63.3744 83.9372L62.489 71.97ZM61.485 73.0538C61.51 73.3916 61.4702 73.4577 61.5008 73.3364C61.538 73.1884 61.6532 72.8762 61.9353 72.544C62.2191 72.2099 62.5197 72.0347 62.688 71.9628C62.8291 71.9026 62.7986 71.9471 62.489 71.97L63.3744 83.9372C65.9768 83.7447 68.9382 82.8361 71.082 80.3118C73.2112 77.8046 73.6432 74.7496 73.4523 72.1684L61.485 73.0538ZM61.2614 70.0313L61.485 73.0538L73.4523 72.1684L73.2287 69.1459L61.2614 70.0313ZM64.193 72.4431C63.8592 72.4677 63.014 72.3933 62.2062 71.6815C61.4084 70.9784 61.2744 70.2074 61.2614 70.0313L73.2287 69.1459C73.0599 66.864 72.1571 64.456 70.1401 62.6785C68.1133 60.8924 65.5986 60.3063 63.3076 60.4758L64.193 72.4431ZM66.5892 69.6371C66.5956 69.724 66.6112 70.5759 65.8441 71.4607C65.0808 72.3411 64.2491 72.4389 64.193 72.4431L63.3076 60.4758C61.0962 60.6394 58.6132 61.4821 56.777 63.6002C54.937 65.7227 54.4578 68.305 54.6219 70.5225L66.5892 69.6371ZM66.6533 70.5042L66.5892 69.6371L54.6219 70.5225L54.686 71.3896L66.6533 70.5042ZM58.5815 79.0857C59.843 78.9923 62.1543 78.6963 64.08 77.0399C66.4552 74.9969 66.7842 72.2732 66.6533 70.5042L54.686 71.3896C54.6746 71.235 54.6525 70.718 54.8721 70.0284C55.1171 69.2589 55.5878 68.5161 56.2548 67.9423C56.8637 67.4186 57.4239 67.2177 57.6462 67.1512C57.8617 67.0868 57.9164 67.1021 57.6962 67.1184L58.5815 79.0857ZM54.2039 78.7513C55.1121 78.9166 56.6768 79.2266 58.5815 79.0857L57.6962 67.1184C57.515 67.1318 57.3602 67.1287 56.3535 66.9454L54.2039 78.7513ZM52.7063 100.345C56.3994 100.072 59.3236 97.9888 60.9802 94.9433C62.4811 92.1843 62.8112 88.9417 62.5844 85.8757L50.6171 86.7611C50.6795 87.6051 50.6435 88.2305 50.5761 88.6592C50.5078 89.093 50.4209 89.2423 50.4389 89.2091C50.4674 89.1568 50.6133 88.9241 50.9478 88.701C51.2932 88.4706 51.6283 88.3919 51.8209 88.3777L52.7063 100.345ZM40.8312 87.4851C41.056 90.5234 41.8372 93.6812 43.7125 96.1954C45.7981 98.9914 49.0049 100.619 52.7063 100.345L51.8209 88.3777C51.9994 88.3645 52.3441 88.3892 52.73 88.5716C53.1049 88.7487 53.2911 88.9666 53.3314 89.0206C53.3573 89.0553 53.2501 88.9217 53.1187 88.4961C52.9889 88.0759 52.8618 87.4545 52.7985 86.5997L40.8312 87.4851ZM50.6827 72.9929C46.9265 73.2708 44.0425 75.4508 42.4298 78.4457C40.9521 81.1902 40.6042 84.4164 40.8312 87.4851L52.7985 86.5997C52.7378 85.7783 52.7738 85.1593 52.8425 84.7275C52.912 84.2901 53.002 84.1228 52.9955 84.1349C52.9808 84.1622 52.8501 84.3844 52.522 84.6086C52.1773 84.8441 51.8182 84.9417 51.5681 84.9602L50.6827 72.9929ZM62.5844 85.8757C62.3564 82.7938 61.5261 79.6507 59.6486 77.155C57.6058 74.4394 54.4315 72.7155 50.6827 72.9929L51.5681 84.9602C51.3184 84.9786 50.9542 84.9349 50.5857 84.7569C50.235 84.5875 50.0764 84.392 50.0591 84.3689C50.0518 84.3592 50.1655 84.5109 50.2985 84.9293C50.4298 85.3426 50.5567 85.9451 50.6171 86.7611L62.5844 85.8757ZM118.935 89.8144C118.769 89.8266 119.312 89.7522 119.967 90.2987C120.276 90.5564 120.464 90.8411 120.561 91.0522C120.65 91.2468 120.627 91.3015 120.614 91.1231L108.647 92.0085C108.85 94.7519 109.909 97.5347 112.279 99.5121C114.606 101.454 117.409 101.96 119.82 101.782L118.935 89.8144ZM117.442 91.3578C117.455 91.536 117.424 91.4868 117.483 91.2833C117.547 91.0629 117.689 90.7555 117.955 90.4559C118.52 89.819 119.074 89.8041 118.935 89.8144L119.82 101.782C122.233 101.603 124.924 100.683 126.932 98.4197C128.973 96.1183 129.612 93.2157 129.409 90.4725L117.442 91.3578ZM116.611 80.1351L117.442 91.3578L129.409 90.4725L128.579 79.2497L116.611 80.1351ZM126.381 68.2396C123.379 68.4617 120.582 69.8055 118.708 72.3225C116.92 74.7236 116.422 77.5778 116.611 80.1351L128.579 79.2497C128.544 78.7845 128.687 79.0133 128.332 79.4899C128.152 79.7317 127.911 79.9352 127.654 80.0691C127.405 80.1983 127.247 80.2083 127.266 80.2069L126.381 68.2396ZM137.582 78.3844C137.402 75.9506 136.593 73.1801 134.439 71.0427C132.163 68.7842 129.194 68.0314 126.381 68.2396L127.266 80.2069C127.346 80.201 127.198 80.2245 126.91 80.131C126.601 80.0307 126.267 79.839 125.987 79.5613C125.439 79.0176 125.569 78.6563 125.614 79.2697L137.582 78.3844ZM138.427 89.8053L137.582 78.3844L125.614 79.2697L126.459 90.6907L138.427 89.8053ZM136.723 88.4984C136.559 88.5105 137.119 88.4365 137.786 88.9972C138.098 89.2598 138.285 89.5471 138.379 89.7542C138.465 89.9444 138.441 89.9924 138.427 89.8053L126.459 90.6907C126.661 93.4108 127.7 96.1937 130.061 98.1799C132.387 100.137 135.195 100.644 137.608 100.466L136.723 88.4984ZM135.23 90.0418C135.243 90.229 135.212 90.1851 135.269 89.9843C135.332 89.7656 135.474 89.4539 135.745 89.1482C136.321 88.4956 136.886 88.4863 136.723 88.4984L137.608 100.466C140.021 100.287 142.724 99.3725 144.737 97.0941C146.78 94.7821 147.398 91.8767 147.197 89.1565L135.23 90.0418ZM134.243 76.7133L135.23 90.0418L147.197 89.1565L146.211 75.8279L134.243 76.7133ZM130.552 72.7648C132.253 72.639 132.875 73.0922 133.117 73.3213C133.441 73.6293 134.081 74.5222 134.243 76.7133L146.211 75.8279C145.902 71.652 144.493 67.5775 141.381 64.6212C138.186 61.586 133.985 60.478 129.666 60.7975L130.552 72.7648ZM127.821 74.7347C128.066 73.9188 128.397 73.5483 128.653 73.3492C128.923 73.139 129.469 72.8449 130.552 72.7648L129.666 60.7975C126.636 61.0217 123.726 61.9798 121.287 63.8756C118.834 65.7825 117.204 68.3719 116.33 71.2756L127.821 74.7347ZM122.345 79.0017L122.518 78.9888L121.633 67.0215L121.459 67.0344L122.345 79.0017ZM115.183 63.5262L115.918 73.4607L127.886 72.5753L127.151 62.6408L115.183 63.5262ZM116.992 64.9001C117.081 64.8935 116.965 64.9159 116.712 64.8421C116.44 64.7628 116.098 64.5967 115.78 64.3097C115.107 63.7019 115.156 63.1593 115.183 63.5262L127.151 62.6408C126.967 60.1587 126.07 57.4318 123.821 55.4023C121.533 53.3366 118.677 52.7426 116.107 52.9328L116.992 64.9001ZM118.552 63.2521C118.529 62.9352 118.643 63.4738 118.067 64.1645C117.467 64.8843 116.835 64.9117 116.992 64.9001L116.107 52.9328C113.538 53.1228 110.812 54.1272 108.85 56.4797C106.913 58.8031 106.399 61.6301 106.585 64.1374L118.552 63.2521ZM120.614 91.1231L118.552 63.2521L106.585 64.1374L108.647 92.0085L120.614 91.1231ZM137.846 80.2829C138.265 85.9536 140.343 91.0229 144.374 94.5348C148.409 98.0508 153.654 99.3533 159.118 98.9491L158.232 86.9818C155.198 87.2062 153.353 86.4426 152.256 85.4871C151.155 84.5275 150.059 82.7199 149.813 79.3975L137.846 80.2829ZM156.141 58.7143C150.674 59.1188 145.71 61.2529 142.258 65.2993C138.807 69.3424 137.428 74.6343 137.846 80.2829L149.813 79.3975C149.578 76.2265 150.389 74.257 151.386 73.0887C152.38 71.9238 154.12 70.8966 157.026 70.6816L156.141 58.7143ZM177.411 77.3557C176.994 71.7135 174.873 66.6747 170.863 63.1765C166.848 59.6737 161.618 58.3091 156.141 58.7143L157.026 70.6816C159.973 70.4636 161.838 71.2271 162.975 72.2192C164.117 73.2159 165.207 75.0389 165.444 78.2411L177.411 77.3557ZM159.118 98.9491C164.574 98.5454 169.572 96.496 173.05 92.4253C176.525 88.3583 177.832 83.035 177.411 77.3557L165.444 78.2411C165.691 81.5797 164.87 83.5256 163.926 84.6304C162.986 85.7316 161.274 86.7567 158.232 86.9818L159.118 98.9491ZM156.552 78.9239C156.615 79.7821 156.577 80.4107 156.509 80.8358C156.44 81.2652 156.354 81.4068 156.376 81.3666C156.409 81.307 156.559 81.0759 156.891 80.8569C157.232 80.6321 157.562 80.5548 157.756 80.5405L158.641 92.5078C162.274 92.239 165.201 90.2081 166.88 87.1699C168.404 84.4107 168.75 81.1526 168.519 78.0385L156.552 78.9239ZM157.503 77.1229C157.272 77.14 156.916 77.1017 156.546 76.9253C156.192 76.7561 156.025 76.5564 156 76.5233C155.986 76.505 156.098 76.6494 156.231 77.068C156.362 77.4818 156.49 78.091 156.552 78.9239L168.519 78.0385C168.29 74.9432 167.464 71.7891 165.574 69.289C163.51 66.5568 160.329 64.8811 156.618 65.1556L157.503 77.1229ZM158.733 78.7625C158.672 77.9297 158.709 77.3074 158.778 76.8773C158.848 76.4421 158.937 76.2803 158.927 76.2984C158.909 76.332 158.775 76.5549 158.447 76.7772C158.104 77.0095 157.749 77.1047 157.503 77.1229L156.618 65.1556C152.901 65.4306 150.012 67.5727 148.383 70.5692C146.891 73.3152 146.537 76.5516 146.766 79.6478L158.733 78.7625ZM157.756 80.5405C157.935 80.5272 158.275 80.5514 158.656 80.7287C159.028 80.902 159.217 81.1178 159.263 81.1783C159.294 81.2195 159.189 81.0933 159.057 80.6722C158.927 80.2555 158.798 79.6314 158.733 78.7625L146.766 79.6478C146.994 82.7345 147.793 85.9053 149.692 88.4162C151.798 91.2017 155 92.7771 158.641 92.5078L157.756 80.5405ZM149.182 101.191C149.588 106.677 154.34 110.911 159.972 110.494L159.086 98.5266C160.159 98.4472 161.073 99.2779 161.149 100.305L149.182 101.191ZM158.487 90.4254C152.903 90.8385 148.772 95.6562 149.182 101.191L161.149 100.305C161.229 101.38 160.398 102.317 159.372 102.393L158.487 90.4254ZM169.275 99.704C168.866 94.1696 164.071 90.0123 158.487 90.4254L159.372 102.393C158.347 102.469 157.387 101.664 157.308 100.589L169.275 99.704ZM159.972 110.494C165.603 110.077 169.681 105.191 169.275 99.704L157.308 100.589C157.232 99.5621 158.013 98.606 159.086 98.5266L159.972 110.494ZM168.021 78.0505C168.434 83.6453 170.503 88.6864 174.475 92.2065C178.466 95.7432 183.689 97.1312 189.194 96.724L188.308 84.7567C185.365 84.9745 183.54 84.206 182.433 83.2252C181.308 82.2277 180.226 80.3899 179.988 77.1651L168.021 78.0505ZM186.167 56.4929C180.655 56.9007 175.715 59.0797 172.309 63.1607C168.923 67.2187 167.609 72.4899 168.021 78.0505L179.988 77.1651C179.754 74.0052 180.544 72.0215 181.522 70.8493C182.481 69.7002 184.166 68.6738 187.053 68.4602L186.167 56.4929ZM204.205 65.2401C200.802 58.6579 193.269 55.9676 186.167 56.4929L187.053 68.4602C191.1 68.1608 193.054 69.8004 193.546 70.7517L204.205 65.2401ZM205.569 69.7426C205.443 68.0365 204.853 66.3903 204.111 65.0643L193.64 70.9275C193.649 70.9422 193.655 70.9594 193.654 70.9568C193.653 70.9521 193.645 70.9279 193.636 70.8817C193.626 70.8371 193.611 70.7519 193.602 70.6279L205.569 69.7426ZM196.508 79.7673C198.663 79.6079 200.964 78.7879 202.774 77.0632C204.694 75.2352 205.783 72.6284 205.569 69.7426L193.602 70.6279C193.578 70.3029 193.619 69.8803 193.795 69.4305C193.969 68.9864 194.228 68.6312 194.498 68.3737C195.012 67.8846 195.475 67.8109 195.623 67.8L196.508 79.7673ZM187.407 75.4138C188.279 76.6573 189.505 77.9406 191.255 78.8065C193.028 79.6841 194.848 79.8901 196.508 79.7673L195.623 67.8C195.598 67.8018 196.018 67.775 196.577 68.0512C197.111 68.3158 197.306 68.6292 197.231 68.5228L187.407 75.4138ZM187.87 75.1255C187.874 75.1251 187.766 75.133 187.584 75.0946C187.395 75.0546 187.218 74.9832 187.077 74.9019C186.946 74.8261 186.91 74.778 186.962 74.8309C187.019 74.8889 187.151 75.0358 187.348 75.3274L197.291 68.6093C196.275 67.1065 194.936 65.5847 193.086 64.5147C191.128 63.3819 189.034 63.0065 186.984 63.1582L187.87 75.1255ZM188.882 76.5071C188.821 75.6857 188.86 75.1061 188.922 74.7334C188.984 74.3593 189.056 74.2786 189.003 74.3689C188.935 74.485 188.758 74.7143 188.446 74.9058C188.139 75.0939 187.901 75.1231 187.87 75.1255L186.984 63.1582C183.479 63.4175 180.449 65.2221 178.642 68.3154C177.019 71.0929 176.69 74.3617 176.915 77.3925L188.882 76.5071ZM188.038 78.0759C188.07 78.0736 188.322 78.0667 188.67 78.2165C189.025 78.3692 189.242 78.5826 189.328 78.6917C189.394 78.7751 189.309 78.7007 189.189 78.3219C189.069 77.9451 188.945 77.3559 188.882 76.5071L176.915 77.3925C177.138 80.4099 177.918 83.6 179.903 86.1197C182.134 88.9503 185.403 90.3037 188.924 90.0432L188.038 78.0759ZM187.606 78.089C187.507 78.2731 187.44 78.3661 187.413 78.4001C187.389 78.4304 187.416 78.3898 187.503 78.3225C187.596 78.2503 187.717 78.1793 187.85 78.1288C187.981 78.079 188.056 78.0746 188.038 78.0759L188.924 90.0432C193.909 89.6744 196.689 86.5192 198.161 83.7989L187.606 78.089ZM196.225 72.2392C194.39 72.3749 192.524 72.9184 190.834 74.2007C189.301 75.3639 188.34 76.8248 187.7 77.9221L198.067 83.9658C198.239 83.6706 198.33 83.5484 198.353 83.5184C198.368 83.4995 198.282 83.6127 198.087 83.7611C197.876 83.9209 197.633 84.0494 197.396 84.1315C197.177 84.2073 197.057 84.2104 197.111 84.2065L196.225 72.2392ZM206.573 80.9525C206.367 78.1711 205.034 75.7425 202.911 74.1437C200.883 72.6173 198.454 72.0743 196.225 72.2392L197.111 84.2065C196.838 84.2266 196.29 84.1797 195.693 83.7306C195.001 83.2091 194.65 82.4392 194.606 81.8379L206.573 80.9525ZM205.662 86.0631C206.353 84.4341 206.704 82.7233 206.573 80.9525L194.606 81.8379C194.591 81.644 194.606 81.4851 194.625 81.3811C194.643 81.284 194.657 81.2781 194.615 81.3774L205.662 86.0631ZM189.194 96.724C196.007 96.22 203.085 92.4891 205.707 85.9547L194.57 81.4858C194.164 82.499 192.099 84.4763 188.308 84.7567L189.194 96.724ZM67.9978 104.183C68.2007 106.926 69.2602 109.709 71.6297 111.686C73.9572 113.628 76.7602 114.134 79.1712 113.956L78.2858 101.988C78.1202 102.001 78.6634 101.926 79.3182 102.473C79.627 102.73 79.8155 103.015 79.9121 103.226C80.0012 103.421 79.9783 103.476 79.9651 103.297L67.9978 104.183ZM65.9138 76.0142L67.9978 104.183L79.9651 103.297L77.8811 75.1289L65.9138 76.0142ZM75.5063 64.7546C73.1198 64.9311 70.4222 65.8238 68.4009 68.083C66.3402 70.3863 65.7124 73.2918 65.9138 76.0142L77.8811 75.1289C77.8681 74.9528 77.8989 75.0099 77.8371 75.2237C77.7699 75.4561 77.6201 75.7757 77.344 76.0843C76.7607 76.7362 76.2016 76.7359 76.3916 76.7218L75.5063 64.7546ZM86.6283 74.5066C86.4269 71.7854 85.387 69.0031 83.0213 67.0215C80.6946 65.0724 77.8949 64.5778 75.5063 64.7546L76.3916 76.7218C76.5547 76.7098 75.9893 76.7848 75.3156 76.2204C74.9985 75.9548 74.8078 75.6631 74.7113 75.4508C74.6228 75.256 74.6471 75.2047 74.661 75.392L86.6283 74.5066ZM86.6906 75.349L86.6283 74.5066L74.661 75.392L74.7233 76.2343L86.6906 75.349ZM80.4377 69.7952L80.2643 69.808L81.1496 81.7753L81.323 81.7625L80.4377 69.7952ZM88.2283 63.9877C82.0619 64.4439 77.1243 68.1098 75.1919 73.8706L86.5688 77.687C86.8814 76.7554 87.5009 76.0743 89.1137 75.955L88.2283 63.9877ZM106.46 82.6298C106.075 77.4264 104.552 72.5666 101.338 69.0053C97.9461 65.2478 93.2769 63.6142 88.2283 63.9877L89.1137 75.955C90.878 75.8245 91.7851 76.3316 92.4297 77.0457C93.2513 77.9561 94.2248 79.8988 94.4924 83.5151L106.46 82.6298ZM91.2922 103.718C96.3215 103.346 100.665 101.022 103.436 96.8148C106.059 92.8306 106.843 87.8176 106.46 82.6298L94.4924 83.5151C94.7592 87.1221 94.0873 89.1917 93.4132 90.2155C92.8859 91.0163 92.0913 91.6259 90.4068 91.7505L91.2922 103.718ZM76.8855 96.0682C79.6799 101.542 85.273 104.163 91.2922 103.718L90.4068 91.7505C88.4982 91.8917 87.8669 91.187 87.5733 90.612L76.8855 96.0682ZM82.4987 99.3366L82.6721 99.3238L81.7867 87.3565L81.6133 87.3693L82.4987 99.3366ZM88.7599 102.647L88.0396 92.9103L76.0723 93.7956L76.7926 103.532L88.7599 102.647ZM79.1712 113.956C81.5838 113.777 84.2749 112.857 86.2828 110.594C88.3245 108.292 88.9629 105.39 88.7599 102.647L76.7926 103.532C76.8058 103.71 76.7752 103.661 76.834 103.457C76.8976 103.237 77.0405 102.93 77.3063 102.63C77.8713 101.993 78.4249 101.978 78.2858 101.988L79.1712 113.956ZM85.5241 84.1786C85.5703 84.8037 85.5306 85.249 85.4765 85.53C85.4221 85.812 85.3642 85.8753 85.4081 85.8041C85.4609 85.7182 85.6066 85.5305 85.8763 85.3645C86.15 85.1959 86.3933 85.1474 86.505 85.1392L87.3904 97.1064C90.9206 96.8453 93.8529 94.9761 95.6263 92.0959C97.2754 89.4178 97.7106 86.2569 97.4914 83.2933L85.5241 84.1786ZM86.3511 83.0594C86.2169 83.0694 85.9598 83.0521 85.6655 82.925C85.3776 82.8006 85.2138 82.6403 85.1571 82.5728C85.1104 82.5173 85.1804 82.5795 85.2772 82.8534C85.3734 83.1259 85.4783 83.5598 85.5241 84.1786L97.4914 83.2933C97.271 80.314 96.3625 77.2546 94.3439 74.8526C92.1819 72.2799 89.0146 70.8296 85.4658 71.0921L86.3511 83.0594ZM87.3364 84.0795C87.2946 83.4658 87.3361 83.0191 87.3936 82.7288C87.4515 82.4364 87.5148 82.3534 87.4837 82.4042C87.445 82.4673 87.313 82.6467 87.0467 82.8137C86.7722 82.9857 86.5088 83.0478 86.3511 83.0594L85.4658 71.0921C81.8925 71.3565 78.9935 73.2935 77.2532 76.1322C75.6251 78.7879 75.162 81.9281 75.3642 84.8953L87.3364 84.0795ZM86.505 85.1392C86.6309 85.1298 86.8869 85.145 87.1852 85.2733C87.4779 85.3991 87.6465 85.5628 87.7064 85.634C87.7556 85.6925 87.6857 85.6317 87.5871 85.3543C87.489 85.0783 87.3814 84.6386 87.3313 84.0101L75.3693 84.9647C75.6051 87.9198 76.5103 90.9669 78.5253 93.3611C80.6914 95.9348 83.8545 97.368 87.3904 97.1064L86.505 85.1392ZM20.2521 98.5481C20.4551 101.291 21.5146 104.074 23.8841 106.052C26.2115 107.994 29.0146 108.5 31.4255 108.321L30.5402 96.354C30.3746 96.3662 30.9178 96.2918 31.5726 96.8383C31.8814 97.096 32.0699 97.3807 32.1665 97.5918C32.2556 97.7864 32.2326 97.841 32.2194 97.6627L20.2521 98.5481ZM18.1975 70.7761L20.2521 98.5481L32.2194 97.6627L30.1648 69.8907L18.1975 70.7761ZM27.8111 59.4651C25.4001 59.6434 22.702 60.5561 20.6857 62.8197C18.633 65.1242 17.9946 68.0327 18.1975 70.7761L30.1648 69.8907C30.1516 69.7124 30.1824 69.7631 30.1229 69.9686C30.0584 70.1917 29.9139 70.501 29.6464 70.8014C29.0791 71.4382 28.5308 71.4446 28.6964 71.4323L27.8111 59.4651ZM38.9597 69.2401C38.7567 66.4968 37.6982 63.7197 35.34 61.7439C33.021 59.8008 30.2237 59.2866 27.8111 59.4651L28.6964 71.4323C28.8355 71.4221 28.2858 71.4888 27.6332 70.942C27.3261 70.6847 27.1396 70.4017 27.0442 70.193C26.9562 70.0005 26.9792 69.9473 26.9924 70.1254L38.9597 69.2401ZM41.0143 97.012L38.9597 69.2401L26.9924 70.1254L29.047 97.8974L41.0143 97.012ZM31.4255 108.321C33.8382 108.143 36.5293 107.222 38.5371 104.959C40.5789 102.658 41.2173 99.7553 41.0143 97.012L29.047 97.8974C29.0602 98.0755 29.0296 98.0263 29.0883 97.8229C29.152 97.6025 29.2948 97.2951 29.5606 96.9955C30.1257 96.3585 30.6793 96.3437 30.5402 96.354L31.4255 108.321ZM63.551 41.6273C63.7453 44.2527 64.7301 47.0175 67.0508 49.0267C69.3691 51.0338 72.212 51.5863 74.7244 51.4005L73.8391 39.4332C73.651 39.4471 74.2304 39.37 74.9053 39.9543C75.5825 40.5406 75.544 41.0894 75.5183 40.7419L63.551 41.6273ZM62.1324 22.452L63.551 41.6273L75.5183 40.7419L74.0997 21.5666L62.1324 22.452ZM71.6349 11.3235C69.1409 11.5081 66.4908 12.4916 64.5419 14.7237C62.5761 16.9751 61.9358 19.795 62.1324 22.452L74.0997 21.5666C74.0873 21.3994 74.1519 21.9625 73.5812 22.6161C73.0274 23.2505 72.4625 23.2951 72.5203 23.2908L71.6349 11.3235ZM82.5248 20.9682C82.332 18.3622 81.3374 15.6849 79.1251 13.7283C76.9048 11.7646 74.1468 11.1377 71.6349 11.3235L72.5203 23.2908C72.461 23.2952 71.8294 23.2957 71.175 22.717C70.5286 22.1453 70.5395 21.6106 70.5575 21.8536L82.5248 20.9682ZM82.6238 22.3061L82.5248 20.9682L70.5575 21.8536L70.6565 23.1914L82.6238 22.3061ZM76.3708 16.7523L76.1974 16.7651L77.0828 28.7324L77.2562 28.7196L76.3708 16.7523ZM81.3097 10.7821C78.406 10.997 75.7551 12.2913 73.8305 14.5768C72.0007 16.7499 71.1352 19.4395 70.8484 22.0903L82.7787 23.3815C82.8913 22.341 83.1451 22.1454 83.0097 22.3062C82.9324 22.398 82.7914 22.5246 82.5923 22.6247C82.3961 22.7233 82.244 22.7458 82.1951 22.7494L81.3097 10.7821ZM87.6268 12.3903C85.4931 10.8779 83.1237 10.6479 81.3097 10.7821L82.1951 22.7494C82.363 22.737 81.6121 22.8357 80.6877 22.1805L87.6268 12.3903ZM91.7014 20.0901C91.5089 17.4884 90.5083 14.2078 87.3701 12.218L80.9444 22.3527C80.3624 21.9837 80.0075 21.5015 79.8327 21.1393C79.6827 20.8285 79.7148 20.715 79.7341 20.9754L91.7014 20.0901ZM88.9942 27.9732C91.2438 25.6808 91.899 22.7611 91.7014 20.0901L79.7341 20.9754C79.7411 21.0708 79.714 20.9062 79.8143 20.5862C79.9241 20.2355 80.1348 19.8684 80.4294 19.5682L88.9942 27.9732ZM81.8223 31.1904C84.0392 30.9247 86.9006 30.181 89.0644 27.9005L80.3592 19.641C80.6879 19.2945 80.9748 19.172 81.0072 19.159C81.0216 19.1533 80.9836 19.1696 80.8773 19.1947C80.7713 19.2196 80.6135 19.2494 80.3945 19.2756L81.8223 31.1904ZM83.5342 29.5622C83.4952 29.0349 83.5244 28.8666 83.5169 28.9154C83.505 28.9932 83.4203 29.4599 83.0267 30.0217C82.6024 30.6273 82.075 30.9798 81.7063 31.1454C81.4117 31.2778 81.3349 31.2398 81.698 31.2039L80.5187 19.262C78.3122 19.4799 75.2197 20.2518 73.1991 23.1356C71.3909 25.7162 71.4359 28.6759 71.5669 30.4476L83.5342 29.5622ZM84.3132 40.0913L83.5342 29.5622L71.5669 30.4476L72.3459 40.9766L84.3132 40.0913ZM74.7244 51.4005C77.2387 51.2145 79.9622 50.2416 81.9514 47.9156C83.9401 45.5902 84.5074 42.7165 84.3132 40.0913L72.3459 40.9766C72.3716 41.3243 72.2528 40.7931 72.8316 40.1164C73.4107 39.4391 74.0004 39.4212 73.8391 39.4332L74.7244 51.4005Z" fill="white" mask="url(#path-4-outside-1_367_10507)"/>
</g>
<defs>
<filter id="filter0_dddd_367_10507" x="0.292818" y="3.75323" width="224.176" height="150.441" filterUnits="userSpaceOnUse" color-interpolation-filters="sRGB">
<feFlood flood-opacity="0" result="BackgroundImageFix"/>
<feColorMatrix in="SourceAlpha" type="matrix" values="0 0 0 0 0 0 0 0 0 0 0 0 0 0 0 0 0 0 127 0" result="hardAlpha"/>
<feOffset dy="2.76726"/>
<feGaussianBlur stdDeviation="1.1069"/>
<feColorMatrix type="matrix" values="0 0 0 0 0.160784 0 0 0 0 0.576471 0 0 0 0 0.0313726 0 0 0 0.0253031 0"/>
<feBlend mode="normal" in2="BackgroundImageFix" result="effect1_dropShadow_367_10507"/>
<feColorMatrix in="SourceAlpha" type="matrix" values="0 0 0 0 0 0 0 0 0 0 0 0 0 0 0 0 0 0 127 0" result="hardAlpha"/>
<feOffset dy="6.6501"/>
<feGaussianBlur stdDeviation="2.66004"/>
<feColorMatrix type="matrix" values="0 0 0 0 0.160784 0 0 0 0 0.576471 0 0 0 0 0.0313726 0 0 0 0.0363503 0"/>
<feBlend mode="normal" in2="effect1_dropShadow_367_10507" result="effect2_dropShadow_367_10507"/>
<feColorMatrix in="SourceAlpha" type="matrix" values="0 0 0 0 0 0 0 0 0 0 0 0 0 0 0 0 0 0 127 0" result="hardAlpha"/>
<feOffset dy="12.5216"/>
<feGaussianBlur stdDeviation="5.00862"/>
<feColorMatrix type="matrix" values="0 0 0 0 0.160784 0 0 0 0 0.576471 0 0 0 0 0.0313726 0 0 0 0.045 0"/>
<feBlend mode="normal" in2="effect2_dropShadow_367_10507" result="effect3_dropShadow_367_10507"/>
<feColorMatrix in="SourceAlpha" type="matrix" values="0 0 0 0 0 0 0 0 0 0 0 0 0 0 0 0 0 0 127 0" result="hardAlpha"/>
<feOffset dy="22.3363"/>
<feGaussianBlur stdDeviation="8.93452"/>
<feColorMatrix type="matrix" values="0 0 0 0 0.160784 0 0 0 0 0.576471 0 0 0 0 0.0313726 0 0 0 0.0536497 0"/>
<feBlend mode="normal" in2="effect3_dropShadow_367_10507" result="effect4_dropShadow_367_10507"/>
<feBlend mode="normal" in="SourceGraphic" in2="effect4_dropShadow_367_10507" result="shape"/>
</filter>
</defs>
</svg>
