<svg width="215" height="158" viewBox="0 0 215 158" fill="none" xmlns="http://www.w3.org/2000/svg">
<g filter="url(#filter0_dddd_367_10477)">
<path d="M46.1565 59.6798C49.0562 53.8761 50.8628 45.4632 51.4037 41.9822L52.1541 42.0445L70.537 39.0375L119.813 46.151C133.362 49.7945 162.975 57.7435 173.03 60.3917C183.086 63.04 181.434 71.4153 179.35 75.272C178.955 77.0021 177.526 80.8628 174.976 82.4643C172.425 84.0658 126.681 81.7286 104.128 80.3597C97.6863 76.0471 80.4005 67.6608 62.7923 68.6166C45.1841 69.5724 44.365 63.057 46.1565 59.6798Z" fill="white"/>
<mask id="path-2-outside-1_367_10477" maskUnits="userSpaceOnUse" x="16.624" y="45.2455" width="182.52" height="76.5157" fill="black">
<rect fill="white" x="16.624" y="45.2455" width="182.52" height="76.5157"/>
<path fill-rule="evenodd" clip-rule="evenodd" d="M52.2681 63.0553C50.7205 62.9268 49.6513 61.8699 49.7603 60.5568C49.8187 59.8533 50.0179 59.4448 50.4652 58.8917L53.1374 55.7136C54.2391 54.3884 54.9307 54.0208 56.1266 54.1201C57.8384 54.2622 58.8999 55.4128 58.7714 56.9605C58.7149 57.6405 58.379 58.2738 57.7578 58.9305L54.8647 61.925C53.8626 62.9043 53.3702 63.1468 52.2681 63.0553ZM51.065 65.0331C53.0237 65.1958 54.2571 65.6276 55.3504 66.0104C56.2204 66.315 57.0016 66.5885 57.9888 66.6705C59.8178 66.8224 60.5661 66.3414 60.6751 65.0283L60.7433 64.2075C60.9107 62.1909 62.1805 61.1158 64.2206 61.2852C66.0731 61.439 67.1932 62.7361 67.0277 64.7293L66.7902 67.5901C66.5312 70.7089 64.8277 72.173 61.7558 71.918L60.9586 71.8518L60.9449 72.0159C62.4834 73.9617 63.2385 76.8105 62.9601 80.1638C62.3273 87.7848 56.6991 92.4411 49.0311 91.8045C40.7066 91.1133 36.195 85.7332 36.8939 77.3148C37.5793 69.0606 43.0453 64.3673 51.065 65.0331ZM49.3497 85.692C52.234 85.9315 54.2147 83.4043 54.5963 78.8082C54.974 74.2591 53.3962 71.3656 50.5588 71.13C47.7214 70.8944 45.7115 73.49 45.3338 78.0392C44.9522 82.6353 46.442 85.4506 49.3497 85.692ZM111.928 96.9559C109.49 96.7534 107.871 95.2023 108.113 92.2946L110.303 65.914C110.525 63.2408 112.154 61.8178 114.734 62.0319C117.313 62.2461 118.662 63.9164 118.438 66.6131L117.657 76.0163L117.821 76.0299C119.419 72.7153 122.365 71.0711 126.258 71.3943C131.956 71.8674 134.822 75.7414 134.321 81.7679L133.274 94.3837C133.032 97.2914 131.204 98.5563 128.765 98.3538C126.326 98.1513 124.731 96.6022 124.973 93.6945L125.87 82.8843C126.11 80 124.827 78.0991 122.084 77.8713C119.293 77.6396 117.557 79.5024 117.319 82.3632L116.437 92.9858C116.196 95.8935 114.344 97.1564 111.928 96.9559ZM165.725 88.0114C165.032 96.3594 169.584 101.814 177.581 102.478C182.599 102.894 187.298 100.9 189.272 97.5929C189.763 96.8072 189.985 96.1174 190.038 95.4842C190.209 93.4207 188.69 92.0904 186.838 91.9366C185.079 91.7906 184.104 92.4416 182.895 93.9231C181.809 95.3441 180.426 96.3626 178.315 96.1873C175.267 95.9342 173.764 93.283 174.143 88.7104C174.519 84.1846 176.486 81.8216 179.534 82.0747C181.41 82.2304 182.671 83.2559 183.694 85.4422C184.38 86.845 185.336 87.5619 186.93 87.6943C188.83 87.852 190.59 86.8412 190.756 84.848C190.808 84.2149 190.685 83.4255 190.415 82.6947C189.149 78.8827 185.031 76.1561 179.755 75.718C171.806 75.058 166.41 79.7572 165.725 88.0114ZM137.164 85.6401C136.457 94.1523 141.07 99.4464 149.113 100.114C157.156 100.782 162.578 96.3446 163.286 87.809C163.981 79.4376 159.308 74.0204 151.335 73.3584C143.409 72.7004 137.857 77.2921 137.164 85.6401ZM154.866 87.1335C154.479 91.8 152.457 94.2529 149.619 94.0173C146.759 93.7798 145.216 91.0309 145.604 86.3645C145.985 81.7684 148.015 79.2216 150.829 79.4553C153.666 79.6909 155.248 82.5375 154.866 87.1335ZM144.68 106.877C144.504 108.987 146.049 110.862 148.206 111.042C150.363 111.221 152.196 109.626 152.371 107.515C152.546 105.405 151 103.553 148.843 103.374C146.685 103.195 144.855 104.766 144.68 106.877ZM68.2824 97.6765C68.041 100.584 69.6594 102.135 72.0981 102.338C74.5134 102.538 76.3655 101.275 76.6069 98.3677L77.3721 89.1521L77.5362 89.1657C78.5337 92.2235 81.1997 94.2393 84.9516 94.5508C91.3064 95.0784 95.434 90.5809 96.1251 82.2563C96.8182 73.9083 93.4655 68.7897 87.0169 68.2543C83.3353 67.9486 80.4145 69.5714 78.8697 72.5362L78.7056 72.5225L78.7718 71.7253C79.0132 68.8175 77.4163 67.2919 75.001 67.0914C72.5622 66.8889 70.7356 68.1303 70.4961 71.0145L68.2824 97.6765ZM87.6364 81.5515C87.2996 85.6083 85.233 88.0339 82.2783 87.7886C79.3472 87.5452 77.7088 84.812 78.0222 80.7533C78.3805 76.7219 80.4745 74.2514 83.3823 74.4928C86.3134 74.7361 87.9733 77.4948 87.6364 81.5515ZM24.4451 85.3479C24.2037 88.2556 25.8221 89.8066 28.2609 90.0091C30.6762 90.2096 32.5282 88.9468 32.7697 86.039L34.9522 59.7523C35.1936 56.8445 33.5752 55.2935 31.1599 55.093C28.7212 54.8905 26.8691 56.1534 26.6277 59.0611L24.4451 85.3479Z"/>
</mask>
<path fill-rule="evenodd" clip-rule="evenodd" d="M52.2681 63.0553C50.7205 62.9268 49.6513 61.8699 49.7603 60.5568C49.8187 59.8533 50.0179 59.4448 50.4652 58.8917L53.1374 55.7136C54.2391 54.3884 54.9307 54.0208 56.1266 54.1201C57.8384 54.2622 58.8999 55.4128 58.7714 56.9605C58.7149 57.6405 58.379 58.2738 57.7578 58.9305L54.8647 61.925C53.8626 62.9043 53.3702 63.1468 52.2681 63.0553ZM51.065 65.0331C53.0237 65.1958 54.2571 65.6276 55.3504 66.0104C56.2204 66.315 57.0016 66.5885 57.9888 66.6705C59.8178 66.8224 60.5661 66.3414 60.6751 65.0283L60.7433 64.2075C60.9107 62.1909 62.1805 61.1158 64.2206 61.2852C66.0731 61.439 67.1932 62.7361 67.0277 64.7293L66.7902 67.5901C66.5312 70.7089 64.8277 72.173 61.7558 71.918L60.9586 71.8518L60.9449 72.0159C62.4834 73.9617 63.2385 76.8105 62.9601 80.1638C62.3273 87.7848 56.6991 92.4411 49.0311 91.8045C40.7066 91.1133 36.195 85.7332 36.8939 77.3148C37.5793 69.0606 43.0453 64.3673 51.065 65.0331ZM49.3497 85.692C52.234 85.9315 54.2147 83.4043 54.5963 78.8082C54.974 74.2591 53.3962 71.3656 50.5588 71.13C47.7214 70.8944 45.7115 73.49 45.3338 78.0392C44.9522 82.6353 46.442 85.4506 49.3497 85.692ZM111.928 96.9559C109.49 96.7534 107.871 95.2023 108.113 92.2946L110.303 65.914C110.525 63.2408 112.154 61.8178 114.734 62.0319C117.313 62.2461 118.662 63.9164 118.438 66.6131L117.657 76.0163L117.821 76.0299C119.419 72.7153 122.365 71.0711 126.258 71.3943C131.956 71.8674 134.822 75.7414 134.321 81.7679L133.274 94.3837C133.032 97.2914 131.204 98.5563 128.765 98.3538C126.326 98.1513 124.731 96.6022 124.973 93.6945L125.87 82.8843C126.11 80 124.827 78.0991 122.084 77.8713C119.293 77.6396 117.557 79.5024 117.319 82.3632L116.437 92.9858C116.196 95.8935 114.344 97.1564 111.928 96.9559ZM165.725 88.0114C165.032 96.3594 169.584 101.814 177.581 102.478C182.599 102.894 187.298 100.9 189.272 97.5929C189.763 96.8072 189.985 96.1174 190.038 95.4842C190.209 93.4207 188.69 92.0904 186.838 91.9366C185.079 91.7906 184.104 92.4416 182.895 93.9231C181.809 95.3441 180.426 96.3626 178.315 96.1873C175.267 95.9342 173.764 93.283 174.143 88.7104C174.519 84.1846 176.486 81.8216 179.534 82.0747C181.41 82.2304 182.671 83.2559 183.694 85.4422C184.38 86.845 185.336 87.5619 186.93 87.6943C188.83 87.852 190.59 86.8412 190.756 84.848C190.808 84.2149 190.685 83.4255 190.415 82.6947C189.149 78.8827 185.031 76.1561 179.755 75.718C171.806 75.058 166.41 79.7572 165.725 88.0114ZM137.164 85.6401C136.457 94.1523 141.07 99.4464 149.113 100.114C157.156 100.782 162.578 96.3446 163.286 87.809C163.981 79.4376 159.308 74.0204 151.335 73.3584C143.409 72.7004 137.857 77.2921 137.164 85.6401ZM154.866 87.1335C154.479 91.8 152.457 94.2529 149.619 94.0173C146.759 93.7798 145.216 91.0309 145.604 86.3645C145.985 81.7684 148.015 79.2216 150.829 79.4553C153.666 79.6909 155.248 82.5375 154.866 87.1335ZM144.68 106.877C144.504 108.987 146.049 110.862 148.206 111.042C150.363 111.221 152.196 109.626 152.371 107.515C152.546 105.405 151 103.553 148.843 103.374C146.685 103.195 144.855 104.766 144.68 106.877ZM68.2824 97.6765C68.041 100.584 69.6594 102.135 72.0981 102.338C74.5134 102.538 76.3655 101.275 76.6069 98.3677L77.3721 89.1521L77.5362 89.1657C78.5337 92.2235 81.1997 94.2393 84.9516 94.5508C91.3064 95.0784 95.434 90.5809 96.1251 82.2563C96.8182 73.9083 93.4655 68.7897 87.0169 68.2543C83.3353 67.9486 80.4145 69.5714 78.8697 72.5362L78.7056 72.5225L78.7718 71.7253C79.0132 68.8175 77.4163 67.2919 75.001 67.0914C72.5622 66.8889 70.7356 68.1303 70.4961 71.0145L68.2824 97.6765ZM87.6364 81.5515C87.2996 85.6083 85.233 88.0339 82.2783 87.7886C79.3472 87.5452 77.7088 84.812 78.0222 80.7533C78.3805 76.7219 80.4745 74.2514 83.3823 74.4928C86.3134 74.7361 87.9733 77.4948 87.6364 81.5515ZM24.4451 85.3479C24.2037 88.2556 25.8221 89.8066 28.2609 90.0091C30.6762 90.2096 32.5282 88.9468 32.7697 86.039L34.9522 59.7523C35.1936 56.8445 33.5752 55.2935 31.1599 55.093C28.7212 54.8905 26.8691 56.1534 26.6277 59.0611L24.4451 85.3479Z" fill="#FF9914"/>
<path d="M50.4652 58.8917L45.8728 55.0303L45.8359 55.0742L45.7998 55.1189L50.4652 58.8917ZM53.1374 55.7136L57.7298 59.5749L57.7406 59.5621L57.7512 59.5492L53.1374 55.7136ZM57.7578 58.9305L62.0729 63.0994L62.095 63.0766L62.1168 63.0535L57.7578 58.9305ZM54.8647 61.925L59.0582 66.2163L59.1199 66.156L59.1798 66.0939L54.8647 61.925ZM55.3504 66.0104L53.3676 71.6733L53.3676 71.6733L55.3504 66.0104ZM67.0277 64.7293L73.0071 65.2258L67.0277 64.7293ZM66.7902 67.5901L60.8107 67.0937L66.7902 67.5901ZM61.7558 71.918L61.2594 77.8974L61.7558 71.918ZM60.9586 71.8518L61.455 65.8724L55.4756 65.3759L54.9791 71.3553L60.9586 71.8518ZM60.9449 72.0159L54.9655 71.5195L54.7696 73.8795L56.2383 75.7372L60.9449 72.0159ZM108.113 92.2946L102.133 91.7982L108.113 92.2946ZM110.303 65.914L116.282 66.4105L110.303 65.914ZM117.657 76.0163L111.678 75.5198L111.181 81.4993L117.161 81.9957L117.657 76.0163ZM117.821 76.0299L117.325 82.0094L121.436 82.3507L123.226 78.6348L117.821 76.0299ZM134.321 81.7679L140.301 82.2644L134.321 81.7679ZM133.274 94.3837L127.294 93.8873L133.274 94.3837ZM124.973 93.6945L118.993 93.198L124.973 93.6945ZM125.87 82.8843L131.85 83.3808L125.87 82.8843ZM189.272 97.5929L184.182 94.4167L184.151 94.4665L184.121 94.5169L189.272 97.5929ZM182.895 93.9231L178.247 90.1294L178.186 90.2036L178.128 90.2797L182.895 93.9231ZM183.694 85.4422L178.259 87.9844L178.281 88.0319L178.304 88.079L183.694 85.4422ZM190.415 82.6947L184.72 84.5851L184.752 84.6798L184.786 84.7735L190.415 82.6947ZM68.2824 97.6765L74.2618 98.173L68.2824 97.6765ZM76.6069 98.3677L70.6275 97.8712L76.6069 98.3677ZM77.3721 89.1521L77.8685 83.1726L71.8891 82.6762L71.3927 88.6556L77.3721 89.1521ZM77.5362 89.1657L83.2404 87.3049L82.0044 83.516L78.0327 83.1863L77.5362 89.1657ZM78.8697 72.5362L78.3733 78.5156L82.3479 78.8456L84.1908 75.3086L78.8697 72.5362ZM78.7056 72.5225L72.7262 72.0261L72.2297 78.0055L78.2091 78.502L78.7056 72.5225ZM70.4961 71.0145L64.5167 70.5181L70.4961 71.0145ZM78.0222 80.7533L72.0458 80.2221L72.0427 80.2567L72.04 80.2914L78.0222 80.7533ZM24.4451 85.3479L18.4657 84.8514L24.4451 85.3479ZM32.7697 86.039L38.7491 86.5355L32.7697 86.039ZM34.9522 59.7523L28.9728 59.2558L34.9522 59.7523ZM26.6277 59.0611L32.6071 59.5575L26.6277 59.0611ZM43.7809 60.0603C43.3208 65.6014 47.9303 68.7157 51.7717 69.0347L52.7646 57.0758C53.2076 57.1126 53.9388 57.315 54.6227 57.9947C55.3561 58.7237 55.8403 59.8421 55.7397 61.0532L43.7809 60.0603ZM45.7998 55.1189C45.408 55.6034 44.8818 56.3184 44.467 57.2698C44.0335 58.264 43.8512 59.2132 43.7809 60.0603L55.7397 61.0532C55.7278 61.1969 55.6743 61.5901 55.4668 62.0659C55.2781 62.4989 55.0751 62.7331 55.1306 62.6645L45.7998 55.1189ZM48.545 51.8522L45.8728 55.0303L55.0576 62.753L57.7298 59.5749L48.545 51.8522ZM56.6231 48.1407C55.2328 48.0252 53.528 48.1536 51.7755 49.0873C50.2627 49.8932 49.2105 51.0515 48.5236 51.8779L57.7512 59.5492C57.9286 59.3359 57.99 59.2827 57.9623 59.3082C57.9257 59.3418 57.742 59.5053 57.4179 59.678C57.0679 59.8645 56.6769 59.9965 56.2848 60.0611C55.9227 60.1207 55.6759 60.1033 55.6302 60.0995L56.6231 48.1407ZM64.7508 57.457C64.9444 55.1255 64.2285 52.7533 62.5358 50.9304C60.8852 49.153 58.7022 48.3133 56.6231 48.1407L55.6302 60.0995C55.2629 60.069 54.4665 59.8757 53.7424 59.096C52.9762 58.2709 52.7269 57.2478 52.7919 56.464L64.7508 57.457ZM62.1168 63.0535C63.3083 61.7938 64.5443 59.9443 64.7508 57.457L52.7919 56.464C52.8349 55.9459 52.9856 55.5092 53.1495 55.1929C53.2995 54.9036 53.4283 54.7763 53.3988 54.8075L62.1168 63.0535ZM59.1798 66.0939L62.0729 63.0994L53.4427 54.7616L50.5496 57.7561L59.1798 66.0939ZM51.7717 69.0347C52.8542 69.1246 54.3808 69.1122 56.0405 68.3747C57.4753 67.7371 58.4957 66.766 59.0582 66.2163L50.6713 57.6337C50.49 57.8109 50.4542 57.833 50.506 57.7927C50.5736 57.7401 50.8018 57.5712 51.1674 57.4087C51.5598 57.2343 51.9556 57.1357 52.3061 57.095C52.6154 57.0591 52.8029 57.079 52.7646 57.0758L51.7717 69.0347ZM57.3331 60.3475C56.1137 59.9205 54.299 59.281 51.5615 59.0537L50.5685 71.0126C51.1998 71.065 51.6675 71.1556 52.0478 71.2527C52.4547 71.3566 52.8107 71.4783 53.3676 71.6733L57.3331 60.3475ZM58.4852 60.6911C58.3592 60.6806 58.2504 60.6686 57.3331 60.3475L53.3676 71.6733C54.1903 71.9614 55.6439 72.4965 57.4923 72.6499L58.4852 60.6911ZM54.6957 64.5318C54.71 64.359 54.7727 63.8295 55.1035 63.1699C55.472 62.4355 56.0617 61.7652 56.8221 61.2952C57.5172 60.8654 58.1169 60.7495 58.3652 60.7162C58.6065 60.6837 58.6798 60.7072 58.4852 60.6911L57.4923 72.6499C58.7019 72.7504 60.9952 72.8232 63.1318 71.5024C65.7728 69.8698 66.5108 67.2558 66.6545 65.5247L54.6957 64.5318ZM54.7638 63.7111L54.6957 64.5318L66.6545 65.5247L66.7227 64.704L54.7638 63.7111ZM64.7171 55.3057C62.564 55.127 60.0261 55.5592 57.9149 57.3371C55.7993 59.1186 54.9431 61.5514 54.7638 63.7111L66.7227 64.704C66.7108 64.8471 66.5732 65.734 65.6444 66.5161C64.72 67.2945 63.8371 67.274 63.7241 67.2646L64.7171 55.3057ZM73.0071 65.2258C73.1918 63.001 72.6892 60.5275 71.0017 58.4902C69.3057 56.4426 66.9547 55.4915 64.7171 55.3057L63.7241 67.2646C63.339 67.2326 62.4743 67.007 61.7601 66.1448C61.0544 65.2928 61.029 64.4644 61.0483 64.2329L73.0071 65.2258ZM72.7696 68.0866L73.0071 65.2258L61.0483 64.2329L60.8107 67.0937L72.7696 68.0866ZM61.2594 77.8974C63.7743 78.1062 66.7747 77.6877 69.2391 75.5692C71.6865 73.4654 72.5626 70.579 72.7696 68.0866L60.8107 67.0937C60.7587 67.72 60.6536 67.1251 61.4166 66.4693C62.1966 65.7988 62.8093 65.9848 62.2523 65.9386L61.2594 77.8974ZM60.4621 77.8312L61.2594 77.8974L62.2523 65.9386L61.455 65.8724L60.4621 77.8312ZM66.9244 72.5124L66.938 72.3482L54.9791 71.3553L54.9655 71.5195L66.9244 72.5124ZM68.9395 80.6602C69.309 76.2105 68.3661 71.728 65.6515 68.2946L56.2383 75.7372C56.6006 76.1954 57.168 77.4105 56.9807 79.6673L68.9395 80.6602ZM48.5347 97.7839C53.7152 98.214 58.6585 96.8703 62.4748 93.6902C66.3011 90.5017 68.5068 85.8721 68.9395 80.6602L56.9807 79.6673C56.7806 82.0765 55.8558 83.5855 54.7928 84.4714C53.7198 85.3655 52.015 86.0316 49.5276 85.825L48.5347 97.7839ZM30.9145 76.8184C30.4688 82.1864 31.6434 87.3291 34.9797 91.3108C38.3232 95.3012 43.1789 97.3392 48.5347 97.7839L49.5276 85.825C46.5588 85.5785 44.9964 84.5809 44.1777 83.6039C43.3518 82.6182 42.6201 80.8616 42.8733 77.8113L30.9145 76.8184ZM51.5615 59.0537C46.2564 58.6132 41.198 59.9248 37.3053 63.2898C33.4265 66.6428 31.3587 71.4685 30.9145 76.8184L42.8733 77.8113C43.1145 74.907 44.1224 73.2589 45.1529 72.3681C46.1695 71.4893 47.8539 70.7872 50.5685 71.0126L51.5615 59.0537ZM48.6168 78.3118C48.5521 79.0911 48.4299 79.6464 48.3122 80.0103C48.193 80.3791 48.1047 80.4717 48.1528 80.409C48.2143 80.329 48.4242 80.0975 48.8227 79.914C49.2332 79.725 49.6135 79.6933 49.8462 79.7126L48.8533 91.6715C52.4633 91.9712 55.609 90.402 57.6702 87.7179C59.5328 85.2925 60.332 82.2404 60.5757 79.3047L48.6168 78.3118ZM50.0623 77.1094C49.7733 77.0854 49.3852 76.9728 49.0189 76.7186C48.6687 76.4756 48.5174 76.2284 48.4843 76.1661C48.459 76.1185 48.5337 76.2417 48.592 76.6248C48.6495 77.0024 48.6793 77.5597 48.6168 78.3118L60.5757 79.3047C60.8209 76.3517 60.5079 73.2214 59.0821 70.5369C57.5271 67.6095 54.7223 65.455 51.0553 65.1505L50.0623 77.1094ZM51.3132 78.5356C51.3761 77.7782 51.4973 77.229 51.6166 76.8623C51.7375 76.4902 51.8317 76.3803 51.7981 76.4244C51.7542 76.4822 51.5609 76.7061 51.1687 76.892C50.7584 77.0866 50.3518 77.1334 50.0623 77.1094L51.0553 65.1505C47.3808 64.8455 44.2595 66.5158 42.2497 69.1562C40.4122 71.5702 39.5984 74.603 39.3543 77.5427L51.3132 78.5356ZM49.8462 79.7126C50.0651 79.7308 50.4373 79.8213 50.8203 80.0823C51.1932 80.3364 51.368 80.6096 51.4185 80.7056C51.4579 80.7805 51.3863 80.6758 51.3303 80.2859C51.275 79.9015 51.2476 79.3258 51.3132 78.5356L39.3543 77.5427C39.1129 80.4508 39.3762 83.5885 40.798 86.2916C42.3833 89.3058 45.2355 91.3711 48.8533 91.6715L49.8462 79.7126ZM102.133 91.7982C101.912 94.4586 102.505 97.3105 104.499 99.5901C106.457 101.828 109.091 102.741 111.432 102.935L112.425 90.9764C112.327 90.9683 112.932 91.0041 113.531 91.6893C114.167 92.4159 114.071 93.0384 114.092 92.7911L102.133 91.7982ZM104.323 65.4176L102.133 91.7982L114.092 92.7911L116.282 66.4105L104.323 65.4176ZM115.23 56.0525C112.736 55.8454 109.944 56.3952 107.682 58.3758C105.448 60.3314 104.525 62.9865 104.323 65.4176L116.282 66.4105C116.302 66.1683 116.305 66.7753 115.586 67.4047C114.839 68.0589 114.152 68.0043 114.237 68.0114L115.23 56.0525ZM124.417 67.1096C124.617 64.7043 124.172 61.9317 122.303 59.6198C120.401 57.2659 117.727 56.2598 115.23 56.0525L114.237 68.0114C114.32 68.0182 113.61 67.9543 112.971 67.1633C112.365 66.4143 112.483 65.8252 112.458 66.1166L124.417 67.1096ZM123.637 76.5128L124.417 67.1096L112.458 66.1166L111.678 75.5198L123.637 76.5128ZM118.318 70.0505L118.154 70.0369L117.161 81.9957L117.325 82.0094L118.318 70.0505ZM126.754 65.4149C123.835 65.1725 120.905 65.6462 118.28 67.0945C115.639 68.5516 113.688 70.7857 112.416 73.425L123.226 78.6348C123.552 77.9596 123.873 77.7143 124.077 77.6014C124.298 77.4797 124.788 77.2929 125.761 77.3737L126.754 65.4149ZM140.301 82.2644C140.633 78.2594 139.911 74.1531 137.374 70.8467C134.768 67.4494 130.911 65.76 126.754 65.4149L125.761 77.3737C127.302 77.5017 127.727 77.9859 127.853 78.1505C128.049 78.406 128.51 79.25 128.342 81.2715L140.301 82.2644ZM139.253 94.8802L140.301 82.2644L128.342 81.2715L127.294 93.8873L139.253 94.8802ZM128.269 104.333C130.612 104.528 133.365 104.061 135.664 102.161C137.999 100.233 139.034 97.5174 139.253 94.8802L127.294 93.8873C127.272 94.1578 127.272 93.5289 128.022 92.9092C128.738 92.3181 129.357 92.3823 129.261 92.3744L128.269 104.333ZM118.993 93.198C118.774 95.8352 119.347 98.684 121.332 100.971C123.287 103.224 125.925 104.139 128.269 104.333L129.261 92.3744C129.166 92.3664 129.787 92.4052 130.395 93.1062C131.033 93.8411 130.93 94.4615 130.952 94.1909L118.993 93.198ZM119.891 82.3879L118.993 93.198L130.952 94.1909L131.85 83.3808L119.891 82.3879ZM121.587 83.8507C121.629 83.8542 121.446 83.8454 121.148 83.6938C120.83 83.5323 120.508 83.2714 120.257 82.9293C119.765 82.2586 119.935 81.8552 119.891 82.3879L131.85 83.3808C132.045 81.0291 131.693 78.2332 129.934 75.834C128.074 73.2961 125.315 72.119 122.58 71.8919L121.587 83.8507ZM123.298 82.8597C123.33 82.4746 123.408 82.7886 122.938 83.2483C122.7 83.4812 122.403 83.6615 122.097 83.7639C121.8 83.8631 121.607 83.8524 121.587 83.8507L122.58 71.8919C119.658 71.6493 116.749 72.5175 114.55 74.6668C112.454 76.7152 111.545 79.391 111.34 81.8668L123.298 82.8597ZM122.417 93.4823L123.298 82.8597L111.34 81.8668L110.458 92.4893L122.417 93.4823ZM111.432 102.935C113.775 103.13 116.518 102.656 118.81 100.77C121.141 98.8518 122.196 96.1425 122.417 93.4823L110.458 92.4893C110.437 92.7368 110.445 92.1128 111.186 91.5029C111.888 90.9255 112.496 90.9824 112.425 90.9764L111.432 102.935ZM178.077 96.4983C175.358 96.2725 173.851 95.3141 173.026 94.3114C172.184 93.2892 171.456 91.4977 171.704 88.5079L159.745 87.515C159.301 92.8731 160.503 97.9828 163.763 101.941C167.039 105.918 171.807 108.019 177.084 108.457L178.077 96.4983ZM184.121 94.5169C183.671 95.2699 181.585 96.7895 178.077 96.4983L177.084 108.457C183.613 108.999 190.924 106.53 194.424 100.669L184.121 94.5169ZM184.058 94.9878C184.076 94.7764 184.119 94.6034 184.161 94.4841C184.201 94.3715 184.225 94.3472 184.182 94.4167L194.363 100.769C195.272 99.3115 195.873 97.7148 196.017 95.9807L184.058 94.9878ZM186.341 97.916C186.018 97.8892 185.436 97.7365 184.884 97.1659C184.248 96.5087 184.004 95.6461 184.058 94.9878L196.017 95.9807C196.243 93.2588 195.325 90.6993 193.509 88.8226C191.778 87.0326 189.51 86.1379 187.334 85.9572L186.341 97.916ZM187.544 97.7168C187.743 97.4727 187.835 97.3839 187.847 97.3729C187.849 97.3714 187.73 97.4818 187.496 97.607C187.246 97.7412 186.968 97.8367 186.701 97.8842C186.453 97.9284 186.312 97.9136 186.341 97.916L187.334 85.9572C185.55 85.809 183.66 86.0476 181.824 87.032C180.163 87.9234 179.016 89.1867 178.247 90.1294L187.544 97.7168ZM177.819 102.167C182.683 102.571 185.845 99.9447 187.662 97.5666L178.128 90.2797C177.89 90.5911 177.869 90.5226 178.096 90.3977C178.22 90.3295 178.373 90.2695 178.537 90.2352C178.698 90.2012 178.8 90.2069 178.812 90.2079L177.819 102.167ZM168.164 88.2139C167.924 91.1017 168.181 94.2737 169.71 97.0019C171.432 100.075 174.386 101.882 177.819 102.167L178.812 90.2079C178.886 90.214 179.173 90.2585 179.525 90.4806C179.884 90.7067 180.09 90.9791 180.178 91.1355C180.25 91.2635 180.191 91.2195 180.139 90.8765C180.088 90.5357 180.058 89.9913 180.123 89.2068L168.164 88.2139ZM180.031 76.0953C176.613 75.8114 173.408 77.0917 171.192 79.8024C169.207 82.2299 168.405 85.3114 168.164 88.2139L180.123 89.2068C180.186 88.4491 180.303 87.9381 180.407 87.6273C180.511 87.3152 180.573 87.2863 180.481 87.3985C180.371 87.534 180.13 87.756 179.757 87.9107C179.39 88.0629 179.112 88.0602 179.038 88.0541L180.031 76.0953ZM189.129 82.9001C188.389 81.3183 187.334 79.6508 185.712 78.3358C183.992 76.9419 182.027 76.261 180.031 76.0953L179.038 88.0541C179.017 88.0523 178.884 88.0379 178.689 87.9633C178.486 87.8857 178.301 87.7757 178.156 87.6582C177.889 87.4415 177.976 87.3799 178.259 87.9844L189.129 82.9001ZM187.427 81.7149C187.422 81.7145 187.541 81.7237 187.739 81.7894C187.947 81.8585 188.193 81.9738 188.439 82.1481C188.955 82.5136 189.121 82.8831 189.083 82.8055L178.304 88.079C178.953 89.4042 179.94 90.8335 181.504 91.9412C183.089 93.0641 184.82 93.5397 186.434 93.6737L187.427 81.7149ZM184.776 84.3516C184.805 83.999 184.92 83.5636 185.176 83.126C185.429 82.6937 185.757 82.3661 186.084 82.1405C186.706 81.7106 187.226 81.6982 187.427 81.7149L186.434 93.6737C188.534 93.8481 190.884 93.4091 192.903 92.015C195.045 90.5358 196.5 88.1727 196.735 85.3445L184.776 84.3516ZM184.786 84.7735C184.785 84.7689 184.783 84.7657 184.779 84.7425C184.777 84.7275 184.772 84.6922 184.769 84.6354C184.767 84.5802 184.765 84.4842 184.776 84.3516L196.735 85.3445C196.874 83.6748 196.555 82.0008 196.043 80.616L184.786 84.7735ZM179.259 81.6975C183.009 82.0088 184.454 83.7812 184.72 84.5851L196.109 80.8044C193.845 73.9842 187.054 70.3034 180.252 69.7386L179.259 81.6975ZM171.704 88.5079C171.947 85.5803 172.953 83.9247 173.966 83.038C174.958 82.171 176.596 81.4764 179.259 81.6975L180.252 69.7386C174.965 69.2997 169.931 70.6247 166.066 74.0058C162.223 77.3672 160.188 82.1884 159.745 87.515L171.704 88.5079ZM149.61 94.1348C146.802 93.9017 145.275 92.9426 144.456 91.9654C143.634 90.9834 142.887 89.2193 143.143 86.1366L131.184 85.1437C130.733 90.573 131.94 95.7121 135.258 99.6721C138.58 103.637 143.381 105.659 148.617 106.094L149.61 94.1348ZM157.307 87.3126C157.05 90.4109 156.021 92.024 155.052 92.8513C154.088 93.6755 152.425 94.3685 149.61 94.1348L148.617 106.094C153.845 106.528 158.914 105.336 162.848 101.974C166.778 98.6161 168.814 93.7428 169.266 88.3055L157.307 87.3126ZM150.838 79.3379C153.56 79.5639 155.107 80.5242 155.959 81.5432C156.817 82.5674 157.553 84.346 157.307 87.3126L169.266 88.3055C169.714 82.9006 168.462 77.7849 165.162 73.8422C161.859 69.8942 157.082 67.815 151.831 67.379L150.838 79.3379ZM143.143 86.1366C143.387 83.2005 144.408 81.562 145.437 80.6812C146.464 79.8033 148.155 79.1151 150.838 79.3379L151.831 67.379C146.588 66.9437 141.541 68.2223 137.636 71.5628C133.735 74.9004 131.634 79.7318 131.184 85.1437L143.143 86.1366ZM149.123 99.9968C152.674 100.292 155.814 98.7733 157.896 96.0993C159.782 93.6769 160.598 90.6119 160.845 87.63L148.887 86.6371C148.821 87.4297 148.696 87.9873 148.579 88.3474C148.46 88.7115 148.373 88.7969 148.427 88.7281C148.494 88.6418 148.707 88.4129 149.103 88.2334C149.508 88.0495 149.883 88.0186 150.116 88.0379L149.123 99.9968ZM139.624 85.868C139.379 88.8224 139.657 91.9756 141.102 94.6796C142.709 97.6871 145.564 99.7013 149.123 99.9968L150.116 88.0379C150.335 88.0561 150.702 88.1451 151.081 88.4C151.451 88.6495 151.63 88.9208 151.685 89.0239C151.729 89.1057 151.658 89.0086 151.602 88.6232C151.546 88.2426 151.516 87.6642 151.583 86.8609L139.624 85.868ZM151.325 73.4758C147.689 73.174 144.569 74.8068 142.543 77.4466C140.692 79.8602 139.87 82.9021 139.624 85.868L151.583 86.8609C151.647 86.0928 151.769 85.5409 151.889 85.176C152.009 84.8061 152.102 84.7017 152.064 84.7509C152.016 84.8142 151.819 85.038 151.427 85.2218C151.019 85.4133 150.617 85.4584 150.332 85.4347L151.325 73.4758ZM160.845 87.63C161.092 84.6651 160.784 81.5242 159.347 78.8334C157.774 75.8859 154.954 73.7772 151.325 73.4758L150.332 85.4347C150.062 85.4123 149.681 85.3065 149.313 85.0538C148.959 84.8106 148.801 84.5584 148.762 84.4851C148.731 84.4281 148.805 84.5439 148.863 84.927C148.92 85.3051 148.95 85.8688 148.887 86.6371L160.845 87.63ZM148.702 105.062C149.895 105.161 150.754 106.229 150.659 107.373L138.7 106.38C138.255 111.745 142.202 116.564 147.71 117.021L148.702 105.062ZM146.392 107.019C146.487 105.875 147.51 104.963 148.702 105.062L147.71 117.021C153.217 117.478 157.905 113.377 158.35 108.012L146.392 107.019ZM148.346 109.353C147.201 109.258 146.293 108.211 146.392 107.019L158.35 108.012C158.8 102.599 154.799 97.8475 149.339 97.3942L148.346 109.353ZM150.659 107.373C150.56 108.565 149.491 109.448 148.346 109.353L149.339 97.3942C143.879 96.9409 139.15 100.967 138.7 106.38L150.659 107.373ZM72.5946 96.3583C72.4971 96.3502 73.1018 96.3859 73.7012 97.0712C74.3368 97.7977 74.2413 98.4203 74.2618 98.173L62.303 97.18C62.0821 99.8405 62.6751 102.692 64.6692 104.972C66.6272 107.21 69.2604 108.123 71.6017 108.317L72.5946 96.3583ZM70.6275 97.8712C70.607 98.1187 70.6145 97.4947 71.3558 96.8848C72.0577 96.3074 72.6663 96.3643 72.5946 96.3583L71.6017 108.317C73.9453 108.512 76.6876 108.037 78.9796 106.152C81.3112 104.234 82.3655 101.524 82.5864 98.8641L70.6275 97.8712ZM71.3927 88.6556L70.6275 97.8712L82.5864 98.8641L83.3515 89.6485L71.3927 88.6556ZM78.0327 83.1863L77.8685 83.1726L76.8756 95.1315L77.0398 95.1451L78.0327 83.1863ZM85.4481 88.5714C84.5219 88.4945 84.0118 88.2351 83.7617 88.0515C83.5315 87.8825 83.3573 87.6634 83.2404 87.3049L71.8321 91.0265C73.6825 96.6988 78.6494 100.048 84.4551 100.53L85.4481 88.5714ZM90.1457 81.7599C89.8657 85.1323 88.9462 86.8929 88.2273 87.6819C87.6881 88.2736 86.9542 88.6964 85.4481 88.5714L84.4551 100.53C89.3038 100.933 93.811 99.3707 97.0972 95.7643C100.203 92.3553 101.693 87.7049 102.105 82.7528L90.1457 81.7599ZM86.5204 74.2337C88.1038 74.3652 88.784 74.9288 89.2224 75.6015C89.8051 76.4957 90.4264 78.3789 90.1457 81.7599L102.105 82.7528C102.517 77.7858 101.808 72.9357 99.2759 69.0497C96.5991 64.9422 92.3786 62.6788 87.5133 62.2749L86.5204 74.2337ZM84.1908 75.3086C84.4404 74.8296 84.7173 74.5953 84.9662 74.4626C85.2223 74.326 85.6992 74.1655 86.5204 74.2337L87.5133 62.2749C81.5566 61.7803 76.2703 64.5403 73.5487 69.7637L84.1908 75.3086ZM78.2091 78.502L78.3733 78.5156L79.3662 66.5567L79.202 66.5431L78.2091 78.502ZM72.7924 71.2288L72.7262 72.0261L84.685 73.019L84.7512 72.2217L72.7924 71.2288ZM74.5045 73.0708C74.6002 73.0787 73.974 73.0405 73.3592 72.335C72.7112 71.5914 72.8147 70.9593 72.7924 71.2288L84.7512 72.2217C84.9702 69.5835 84.3961 66.7348 82.4061 64.4512C80.4494 62.2058 77.8171 61.3045 75.4974 61.1119L74.5045 73.0708ZM76.4755 71.511C76.4958 71.2668 76.4842 71.9185 75.7163 72.5448C74.9943 73.1338 74.3826 73.0607 74.5045 73.0708L75.4974 61.1119C73.1806 60.9196 70.4362 61.3659 68.1313 63.246C65.7805 65.1635 64.7359 67.878 64.5167 70.5181L76.4755 71.511ZM74.2618 98.173L76.4755 71.511L64.5167 70.5181L62.303 97.18L74.2618 98.173ZM81.7819 93.768C85.2272 94.0541 88.3453 92.6958 90.4947 90.188C92.4897 87.8603 93.3794 84.8964 93.6159 82.048L81.657 81.0551C81.6099 81.6232 81.5119 82.0059 81.4305 82.2307C81.3488 82.4566 81.3031 82.4724 81.3834 82.3787C81.4749 82.272 81.6785 82.0865 82.0051 81.9503C82.336 81.8123 82.622 81.7965 82.7748 81.8092L81.7819 93.768ZM72.04 80.2914C71.8205 83.134 72.2207 86.1903 73.7964 88.8015C75.4932 91.6136 78.3302 93.4814 81.7819 93.768L82.7748 81.8092C82.9415 81.823 83.2283 81.89 83.5342 82.083C83.8349 82.2727 84.0021 82.4881 84.0708 82.6018C84.1308 82.7012 84.0861 82.671 84.0406 82.4279C83.9954 82.1863 83.9602 81.7872 84.0044 81.2152L72.04 80.2914ZM83.8787 68.5134C80.389 68.2236 77.293 69.6535 75.183 72.1249C73.2124 74.4332 72.2991 77.372 72.0458 80.2221L83.9986 81.2845C84.0481 80.728 84.1477 80.344 84.2336 80.1105C84.3201 79.875 84.374 79.8408 84.3094 79.9165C84.2354 80.0032 84.0466 80.1828 83.7234 80.3207C83.3914 80.4624 83.0839 80.4886 82.8858 80.4722L83.8787 68.5134ZM93.6159 82.048C93.8537 79.1839 93.4522 76.1153 91.8744 73.4961C90.1815 70.686 87.3433 68.801 83.8787 68.5134L82.8858 80.4722C82.7108 80.4577 82.4231 80.3884 82.1209 80.197C81.8246 80.0094 81.6614 79.7979 81.5954 79.6882C81.5373 79.5919 81.5818 79.6234 81.6261 79.8626C81.6701 80.1003 81.7037 80.4932 81.657 81.0551L93.6159 82.048ZM28.7573 84.0297C28.6598 84.0216 29.2645 84.0573 29.864 84.7426C30.4995 85.4691 30.404 86.0916 30.4245 85.8443L18.4657 84.8514C18.2448 87.5118 18.8378 90.3637 20.8319 92.6433C22.7899 94.8817 25.4232 95.7941 27.7644 95.9885L28.7573 84.0297ZM26.7902 85.5426C26.7697 85.7901 26.7772 85.166 27.5186 84.5562C28.2204 83.9788 28.829 84.0356 28.7573 84.0297L27.7644 95.9885C30.108 96.1831 32.8503 95.7088 35.1424 93.8232C37.4739 91.9051 38.5282 89.1957 38.7491 86.5355L26.7902 85.5426ZM28.9728 59.2558L26.7902 85.5426L38.7491 86.5355L40.9316 60.2487L28.9728 59.2558ZM30.6634 61.0724C30.7351 61.0783 30.1255 61.0341 29.5284 60.3488C28.8979 59.625 28.9933 59.0083 28.9728 59.2558L40.9316 60.2487C41.1525 57.5885 40.5595 54.7424 38.5762 52.466C36.6265 50.2282 34 49.3081 31.6564 49.1135L30.6634 61.0724ZM32.6071 59.5575C32.6276 59.3103 32.6191 59.94 31.8725 60.5518C31.1682 61.1288 30.5659 61.0643 30.6634 61.0724L31.6564 49.1135C29.3151 48.9191 26.5674 49.3848 24.2671 51.2696C21.9244 53.1891 20.8691 55.9042 20.6482 58.5646L32.6071 59.5575ZM30.4245 85.8443L32.6071 59.5575L20.6482 58.5646L18.4657 84.8514L30.4245 85.8443Z" fill="white" mask="url(#path-2-outside-1_367_10477)"/>
<mask id="path-4-outside-2_367_10477" maskUnits="userSpaceOnUse" x="39.0042" y="-0.0598044" width="147.608" height="66.6094" fill="black">
<rect fill="white" x="39.0042" y="-0.0598044" width="147.608" height="66.6094"/>
<path fill-rule="evenodd" clip-rule="evenodd" d="M46.0869 36.9434C45.753 39.7155 47.0838 41.4383 49.6901 41.7522C52.2727 42.0633 53.9983 40.7088 54.3323 37.9366L56.2931 21.6591L56.4827 21.6819L67.4671 41.4418C68.5146 43.3228 69.5928 44.1497 71.3461 44.3609C73.9761 44.6777 75.6192 43.4094 75.936 40.7794L79.1698 13.9345C79.5037 11.1624 78.1729 9.43963 75.5666 9.12567C72.984 8.81457 71.2583 10.1691 70.9244 12.9413L68.9864 29.0292L68.7969 29.0064L57.8843 9.44746C56.7867 7.58454 55.6876 6.73102 54.0291 6.53123C51.328 6.20585 49.6375 7.4685 49.315 10.1459L46.0869 36.9434ZM153.695 24.8348C152.581 24.7007 151.889 24.2568 151.18 23.1618L148.894 19.5932C148.434 18.8168 148.206 18.1163 148.289 17.4291C148.475 15.8891 149.767 14.939 151.402 15.1359C152.681 15.2901 153.272 15.7699 154.141 17.3408L156.17 21.0467C156.502 21.6875 156.592 22.1311 156.513 22.7946C156.353 24.1214 155.14 25.0089 153.695 24.8348ZM146.59 53.2807C141.781 52.7013 138.301 49.0611 138.863 44.3934C139.446 39.56 143.491 37.307 150.221 37.7091L156.306 38.0815L156.483 36.6125C156.731 34.5511 155.399 33.2369 153.195 32.9714C151.395 32.7545 150.337 33.1559 148.514 34.7152C147.426 35.5696 146.303 35.915 145.023 35.7609C143.009 35.5183 141.739 34.0913 141.956 32.2905C142.027 31.6982 142.15 31.2803 142.399 30.8056C143.874 27.7382 148.421 26.3148 154.344 27.0283C161.239 27.8589 165.386 31.9401 164.761 37.129L163.072 51.1556C162.726 54.0225 160.834 55.1647 158.441 54.8765C156.214 54.6082 154.766 53.2559 154.826 50.7633L154.897 50.1709L154.732 50.1509C153.02 52.5889 149.694 53.6546 146.59 53.2807ZM150.272 47.859C152.831 48.1673 155.247 46.8718 155.524 44.5735L155.738 42.7965L151.009 42.5394C148.786 42.4398 147.407 43.3074 147.225 44.8238C147.028 46.4586 148.258 47.6164 150.272 47.859ZM174.347 27.3947C171.907 27.1007 170.249 25.0982 170.529 22.7762C170.811 20.4305 172.897 18.879 175.337 19.173C177.778 19.467 179.412 21.4666 179.129 23.8123C178.85 26.1343 176.788 27.6887 174.347 27.3947ZM170.856 56.372C168.203 56.0523 166.854 54.2793 167.188 51.5071L169.377 33.3341C169.708 30.5857 171.442 29.16 174.096 29.4797C176.726 29.7965 178.096 31.5961 177.765 34.3445L175.575 52.5175C175.241 55.2897 173.486 56.6888 170.856 56.372ZM110.85 35.4903C109.814 44.0911 114.291 49.6301 122.418 50.6091C130.545 51.5881 136.206 47.2943 137.245 38.6698C138.264 30.2112 133.73 24.5451 125.675 23.5747C117.666 22.61 111.866 27.0554 110.85 35.4903ZM128.736 37.6689C128.168 42.3839 126.027 44.7941 123.16 44.4488C120.269 44.1006 118.809 41.2565 119.377 36.5415C119.937 31.8975 122.089 29.3926 124.932 29.7351C127.799 30.0804 129.296 33.0249 128.736 37.6689ZM91.0418 56.06C85.2871 55.3427 81.4687 52.7194 80.2037 49.8507C79.8865 49.0914 79.83 48.3635 79.9128 47.6764C80.1126 46.0178 81.5461 44.8925 83.5838 45.1379C84.6026 45.2607 85.4659 45.6772 86.2095 46.4879C87.8067 48.1946 89.4876 49.4067 91.6882 49.6958C95.1475 50.1125 97.3841 48.507 97.7351 45.5927L98.2318 41.47L98.0659 41.45C96.7188 44.0521 93.508 45.5642 89.717 45.1076C83.3671 44.3426 80.0314 39.1093 80.9732 31.2904C81.9465 23.2109 86.2912 19.071 92.878 19.8644C96.6216 20.3154 99.1957 22.6927 100.008 25.7232L100.174 25.7432L100.28 24.8665C100.628 21.9759 102.612 20.8688 105.029 21.1599C107.446 21.4511 109.016 22.9862 108.667 25.8769L106.153 46.7509C105.311 53.7406 99.8558 57.1217 91.0418 56.06ZM93.6083 39.5429C96.6174 39.9054 98.7452 37.8061 99.2476 33.636C99.7442 29.5133 98.1835 26.7052 95.1981 26.3456C92.189 25.9831 90.0564 28.3222 89.5569 32.4686C89.0545 36.6387 90.5756 39.1776 93.6083 39.5429Z"/>
</mask>
<path fill-rule="evenodd" clip-rule="evenodd" d="M46.0869 36.9434C45.753 39.7155 47.0838 41.4383 49.6901 41.7522C52.2727 42.0633 53.9983 40.7088 54.3323 37.9366L56.2931 21.6591L56.4827 21.6819L67.4671 41.4418C68.5146 43.3228 69.5928 44.1497 71.3461 44.3609C73.9761 44.6777 75.6192 43.4094 75.936 40.7794L79.1698 13.9345C79.5037 11.1624 78.1729 9.43963 75.5666 9.12567C72.984 8.81457 71.2583 10.1691 70.9244 12.9413L68.9864 29.0292L68.7969 29.0064L57.8843 9.44746C56.7867 7.58454 55.6876 6.73102 54.0291 6.53123C51.328 6.20585 49.6375 7.4685 49.315 10.1459L46.0869 36.9434ZM153.695 24.8348C152.581 24.7007 151.889 24.2568 151.18 23.1618L148.894 19.5932C148.434 18.8168 148.206 18.1163 148.289 17.4291C148.475 15.8891 149.767 14.939 151.402 15.1359C152.681 15.2901 153.272 15.7699 154.141 17.3408L156.17 21.0467C156.502 21.6875 156.592 22.1311 156.513 22.7946C156.353 24.1214 155.14 25.0089 153.695 24.8348ZM146.59 53.2807C141.781 52.7013 138.301 49.0611 138.863 44.3934C139.446 39.56 143.491 37.307 150.221 37.7091L156.306 38.0815L156.483 36.6125C156.731 34.5511 155.399 33.2369 153.195 32.9714C151.395 32.7545 150.337 33.1559 148.514 34.7152C147.426 35.5696 146.303 35.915 145.023 35.7609C143.009 35.5183 141.739 34.0913 141.956 32.2905C142.027 31.6982 142.15 31.2803 142.399 30.8056C143.874 27.7382 148.421 26.3148 154.344 27.0283C161.239 27.8589 165.386 31.9401 164.761 37.129L163.072 51.1556C162.726 54.0225 160.834 55.1647 158.441 54.8765C156.214 54.6082 154.766 53.2559 154.826 50.7633L154.897 50.1709L154.732 50.1509C153.02 52.5889 149.694 53.6546 146.59 53.2807ZM150.272 47.859C152.831 48.1673 155.247 46.8718 155.524 44.5735L155.738 42.7965L151.009 42.5394C148.786 42.4398 147.407 43.3074 147.225 44.8238C147.028 46.4586 148.258 47.6164 150.272 47.859ZM174.347 27.3947C171.907 27.1007 170.249 25.0982 170.529 22.7762C170.811 20.4305 172.897 18.879 175.337 19.173C177.778 19.467 179.412 21.4666 179.129 23.8123C178.85 26.1343 176.788 27.6887 174.347 27.3947ZM170.856 56.372C168.203 56.0523 166.854 54.2793 167.188 51.5071L169.377 33.3341C169.708 30.5857 171.442 29.16 174.096 29.4797C176.726 29.7965 178.096 31.5961 177.765 34.3445L175.575 52.5175C175.241 55.2897 173.486 56.6888 170.856 56.372ZM110.85 35.4903C109.814 44.0911 114.291 49.6301 122.418 50.6091C130.545 51.5881 136.206 47.2943 137.245 38.6698C138.264 30.2112 133.73 24.5451 125.675 23.5747C117.666 22.61 111.866 27.0554 110.85 35.4903ZM128.736 37.6689C128.168 42.3839 126.027 44.7941 123.16 44.4488C120.269 44.1006 118.809 41.2565 119.377 36.5415C119.937 31.8975 122.089 29.3926 124.932 29.7351C127.799 30.0804 129.296 33.0249 128.736 37.6689ZM91.0418 56.06C85.2871 55.3427 81.4687 52.7194 80.2037 49.8507C79.8865 49.0914 79.83 48.3635 79.9128 47.6764C80.1126 46.0178 81.5461 44.8925 83.5838 45.1379C84.6026 45.2607 85.4659 45.6772 86.2095 46.4879C87.8067 48.1946 89.4876 49.4067 91.6882 49.6958C95.1475 50.1125 97.3841 48.507 97.7351 45.5927L98.2318 41.47L98.0659 41.45C96.7188 44.0521 93.508 45.5642 89.717 45.1076C83.3671 44.3426 80.0314 39.1093 80.9732 31.2904C81.9465 23.2109 86.2912 19.071 92.878 19.8644C96.6216 20.3154 99.1957 22.6927 100.008 25.7232L100.174 25.7432L100.28 24.8665C100.628 21.9759 102.612 20.8688 105.029 21.1599C107.446 21.4511 109.016 22.9862 108.667 25.8769L106.153 46.7509C105.311 53.7406 99.8558 57.1217 91.0418 56.06ZM93.6083 39.5429C96.6174 39.9054 98.7452 37.8061 99.2476 33.636C99.7442 29.5133 98.1835 26.7052 95.1981 26.3456C92.189 25.9831 90.0564 28.3222 89.5569 32.4686C89.0545 36.6387 90.5756 39.1776 93.6083 39.5429Z" fill="#FF9914"/>
<path d="M49.6901 41.7522L50.4077 35.7953L50.4077 35.7953L49.6901 41.7522ZM46.0869 36.9434L52.0438 37.6609L46.0869 36.9434ZM54.3323 37.9366L60.2892 38.6542L60.2892 38.6542L54.3323 37.9366ZM56.2931 21.6591L57.0107 15.7022L51.0537 14.9846L50.3362 20.9415L56.2931 21.6591ZM56.4827 21.6819L61.7268 18.7667L60.2395 16.0911L57.2002 15.725L56.4827 21.6819ZM67.4671 41.4418L62.223 44.3571L62.2251 44.3609L67.4671 41.4418ZM71.3461 44.3609L72.0637 38.404L72.0637 38.404L71.3461 44.3609ZM75.936 40.7794L81.8929 41.497L81.8929 41.497L75.936 40.7794ZM79.1698 13.9345L73.2129 13.217L73.2129 13.217L79.1698 13.9345ZM75.5666 9.12567L76.2841 3.16874L76.2841 3.16874L75.5666 9.12567ZM70.9244 12.9413L76.8813 13.6589L76.8813 13.6589L70.9244 12.9413ZM68.9864 29.0292L68.2689 34.9862L74.2258 35.7038L74.9434 29.7468L68.9864 29.0292ZM68.7969 29.0064L63.5572 31.9298L65.0459 34.5979L68.0793 34.9634L68.7969 29.0064ZM57.8843 9.44746L63.124 6.52409L63.0896 6.46243L63.0537 6.4016L57.8843 9.44746ZM54.0291 6.53123L54.7466 0.574295L54.0291 6.53123ZM49.315 10.1459L43.358 9.42829L43.358 9.42829L49.315 10.1459ZM151.18 23.1618L146.128 26.3986L146.136 26.4113L146.144 26.424L151.18 23.1618ZM153.695 24.8348L154.412 18.8779L154.412 18.8779L153.695 24.8348ZM148.894 19.5932L143.73 22.6482L143.784 22.7401L143.842 22.8301L148.894 19.5932ZM148.289 17.4291L154.246 18.1467L154.246 18.1467L148.289 17.4291ZM151.402 15.1359L152.119 9.179L152.119 9.179L151.402 15.1359ZM154.141 17.3408L159.403 14.4589L159.398 14.4484L159.392 14.438L154.141 17.3408ZM156.17 21.0467L161.5 18.2904L161.467 18.2272L161.433 18.1647L156.17 21.0467ZM156.513 22.7946L162.469 23.5121L162.469 23.5121L156.513 22.7946ZM138.863 44.3934L132.906 43.6759L132.906 43.6759L138.863 44.3934ZM146.59 53.2807L145.873 59.2376L145.873 59.2376L146.59 53.2807ZM150.221 37.7091L150.587 31.7203L150.579 31.7197L150.221 37.7091ZM156.306 38.0815L155.939 44.0703L161.586 44.4159L162.263 38.7991L156.306 38.0815ZM156.483 36.6125L162.44 37.3301L162.44 37.33L156.483 36.6125ZM153.195 32.9714L152.478 38.9284L152.478 38.9284L153.195 32.9714ZM148.514 34.7152L152.219 39.4348L152.319 39.3565L152.415 39.2741L148.514 34.7152ZM145.023 35.7609L145.741 29.8039L145.741 29.8039L145.023 35.7609ZM141.956 32.2905L135.999 31.5729L135.999 31.573L141.956 32.2905ZM142.399 30.8056L147.71 33.5968L147.76 33.5023L147.806 33.4061L142.399 30.8056ZM154.344 27.0283L153.626 32.9853L153.626 32.9853L154.344 27.0283ZM164.761 37.129L170.718 37.8466L170.718 37.8466L164.761 37.129ZM163.072 51.1556L169.029 51.8732L169.029 51.8732L163.072 51.1556ZM158.441 54.8765L159.159 48.9195L159.159 48.9195L158.441 54.8765ZM154.826 50.7633L148.869 50.0457L148.835 50.3314L148.828 50.6191L154.826 50.7633ZM154.897 50.1709L160.854 50.8885L161.572 44.9316L155.615 44.214L154.897 50.1709ZM154.732 50.1509L155.449 44.194L151.884 43.7646L149.821 46.7029L154.732 50.1509ZM155.524 44.5735L161.481 45.2911L161.481 45.2911L155.524 44.5735ZM150.272 47.859L150.99 41.9021L150.99 41.9021L150.272 47.859ZM155.738 42.7965L161.695 43.5141L162.461 37.1532L156.063 36.8054L155.738 42.7965ZM151.009 42.5394L151.335 36.5482L151.306 36.5467L151.278 36.5454L151.009 42.5394ZM147.225 44.8238L153.181 45.5414L153.181 45.5413L147.225 44.8238ZM170.529 22.7762L164.572 22.0586L164.572 22.0586L170.529 22.7762ZM175.337 19.173L176.055 13.2161L176.055 13.2161L175.337 19.173ZM179.129 23.8123L173.172 23.0947L173.172 23.0947L179.129 23.8123ZM167.188 51.5071L161.231 50.7896L161.231 50.7896L167.188 51.5071ZM170.856 56.372L171.574 50.415L171.574 50.415L170.856 56.372ZM169.377 33.3341L175.334 34.0517L175.334 34.0517L169.377 33.3341ZM174.096 29.4797L174.814 23.5228L174.814 23.5228L174.096 29.4797ZM177.765 34.3445L171.808 33.6269L171.808 33.6269L177.765 34.3445ZM175.575 52.5175L181.532 53.2351L181.532 53.2351L175.575 52.5175ZM122.418 50.6091L123.136 44.6522L123.136 44.6522L122.418 50.6091ZM110.85 35.4903L116.807 36.2079L116.807 36.2079L110.85 35.4903ZM137.245 38.6698L131.288 37.9523L131.288 37.9523L137.245 38.6698ZM125.675 23.5747L126.392 17.6178L126.392 17.6178L125.675 23.5747ZM123.16 44.4488L122.442 50.4057L122.442 50.4057L123.16 44.4488ZM128.736 37.6689L134.693 38.3865L134.693 38.3865L128.736 37.6689ZM119.377 36.5415L113.42 35.8239L113.42 35.8239L119.377 36.5415ZM124.932 29.7351L124.215 35.692L124.215 35.692L124.932 29.7351ZM80.2037 49.8507L74.6673 52.1633L74.69 52.2177L74.7138 52.2716L80.2037 49.8507ZM91.0418 56.06L90.2997 62.0139L90.3119 62.0154L90.3242 62.0169L91.0418 56.06ZM79.9128 47.6764L85.8697 48.394L85.8697 48.3939L79.9128 47.6764ZM83.5838 45.1379L82.8662 51.0949L82.8662 51.0949L83.5838 45.1379ZM86.2095 46.4879L81.788 50.5437L81.8082 50.5657L81.8286 50.5876L86.2095 46.4879ZM91.6882 49.6958L90.9066 55.6447L90.9386 55.6489L90.9706 55.6527L91.6882 49.6958ZM97.7351 45.5927L91.7782 44.8751L91.7782 44.8751L97.7351 45.5927ZM98.2318 41.47L104.189 42.1876L104.906 36.2307L98.9493 35.5131L98.2318 41.47ZM98.0659 41.45L98.7835 35.4931L94.6511 34.9953L92.7376 38.6916L98.0659 41.45ZM89.717 45.1076L90.4346 39.1506L90.4346 39.1506L89.717 45.1076ZM80.9732 31.2904L86.9302 32.008L86.9302 32.008L80.9732 31.2904ZM92.878 19.8644L92.1604 25.8214L92.1604 25.8214L92.878 19.8644ZM100.008 25.7232L94.2133 27.2775L95.264 31.195L99.2909 31.6801L100.008 25.7232ZM100.174 25.7432L99.4567 31.7001L105.414 32.4177L106.131 26.4607L100.174 25.7432ZM100.28 24.8665L94.323 24.1489L94.323 24.1489L100.28 24.8665ZM105.029 21.1599L104.312 27.1169L104.312 27.1169L105.029 21.1599ZM108.667 25.8769L102.711 25.1593L102.711 25.1593L108.667 25.8769ZM106.153 46.7509L100.196 46.0334L100.196 46.0334L106.153 46.7509ZM99.2476 33.636L93.2906 32.9184L93.2906 32.9184L99.2476 33.636ZM93.6083 39.5429L92.8908 45.4999L92.8908 45.4999L93.6083 39.5429ZM95.1981 26.3456L95.9157 20.3886L95.9157 20.3886L95.1981 26.3456ZM89.5569 32.4686L95.5138 33.1862L95.5138 33.1862L89.5569 32.4686ZM50.4077 35.7953C50.2807 35.78 50.9683 35.852 51.5735 36.653C52.1526 37.4197 52.0037 37.9946 52.0438 37.6609L40.13 36.2258C39.8362 38.6643 40.1857 41.4866 41.9984 43.8862C43.8371 46.3201 46.4933 47.4105 48.9726 47.7091L50.4077 35.7953ZM48.3753 37.219C48.3381 37.5286 48.3365 36.9402 49.0725 36.3426C49.8362 35.7226 50.5103 35.8076 50.4077 35.7953L48.9725 47.7091C51.4526 48.0079 54.2808 47.5712 56.6364 45.6586C58.9643 43.7685 59.9926 41.1167 60.2892 38.6542L48.3753 37.219ZM50.3362 20.9415L48.3753 37.219L60.2892 38.6542L62.25 22.3767L50.3362 20.9415ZM57.2002 15.725L57.0107 15.7022L55.5755 27.616L55.7651 27.6389L57.2002 15.725ZM72.7113 38.5266L61.7268 18.7667L51.2385 24.5972L62.223 44.3571L72.7113 38.5266ZM72.0637 38.404C72.015 38.3981 72.0973 38.4033 72.2559 38.4628C72.4259 38.5266 72.6033 38.6227 72.7593 38.7406C73.0518 38.9617 73.0108 39.0644 72.7092 38.5228L62.2251 44.3609C62.9709 45.7002 63.9927 47.1569 65.5245 48.3144C67.1447 49.5388 68.9091 50.1107 70.6285 50.3179L72.0637 38.404ZM69.9791 40.0618C69.9516 40.2898 69.9905 39.5883 70.8239 38.9398C71.6483 38.2984 72.3186 38.4347 72.0637 38.404L70.6285 50.3179C73.0036 50.604 75.8104 50.2645 78.1931 48.4106C80.5848 46.5496 81.6036 43.899 81.8929 41.497L69.9791 40.0618ZM73.2129 13.217L69.9791 40.0618L81.8929 41.497L85.1267 14.6521L73.2129 13.217ZM74.849 15.0826C74.976 15.0979 74.2884 15.0259 73.6832 14.2249C73.1041 13.4582 73.253 12.8833 73.2129 13.217L85.1267 14.6521C85.4205 12.2136 85.071 9.3913 83.2583 6.9917C81.4196 4.55774 78.7634 3.46739 76.2841 3.16874L74.849 15.0826ZM76.8813 13.6589C76.9186 13.3492 76.9202 13.9377 76.1842 14.5352C75.4205 15.1553 74.7464 15.0703 74.849 15.0826L76.2841 3.16874C73.8041 2.86998 70.9759 3.30668 68.6203 5.21928C66.2923 7.10939 65.2641 9.76117 64.9675 12.2237L76.8813 13.6589ZM74.9434 29.7468L76.8813 13.6589L64.9675 12.2237L63.0295 28.3117L74.9434 29.7468ZM68.0793 34.9634L68.2689 34.9862L69.704 23.0723L69.5145 23.0495L68.0793 34.9634ZM52.6447 12.3708L63.5572 31.9298L74.0365 26.083L63.124 6.52409L52.6447 12.3708ZM53.3115 12.4882C53.296 12.4863 53.179 12.4699 53.0051 12.4024C52.8246 12.3323 52.6613 12.2376 52.5338 12.1406C52.4148 12.05 52.3777 11.996 52.4146 12.041C52.456 12.0914 52.557 12.2253 52.7149 12.4933L63.0537 6.4016C62.2874 5.10099 61.2669 3.70677 59.8003 2.59077C58.2365 1.40088 56.5104 0.78676 54.7466 0.574295L53.3115 12.4882ZM55.2719 10.8635C55.2993 10.6359 55.2565 11.3453 54.4152 11.986C53.6051 12.6029 52.9794 12.4482 53.3115 12.4882L54.7466 0.574295C52.3777 0.288926 49.5562 0.602817 47.1449 2.43907C44.7025 4.29906 43.6531 6.9785 43.358 9.42829L55.2719 10.8635ZM52.0438 37.6609L55.2719 10.8635L43.358 9.42829L40.13 36.2258L52.0438 37.6609ZM146.144 26.424C146.77 27.3903 147.659 28.4934 148.98 29.3658C150.349 30.2695 151.753 30.6443 152.977 30.7918L154.412 18.8779C154.523 18.8912 155.025 18.9771 155.592 19.3515C156.112 19.6947 156.299 20.0282 156.216 19.8995L146.144 26.424ZM143.842 22.8301L146.128 26.3986L156.232 19.925L153.946 16.3564L143.842 22.8301ZM142.332 16.7115C142.024 19.2729 142.96 21.3473 143.73 22.6482L154.058 16.5383C153.909 16.2862 154.389 16.9596 154.246 18.1467L142.332 16.7115ZM152.119 9.179C147.546 8.62814 142.955 11.5404 142.332 16.7116L154.246 18.1467C154.15 18.9404 153.705 19.8399 152.859 20.4628C152.041 21.065 151.203 21.1554 150.684 21.0929L152.119 9.179ZM159.392 14.438C158.875 13.5034 158.052 12.1331 156.691 11.0359C155.115 9.76508 153.446 9.33884 152.119 9.179L150.684 21.0929C150.704 21.0953 150.498 21.0737 150.183 20.9583C149.833 20.8299 149.476 20.6332 149.16 20.3782C148.868 20.1432 148.718 19.9446 148.695 19.9126C148.68 19.8926 148.739 19.9712 148.89 20.2437L159.392 14.438ZM161.433 18.1647L159.403 14.4589L148.878 20.2227L150.908 23.9286L161.433 18.1647ZM162.469 23.5121C162.564 22.731 162.589 21.7959 162.382 20.7489C162.181 19.7318 161.819 18.9074 161.5 18.2904L150.841 23.8029C150.853 23.8268 150.702 23.5447 150.61 23.0754C150.511 22.5763 150.541 22.1948 150.556 22.077L162.469 23.5121ZM152.977 30.7918C157.286 31.3108 161.864 28.5396 162.469 23.5121L150.556 22.077C150.681 21.0398 151.249 20.112 152.059 19.5232C152.852 18.9476 153.722 18.7947 154.412 18.8779L152.977 30.7918ZM132.906 43.6759C131.864 52.332 138.518 58.3516 145.873 59.2376L147.308 47.3237C146.196 47.1898 145.514 46.7384 145.184 46.3698C144.905 46.0577 144.751 45.6895 144.82 45.111L132.906 43.6759ZM150.579 31.7197C146.609 31.4826 142.574 31.9553 139.225 33.8983C135.571 36.0188 133.409 39.506 132.906 43.6759L144.82 45.111C144.872 44.6789 144.972 44.5167 144.99 44.4881C145.003 44.4683 145.048 44.3935 145.248 44.2776C145.75 43.9862 147.103 43.5335 149.863 43.6984L150.579 31.7197ZM156.672 32.0927L150.587 31.7203L149.854 43.6979L155.939 44.0703L156.672 32.0927ZM150.526 35.8949L150.349 37.3639L162.263 38.7991L162.44 37.3301L150.526 35.8949ZM152.478 38.9284C152.621 38.9456 152.026 38.9134 151.37 38.2097C151.033 37.849 150.776 37.4033 150.634 36.9254C150.495 36.46 150.502 36.0915 150.526 35.8949L162.44 37.33C162.748 34.773 162.08 32.1001 160.147 30.0273C158.336 28.0847 155.973 27.2627 153.913 27.0145L152.478 38.9284ZM152.415 39.2741C152.584 39.1298 152.721 39.0184 152.833 38.9321C152.944 38.8458 153.021 38.7918 153.07 38.76C153.163 38.698 153.118 38.7398 152.964 38.7975C152.887 38.8262 152.798 38.8532 152.702 38.8745C152.606 38.8957 152.522 38.9072 152.455 38.9127C152.326 38.9233 152.309 38.908 152.478 38.9284L153.913 27.0145C152.38 26.8298 150.638 26.8557 148.762 27.557C147.054 28.1955 145.696 29.2302 144.614 30.1562L152.415 39.2741ZM144.306 41.7178C147.333 42.0825 150.018 41.1623 152.219 39.4348L144.81 29.9955C144.75 30.042 144.854 29.9483 145.109 29.8716C145.379 29.7901 145.616 29.7889 145.741 29.8039L144.306 41.7178ZM135.999 31.573C135.69 34.1373 136.456 36.6632 138.161 38.5883C139.82 40.4612 142.071 41.4486 144.306 41.7178L145.741 29.8039C145.962 29.8306 146.57 29.9831 147.144 30.6318C147.765 31.3324 148.005 32.2445 147.913 33.0081L135.999 31.573ZM137.088 28.0143C136.452 29.2248 136.145 30.3636 135.999 31.5729L147.913 33.0082C147.919 32.9524 147.912 33.0466 147.862 33.2138C147.808 33.3947 147.744 33.5329 147.71 33.5968L137.088 28.0143ZM155.062 21.0714C151.51 20.6436 147.991 20.8019 144.899 21.7769C141.815 22.7494 138.667 24.7218 136.992 28.205L147.806 33.4061C147.606 33.822 147.469 33.549 148.508 33.2213C149.539 32.8961 151.255 32.6996 153.626 32.9853L155.062 21.0714ZM170.718 37.8466C171.264 33.3168 169.661 29.1668 166.558 26.1455C163.57 23.2354 159.465 21.6018 155.062 21.0714L153.626 32.9853C156.118 33.2854 157.534 34.1077 158.187 34.7431C158.725 35.2673 158.884 35.7523 158.804 36.4114L170.718 37.8466ZM169.029 51.8732L170.718 37.8466L158.804 36.4114L157.115 50.438L169.029 51.8732ZM157.723 60.8334C160.002 61.1079 162.742 60.7752 165.11 59.0096C167.54 57.1982 168.709 54.5296 169.029 51.8732L157.115 50.438C157.1 50.561 157.094 50.4525 157.217 50.2158C157.349 49.962 157.584 49.653 157.938 49.3889C158.676 48.839 159.273 48.9333 159.159 48.9195L157.723 60.8334ZM148.828 50.6191C148.768 53.0945 149.474 55.6797 151.374 57.7313C153.22 59.7245 155.606 60.5783 157.723 60.8334L159.159 48.9195C159.049 48.9063 159.597 48.9499 160.178 49.5767C160.459 49.8808 160.641 50.2143 160.739 50.5055C160.832 50.782 160.824 50.9396 160.824 50.9074L148.828 50.6191ZM148.94 49.4533L148.869 50.0457L160.783 51.4809L160.854 50.8885L148.94 49.4533ZM154.014 56.1079L154.18 56.1279L155.615 44.214L155.449 44.194L154.014 56.1079ZM145.873 59.2376C150.501 59.7951 156.313 58.3392 159.642 53.599L149.821 46.7029C149.79 46.7478 149.618 46.9538 149.121 47.1356C148.619 47.3193 147.968 47.4032 147.308 47.3237L145.873 59.2376ZM149.567 43.8559C149.617 43.4402 149.775 43.0268 150.018 42.6779C150.25 42.3438 150.502 42.147 150.676 42.0431C150.99 41.8554 151.111 41.9167 150.99 41.9021L149.555 53.816C153.891 54.3384 160.647 52.2109 161.481 45.2911L149.567 43.8559ZM149.781 42.0789L149.567 43.8559L161.481 45.2911L161.695 43.5141L149.781 42.0789ZM150.683 48.5305L155.412 48.7877L156.063 36.8054L151.335 36.5482L150.683 48.5305ZM153.181 45.5413C153.126 46.0032 152.958 46.5463 152.617 47.0734C152.277 47.5985 151.858 47.9649 151.478 48.1968C150.777 48.6244 150.372 48.5169 150.741 48.5334L151.278 36.5454C149.423 36.4623 147.217 36.7388 145.225 37.9544C143.036 39.2909 141.582 41.4965 141.268 44.1062L153.181 45.5413ZM150.99 41.9021C150.889 41.89 151.453 41.9257 152.119 42.5784C152.47 42.9221 152.797 43.395 153.001 43.9809C153.205 44.5666 153.233 45.1138 153.181 45.5414L141.268 44.1062C140.949 46.749 141.836 49.303 143.72 51.1486C145.455 52.8496 147.641 53.5855 149.555 53.816L150.99 41.9021ZM164.572 22.0586C163.862 27.9537 168.19 32.6963 173.63 33.3516L175.065 21.4377C175.311 21.4674 175.707 21.6176 176.041 22.0219C176.386 22.4391 176.546 22.9936 176.486 23.4938L164.572 22.0586ZM176.055 13.2161C170.592 12.558 165.282 16.1619 164.572 22.0586L176.486 23.4938C176.429 23.9656 176.155 24.4621 175.717 24.7902C175.292 25.1076 174.867 25.1596 174.62 25.1299L176.055 13.2161ZM185.086 24.5299C185.792 18.6754 181.562 13.8795 176.055 13.2161L174.62 25.1299C174.369 25.0997 173.955 24.9432 173.609 24.5202C173.254 24.0863 173.119 23.5425 173.172 23.0947L185.086 24.5299ZM173.63 33.3516C179.114 34.0122 184.381 30.3828 185.086 24.5298L173.172 23.0947C173.23 22.6186 173.504 22.1183 173.947 21.7856C174.38 21.4609 174.815 21.4076 175.065 21.4377L173.63 33.3516ZM161.231 50.7896C160.934 53.2503 161.301 56.0776 163.115 58.4773C164.955 60.9105 167.616 62.025 170.139 62.3289L171.574 50.415C171.443 50.3992 172.103 50.4674 172.688 51.2412C173.248 51.9814 173.107 52.5361 173.145 52.2247L161.231 50.7896ZM163.42 32.6166L161.231 50.7896L173.145 52.2247L175.334 34.0517L163.42 32.6166ZM174.814 23.5228C172.266 23.2159 169.419 23.6876 167.066 25.6127C164.749 27.5084 163.716 30.1559 163.42 32.6166L175.334 34.0517C175.369 33.7639 175.369 34.3244 174.665 34.9C173.926 35.5051 173.272 35.4238 173.378 35.4366L174.814 23.5228ZM183.721 35.0621C184.021 32.5778 183.627 29.7627 181.827 27.3819C180.003 24.9696 177.361 23.8297 174.814 23.5228L173.378 35.4366C173.461 35.4466 172.819 35.3648 172.254 34.6186C171.714 33.9039 171.839 33.3628 171.808 33.6269L183.721 35.0621ZM181.532 53.2351L183.721 35.0621L171.808 33.6269L169.618 51.7999L181.532 53.2351ZM170.139 62.3289C172.662 62.6329 175.501 62.1741 177.858 60.2621C180.187 58.3722 181.233 55.7196 181.532 53.2351L169.618 51.7999C169.584 52.0876 169.586 51.5206 170.296 50.9441C171.034 50.3455 171.681 50.4279 171.574 50.415L170.139 62.3289ZM123.136 44.6522C120.282 44.3084 118.747 43.2705 117.937 42.2275C117.123 41.1795 116.43 39.3394 116.807 36.2079L104.893 34.7727C104.235 40.242 105.262 45.4718 108.459 49.5883C111.66 53.7097 116.427 55.9309 121.7 56.5661L123.136 44.6522ZM131.288 37.9523C130.909 41.0994 129.798 42.7186 128.763 43.538C127.733 44.3543 125.997 44.9969 123.136 44.6522L121.7 56.5661C126.965 57.2003 132.124 56.1855 136.216 52.9436C140.304 49.7047 142.542 44.8648 143.202 39.3874L131.288 37.9523ZM124.957 29.5317C127.725 29.8651 129.279 30.9053 130.122 31.9916C130.969 33.0833 131.651 34.9375 131.288 37.9523L143.202 39.3874C143.858 33.9436 142.783 28.7354 139.604 24.6368C136.42 20.5328 131.68 18.2547 126.392 17.6178L124.957 29.5317ZM116.807 36.2079C117.167 33.2237 118.272 31.5789 119.369 30.7082C120.463 29.8402 122.228 29.2029 124.957 29.5317L126.392 17.6178C121.113 16.9818 115.973 18.0849 111.911 21.3071C107.853 24.5266 105.55 29.322 104.893 34.7727L116.807 36.2079ZM122.442 50.4057C126 50.8343 129.212 49.4261 131.405 46.815C133.393 44.4479 134.331 41.3902 134.693 38.3865L122.779 36.9513C122.682 37.7575 122.534 38.3246 122.398 38.6925C122.261 39.0644 122.166 39.1568 122.215 39.098C122.279 39.0224 122.493 38.8073 122.886 38.6461C123.289 38.4809 123.656 38.4651 123.878 38.4919L122.442 50.4057ZM113.42 35.8239C113.062 38.8003 113.226 41.9881 114.579 44.7626C116.083 47.8465 118.877 49.9762 122.442 50.4057L123.878 38.4919C124.086 38.5169 124.44 38.616 124.802 38.8793C125.156 39.1369 125.318 39.4071 125.365 39.5028C125.401 39.5767 125.33 39.4657 125.287 39.0654C125.243 38.6698 125.236 38.0759 125.334 37.2591L113.42 35.8239ZM125.65 23.7781C122.008 23.3394 118.812 24.8631 116.677 27.4424C114.723 29.8021 113.78 32.8366 113.42 35.8239L125.334 37.2591C125.428 36.4776 125.575 35.9161 125.712 35.5435C125.851 35.166 125.953 35.0547 125.92 35.0943C125.876 35.1477 125.679 35.358 125.289 35.5236C124.883 35.6961 124.489 35.725 124.215 35.692L125.65 23.7781ZM134.693 38.3865C135.053 35.4001 134.858 32.2234 133.513 29.4621C132.04 26.4393 129.286 24.2161 125.65 23.7781L124.215 35.692C123.956 35.6608 123.588 35.5445 123.237 35.2839C122.9 35.0333 122.757 34.783 122.725 34.7179C122.702 34.6694 122.774 34.7992 122.82 35.1974C122.864 35.5904 122.873 36.1697 122.779 36.9513L134.693 38.3865ZM74.7138 52.2716C77.1598 57.8186 83.4148 61.1558 90.2997 62.0139L91.7839 50.106C89.6182 49.8361 88.0508 49.2347 87.036 48.6231C85.9851 47.9898 85.711 47.4693 85.6936 47.4299L74.7138 52.2716ZM73.9558 46.9588C73.7683 48.5159 73.8929 50.3093 74.6673 52.1633L85.7401 47.5382C85.7996 47.6806 85.8447 47.848 85.8657 48.0232C85.8861 48.1936 85.8781 48.3239 85.8697 48.394L73.9558 46.9588ZM84.3014 39.181C82.0264 38.907 79.5986 39.3559 77.5605 40.8187C75.4986 42.2986 74.248 44.5333 73.9558 46.9588L85.8697 48.3939C85.7773 49.1609 85.3434 50.0036 84.5576 50.5676C83.7957 51.1145 83.1035 51.1235 82.8662 51.0949L84.3014 39.181ZM90.6311 42.432C88.8875 40.5313 86.6949 39.4693 84.3014 39.181L82.8662 51.0949C82.762 51.0823 82.5461 51.0378 82.2897 50.908C82.0309 50.7769 81.8636 50.6262 81.788 50.5437L90.6311 42.432ZM92.4698 43.7469C92.294 43.7238 92.1233 43.6716 91.8745 43.518C91.5838 43.3385 91.1721 43.0097 90.5904 42.3881L81.8286 50.5876C83.8701 52.769 86.74 55.0972 90.9066 55.6447L92.4698 43.7469ZM91.7782 44.8751C91.7733 44.916 91.7829 44.786 91.9055 44.5691C92.0348 44.3404 92.2325 44.1183 92.4725 43.9529C92.9597 43.6172 93.1196 43.8248 92.4058 43.7389L90.9706 55.6527C93.7161 55.9835 96.7239 55.5967 99.282 53.8338C101.938 52.0035 103.342 49.2143 103.692 46.3103L91.7782 44.8751ZM92.2748 40.7524L91.7782 44.8751L103.692 46.3103L104.189 42.1876L92.2748 40.7524ZM97.3483 47.407L97.5142 47.4269L98.9493 35.5131L98.7835 35.4931L97.3483 47.407ZM88.9994 51.0645C94.607 51.74 100.615 49.5771 103.394 44.2085L92.7376 38.6916C92.8228 38.527 92.409 39.3885 90.4346 39.1506L88.9994 51.0645ZM75.0163 30.5728C74.4341 35.4059 75.0817 40.1748 77.5435 44.0572C80.1054 48.0975 84.2048 50.4869 88.9994 51.0645L90.4346 39.1506C88.8793 38.9633 88.1359 38.3536 87.6779 37.6312C87.1198 36.751 86.5705 34.9938 86.9302 32.008L75.0163 30.5728ZM93.5956 13.9075C88.8071 13.3307 84.1953 14.5402 80.67 17.9173C77.305 21.1407 75.6041 25.6935 75.0163 30.5728L86.9302 32.008C87.3157 28.8078 88.2737 27.2508 88.9711 26.5829C89.5081 26.0684 90.3621 25.6047 92.1604 25.8214L93.5956 13.9075ZM105.804 24.1689C104.33 18.6737 99.6696 14.6392 93.5956 13.9075L92.1604 25.8214C92.9304 25.9141 93.3927 26.1743 93.6599 26.4011C93.9336 26.6334 94.1195 26.9277 94.2133 27.2775L105.804 24.1689ZM100.892 19.7862L100.726 19.7662L99.2909 31.6801L99.4567 31.7001L100.892 19.7862ZM94.323 24.1489L94.2174 25.0256L106.131 26.4607L106.237 25.5841L94.323 24.1489ZM105.747 15.203C103.502 14.9326 100.775 15.2334 98.3895 16.939C95.903 18.7165 94.6544 21.3976 94.323 24.1489L106.237 25.5841C106.249 25.4851 106.248 25.6186 106.11 25.875C105.963 26.1482 105.716 26.4525 105.368 26.7011C104.666 27.2033 104.139 27.0961 104.312 27.1169L105.747 15.203ZM114.624 26.5945C114.944 23.9385 114.451 21.0518 112.495 18.7033C110.594 16.4216 107.997 15.4741 105.747 15.203L104.312 27.1169C104.478 27.1369 103.874 27.1025 103.275 26.3838C102.986 26.0364 102.827 25.6723 102.758 25.389C102.694 25.1264 102.727 25.0245 102.711 25.1593L114.624 26.5945ZM112.11 47.4685L114.624 26.5945L102.711 25.1593L100.196 46.0334L112.11 47.4685ZM90.3242 62.0169C95.5241 62.6433 100.611 62.0773 104.738 59.5309C109.082 56.8502 111.503 52.5054 112.11 47.4685L100.196 46.0334C99.9608 47.9861 99.2333 48.8267 98.4362 49.3185C97.4214 49.9447 95.3735 50.5384 91.7594 50.103L90.3242 62.0169ZM93.2906 32.9184C93.2166 33.5326 93.101 33.9096 93.022 34.1032C92.9444 34.2935 92.926 34.2511 93.0615 34.1114C93.2133 33.9549 93.463 33.7769 93.7841 33.6695C94.0942 33.5657 94.3031 33.5832 94.3259 33.586L92.8908 45.4999C96.099 45.8863 99.2924 44.9224 101.674 42.467C103.87 40.2043 104.86 37.2158 105.205 34.3536L93.2906 32.9184ZM94.4805 32.3025C94.3476 32.2865 94.0838 32.2198 93.7951 32.0242C93.5093 31.8306 93.3501 31.6131 93.2836 31.4934C93.2258 31.3894 93.2702 31.4205 93.3063 31.6697C93.3424 31.918 93.3616 32.3293 93.2906 32.9184L105.205 34.3536C105.55 31.4819 105.276 28.3695 103.774 25.6658C102.154 22.7505 99.3501 20.8024 95.9157 20.3886L94.4805 32.3025ZM95.5138 33.1862C95.5873 32.5762 95.7054 32.1695 95.8003 31.931C95.8955 31.6919 95.9441 31.6783 95.8549 31.7754C95.7518 31.8877 95.5326 32.0704 95.197 32.1944C94.8605 32.3187 94.5916 32.3159 94.4805 32.3025L95.9157 20.3886C92.4935 19.9764 89.2964 21.1768 87.0179 23.6571C84.9217 25.9389 83.9428 28.9046 83.5999 31.751L95.5138 33.1862ZM94.3259 33.586C94.3362 33.5872 94.5451 33.6175 94.8298 33.7973C95.1258 33.9843 95.3336 34.2263 95.4479 34.4235C95.5493 34.5985 95.5206 34.6379 95.4905 34.4281C95.4598 34.2148 95.4384 33.8126 95.5138 33.1862L83.5999 31.751C83.259 34.5818 83.4859 37.7157 85.066 40.4416C86.7924 43.4199 89.677 45.1127 92.8908 45.4999L94.3259 33.586Z" fill="white" mask="url(#path-4-outside-2_367_10477)"/>
</g>
<defs>
<filter id="filter0_dddd_367_10477" x="0.553072" y="0.4823" width="214.084" height="156.779" filterUnits="userSpaceOnUse" color-interpolation-filters="sRGB">
<feFlood flood-opacity="0" result="BackgroundImageFix"/>
<feColorMatrix in="SourceAlpha" type="matrix" values="0 0 0 0 0 0 0 0 0 0 0 0 0 0 0 0 0 0 127 0" result="hardAlpha"/>
<feOffset dy="2.76726"/>
<feGaussianBlur stdDeviation="1.1069"/>
<feColorMatrix type="matrix" values="0 0 0 0 0.160784 0 0 0 0 0.576471 0 0 0 0 0.0313726 0 0 0 0.0253031 0"/>
<feBlend mode="normal" in2="BackgroundImageFix" result="effect1_dropShadow_367_10477"/>
<feColorMatrix in="SourceAlpha" type="matrix" values="0 0 0 0 0 0 0 0 0 0 0 0 0 0 0 0 0 0 127 0" result="hardAlpha"/>
<feOffset dy="6.6501"/>
<feGaussianBlur stdDeviation="2.66004"/>
<feColorMatrix type="matrix" values="0 0 0 0 0.160784 0 0 0 0 0.576471 0 0 0 0 0.0313726 0 0 0 0.0363503 0"/>
<feBlend mode="normal" in2="effect1_dropShadow_367_10477" result="effect2_dropShadow_367_10477"/>
<feColorMatrix in="SourceAlpha" type="matrix" values="0 0 0 0 0 0 0 0 0 0 0 0 0 0 0 0 0 0 127 0" result="hardAlpha"/>
<feOffset dy="12.5216"/>
<feGaussianBlur stdDeviation="5.00862"/>
<feColorMatrix type="matrix" values="0 0 0 0 0.160784 0 0 0 0 0.576471 0 0 0 0 0.0313726 0 0 0 0.045 0"/>
<feBlend mode="normal" in2="effect2_dropShadow_367_10477" result="effect3_dropShadow_367_10477"/>
<feColorMatrix in="SourceAlpha" type="matrix" values="0 0 0 0 0 0 0 0 0 0 0 0 0 0 0 0 0 0 127 0" result="hardAlpha"/>
<feOffset dy="22.3363"/>
<feGaussianBlur stdDeviation="8.93452"/>
<feColorMatrix type="matrix" values="0 0 0 0 0.160784 0 0 0 0 0.576471 0 0 0 0 0.0313726 0 0 0 0.0536497 0"/>
<feBlend mode="normal" in2="effect3_dropShadow_367_10477" result="effect4_dropShadow_367_10477"/>
<feBlend mode="normal" in="SourceGraphic" in2="effect4_dropShadow_367_10477" result="shape"/>
</filter>
</defs>
</svg>
